<?xml version="1.0" encoding="utf-8"?>
<!-- Generator: Adobe Illustrator 18.1.1, SVG Export Plug-In . SVG Version: 6.00 Build 0)  -->
<svg version="1.1" id="레이어_1" xmlns="http://www.w3.org/2000/svg" xmlns:xlink="http://www.w3.org/1999/xlink" x="0px"
	 y="0px" viewBox="0 0 256.2 220.4" enable-background="new 0 0 256.2 220.4" xml:space="preserve">
<g>
	<g>
		<circle fill="#FFFFFF" cx="61.1" cy="59.3" r="20"/>
	</g>
	<g>
		<path fill="#FFFFFF" d="M67.2,75.3c0,0-3.9,9.4,0,14.2c5.2,3.1-10.9-4.8-8.8-14.2"/>
	</g>
	<g>
		<polygon fill="#FFFFFF" points="224.7,86.7 224.7,45.8 185.9,45.8 185.9,95.5 215.8,95.5 		"/>
	</g>
	<g>
		<polygon fill="#F8C7C3" points="224.4,86.9 216.2,86.9 216.2,95.5 		"/>
	</g>
	<g>
		<path fill="#464442" d="M182,220.4v-24.2c0-14.2-11.5-25.8-25.8-25.8H99.2c-14.2,0-25.8,11.5-25.8,25.8v24.2H182z"/>
	</g>
	<g>
		<path fill="#C5C4C1" d="M124.9,79.7c0-0.4,0.1-0.7,0.4-1c0.3-0.3,0.6-0.4,1-0.4c0.4,0,0.7,0.1,1,0.4c0.3,0.3,0.4,0.6,0.4,0.9
			c0,0.4-0.1,0.7-0.4,0.9c-0.3,0.3-0.6,0.4-1,0.4c-0.4,0-0.7-0.1-1-0.4C125.1,80.3,124.9,80,124.9,79.7z"/>
		<path fill="#C5C4C1" d="M124.9,74.6c0-0.4,0.1-0.7,0.4-1c0.3-0.3,0.6-0.4,1-0.4c0.4,0,0.7,0.1,1,0.4c0.3,0.3,0.4,0.6,0.4,0.9
			c0,0.4-0.1,0.7-0.4,0.9c-0.3,0.3-0.6,0.4-1,0.4c-0.4,0-0.7-0.1-1-0.4C125.1,75.2,124.9,74.9,124.9,74.6z"/>
		<path fill="#C5C4C1" d="M124.9,69.5c0-0.4,0.1-0.7,0.4-1c0.3-0.3,0.6-0.4,1-0.4c0.4,0,0.7,0.1,1,0.4c0.3,0.3,0.4,0.6,0.4,0.9
			c0,0.4-0.1,0.7-0.4,0.9c-0.3,0.3-0.6,0.4-1,0.4c-0.4,0-0.7-0.1-1-0.4C125.1,70.1,124.9,69.8,124.9,69.5z"/>
		<path fill="#C5C4C1" d="M124.9,64.3c0-0.4,0.1-0.7,0.4-1c0.3-0.3,0.6-0.4,1-0.4c0.4,0,0.7,0.1,1,0.4c0.3,0.3,0.4,0.6,0.4,0.9
			c0,0.4-0.1,0.7-0.4,0.9c-0.3,0.3-0.6,0.4-1,0.4c-0.4,0-0.7-0.1-1-0.4C125.1,64.9,124.9,64.6,124.9,64.3z"/>
	</g>
	<g>
		<path fill="#C5C4C1" d="M84.1,101.7c-0.3-0.3-0.4-0.6-0.4-1c0-0.4,0.1-0.7,0.4-1c0.3-0.3,0.6-0.4,1-0.4c0.4,0,0.7,0.1,1,0.4
			c0.3,0.3,0.4,0.6,0.4,0.9c0,0.4-0.1,0.7-0.4,1c-0.3,0.3-0.6,0.4-1,0.4S84.3,102,84.1,101.7z"/>
		<path fill="#C5C4C1" d="M80.5,98.1c-0.3-0.3-0.4-0.6-0.4-1c0-0.4,0.1-0.7,0.4-1c0.3-0.3,0.6-0.4,1-0.4c0.4,0,0.7,0.1,1,0.4
			c0.3,0.3,0.4,0.6,0.4,0.9c0,0.4-0.1,0.7-0.4,1c-0.3,0.3-0.6,0.4-1,0.4C81,98.4,80.7,98.3,80.5,98.1z"/>
		<path fill="#C5C4C1" d="M76.9,94.5c-0.3-0.3-0.4-0.6-0.4-1c0-0.4,0.1-0.7,0.4-1c0.3-0.3,0.6-0.4,1-0.4c0.4,0,0.7,0.1,1,0.4
			c0.3,0.3,0.4,0.6,0.4,0.9c0,0.4-0.1,0.7-0.4,1c-0.3,0.3-0.6,0.4-1,0.4C77.4,94.8,77.1,94.7,76.9,94.5z"/>
		<path fill="#C5C4C1" d="M73.2,90.9c-0.3-0.3-0.4-0.6-0.4-1c0-0.4,0.1-0.7,0.4-1c0.3-0.3,0.6-0.4,1-0.4c0.4,0,0.7,0.1,1,0.4
			c0.3,0.3,0.4,0.6,0.4,0.9c0,0.4-0.1,0.7-0.4,1c-0.3,0.3-0.6,0.4-1,0.4C73.7,91.2,73.4,91.1,73.2,90.9z"/>
	</g>
	<g>
		<path fill="#C5C4C1" d="M76.9,137.5c-0.4,0-0.7-0.1-1-0.4c-0.3-0.3-0.4-0.6-0.4-1c0-0.4,0.1-0.7,0.4-1c0.3-0.3,0.6-0.4,0.9-0.4
			c0.4,0,0.7,0.1,0.9,0.4c0.3,0.3,0.4,0.6,0.4,1c0,0.4-0.1,0.7-0.4,1C77.5,137.4,77.2,137.5,76.9,137.5z"/>
		<path fill="#C5C4C1" d="M71.7,137.5c-0.4,0-0.7-0.1-1-0.4c-0.3-0.3-0.4-0.6-0.4-1c0-0.4,0.1-0.7,0.4-1c0.3-0.3,0.6-0.4,0.9-0.4
			c0.4,0,0.7,0.1,0.9,0.4c0.3,0.3,0.4,0.6,0.4,1c0,0.4-0.1,0.7-0.4,1C72.3,137.4,72,137.5,71.7,137.5z"/>
		<path fill="#C5C4C1" d="M66.6,137.5c-0.4,0-0.7-0.1-1-0.4c-0.3-0.3-0.4-0.6-0.4-1c0-0.4,0.1-0.7,0.4-1c0.3-0.3,0.6-0.4,0.9-0.4
			c0.4,0,0.7,0.1,0.9,0.4c0.3,0.3,0.4,0.6,0.4,1c0,0.4-0.1,0.7-0.4,1C67.2,137.4,66.9,137.5,66.6,137.5z"/>
		<path fill="#C5C4C1" d="M61.5,137.5c-0.4,0-0.7-0.1-1-0.4c-0.3-0.3-0.4-0.6-0.4-1c0-0.4,0.1-0.7,0.4-1c0.3-0.3,0.6-0.4,0.9-0.4
			c0.4,0,0.7,0.1,0.9,0.4c0.3,0.3,0.4,0.6,0.4,1c0,0.4-0.1,0.7-0.4,1C62.1,137.4,61.8,137.5,61.5,137.5z"/>
	</g>
	<g>
		<path fill="#C5C4C1" d="M190.6,136.9c-0.4,0-0.7-0.1-1-0.4c-0.3-0.3-0.4-0.6-0.4-1c0-0.4,0.1-0.7,0.4-1c0.3-0.3,0.6-0.4,0.9-0.4
			c0.4,0,0.7,0.1,0.9,0.4c0.3,0.3,0.4,0.6,0.4,1c0,0.4-0.1,0.7-0.4,1C191.2,136.7,190.9,136.9,190.6,136.9z"/>
		<path fill="#C5C4C1" d="M185.4,136.9c-0.4,0-0.7-0.1-1-0.4c-0.3-0.3-0.4-0.6-0.4-1c0-0.4,0.1-0.7,0.4-1c0.3-0.3,0.6-0.4,0.9-0.4
			c0.4,0,0.7,0.1,0.9,0.4c0.3,0.3,0.4,0.6,0.4,1c0,0.4-0.1,0.7-0.4,1C186,136.7,185.8,136.9,185.4,136.9z"/>
		<path fill="#C5C4C1" d="M180.3,136.9c-0.4,0-0.7-0.1-1-0.4c-0.3-0.3-0.4-0.6-0.4-1c0-0.4,0.1-0.7,0.4-1c0.3-0.3,0.6-0.4,0.9-0.4
			c0.4,0,0.7,0.1,0.9,0.4c0.3,0.3,0.4,0.6,0.4,1c0,0.4-0.1,0.7-0.4,1C180.9,136.7,180.6,136.9,180.3,136.9z"/>
		<path fill="#C5C4C1" d="M175.2,136.9c-0.4,0-0.7-0.1-1-0.4c-0.3-0.3-0.4-0.6-0.4-1c0-0.4,0.1-0.7,0.4-1c0.3-0.3,0.6-0.4,0.9-0.4
			c0.4,0,0.7,0.1,0.9,0.4c0.3,0.3,0.4,0.6,0.4,1c0,0.4-0.1,0.7-0.4,1C175.8,136.7,175.5,136.9,175.2,136.9z"/>
	</g>
	<g>
		<path fill="#C5C4C1" d="M165,98.2c0.3-0.3,0.6-0.4,1-0.4c0.4,0,0.7,0.1,1,0.4c0.3,0.3,0.4,0.6,0.4,1c0,0.4-0.1,0.7-0.4,1
			c-0.3,0.3-0.6,0.4-1,0.4c-0.4,0-0.7-0.1-1-0.4c-0.3-0.3-0.4-0.6-0.4-1C164.6,98.8,164.7,98.5,165,98.2z"/>
		<path fill="#C5C4C1" d="M168.6,94.6c0.3-0.3,0.6-0.4,1-0.4c0.4,0,0.7,0.1,1,0.4c0.3,0.3,0.4,0.6,0.4,1c0,0.4-0.1,0.7-0.4,1
			c-0.3,0.3-0.6,0.4-1,0.4c-0.4,0-0.7-0.1-1-0.4c-0.3-0.3-0.4-0.6-0.4-1C168.3,95.1,168.4,94.8,168.6,94.6z"/>
		<path fill="#C5C4C1" d="M172.3,90.9c0.3-0.3,0.6-0.4,1-0.4c0.4,0,0.7,0.1,1,0.4c0.3,0.3,0.4,0.6,0.4,1c0,0.4-0.1,0.7-0.4,1
			c-0.3,0.3-0.6,0.4-1,0.4c-0.4,0-0.7-0.1-1-0.4c-0.3-0.3-0.4-0.6-0.4-1C171.9,91.5,172.1,91.2,172.3,90.9z"/>
		<path fill="#C5C4C1" d="M175.9,87.3c0.3-0.3,0.6-0.4,1-0.4c0.4,0,0.7,0.1,1,0.4c0.3,0.3,0.4,0.6,0.4,1c0,0.4-0.1,0.7-0.4,1
			c-0.3,0.3-0.6,0.4-1,0.4c-0.4,0-0.7-0.1-1-0.4c-0.3-0.3-0.4-0.6-0.4-1C175.6,87.8,175.7,87.5,175.9,87.3z"/>
	</g>
	<g>
		<path fill="#F8C7C3" d="M256.2,132.3c0,0.9-0.7,1.6-1.6,1.6h-38c-0.9,0-1.6-0.7-1.6-1.6l0,0c0-0.9,0.7-1.6,1.6-1.6h38
			C255.5,130.7,256.2,131.4,256.2,132.3L256.2,132.3z"/>
	</g>
	<g>
		<path fill="#F8C7C3" d="M245.5,121.6c0,0.9-0.7,1.6-1.6,1.6h-26.9c-0.9,0-1.6-0.7-1.6-1.6l0,0c0-0.9,0.7-1.6,1.6-1.6h26.9
			C244.8,120,245.5,120.7,245.5,121.6L245.5,121.6z"/>
	</g>
	<g>
		<path fill="#FFFFFF" d="M238.9,144.7c0,0.9-0.7,1.6-1.6,1.6h-20.7c-0.9,0-1.6-0.7-1.6-1.6l0,0c0-0.9,0.7-1.6,1.6-1.6h20.7
			C238.2,143.1,238.9,143.8,238.9,144.7L238.9,144.7z"/>
	</g>
	<g>
		<rect x="56.8" y="50.1" fill="#F8C7C3" width="6" height="8.9"/>
	</g>
	<g>
		<rect x="60.5" y="60.6" fill="#F8C7C3" width="6" height="9.2"/>
	</g>
	<g>
		<polygon fill="#F8C7C3" points="60,45.9 53.5,52.4 66.2,52.4 		"/>
	</g>
	<g>
		<polygon fill="#FCE4E5" points="56.8,59 60.5,60.6 66.5,60.6 62.9,59 		"/>
	</g>
	<g>
		<rect x="202.8" y="76.7" fill="#D7D7D5" width="15.4" height="1.5"/>
	</g>
	<g>
		<rect x="189.6" y="71.5" fill="#D7D7D5" width="18.5" height="1.5"/>
	</g>
	<g>
		<rect x="202.8" y="63.5" fill="#D7D7D5" width="18.1" height="1.5"/>
	</g>
	<g>
		<rect x="194.4" y="51.8" fill="#D7D7D5" width="11.4" height="4.9"/>
	</g>
	<g>
		<path fill="#D7D7D5" d="M205.7,91.1l1.6-3.1l-1.6-3.1h1.3l1.2,2.4l1.2-2.4h1.3l-1.6,3.1l1.6,3.1h-1.3l-1.2-2.4l-1.2,2.4H205.7z"/>
	</g>
	<g>
		<path fill="#F8C7C3" d="M207.7,121.2v-2.3h1.5v2.3h2.3v1.5h-2.3v2.3h-1.5v-2.3h-2.3v-1.5H207.7z"/>
	</g>
	<g>
		<path fill="#F8C7C3" d="M207.7,132.8v-2.3h1.5v2.3h2.3v1.5h-2.3v2.3h-1.5v-2.3h-2.3v-1.5H207.7z"/>
	</g>
	<g>
		<path fill="#FFFFFF" d="M207.7,144.2v-2.3h1.5v2.3h2.3v1.5h-2.3v2.3h-1.5v-2.3h-2.3v-1.5H207.7z"/>
	</g>
	<g>
		<path fill="#D7D7D5" d="M194.1,65.9c-0.9,0-1.4-0.5-1.4-1.4v-0.4c0-0.9,0.5-1.4,1.4-1.4c0.9,0,1.4,0.5,1.4,1.4v0.4
			C195.5,65.4,195,65.9,194.1,65.9z M193.5,64.5c0,0.4,0.2,0.6,0.6,0.6s0.6-0.2,0.6-0.6v-0.4c0-0.4-0.2-0.6-0.6-0.6
			s-0.6,0.2-0.6,0.6V64.5z M194.3,68.3l2.8-5.6h0.8l-2.8,5.6H194.3z M199.5,66.9c0,0.9-0.5,1.4-1.4,1.4c-0.9,0-1.4-0.5-1.4-1.4v-0.4
			c0-0.9,0.5-1.4,1.4-1.4c0.9,0,1.4,0.5,1.4,1.4V66.9z M197.5,66.9c0,0.4,0.2,0.6,0.6,0.6c0.4,0,0.6-0.2,0.6-0.6v-0.4
			c0-0.4-0.2-0.6-0.6-0.6c-0.4,0-0.6,0.2-0.6,0.6V66.9z"/>
	</g>
	<g>
		<g>
			<path fill="#464442" d="M158.9,160.6v-36.7c0-18.3-14.8-33.1-33.1-33.1c-18.3,0-33.1,14.8-33.1,33.1v36.7H158.9z"/>
		</g>
		<g>
			<path fill="#FBDDDC" d="M155.2,134.6c0,16.2-13.1,29.4-29.4,29.4l0,0c-16.2,0-29.4-13.1-29.4-29.4v-11.8
				c0-16.2,13.2-29.4,29.4-29.4l0,0c16.2,0,29.4,13.1,29.4,29.4V134.6z"/>
		</g>
		<g>
			<path fill="#F4AAAA" d="M125.1,122.9"/>
		</g>
		<g>
			<path fill="#464442" d="M132.5,92.5c-1.9-0.5-3.9-0.7-5.9-0.8c-0.4,0-0.8,0-1.3,0c-16.8,0-30.4,13.6-30.4,30.4v9.6
				c15.5,0,28.8-9.4,34.6-22.8c4.7,10.9,14.4,19.2,26.2,21.9V122C155.7,107.7,145.8,95.7,132.5,92.5z"/>
		</g>
	</g>
	<g>
		<path fill="#646360" d="M126.7,151c0,0.4-0.4,0.8-0.8,0.8l0,0c-0.4,0-0.8-0.4-0.8-0.8v-19.4c0-0.4,0.4-0.8,0.8-0.8l0,0
			c0.4,0,0.8,0.4,0.8,0.8V151z"/>
	</g>
	<g>
		<g>
			<polygon fill="#FFFFFF" points="114.5,34.7 114.5,42.3 118.8,42.3 			"/>
		</g>
		<g>
			<polygon fill="#FFFFFF" points="114.5,49.5 114.5,42.3 110.1,42.3 			"/>
		</g>
		<g>
			<polygon fill="#FFFFFF" points="140.3,38 140.3,47 145.3,47 			"/>
		</g>
		<g>
			<polygon fill="#FFFFFF" points="140.3,55.5 140.3,47 135,47 			"/>
		</g>
		<g>
			<path fill="#F8C7C3" d="M147,5.7c-1.9-0.3-3.7-0.1-5.4,0.4c-2.1-3.7-6.1-6.1-10.6-6.1c-4.4,0-8.3,2.4-10.5,5.9
				c-0.9-0.2-1.8-0.3-2.8-0.3c-6.8,0-12.3,5.5-12.3,12.3c0,6.8,5.5,12.3,12.3,12.3c0.5,0,1.1-0.1,1.6-0.1c-0.7-1.6-1.1-3.4-1.1-5.2
				c0-0.3,0.2-0.5,0.5-0.5c0.3,0,0.5,0.2,0.5,0.5c0,6.5,5.3,11.8,11.8,11.8c6.5,0,11.8-5.3,11.8-11.8c0-0.3,0.2-0.5,0.5-0.5
				c0.3,0,0.5,0.2,0.5,0.5c0,1.8-0.4,3.5-1,5.1c0.2,0,0.5,0.1,0.7,0.1c6.7,1,12.9-3.6,14-10.3C158.3,13,153.7,6.8,147,5.7z"/>
		</g>
	</g>
	<g>
		<polygon fill="#FFFFFF" points="144.6,170.4 125.9,190.3 107.1,170.4 		"/>
	</g>
	<g>
		<polygon fill="#FBDDDC" points="138.2,170.4 125.9,183.4 113.6,170.4 		"/>
	</g>
	<g>
		<path fill="#FFFFFF" d="M33.6,121c0,6-4.8,10.8-10.8,10.8l0,0c-6,0-10.8-4.8-10.8-10.8v-6.6c0-6,4.8-10.8,10.8-10.8l0,0
			c6,0,10.8,4.8,10.8,10.8V121z"/>
	</g>
	<g>
		<path fill="#F8C7C3" d="M12.1,113.3c0-5.9,4.8-10.7,10.7-10.7l0,0c5.9,0,10.7,4.8,10.7,10.7"/>
	</g>
	<g>
		<path fill="#D7D7D5" d="M24.8,118.7c0.2,1.1,1.6,1.8,3,1.4l0,0c1.4-0.3,2.4-1.4,2.2-2.6"/>
	</g>
	<g>
		<path fill="#D7D7D5" d="M15.6,117.6c-0.3,1.1,0.7,2.3,2.1,2.6l0,0c1.4,0.3,2.8-0.3,3.1-1.4"/>
	</g>
	<g>
		<path fill="#F8C7C3" d="M36.9,112.7c0,0.3-0.2,0.6-0.6,0.6h-10c-0.3,0-0.6-0.2-0.6-0.6l0,0c0-0.3,0.2-0.6,0.6-0.6h10
			C36.7,112.2,36.9,112.4,36.9,112.7L36.9,112.7z"/>
	</g>
	<g>
		<g>
			<path fill="#FFFFFF" d="M26.8,126.3c0,5.7-0.3,9.5,9.3,10.4c9.4,0.9,9.4,8.4,9.4,10.3H20.8v-20.7H26.8z"/>
		</g>
		<g>
			<path fill="#FFFFFF" d="M18.7,126.3c0,5.7,0.3,9.5-9.3,10.4C0,137.6,0,145.1,0,147h24.7v-20.7H18.7z"/>
		</g>
	</g>
</g>
</svg>
