<?xml version="1.0" encoding="utf-8"?>
<!-- Generator: Adobe Illustrator 18.1.1, SVG Export Plug-In . SVG Version: 6.00 Build 0)  -->
<svg version="1.1" id="레이어_1" xmlns="http://www.w3.org/2000/svg" xmlns:xlink="http://www.w3.org/1999/xlink" x="0px"
	 y="0px" viewBox="0 0 511 134.3" enable-background="new 0 0 511 134.3" xml:space="preserve">
<g>
	<g>
		<g>
			<path fill="#EAA293" d="M48,59.9c-0.4,0-0.8-0.1-1.1-0.4L16.5,32.3c-0.3-0.3-0.5-0.6-0.5-1c0-0.4,0.2-0.8,0.5-1L46.9,3.1
				c0.6-0.5,1.6-0.5,2.2,0l30.5,27.2c0.3,0.3,0.5,0.6,0.5,1c0,0.4-0.2,0.8-0.5,1L49.1,59.5C48.8,59.7,48.4,59.9,48,59.9z M19.8,31.3
				L48,56.4l28.2-25.2L48,6.1L19.8,31.3z"/>
		</g>
		<g>
			<path fill="#EAA293" d="M48,107.7c-0.4,0-0.8-0.1-1.1-0.4L16.5,80.1c-0.6-0.6-0.6-1.5,0-2c0.6-0.6,1.6-0.6,2.2,0L48,104.2
				L77.4,78c0.6-0.6,1.6-0.5,2.2,0c0.6,0.6,0.6,1.5,0,2l-30.5,27.2C48.8,107.5,48.4,107.7,48,107.7z"/>
		</g>
		<g>
			<rect x="16" y="31.3" fill="#EAA293" width="3.1" height="47.8"/>
		</g>
		<g>
			<rect x="76.9" y="31.3" fill="#EAA293" width="3.1" height="47.8"/>
		</g>
		<g>
			<rect x="46.5" y="57.5" fill="#EAA293" width="3.1" height="47.8"/>
		</g>
		<g>
			<polygon fill="#EAA293" points="31.1,64.7 24.7,59 24.7,52.1 31.1,57.9 			"/>
		</g>
		<g>
			<polygon fill="#EAA293" points="37.5,83.6 31.1,77.9 31.1,71 37.5,76.7 			"/>
		</g>
		<g>
			<polygon fill="#EAA293" points="55.3,71.5 61.7,65.8 61.7,58.9 55.3,64.7 			"/>
		</g>
		<g>
			<polygon fill="#EAA293" points="64.1,81.7 70.5,75.9 70.5,69.1 64.1,74.8 			"/>
		</g>
	</g>
	<g>
		<g>
			<path fill="#EAA293" d="M241.1,61.8c-0.4,0-0.8-0.1-1.1-0.4l-29.8-28.8c-0.3-0.3-0.5-0.7-0.5-1.1c0-0.4,0.2-0.8,0.5-1.1L240,1.6
				c0.6-0.6,1.5-0.6,2.1,0L272,30.4c0.3,0.3,0.5,0.7,0.5,1.1c0,0.4-0.2,0.8-0.5,1.1l-29.8,28.8C241.9,61.7,241.5,61.8,241.1,61.8z
				 M213.5,31.5l27.6,26.7l27.6-26.7L241.1,4.8L213.5,31.5z"/>
		</g>
		<g>
			<path fill="#EAA293" d="M211.3,88.3"/>
		</g>
		<g>
			<path fill="#EAA293" d="M270.9,88.3"/>
		</g>
		<g>
			<rect x="209.8" y="31.5" fill="#EAA293" width="3.1" height="56.8"/>
		</g>
		<g>
			<rect x="269.4" y="31.5" fill="#EAA293" width="3.1" height="56.8"/>
		</g>
		<g>
			<rect x="209.8" y="85.4" fill="#EAA293" width="62.7" height="3.1"/>
		</g>
		<g>
			<rect x="212.8" y="31.5" fill="#EAA293" width="56.6" height="1.5"/>
		</g>
	</g>
	<g>
		<g>
			<path fill="#EAA293" d="M438.7,63.2c-0.4,0-0.8-0.1-1.1-0.4L406.9,33c-0.3-0.3-0.5-0.7-0.5-1.1c0-0.4,0.2-0.8,0.5-1.1l30.7-29.7
				c0.6-0.6,1.6-0.6,2.2,0l30.7,29.7c0.3,0.3,0.5,0.7,0.5,1.1c0,0.4-0.2,0.8-0.5,1.1l-30.7,29.7C439.5,63,439.1,63.2,438.7,63.2z
				 M410.3,31.9l28.5,27.5l28.5-27.5L438.7,4.4L410.3,31.9z"/>
		</g>
		<g>
			<line fill="#EAA293" x1="406.4" y1="32.4" x2="409.6" y2="32.4"/>
		</g>
		<g>
			<line fill="#EAA293" x1="467.9" y1="32.4" x2="471.1" y2="32.4"/>
		</g>
		<g>
			<path fill="#EAA293" d="M409.6,89.1c0,0.9-0.7,1.6-1.6,1.6l0,0c-0.9,0-1.6-0.7-1.6-1.6V32.4c0-0.9,0.7-1.6,1.6-1.6l0,0
				c0.9,0,1.6,0.7,1.6,1.6V89.1z"/>
		</g>
		<g>
			<path fill="#EAA293" d="M471.1,89.1c0,0.9-0.7,1.6-1.6,1.6l0,0c-0.9,0-1.6-0.7-1.6-1.6V32.4c0-0.9,0.7-1.6,1.6-1.6l0,0
				c0.9,0,1.6,0.7,1.6,1.6V89.1z"/>
		</g>
	</g>
	<g>
		<rect x="140.4" y="42.6" fill="#EAA293" width="3.2" height="18.3"/>
		<rect x="132.9" y="50.2" fill="#EAA293" width="18.3" height="3.2"/>
	</g>
	<g>
		<rect x="328.5" y="45.8" fill="#EAA293" width="18.3" height="3.2"/>
		<rect x="328.5" y="54.5" fill="#EAA293" width="18.3" height="3.2"/>
	</g>
	<g>
		<path fill="#EAA293" d="M9.3,127H4l-1.2,3.3H0.7l4.8-12.6h2.4l4.8,12.6h-2.2L9.3,127z M8.7,125.3l-1.5-4l-0.6-1.8H6.6l-0.5,1.8
			l-1.5,4.1H8.7z"/>
		<path fill="#EAA293" d="M24,125.5c0,3.1-1.6,5-4.2,5c-1.4,0-2.5-0.7-3.1-1.7v5.5h-2v-13.6h1.8l0.1,1.8c0.6-1.2,1.7-2,3.2-2
			C22.4,120.5,24,122.4,24,125.5z M21.9,125.5c0-2.1-1-3.3-2.6-3.3c-1.5,0-2.5,1.1-2.6,3v0.7c0.1,1.8,1.1,2.9,2.6,2.9
			C20.9,128.8,21.9,127.6,21.9,125.5z"/>
		<path fill="#EAA293" d="M35.6,128.9l-0.1,1.4c-0.3,0.1-0.7,0.2-1.2,0.2c-1.1,0-1.7-0.4-1.9-1.4c-0.6,0.9-1.8,1.4-3.2,1.4
			c-1.8,0-3.1-0.8-3.1-2.5c0-1.5,1.2-2.6,3.7-3l2.4-0.4V124c0-1.1-0.7-1.9-1.9-1.9c-1.2,0-2.1,0.5-2.5,1.7l-1.6-0.8
			c0.5-1.5,1.9-2.5,4-2.5c2.4,0,4,1.1,4,3.4v4.3c0,0.5,0.2,0.7,0.7,0.7C35.1,128.9,35.4,128.9,35.6,128.9z M32.1,127.1V126l-2.1,0.4
			c-1.3,0.2-1.9,0.7-1.9,1.5c0,0.7,0.5,1.1,1.4,1.1C30.8,128.9,32.1,128.3,32.1,127.1z"/>
		<path fill="#EAA293" d="M43.5,120.7l-0.3,1.9c-0.3-0.2-0.7-0.2-1.2-0.2c-1.1,0-2.4,0.9-2.4,2.9v5.1h-2v-9.6h1.7l0.2,1.7
			c0.5-1.2,1.5-1.9,3-1.9C42.8,120.5,43.2,120.6,43.5,120.7z"/>
		<path fill="#EAA293" d="M51.1,129.6c-0.6,0.5-1.5,0.8-2.5,0.8c-1.6,0-2.9-0.7-2.9-2.7v-5.4h-1.8v-1.6h1.8v-2.2l2-0.6v2.8h3.3v1.6
			h-3.3v5.1c0,0.9,0.6,1.4,1.4,1.4c0.6,0,1.1-0.2,1.5-0.6L51.1,129.6z"/>
		<path fill="#EAA293" d="M68.1,124.1v6.2h-2v-5.9c0-1.6-0.8-2.2-2-2.2c-1.3,0-2.5,1-2.5,2.9v5.2h-2v-5.9c0-1.6-0.8-2.2-2-2.2
			c-1.1,0-2.5,0.8-2.5,3v5.1h-2v-9.6h1.8l0.1,1.6c0.7-1.2,1.9-1.8,3.1-1.8c1.4,0,2.6,0.6,3.2,1.9c0.6-1.3,2-1.9,3.3-1.9
			C66.4,120.5,68.1,121.7,68.1,124.1z"/>
		<path fill="#EAA293" d="M79.6,126.3h-7c0.2,1.7,1.2,2.6,2.8,2.6c1.3,0,2.1-0.5,2.4-1.3l1.7,0.7c-0.7,1.4-2,2.2-4.1,2.2
			c-3,0-4.8-1.9-4.8-5c0-3.1,1.7-5,4.7-5c2.9,0,4.4,1.9,4.4,4.7C79.7,125.6,79.7,126,79.6,126.3z M72.6,124.7h5.2
			c-0.2-1.6-1.1-2.5-2.5-2.5C73.8,122.2,72.9,123.1,72.6,124.7z"/>
		<path fill="#EAA293" d="M91,124.1v6.2h-2v-5.5c0-1.9-0.9-2.5-2-2.5c-1.3,0-2.6,0.8-2.6,3v5.1h-2v-9.6h1.8l0.1,1.6
			c0.6-1.2,1.9-1.8,3.2-1.8C89.4,120.5,91,121.7,91,124.1z"/>
		<path fill="#EAA293" d="M100.2,129.6c-0.6,0.5-1.5,0.8-2.5,0.8c-1.6,0-2.9-0.7-2.9-2.7v-5.4h-1.8v-1.6h1.8v-2.2l2-0.6v2.8h3.3v1.6
			h-3.3v5.1c0,0.9,0.6,1.4,1.4,1.4c0.6,0,1.1-0.2,1.5-0.6L100.2,129.6z"/>
	</g>
	<g>
		<path fill="#EAA293" d="M194.2,123c0,4.1-2.3,6.3-6.3,6.3h-4.5v-12.6h4.5C191.9,116.7,194.2,118.9,194.2,123z M192,123
			c0-2.9-1.5-4.6-4.1-4.6h-2.4v9.1h2.4C190.6,127.5,192,125.9,192,123z"/>
		<path fill="#EAA293" d="M205.9,124.5c0,3.1-1.8,5-4.8,5c-3,0-4.8-1.9-4.8-5c0-3.1,1.8-5,4.8-5
			C204.1,119.5,205.9,121.4,205.9,124.5z M198.4,124.5c0,2.2,1,3.4,2.7,3.4c1.7,0,2.7-1.2,2.7-3.4c0-2.2-1-3.4-2.7-3.4
			C199.4,121.1,198.4,122.3,198.4,124.5z"/>
		<path fill="#EAA293" d="M216.8,122.2l-1.9,0.8c-0.3-1.2-1.1-1.8-2.2-1.8c-1.7,0-2.7,1.2-2.7,3.4c0,2.2,1,3.3,2.7,3.3
			c1.3,0,2.1-0.7,2.3-1.9l1.9,0.6c-0.5,1.7-2,2.8-4.2,2.8c-3,0-4.8-1.9-4.8-5c0-3.1,1.8-5,4.8-5C215,119.5,216.3,120.6,216.8,122.2z
			"/>
		<path fill="#EAA293" d="M228,119.7v9.6h-1.8l-0.1-1.5c-0.7,1.2-1.9,1.7-3.4,1.7c-1.9,0-3.4-1-3.4-3.5v-6.3h2v5.8
			c0,1.8,0.8,2.3,2,2.3c1.5,0,2.7-0.9,2.7-2.9v-5.2H228z"/>
		<path fill="#EAA293" d="M246.2,123.1v6.2h-2v-5.9c0-1.6-0.8-2.2-2-2.2c-1.3,0-2.5,1-2.5,2.9v5.2h-2v-5.9c0-1.6-0.8-2.2-2-2.2
			c-1.1,0-2.5,0.8-2.5,3v5.1h-2v-9.6h1.8l0.1,1.6c0.7-1.2,1.9-1.8,3.1-1.8c1.4,0,2.6,0.6,3.2,1.9c0.6-1.3,2-1.9,3.3-1.9
			C244.5,119.5,246.2,120.7,246.2,123.1z"/>
		<path fill="#EAA293" d="M257.7,125.3h-7c0.2,1.7,1.2,2.6,2.8,2.6c1.3,0,2.1-0.5,2.4-1.3l1.7,0.7c-0.7,1.4-2,2.2-4.1,2.2
			c-3,0-4.8-1.9-4.8-5c0-3.1,1.7-5,4.7-5c2.9,0,4.4,1.9,4.4,4.7C257.8,124.6,257.8,125,257.7,125.3z M250.7,123.7h5.2
			c-0.2-1.6-1.1-2.5-2.5-2.5C251.9,121.2,251,122.1,250.7,123.7z"/>
		<path fill="#EAA293" d="M269.1,123.1v6.2h-2v-5.5c0-1.9-0.9-2.5-2-2.5c-1.3,0-2.6,0.8-2.6,3v5.1h-2v-9.6h1.8l0.1,1.6
			c0.6-1.2,1.9-1.8,3.2-1.8C267.5,119.5,269.1,120.7,269.1,123.1z"/>
		<path fill="#EAA293" d="M278.3,128.6c-0.6,0.5-1.5,0.8-2.5,0.8c-1.6,0-2.9-0.7-2.9-2.7v-5.4H271v-1.6h1.8v-2.2l2-0.6v2.8h3.3v1.6
			h-3.3v5.1c0,0.9,0.6,1.4,1.4,1.4c0.6,0,1.1-0.2,1.5-0.6L278.3,128.6z"/>
		<path fill="#EAA293" d="M289.2,127.9l-0.1,1.4c-0.3,0.1-0.7,0.2-1.2,0.2c-1.1,0-1.7-0.4-1.9-1.4c-0.6,0.9-1.8,1.4-3.2,1.4
			c-1.8,0-3.1-0.8-3.1-2.5c0-1.5,1.2-2.6,3.7-3l2.4-0.4V123c0-1.1-0.7-1.9-1.9-1.9c-1.2,0-2.1,0.5-2.5,1.7l-1.6-0.8
			c0.5-1.5,1.9-2.5,4-2.5c2.4,0,4,1.1,4,3.4v4.3c0,0.5,0.2,0.7,0.7,0.7C288.7,127.9,289,127.9,289.2,127.9z M285.7,126.1V125
			l-2.1,0.4c-1.3,0.2-1.9,0.7-1.9,1.5c0,0.7,0.5,1.1,1.4,1.1C284.4,127.9,285.7,127.3,285.7,126.1z"/>
		<path fill="#EAA293" d="M297.1,119.7l-0.3,1.9c-0.3-0.2-0.7-0.2-1.2-0.2c-1.1,0-2.4,0.9-2.4,2.9v5.1h-2v-9.6h1.7l0.2,1.7
			c0.5-1.2,1.5-1.9,3-1.9C296.4,119.5,296.8,119.6,297.1,119.7z"/>
		<path fill="#EAA293" d="M303.5,130.4c-0.8,2.2-1.8,3-3.5,3c-1,0-1.7-0.2-2.3-0.8l0.6-1.6c0.4,0.5,1,0.7,1.6,0.7
			c0.7,0,1.2-0.3,1.7-1.4l0.4-1l-1-2.4l-3-7.2h2.3l2.1,6l0.6,1.8l0.6-2l2-5.8h2.1L303.5,130.4z"/>
	</g>
	<g>
		<path fill="#EAA293" d="M385.1,126h-5.3l-1.2,3.3h-2.1l4.8-12.6h2.4l4.8,12.6h-2.2L385.1,126z M384.5,124.3l-1.5-4l-0.6-1.8h-0.1
			l-0.5,1.8l-1.5,4.1H384.5z"/>
		<path fill="#EAA293" d="M399.7,124.5c0,3.1-1.6,5-4.2,5c-1.4,0-2.5-0.7-3.1-1.7v5.5h-2v-13.6h1.8l0.1,1.8c0.6-1.2,1.7-2,3.2-2
			C398.1,119.5,399.7,121.4,399.7,124.5z M397.7,124.5c0-2.1-1-3.3-2.6-3.3c-1.5,0-2.5,1.1-2.6,3v0.7c0.1,1.8,1.1,2.9,2.6,2.9
			C396.7,127.8,397.7,126.6,397.7,124.5z"/>
		<path fill="#EAA293" d="M411.3,127.9l-0.1,1.4c-0.3,0.1-0.7,0.2-1.2,0.2c-1.1,0-1.7-0.4-1.9-1.4c-0.6,0.9-1.8,1.4-3.2,1.4
			c-1.8,0-3.1-0.8-3.1-2.5c0-1.5,1.2-2.6,3.7-3l2.4-0.4V123c0-1.1-0.7-1.9-1.9-1.9c-1.2,0-2.1,0.5-2.5,1.7l-1.6-0.8
			c0.5-1.5,1.9-2.5,4-2.5c2.4,0,4,1.1,4,3.4v4.3c0,0.5,0.2,0.7,0.7,0.7C410.9,127.9,411.1,127.9,411.3,127.9z M407.9,126.1V125
			l-2.1,0.4c-1.3,0.2-1.9,0.7-1.9,1.5c0,0.7,0.5,1.1,1.4,1.1C406.5,127.9,407.9,127.3,407.9,126.1z"/>
		<path fill="#EAA293" d="M419.2,119.7l-0.3,1.9c-0.3-0.2-0.7-0.2-1.2-0.2c-1.1,0-2.4,0.9-2.4,2.9v5.1h-2v-9.6h1.7l0.2,1.7
			c0.5-1.2,1.5-1.9,3-1.9C418.6,119.5,419,119.6,419.2,119.7z"/>
		<path fill="#EAA293" d="M426.9,128.6c-0.6,0.5-1.5,0.8-2.5,0.8c-1.6,0-2.9-0.7-2.9-2.7v-5.4h-1.8v-1.6h1.8v-2.2l2-0.6v2.8h3.3v1.6
			h-3.3v5.1c0,0.9,0.6,1.4,1.4,1.4c0.6,0,1.1-0.2,1.5-0.6L426.9,128.6z"/>
		<path fill="#EAA293" d="M431.5,120.9c0,0.8-0.6,1.4-1.4,1.4c-0.9,0-1.5-0.5-1.5-1.4c0-0.9,0.6-1.4,1.5-1.4
			C430.9,119.5,431.5,120.1,431.5,120.9z M431.5,128.1c0,0.8-0.6,1.4-1.4,1.4c-0.9,0-1.5-0.6-1.5-1.4c0-0.8,0.6-1.4,1.5-1.4
			C430.9,126.7,431.5,127.2,431.5,128.1z"/>
		<path fill="#EAA293" d="M449.5,123.1v6.2h-2v-5.9c0-1.6-0.8-2.2-2-2.2c-1.3,0-2.5,1-2.5,2.9v5.2h-2v-5.9c0-1.6-0.8-2.2-2-2.2
			c-1.1,0-2.5,0.8-2.5,3v5.1h-2v-9.6h1.8l0.1,1.6c0.7-1.2,1.9-1.8,3.1-1.8c1.4,0,2.6,0.6,3.2,1.9c0.6-1.3,2-1.9,3.3-1.9
			C447.8,119.5,449.5,120.7,449.5,123.1z"/>
		<path fill="#EAA293" d="M461.1,125.3h-7c0.2,1.7,1.2,2.6,2.8,2.6c1.3,0,2.1-0.5,2.4-1.3l1.7,0.7c-0.7,1.4-2,2.2-4.1,2.2
			c-3,0-4.8-1.9-4.8-5c0-3.1,1.7-5,4.7-5c2.9,0,4.4,1.9,4.4,4.7C461.2,124.6,461.1,125,461.1,125.3z M454.1,123.7h5.2
			c-0.2-1.6-1.1-2.5-2.5-2.5C455.2,121.2,454.3,122.1,454.1,123.7z"/>
		<path fill="#EAA293" d="M472.4,123.1v6.2h-2v-5.5c0-1.9-0.9-2.5-2-2.5c-1.3,0-2.6,0.8-2.6,3v5.1h-2v-9.6h1.8l0.1,1.6
			c0.6-1.2,1.9-1.8,3.2-1.8C470.9,119.5,472.4,120.7,472.4,123.1z"/>
		<path fill="#EAA293" d="M481.6,128.6c-0.6,0.5-1.5,0.8-2.5,0.8c-1.6,0-2.9-0.7-2.9-2.7v-5.4h-1.8v-1.6h1.8v-2.2l2-0.6v2.8h3.3v1.6
			h-3.3v5.1c0,0.9,0.6,1.4,1.4,1.4c0.6,0,1.1-0.2,1.5-0.6L481.6,128.6z"/>
		<path fill="#EAA293" d="M492.5,127.9l-0.1,1.4c-0.3,0.1-0.7,0.2-1.2,0.2c-1.1,0-1.7-0.4-1.9-1.4c-0.6,0.9-1.8,1.4-3.2,1.4
			c-1.8,0-3.1-0.8-3.1-2.5c0-1.5,1.2-2.6,3.7-3l2.4-0.4V123c0-1.1-0.7-1.9-1.9-1.9c-1.2,0-2.1,0.5-2.5,1.7l-1.6-0.8
			c0.5-1.5,1.9-2.5,4-2.5c2.4,0,4,1.1,4,3.4v4.3c0,0.5,0.2,0.7,0.7,0.7C492.1,127.9,492.3,127.9,492.5,127.9z M489.1,126.1V125
			l-2.1,0.4c-1.3,0.2-1.9,0.7-1.9,1.5c0,0.7,0.5,1.1,1.4,1.1C487.8,127.9,489.1,127.3,489.1,126.1z"/>
		<path fill="#EAA293" d="M500.5,119.7l-0.3,1.9c-0.3-0.2-0.7-0.2-1.2-0.2c-1.1,0-2.4,0.9-2.4,2.9v5.1h-2v-9.6h1.7l0.2,1.7
			c0.5-1.2,1.5-1.9,3-1.9C499.8,119.5,500.2,119.6,500.5,119.7z"/>
		<path fill="#EAA293" d="M506.8,130.4c-0.8,2.2-1.8,3-3.5,3c-1,0-1.7-0.2-2.3-0.8l0.6-1.6c0.4,0.5,1,0.7,1.6,0.7
			c0.7,0,1.2-0.3,1.7-1.4l0.4-1l-1-2.4l-3-7.2h2.3l2.1,6l0.6,1.8l0.6-2l2-5.8h2.1L506.8,130.4z"/>
	</g>
</g>
<g>
	<g>
		<g>
			<path fill="#FFFFFF" d="M47.3,59.3c-0.4,0-0.8-0.1-1.1-0.4L15.8,31.7c-0.3-0.3-0.5-0.6-0.5-1c0-0.4,0.2-0.8,0.5-1L46.2,2.5
				c0.6-0.5,1.6-0.5,2.2,0l30.5,27.2c0.3,0.3,0.5,0.6,0.5,1c0,0.4-0.2,0.8-0.5,1L48.4,58.8C48.1,59.1,47.7,59.3,47.3,59.3z
				 M19.1,30.7l28.2,25.2l28.2-25.2L47.3,5.5L19.1,30.7z"/>
		</g>
		<g>
			<path fill="#FFFFFF" d="M47.3,107c-0.4,0-0.8-0.1-1.1-0.4L15.8,79.5c-0.6-0.6-0.6-1.5,0-2c0.6-0.6,1.6-0.6,2.2,0l29.4,26.2
				l29.4-26.2c0.6-0.6,1.6-0.5,2.2,0c0.6,0.6,0.6,1.5,0,2l-30.5,27.2C48.1,106.9,47.7,107,47.3,107z"/>
		</g>
		<g>
			<rect x="15.3" y="30.7" fill="#FFFFFF" width="3.1" height="47.8"/>
		</g>
		<g>
			<rect x="76.2" y="30.7" fill="#FFFFFF" width="3.1" height="47.8"/>
		</g>
		<g>
			<rect x="45.8" y="56.9" fill="#FFFFFF" width="3.1" height="47.8"/>
		</g>
		<g>
			<polygon fill="#FFFFFF" points="30.4,64.1 24,58.4 24,51.5 30.4,57.3 			"/>
		</g>
		<g>
			<polygon fill="#FFFFFF" points="36.8,83 30.4,77.2 30.4,70.4 36.8,76.1 			"/>
		</g>
		<g>
			<polygon fill="#FFFFFF" points="54.6,70.9 61,65.2 61,58.3 54.6,64.1 			"/>
		</g>
		<g>
			<polygon fill="#FFFFFF" points="63.4,81.1 69.8,75.3 69.8,68.5 63.4,74.2 			"/>
		</g>
	</g>
	<g>
		<g>
			<path fill="#FFFFFF" d="M240.4,61.2c-0.4,0-0.8-0.1-1.1-0.4L209.5,32c-0.3-0.3-0.5-0.7-0.5-1.1c0-0.4,0.2-0.8,0.5-1.1L239.3,1
				c0.6-0.6,1.5-0.6,2.1,0l29.8,28.8c0.3,0.3,0.5,0.7,0.5,1.1c0,0.4-0.2,0.8-0.5,1.1l-29.8,28.8C241.2,61.1,240.8,61.2,240.4,61.2z
				 M212.8,30.9l27.6,26.7L268,30.9L240.4,4.2L212.8,30.9z"/>
		</g>
		<g>
			<path fill="#FFFFFF" d="M210.6,87.7"/>
		</g>
		<g>
			<path fill="#FFFFFF" d="M270.2,87.7"/>
		</g>
		<g>
			<rect x="209" y="30.9" fill="#FFFFFF" width="3.1" height="56.8"/>
		</g>
		<g>
			<rect x="268.7" y="30.9" fill="#FFFFFF" width="3.1" height="56.8"/>
		</g>
		<g>
			<rect x="209" y="84.8" fill="#FFFFFF" width="62.7" height="3.1"/>
		</g>
		<g>
			<rect x="212.1" y="30.9" fill="#FFFFFF" width="56.6" height="1.5"/>
		</g>
	</g>
	<g>
		<g>
			<path fill="#FFFFFF" d="M438,62.5c-0.4,0-0.8-0.1-1.1-0.4l-30.7-29.7c-0.3-0.3-0.5-0.7-0.5-1.1c0-0.4,0.2-0.8,0.5-1.1l30.7-29.7
				c0.6-0.6,1.6-0.6,2.2,0l30.7,29.7c0.3,0.3,0.5,0.7,0.5,1.1c0,0.4-0.2,0.8-0.5,1.1l-30.7,29.7C438.8,62.4,438.4,62.5,438,62.5z
				 M409.6,31.3L438,58.8l28.5-27.5L438,3.8L409.6,31.3z"/>
		</g>
		<g>
			<line fill="#FFFFFF" x1="405.7" y1="31.8" x2="408.9" y2="31.8"/>
		</g>
		<g>
			<line fill="#FFFFFF" x1="467.2" y1="31.8" x2="470.4" y2="31.8"/>
		</g>
		<g>
			<path fill="#FFFFFF" d="M408.9,88.4c0,0.9-0.7,1.6-1.6,1.6l0,0c-0.9,0-1.6-0.7-1.6-1.6V31.8c0-0.9,0.7-1.6,1.6-1.6l0,0
				c0.9,0,1.6,0.7,1.6,1.6V88.4z"/>
		</g>
		<g>
			<path fill="#FFFFFF" d="M470.4,88.4c0,0.9-0.7,1.6-1.6,1.6l0,0c-0.9,0-1.6-0.7-1.6-1.6V31.8c0-0.9,0.7-1.6,1.6-1.6l0,0
				c0.9,0,1.6,0.7,1.6,1.6V88.4z"/>
		</g>
	</g>
	<g>
		<rect x="139.7" y="42" fill="#FFFFFF" width="3.2" height="18.3"/>
		<rect x="132.2" y="49.6" fill="#FFFFFF" width="18.3" height="3.2"/>
	</g>
	<g>
		<rect x="327.8" y="45.2" fill="#FFFFFF" width="18.3" height="3.2"/>
		<rect x="327.8" y="53.9" fill="#FFFFFF" width="18.3" height="3.2"/>
	</g>
	<g>
		<path fill="#FFFFFF" d="M8.6,126.4H3.3l-1.2,3.3H0l4.8-12.6h2.4l4.8,12.6H9.8L8.6,126.4z M8,124.7l-1.5-4L6,118.8H5.9l-0.5,1.8
			l-1.5,4.1H8z"/>
		<path fill="#FFFFFF" d="M23.3,124.9c0,3.1-1.6,5-4.2,5c-1.4,0-2.5-0.7-3.1-1.7v5.5h-2v-13.6h1.8l0.1,1.8c0.6-1.2,1.7-2,3.2-2
			C21.6,119.9,23.3,121.8,23.3,124.9z M21.2,124.9c0-2.1-1-3.3-2.6-3.3c-1.5,0-2.5,1.1-2.6,3v0.7c0.1,1.8,1.1,2.9,2.6,2.9
			C20.2,128.2,21.2,127,21.2,124.9z"/>
		<path fill="#FFFFFF" d="M34.9,128.3l-0.1,1.4c-0.3,0.1-0.7,0.2-1.2,0.2c-1.1,0-1.7-0.4-1.9-1.4c-0.6,0.9-1.8,1.4-3.2,1.4
			c-1.8,0-3.1-0.8-3.1-2.5c0-1.5,1.2-2.6,3.7-3l2.4-0.4v-0.5c0-1.1-0.7-1.9-1.9-1.9c-1.2,0-2.1,0.5-2.5,1.7l-1.6-0.8
			c0.5-1.5,1.9-2.5,4-2.5c2.4,0,4,1.1,4,3.4v4.3c0,0.5,0.2,0.7,0.7,0.7C34.4,128.3,34.7,128.3,34.9,128.3z M31.4,126.5v-1.1
			l-2.1,0.4c-1.3,0.2-1.9,0.7-1.9,1.5c0,0.7,0.5,1.1,1.4,1.1C30.1,128.3,31.4,127.6,31.4,126.5z"/>
		<path fill="#FFFFFF" d="M42.8,120.1l-0.3,1.9c-0.3-0.2-0.7-0.2-1.2-0.2c-1.1,0-2.4,0.9-2.4,2.9v5.1h-2v-9.6h1.7l0.2,1.7
			c0.5-1.2,1.5-1.9,3-1.9C42.1,119.9,42.5,120,42.8,120.1z"/>
		<path fill="#FFFFFF" d="M50.4,129c-0.6,0.5-1.5,0.8-2.5,0.8c-1.6,0-2.9-0.7-2.9-2.7v-5.4h-1.8v-1.6H45v-2.2l2-0.6v2.8h3.3v1.6H47
			v5.1c0,0.9,0.6,1.4,1.4,1.4c0.6,0,1.1-0.2,1.5-0.6L50.4,129z"/>
		<path fill="#FFFFFF" d="M67.4,123.5v6.2h-2v-5.9c0-1.6-0.8-2.2-2-2.2c-1.3,0-2.5,1-2.5,2.9v5.2h-2v-5.9c0-1.6-0.8-2.2-2-2.2
			c-1.1,0-2.5,0.8-2.5,3v5.1h-2v-9.6h1.8l0.1,1.6c0.7-1.2,1.9-1.8,3.1-1.8c1.4,0,2.6,0.6,3.2,1.9c0.6-1.3,2-1.9,3.3-1.9
			C65.7,119.9,67.4,121.1,67.4,123.5z"/>
		<path fill="#FFFFFF" d="M78.9,125.7h-7c0.2,1.7,1.2,2.6,2.8,2.6c1.3,0,2.1-0.5,2.4-1.3l1.7,0.7c-0.7,1.4-2,2.2-4.1,2.2
			c-3,0-4.8-1.9-4.8-5c0-3.1,1.7-5,4.7-5c2.9,0,4.4,1.9,4.4,4.7C79,125,79,125.4,78.9,125.7z M71.9,124.1h5.2
			c-0.2-1.6-1.1-2.5-2.5-2.5C73.1,121.5,72.2,122.4,71.9,124.1z"/>
		<path fill="#FFFFFF" d="M90.3,123.5v6.2h-2v-5.5c0-1.9-0.9-2.5-2-2.5c-1.3,0-2.6,0.8-2.6,3v5.1h-2v-9.6h1.8l0.1,1.6
			c0.6-1.2,1.9-1.8,3.2-1.8C88.7,119.9,90.3,121.1,90.3,123.5z"/>
		<path fill="#FFFFFF" d="M99.5,129c-0.6,0.5-1.5,0.8-2.5,0.8c-1.6,0-2.9-0.7-2.9-2.7v-5.4h-1.8v-1.6H94v-2.2l2-0.6v2.8h3.3v1.6
			h-3.3v5.1c0,0.9,0.6,1.4,1.4,1.4c0.6,0,1.1-0.2,1.5-0.6L99.5,129z"/>
	</g>
	<g>
		<path fill="#FFFFFF" d="M193.5,122.4c0,4.1-2.3,6.3-6.3,6.3h-4.5v-12.6h4.5C191.1,116.1,193.5,118.3,193.5,122.4z M191.3,122.4
			c0-2.9-1.5-4.6-4.1-4.6h-2.4v9.1h2.4C189.8,126.9,191.3,125.3,191.3,122.4z"/>
		<path fill="#FFFFFF" d="M205.2,123.9c0,3.1-1.8,5-4.8,5c-3,0-4.8-1.9-4.8-5c0-3.1,1.8-5,4.8-5
			C203.4,118.9,205.2,120.8,205.2,123.9z M197.7,123.9c0,2.2,1,3.4,2.7,3.4c1.7,0,2.7-1.2,2.7-3.4c0-2.2-1-3.4-2.7-3.4
			C198.7,120.5,197.7,121.7,197.7,123.9z"/>
		<path fill="#FFFFFF" d="M216.1,121.6l-1.9,0.8c-0.3-1.2-1.1-1.8-2.2-1.8c-1.7,0-2.7,1.2-2.7,3.4c0,2.2,1,3.3,2.7,3.3
			c1.3,0,2.1-0.7,2.3-1.9l1.9,0.6c-0.5,1.7-2,2.8-4.2,2.8c-3,0-4.8-1.9-4.8-5c0-3.1,1.8-5,4.8-5C214.3,118.9,215.5,120,216.1,121.6z
			"/>
		<path fill="#FFFFFF" d="M227.3,119.1v9.6h-1.8l-0.1-1.5c-0.7,1.2-1.9,1.7-3.4,1.7c-1.9,0-3.4-1-3.4-3.5v-6.3h2v5.8
			c0,1.8,0.8,2.3,2,2.3c1.5,0,2.7-0.9,2.7-2.9v-5.2H227.3z"/>
		<path fill="#FFFFFF" d="M245.5,122.5v6.2h-2v-5.9c0-1.6-0.8-2.2-2-2.2c-1.3,0-2.5,1-2.5,2.9v5.2h-2v-5.9c0-1.6-0.8-2.2-2-2.2
			c-1.1,0-2.5,0.8-2.5,3v5.1h-2v-9.6h1.8l0.1,1.6c0.7-1.2,1.9-1.8,3.1-1.8c1.4,0,2.6,0.6,3.2,1.9c0.6-1.3,2-1.9,3.3-1.9
			C243.8,118.9,245.5,120.1,245.5,122.5z"/>
		<path fill="#FFFFFF" d="M257,124.7h-7c0.2,1.7,1.2,2.6,2.8,2.6c1.3,0,2.1-0.5,2.4-1.3l1.7,0.7c-0.7,1.4-2,2.2-4.1,2.2
			c-3,0-4.8-1.9-4.8-5c0-3.1,1.7-5,4.7-5c2.9,0,4.4,1.9,4.4,4.7C257.1,124,257.1,124.4,257,124.7z M250,123.1h5.2
			c-0.2-1.6-1.1-2.5-2.5-2.5C251.2,120.5,250.3,121.4,250,123.1z"/>
		<path fill="#FFFFFF" d="M268.4,122.5v6.2h-2v-5.5c0-1.9-0.9-2.5-2-2.5c-1.3,0-2.6,0.8-2.6,3v5.1h-2v-9.6h1.8l0.1,1.6
			c0.6-1.2,1.9-1.8,3.2-1.8C266.8,118.9,268.4,120.1,268.4,122.5z"/>
		<path fill="#FFFFFF" d="M277.6,128c-0.6,0.5-1.5,0.8-2.5,0.8c-1.6,0-2.9-0.7-2.9-2.7v-5.4h-1.8v-1.6h1.8v-2.2l2-0.6v2.8h3.3v1.6
			h-3.3v5.1c0,0.9,0.6,1.4,1.4,1.4c0.6,0,1.1-0.2,1.5-0.6L277.6,128z"/>
		<path fill="#FFFFFF" d="M288.5,127.3l-0.1,1.4c-0.3,0.1-0.7,0.2-1.2,0.2c-1.1,0-1.7-0.4-1.9-1.4c-0.6,0.9-1.8,1.4-3.2,1.4
			c-1.8,0-3.1-0.8-3.1-2.5c0-1.5,1.2-2.6,3.7-3l2.4-0.4v-0.5c0-1.1-0.7-1.9-1.9-1.9c-1.2,0-2.1,0.5-2.5,1.7l-1.6-0.8
			c0.5-1.5,1.9-2.5,4-2.5c2.4,0,4,1.1,4,3.4v4.3c0,0.5,0.2,0.7,0.7,0.7C288,127.3,288.3,127.3,288.5,127.3z M285,125.5v-1.1
			l-2.1,0.4c-1.3,0.2-1.9,0.7-1.9,1.5c0,0.7,0.5,1.1,1.4,1.1C283.7,127.3,285,126.6,285,125.5z"/>
		<path fill="#FFFFFF" d="M296.4,119.1l-0.3,1.9c-0.3-0.2-0.7-0.2-1.2-0.2c-1.1,0-2.4,0.9-2.4,2.9v5.1h-2v-9.6h1.7l0.2,1.7
			c0.5-1.2,1.5-1.9,3-1.9C295.7,118.9,296.1,119,296.4,119.1z"/>
		<path fill="#FFFFFF" d="M302.8,129.8c-0.8,2.2-1.8,3-3.5,3c-1,0-1.7-0.2-2.3-0.8l0.6-1.6c0.4,0.5,1,0.7,1.6,0.7
			c0.7,0,1.2-0.3,1.7-1.4l0.4-1l-1-2.4l-3-7.2h2.3l2.1,6l0.6,1.8l0.6-2l2-5.8h2.1L302.8,129.8z"/>
	</g>
	<g>
		<path fill="#FFFFFF" d="M384.4,125.4h-5.3l-1.2,3.3h-2.1l4.8-12.6h2.4l4.8,12.6h-2.2L384.4,125.4z M383.8,123.7l-1.5-4l-0.6-1.8
			h-0.1l-0.5,1.8l-1.5,4.1H383.8z"/>
		<path fill="#FFFFFF" d="M399,123.9c0,3.1-1.6,5-4.2,5c-1.4,0-2.5-0.7-3.1-1.7v5.5h-2v-13.6h1.8l0.1,1.8c0.6-1.2,1.7-2,3.2-2
			C397.4,118.9,399,120.8,399,123.9z M397,123.9c0-2.1-1-3.3-2.6-3.3c-1.5,0-2.5,1.1-2.6,3v0.7c0.1,1.8,1.1,2.9,2.6,2.9
			C396,127.2,397,126,397,123.9z"/>
		<path fill="#FFFFFF" d="M410.6,127.3l-0.1,1.4c-0.3,0.1-0.7,0.2-1.2,0.2c-1.1,0-1.7-0.4-1.9-1.4c-0.6,0.9-1.8,1.4-3.2,1.4
			c-1.8,0-3.1-0.8-3.1-2.5c0-1.5,1.2-2.6,3.7-3l2.4-0.4v-0.5c0-1.1-0.7-1.9-1.9-1.9c-1.2,0-2.1,0.5-2.5,1.7l-1.6-0.8
			c0.5-1.5,1.9-2.5,4-2.5c2.4,0,4,1.1,4,3.4v4.3c0,0.5,0.2,0.7,0.7,0.7C410.2,127.3,410.4,127.3,410.6,127.3z M407.2,125.5v-1.1
			l-2.1,0.4c-1.3,0.2-1.9,0.7-1.9,1.5c0,0.7,0.5,1.1,1.4,1.1C405.8,127.3,407.2,126.6,407.2,125.5z"/>
		<path fill="#FFFFFF" d="M418.5,119.1l-0.3,1.9c-0.3-0.2-0.7-0.2-1.2-0.2c-1.1,0-2.4,0.9-2.4,2.9v5.1h-2v-9.6h1.7l0.2,1.7
			c0.5-1.2,1.5-1.9,3-1.9C417.9,118.9,418.3,119,418.5,119.1z"/>
		<path fill="#FFFFFF" d="M426.2,128c-0.6,0.5-1.5,0.8-2.5,0.8c-1.6,0-2.9-0.7-2.9-2.7v-5.4h-1.8v-1.6h1.8v-2.2l2-0.6v2.8h3.3v1.6
			h-3.3v5.1c0,0.9,0.6,1.4,1.4,1.4c0.6,0,1.1-0.2,1.5-0.6L426.2,128z"/>
		<path fill="#FFFFFF" d="M430.8,120.3c0,0.8-0.6,1.4-1.4,1.4c-0.9,0-1.5-0.5-1.5-1.4c0-0.9,0.6-1.4,1.5-1.4
			C430.2,118.9,430.8,119.5,430.8,120.3z M430.8,127.5c0,0.8-0.6,1.4-1.4,1.4c-0.9,0-1.5-0.6-1.5-1.4c0-0.8,0.6-1.4,1.5-1.4
			C430.2,126.1,430.8,126.6,430.8,127.5z"/>
		<path fill="#FFFFFF" d="M448.8,122.5v6.2h-2v-5.9c0-1.6-0.8-2.2-2-2.2c-1.3,0-2.5,1-2.5,2.9v5.2h-2v-5.9c0-1.6-0.8-2.2-2-2.2
			c-1.1,0-2.5,0.8-2.5,3v5.1h-2v-9.6h1.8l0.1,1.6c0.7-1.2,1.9-1.8,3.1-1.8c1.4,0,2.6,0.6,3.2,1.9c0.6-1.3,2-1.9,3.3-1.9
			C447.1,118.9,448.8,120.1,448.8,122.5z"/>
		<path fill="#FFFFFF" d="M460.4,124.7h-7c0.2,1.7,1.2,2.6,2.8,2.6c1.3,0,2.1-0.5,2.4-1.3l1.7,0.7c-0.7,1.4-2,2.2-4.1,2.2
			c-3,0-4.8-1.9-4.8-5c0-3.1,1.7-5,4.7-5c2.9,0,4.4,1.9,4.4,4.7C460.5,124,460.4,124.4,460.4,124.7z M453.4,123.1h5.2
			c-0.2-1.6-1.1-2.5-2.5-2.5C454.5,120.5,453.6,121.4,453.4,123.1z"/>
		<path fill="#FFFFFF" d="M471.7,122.5v6.2h-2v-5.5c0-1.9-0.9-2.5-2-2.5c-1.3,0-2.6,0.8-2.6,3v5.1h-2v-9.6h1.8l0.1,1.6
			c0.6-1.2,1.9-1.8,3.2-1.8C470.2,118.9,471.7,120.1,471.7,122.5z"/>
		<path fill="#FFFFFF" d="M480.9,128c-0.6,0.5-1.5,0.8-2.5,0.8c-1.6,0-2.9-0.7-2.9-2.7v-5.4h-1.8v-1.6h1.8v-2.2l2-0.6v2.8h3.3v1.6
			h-3.3v5.1c0,0.9,0.6,1.4,1.4,1.4c0.6,0,1.1-0.2,1.5-0.6L480.9,128z"/>
		<path fill="#FFFFFF" d="M491.8,127.3l-0.1,1.4c-0.3,0.1-0.7,0.2-1.2,0.2c-1.1,0-1.7-0.4-1.9-1.4c-0.6,0.9-1.8,1.4-3.2,1.4
			c-1.8,0-3.1-0.8-3.1-2.5c0-1.5,1.2-2.6,3.7-3l2.4-0.4v-0.5c0-1.1-0.7-1.9-1.9-1.9c-1.2,0-2.1,0.5-2.5,1.7l-1.6-0.8
			c0.5-1.5,1.9-2.5,4-2.5c2.4,0,4,1.1,4,3.4v4.3c0,0.5,0.2,0.7,0.7,0.7C491.4,127.3,491.6,127.3,491.8,127.3z M488.4,125.5v-1.1
			l-2.1,0.4c-1.3,0.2-1.9,0.7-1.9,1.5c0,0.7,0.5,1.1,1.4,1.1C487.1,127.3,488.4,126.6,488.4,125.5z"/>
		<path fill="#FFFFFF" d="M499.8,119.1l-0.3,1.9c-0.3-0.2-0.7-0.2-1.2-0.2c-1.1,0-2.4,0.9-2.4,2.9v5.1h-2v-9.6h1.7l0.2,1.7
			c0.5-1.2,1.5-1.9,3-1.9C499.1,118.9,499.5,119,499.8,119.1z"/>
		<path fill="#FFFFFF" d="M506.1,129.8c-0.8,2.2-1.8,3-3.5,3c-1,0-1.7-0.2-2.3-0.8l0.6-1.6c0.4,0.5,1,0.7,1.6,0.7
			c0.7,0,1.2-0.3,1.7-1.4l0.4-1l-1-2.4l-3-7.2h2.3l2.1,6l0.6,1.8l0.6-2l2-5.8h2.1L506.1,129.8z"/>
	</g>
</g>
</svg>
