<?xml version="1.0" encoding="utf-8"?>
<!-- Generator: Adobe Illustrator 18.1.1, SVG Export Plug-In . SVG Version: 6.00 Build 0)  -->
<svg version="1.1" id="레이어_1" xmlns="http://www.w3.org/2000/svg" xmlns:xlink="http://www.w3.org/1999/xlink" x="0px"
	 y="0px" viewBox="0 0 254.1 203.4" enable-background="new 0 0 254.1 203.4" xml:space="preserve">
<g>
	<g>
		<g>
			<g>
				<polygon fill="#F8C7C3" points="205.2,38.5 205.2,46.9 210,46.9 				"/>
			</g>
		</g>
		<g>
			<g>
				<polygon fill="#F8C7C3" points="205.2,54.8 205.2,46.9 200.3,46.9 				"/>
			</g>
		</g>
		<g>
			<g>
				<polygon fill="#F8C7C3" points="233.8,42.1 233.8,52 239.4,52 				"/>
			</g>
		</g>
		<g>
			<g>
				<polygon fill="#F8C7C3" points="233.8,61.4 233.8,52 228,52 				"/>
			</g>
		</g>
		<g>
			<g>
				<path fill="#F8C7C3" d="M241.2,6.4c-2.1-0.3-4.1-0.1-6,0.4c-2.3-4.1-6.7-6.8-11.8-6.8c-4.9,0-9.2,2.6-11.6,6.6
					c-1-0.2-2-0.4-3.1-0.4c-7.5,0-13.6,6.1-13.6,13.6c0,7.5,6.1,13.6,13.6,13.6c0.6,0,1.2-0.1,1.7-0.1c-0.8-1.8-1.2-3.7-1.2-5.8
					c0-0.3,0.2-0.6,0.6-0.6c0.3,0,0.6,0.2,0.6,0.6c0,7.2,5.8,13,13,13c7.2,0,13-5.8,13-13c0-0.3,0.2-0.6,0.6-0.6
					c0.3,0,0.6,0.2,0.6,0.6c0,2-0.4,3.9-1.2,5.6c0.3,0.1,0.5,0.1,0.8,0.2c7.4,1.1,14.3-4,15.5-11.4C253.7,14.4,248.6,7.5,241.2,6.4z
					"/>
			</g>
		</g>
	</g>
	<g>
		<g>
			<polygon fill="#FFFFFF" points="247.8,133 196.1,133 196.1,91.3 221.9,74.5 247.8,91.3 			"/>
		</g>
	</g>
	<g>
		<g>
			<polygon fill="#F8C7C3" points="254.1,89.1 221.1,73.9 193.9,97.8 192.7,89.6 219.9,65.7 252.9,80.8 			"/>
		</g>
	</g>
	<g>
		<g>
			<rect x="200.8" y="96.2" fill="#464442" width="10.3" height="13.3"/>
		</g>
	</g>
	<g>
		<g>
			<g>
				<rect x="205.7" y="93.8" fill="#FFFFFF" width="0.8" height="18.1"/>
			</g>
		</g>
		<g>
			<g>
				<rect x="198.3" y="102.4" fill="#FFFFFF" width="17.3" height="0.9"/>
			</g>
		</g>
	</g>
	<g>
		<g>
			
				<rect x="228.4" y="100.3" transform="matrix(0.9604 -0.2787 0.2787 0.9604 -20.5584 69.3277)" fill="#464442" width="10.3" height="13.3"/>
		</g>
	</g>
	<g>
		<g>
			<g>
				
					<rect x="233.2" y="97.9" transform="matrix(-0.9599 0.2804 -0.2804 -0.9599 487.9408 144.1314)" fill="#FFFFFF" width="0.8" height="18.1"/>
			</g>
		</g>
		<g>
			<g>
				
					<rect x="234" y="98.1" transform="matrix(0.2792 0.9602 -0.9602 0.2792 271.5039 -148.2087)" fill="#FFFFFF" width="0.9" height="17.3"/>
			</g>
		</g>
	</g>
	<g>
		<g>
			<polygon fill="#E7E7E5" points="247.8,130.8 196.1,130.8 196.1,124.7 247.8,129.1 			"/>
		</g>
	</g>
	<g>
		<g>
			<rect x="196.1" y="130.8" fill="#FFFFFF" width="51.7" height="4.5"/>
		</g>
	</g>
	<g>
		<g>
			<g>
				<rect x="127.7" y="100.5" fill="#464442" width="60.7" height="13.1"/>
			</g>
		</g>
		<g>
			<g>
				<path fill="#464442" d="M184.7,91.5l0-29.6c0-14.7-11.9-26.7-26.7-26.7c-14.7,0-26.7,11.9-26.7,26.7l0,29.6L184.7,91.5z"/>
			</g>
		</g>
		<g>
			<g>
				<path fill="#464442" d="M119.7,203.4l0-82.9c0-11,5.5-19.9,16.5-19.9l43,0c11,0,19.9,8.9,19.9,19.9l0,82.9L119.7,203.4z"/>
			</g>
		</g>
		<g>
			<g>
				<path fill="#FBDDDC" d="M177.2,74.9c0,12.3-10,22.3-22.3,22.3l0,0c-12.3,0-21.5-10-21.5-22.3l0-13.5c0-12.3,10-22.3,22.3-22.3
					l-0.8-0.8c12.3,0,22.3,10.8,22.3,23.1L177.2,74.9z"/>
			</g>
		</g>
		<g>
			<g>
				<path fill="#464442" d="M138.4,44.8c0,0-4.6,29.8,44.2,44.7c0,0,3.7-20.2-0.6-27.2C177.1,54.3,165.1,22.9,138.4,44.8z"/>
			</g>
		</g>
		<g>
			<g>
				<path fill="#464442" d="M131.3,70.3c0,9.5-4.3,19.2-9.1,21.2l11.1,0L131.3,70.3z"/>
			</g>
		</g>
		<g>
			<g>
				<path fill="#646360" d="M142.7,82.5c0,0.4-0.3,0.8-0.8,0.8l0,0c-0.4,0-0.8-0.3-0.8-0.8l0-14.8c0-0.4,0.3-0.8,0.8-0.8l0,0
					c0.4,0,0.8,0.3,0.8,0.8L142.7,82.5z"/>
			</g>
		</g>
		<g>
			<g>
				<g>
					<polygon fill="#FFFFFF" points="142.4,100.5 155,121.4 167.4,100.5 					"/>
				</g>
			</g>
			<g>
				<g>
					<polygon fill="#FBDDDC" points="146.8,100.5 154.9,114.3 162.9,100.5 					"/>
				</g>
			</g>
		</g>
		<g>
			<g>
				<g>
					<path fill="#FFFFFF" d="M142.3,145.9c-8.6,0-13-1.2-13-13.5l0-31.8l-2.7,0c-7.2,0-13,7.2-13,14.6l0,32.2
						c0,7.5,5.8,13.5,13,13.5l45.5-0.1c7.2,0,2.5-7.6,2.5-15l-13.6,0L142.3,145.9z"/>
				</g>
			</g>
			<g>
				<g>
					<path fill="#FBDDDC" d="M166.4,145.8l7,0c0.7,0,1.2,0.5,1.2,1.2l0,0c0,0.7-0.5,1.2-1.2,1.2l-7,0v-0.5l9.1,0
						c3.6,0,6.5,2.9,6.5,6.5l0,0c0,3.6-2.9,6.5-6.5,6.5l-9.1,0"/>
				</g>
			</g>
		</g>
		<g>
			<g>
				<g>
					<path fill="#FFFFFF" d="M172.5,155.8c8.6,0,13-1.2,13-13.5l0-41.8l2.7,0c7.2,0,13,7.2,13,14.6l0,42.1c0,7.5-5.8,13.5-13,13.5
						l-56.5-0.1c-7.2,0-2.5-7.6-2.5-15l13.6,0L172.5,155.8z"/>
				</g>
			</g>
			<g>
				<g>
					<path fill="#FBDDDC" d="M133,155.7l-7,0c-0.7,0-1.2,0.6-1.2,1.2l0,0c0,0.7,0.5,1.2,1.2,1.2l7,0v-0.5l-9.1,0
						c-3.6,0-6.5,2.9-6.5,6.5l0,0c0,3.6,2.9,6.5,6.5,6.5l9.1,0"/>
				</g>
			</g>
		</g>
	</g>
	<g>
		<g>
			<g>
				<path fill="#464442" d="M49.5,158.7c0,2.2-1.8,4-4,4H4c-2.2,0-4-1.8-4-4V83.6c0-2.2,1.8-4,4-4h41.5c2.2,0,4,1.8,4,4V158.7z"/>
			</g>
		</g>
		<g>
			<g>
				<rect x="6" y="89.8" fill="#6B6967" width="37.5" height="55.8"/>
			</g>
		</g>
		<g>
			<g>
				<path fill="#6B6967" d="M30,153.3c0,2.5-2,4.5-4.5,4.5c-2.5,0-4.5-2-4.5-4.5c0-2.5,2-4.5,4.5-4.5C28,148.8,30,150.8,30,153.3z"
					/>
			</g>
		</g>
		<g>
			<g>
				<path fill="#6B6967" d="M30.9,84.9c0,0.5-0.4,0.9-0.9,0.9H20c-0.5,0-0.9-0.4-0.9-0.9l0,0c0-0.5,0.4-0.9,0.9-0.9h10
					C30.5,83.9,30.9,84.3,30.9,84.9L30.9,84.9z"/>
			</g>
		</g>
	</g>
	<g>
		<g>
			<circle fill="#6B6967" cx="89.4" cy="101.1" r="5.9"/>
		</g>
	</g>
	<g>
		<g>
			<g>
				<rect x="85.8" y="100.5" fill="#F9CECF" width="7" height="0.9"/>
			</g>
		</g>
		<g>
			<g>
				<path fill="#F9CECF" d="M91.2,103.9h-1.1l-0.7-3.3l-0.7,3.3h-1.1l-1-4.9h0.9l0.7,3.3L89,99h0.9l0.8,3.3l0.7-3.3h0.9L91.2,103.9z
					"/>
			</g>
		</g>
	</g>
	<g>
		<g>
			<circle fill="#FFFFFF" cx="20.8" cy="49.1" r="15.6"/>
		</g>
	</g>
	<g>
		<g>
			<path fill="#F8C7C3" d="M14.5,46.6c0.8-0.4,1.6-0.6,2.3-0.6c0.5,0,1,0.1,1.4,0.3c0.4,0.2,0.7,0.5,1,0.9c0.3,0.4,0.4,1,0.4,1.6
				v2.4c0,0.7,0.1,1.4,0.4,2h-2.3c-0.1-0.2-0.2-0.4-0.2-0.7c-0.2,0.3-0.5,0.5-0.7,0.6c-0.3,0.1-0.5,0.2-0.8,0.2
				c-0.5,0-1-0.2-1.5-0.7c-0.4-0.4-0.6-1-0.6-1.6c0-1.4,1.2-2.3,3.6-2.6c-0.1-0.3-0.2-0.4-0.4-0.6c-0.2-0.1-0.5-0.2-0.9-0.2
				c-0.5,0-1.1,0.2-1.7,0.7V46.6z M17.4,49.8c-1,0.1-1.5,0.5-1.5,1.1c0,0.2,0.1,0.4,0.2,0.6c0.1,0.2,0.3,0.3,0.5,0.3
				c0.2,0,0.4-0.1,0.5-0.3c0.1-0.2,0.2-0.5,0.2-0.8V49.8z"/>
		</g>
		<g>
			<path fill="#F8C7C3" d="M22.1,50.7c0.8,0.6,1.4,0.9,2,0.9c0.2,0,0.4-0.1,0.5-0.2c0.2-0.1,0.2-0.3,0.2-0.4c0-0.1-0.1-0.3-0.2-0.4
				c-0.1-0.1-0.3-0.2-0.7-0.3c-0.8-0.3-1.3-0.6-1.5-1c-0.2-0.4-0.3-0.7-0.3-1.1c0-0.7,0.3-1.2,0.8-1.6c0.5-0.4,1.2-0.6,2-0.6
				c0.7,0,1.3,0.2,2,0.5v2.1c-0.5-0.5-1.1-0.7-1.6-0.7c-0.2,0-0.4,0-0.5,0.1c-0.1,0.1-0.2,0.2-0.2,0.3c0,0.2,0.2,0.4,0.7,0.5
				c1.3,0.4,2,1.1,2,2.1c0,0.7-0.3,1.2-0.8,1.7c-0.5,0.5-1.2,0.7-2.1,0.7c-0.7,0-1.5-0.2-2.3-0.6V50.7z"/>
		</g>
	</g>
	<g>
		<g>
			<path fill="#FFFFFF" d="M67.6,59.1v39.5c0,5.8-4.9,10.5-10.9,10.5l-24,0c-6,0-11.8-4.7-11.8-10.5l0-2.2l23.6,0
				c10,0,10.9-3.5,10.9-10.5l0-26.5L67.6,59.1z"/>
		</g>
	</g>
	<g>
		<g>
			<path fill="#FFFFFF" d="M94.9,129.6l-70.6,0c-6.4,0-12.5-5-12.5-11.1l0-2.3l70.2,0"/>
		</g>
	</g>
	<g>
		<g>
			<g>
				<path fill="#F8C7C3" d="M66.7,50.1c0,0.9,0.7,1.7,1.7,1.7l0,0c0.9,0,1.7-0.7,1.7-1.7V32.2c0-0.9-0.7-1.7-1.7-1.7l0,0
					c-0.9,0-1.7,0.7-1.7,1.7V50.1z"/>
			</g>
		</g>
		<g>
			<g>
				<path fill="#F8C7C3" d="M62.3,48.1c0,0.9,0.7,1.7,1.7,1.7l0,0c0.9,0,1.7-0.7,1.7-1.7V30.2c0-0.9-0.7-1.7-1.7-1.7l0,0
					c-0.9,0-1.7,0.7-1.7,1.7V48.1z"/>
			</g>
		</g>
		<g>
			<g>
				<path fill="#F8C7C3" d="M57.9,46.2c0,0.9,0.7,1.7,1.7,1.7l0,0c0.9,0,1.7-0.7,1.7-1.7V28.3c0-0.9-0.7-1.7-1.7-1.7l0,0
					c-0.9,0-1.7,0.7-1.7,1.7V46.2z"/>
			</g>
		</g>
		<g>
			<g>
				<path fill="#F8C7C3" d="M53.7,48.1c0,0.9,0.7,1.7,1.7,1.7l0,0c0.9,0,1.7-0.7,1.7-1.7V30.2c0-0.9-0.7-1.7-1.7-1.7l0,0
					c-0.9,0-1.7,0.7-1.7,1.7V48.1z"/>
			</g>
		</g>
		<g>
			<g>
				<path fill="#F8C7C3" d="M49.4,51.7c0,0.9,0.7,1.7,1.7,1.7l0,0c0.9,0,1.7-0.7,1.7-1.7V41.7c0-0.9-0.7-1.7-1.7-1.7l0,0
					c-0.9,0-1.7,0-1.7,0.9V51.7z"/>
			</g>
		</g>
		<g>
			<g>
				<path fill="#F8C7C3" d="M53.7,53c0,2.5,2,4.4,4.4,4.4h7.5c2.4,0,4.4-2,4.4-4.4v-7c0-2.5-2-4.4-4.4-4.4h-7.5
					c-2.5,0-4.4,2-4.4,4.4V53z"/>
			</g>
		</g>
		<g>
			<g>
				<path fill="#F8C7C3" d="M49.3,49.1v3.2c0,3.4,2.7,6.1,6.1,6.1V49"/>
			</g>
		</g>
		<g>
			<g>
				<rect x="55.3" y="55.3" fill="#F8C7C3" width="12.3" height="5"/>
			</g>
		</g>
	</g>
	<g>
		<g>
			<path fill="#F8C7C3" d="M77.9,129.8c-1.1,0-2-0.9-2-2l0,0c0-1.1,0.9-2,2-2h33.4c1.1,0,2,0.9,2,2l0,0c0,1.1-0.9,2-2,2H77.9z"/>
		</g>
	</g>
	<g>
		<g>
			<g>
				<path fill="#F8C7C3" d="M75.9,110.3c0,5,5.9,8.9,13.5,8.9c7.6,0,13.5-3.9,13.5-8.9c0-3.5-2.1-6.5-6.8-8
					c-1.1-0.4-2.3,0.2-2.7,1.2c-0.4,1,0.2,2.1,1.3,2.5c2.9,0.9,4,2.6,4,4.3c0,2.7-4.3,5-9.3,5s-9.3-2.3-9.3-5c0-1.6,0.9-3.2,3.5-4.2
					c1.1-0.4,1.6-1.5,1.2-2.5c-0.4-1-1.6-1.5-2.7-1.1C77.8,104,75.9,107,75.9,110.3z"/>
			</g>
		</g>
	</g>
	<g>
		<g>
			<g>
				<path fill="#F8C7C3" d="M92.9,123.9c0,1,0.8,1.9,1.8,1.9c0.7,0,1.4,0.1,2,0.1c8.1,0,15.5-3,19.1-7.7c0.7-0.9,0.5-2.1-0.4-2.7
					c-0.9-0.7-2.1-0.5-2.7,0.4c-2.9,3.8-9.2,6.2-16,6.2c-0.6,0-1.2,0-1.8-0.1c-1.1-0.1-2,0.8-2.1,1.8
					C92.9,123.8,92.9,123.8,92.9,123.9z"/>
			</g>
		</g>
	</g>
	<g>
		<g>
			<g>
				<path fill="#F8C7C3" d="M94.9,120.1c0,0,0,0.1,0,0.1c0.1,1.1,1,1.9,2,1.8c0.5,0,1-0.1,1.5-0.2c6-0.9,10.9-5,12.8-10.6
					c0.3-1-0.2-2.1-1.2-2.5c-1-0.3-2.1,0.2-2.5,1.2c-1.4,4.2-5.1,7.3-9.6,8c-0.4,0.1-0.8,0.1-1.2,0.1
					C95.7,118.2,94.9,119.1,94.9,120.1z"/>
			</g>
		</g>
	</g>
	<g>
		<g>
			
				<path fill="none" stroke="#F9CECF" stroke-width="11" stroke-linecap="round" stroke-linejoin="round" stroke-miterlimit="10" d="
				M78.8,108.9"/>
		</g>
	</g>
	<g>
		<g>
			<rect x="72.9" y="116.3" fill="#F8C7C3" width="23.4" height="13.4"/>
		</g>
	</g>
	<g>
		<g>
			<path fill="#F8C7C3" d="M76.1,108.7c-0.3,1.7-1,4.2,1.2,8.8c2.6,5.6,5.7,2.9,5.7,2.9l-5.7-10.8L76.1,108.7z"/>
		</g>
	</g>
</g>
</svg>
