<?xml version="1.0" encoding="utf-8"?>
<!-- Generator: Adobe Illustrator 18.1.1, SVG Export Plug-In . SVG Version: 6.00 Build 0)  -->
<svg version="1.1" id="레이어_1" xmlns="http://www.w3.org/2000/svg" xmlns:xlink="http://www.w3.org/1999/xlink" x="0px"
	 y="0px" viewBox="0 0 264.4 348.2" enable-background="new 0 0 264.4 348.2" xml:space="preserve">
<g>
	<g>
		<path fill="#D5D5D2" d="M76,60.6c0.4-0.1,0.7,0,1,0.2c0.3,0.2,0.5,0.5,0.6,0.8c0.1,0.3,0,0.7-0.2,1c-0.2,0.3-0.4,0.5-0.8,0.6
			c-0.3,0.1-0.6,0-0.9-0.2c-0.3-0.2-0.5-0.5-0.6-0.8c-0.1-0.4,0-0.7,0.2-1C75.5,60.8,75.7,60.6,76,60.6z"/>
		<path fill="#D5D5D2" d="M82.3,59.3c0.4-0.1,0.7,0,1,0.2c0.3,0.2,0.5,0.5,0.5,0.8c0.1,0.4,0,0.7-0.2,1c-0.2,0.3-0.5,0.5-0.8,0.5
			c-0.3,0.1-0.6,0-0.9-0.2c-0.3-0.2-0.5-0.5-0.5-0.8c-0.1-0.4,0-0.7,0.2-1C81.8,59.5,82,59.4,82.3,59.3z"/>
		<path fill="#D5D5D2" d="M88.7,58.5c0.4,0,0.7,0.1,1,0.3c0.3,0.2,0.4,0.5,0.5,0.9c0,0.4-0.1,0.7-0.3,0.9C89.6,60.8,89.3,61,89,61
			c-0.3,0-0.6-0.1-0.9-0.3c-0.3-0.2-0.4-0.5-0.5-0.9c0-0.4,0.1-0.7,0.3-1C88.1,58.7,88.4,58.5,88.7,58.5z"/>
		<path fill="#D5D5D2" d="M95.1,58.1c0.4,0,0.7,0.1,1,0.3c0.3,0.2,0.4,0.5,0.4,0.9c0,0.4-0.1,0.7-0.3,0.9c-0.2,0.3-0.5,0.4-0.9,0.4
			c-0.3,0-0.6-0.1-0.9-0.3c-0.3-0.2-0.4-0.5-0.4-0.9c0-0.4,0.1-0.7,0.3-0.9C94.5,58.2,94.8,58.1,95.1,58.1z"/>
		<path fill="#D5D5D2" d="M101.6,58.1c0.4,0,0.7,0.1,0.9,0.4c0.2,0.3,0.3,0.6,0.3,0.9c0,0.4-0.1,0.7-0.4,0.9
			c-0.3,0.2-0.6,0.4-0.9,0.3c-0.3,0-0.6-0.1-0.9-0.4c-0.2-0.3-0.4-0.6-0.3-0.9c0-0.4,0.1-0.7,0.4-0.9
			C101,58.2,101.3,58.1,101.6,58.1z"/>
		<path fill="#D5D5D2" d="M108,58.5c0.4,0,0.7,0.2,0.9,0.5c0.2,0.3,0.3,0.6,0.3,0.9c0,0.4-0.2,0.6-0.5,0.9c-0.3,0.2-0.6,0.3-0.9,0.3
			c-0.3,0-0.6-0.2-0.8-0.5c-0.2-0.3-0.3-0.6-0.3-0.9c0-0.4,0.2-0.7,0.5-0.9C107.4,58.6,107.7,58.5,108,58.5z"/>
		<path fill="#D5D5D2" d="M114.3,59.3c0.4,0.1,0.7,0.2,0.9,0.5c0.2,0.3,0.3,0.6,0.2,1c-0.1,0.3-0.2,0.6-0.5,0.8
			c-0.3,0.2-0.6,0.3-0.9,0.2c-0.3-0.1-0.6-0.2-0.8-0.5c-0.2-0.3-0.3-0.6-0.2-0.9c0.1-0.4,0.2-0.6,0.5-0.8
			C113.8,59.4,114.1,59.3,114.3,59.3z"/>
		<path fill="#D5D5D2" d="M120.7,60.6c0.4,0.1,0.6,0.3,0.8,0.6c0.2,0.3,0.2,0.6,0.2,1c-0.1,0.3-0.3,0.6-0.6,0.8
			c-0.3,0.2-0.6,0.2-0.9,0.2c-0.3-0.1-0.6-0.3-0.8-0.6c-0.2-0.3-0.2-0.6-0.2-1c0.1-0.4,0.3-0.6,0.6-0.8
			C120.1,60.6,120.4,60.5,120.7,60.6z"/>
		<path fill="#D5D5D2" d="M126.9,62.2c0.4,0.1,0.6,0.3,0.8,0.6c0.2,0.3,0.2,0.6,0.1,1c-0.1,0.3-0.3,0.6-0.6,0.8
			c-0.3,0.2-0.6,0.2-1,0.1c-0.3-0.1-0.6-0.3-0.7-0.6c-0.2-0.3-0.2-0.6-0.1-1c0.1-0.3,0.3-0.6,0.6-0.8
			C126.3,62.2,126.6,62.2,126.9,62.2z"/>
		<path fill="#D5D5D2" d="M133,64.3c0.4,0.1,0.6,0.4,0.7,0.7c0.1,0.3,0.1,0.6,0,1c-0.1,0.3-0.3,0.6-0.7,0.7c-0.3,0.1-0.6,0.2-1,0
			c-0.3-0.1-0.5-0.3-0.7-0.7c-0.1-0.3-0.2-0.6,0-1c0.1-0.3,0.4-0.6,0.7-0.7C132.4,64.2,132.7,64.2,133,64.3z"/>
		<path fill="#D5D5D2" d="M138.9,66.8c0.3,0.2,0.6,0.4,0.7,0.7c0.1,0.3,0.1,0.7,0,1c-0.1,0.3-0.4,0.5-0.7,0.7c-0.3,0.1-0.6,0.1-1,0
			c-0.3-0.1-0.5-0.4-0.6-0.7c-0.1-0.3-0.1-0.7,0-1c0.2-0.3,0.4-0.6,0.7-0.7C138.3,66.7,138.6,66.7,138.9,66.8z"/>
		<path fill="#D5D5D2" d="M144.7,69.6c0.3,0.2,0.6,0.4,0.6,0.8c0.1,0.3,0.1,0.7-0.1,1c-0.2,0.3-0.4,0.5-0.8,0.6
			c-0.3,0.1-0.7,0.1-1-0.1c-0.3-0.2-0.5-0.4-0.6-0.7c-0.1-0.3-0.1-0.7,0.1-1c0.2-0.3,0.4-0.5,0.8-0.6
			C144.1,69.5,144.4,69.5,144.7,69.6z"/>
		<path fill="#D5D5D2" d="M150.2,72.9c0.3,0.2,0.5,0.5,0.6,0.8c0.1,0.3,0,0.7-0.2,1c-0.2,0.3-0.5,0.5-0.8,0.6c-0.3,0.1-0.7,0-1-0.2
			c-0.3-0.2-0.5-0.4-0.5-0.8c-0.1-0.3,0-0.7,0.2-1c0.2-0.3,0.5-0.5,0.8-0.6C149.7,72.7,150,72.7,150.2,72.9z"/>
		<path fill="#D5D5D2" d="M155.6,76.4c0.3,0.2,0.5,0.5,0.5,0.9c0.1,0.3,0,0.7-0.2,0.9c-0.2,0.3-0.5,0.5-0.8,0.5
			c-0.3,0.1-0.7,0-0.9-0.2c-0.3-0.2-0.4-0.5-0.5-0.8c-0.1-0.3,0-0.7,0.2-0.9c0.2-0.3,0.5-0.5,0.8-0.5
			C155.1,76.2,155.3,76.3,155.6,76.4z"/>
		<path fill="#D5D5D2" d="M160.7,80.4c0.3,0.2,0.5,0.5,0.5,0.9c0,0.3-0.1,0.7-0.3,0.9c-0.2,0.3-0.5,0.4-0.9,0.5
			c-0.3,0-0.7-0.1-0.9-0.3c-0.3-0.2-0.4-0.5-0.4-0.8c0-0.3,0.1-0.7,0.3-0.9c0.2-0.3,0.5-0.4,0.9-0.5
			C160.2,80.1,160.5,80.2,160.7,80.4z"/>
		<path fill="#D5D5D2" d="M165.5,84.6c0.3,0.3,0.4,0.6,0.4,0.9c0,0.4-0.1,0.7-0.4,0.9c-0.2,0.3-0.5,0.4-0.9,0.4
			c-0.4,0-0.7-0.1-0.9-0.3c-0.2-0.2-0.4-0.5-0.4-0.9c0-0.4,0.1-0.7,0.3-0.9c0.2-0.3,0.6-0.4,0.9-0.4C165,84.3,165.3,84.4,165.5,84.6
			z"/>
		<path fill="#D5D5D2" d="M170.1,89.2c0.3,0.3,0.4,0.6,0.4,0.9c0,0.4-0.2,0.6-0.4,0.9c-0.3,0.2-0.6,0.4-0.9,0.3
			c-0.4,0-0.6-0.1-0.9-0.4c-0.2-0.2-0.3-0.5-0.3-0.9c0-0.4,0.1-0.6,0.4-0.9c0.3-0.2,0.6-0.4,0.9-0.4C169.6,88.8,169.9,89,170.1,89.2
			z"/>
		<path fill="#D5D5D2" d="M174.3,94c0.2,0.3,0.3,0.6,0.3,1c0,0.3-0.2,0.6-0.5,0.9c-0.3,0.2-0.6,0.3-0.9,0.3c-0.3,0-0.6-0.2-0.9-0.4
			c-0.2-0.3-0.3-0.6-0.3-0.9c0-0.3,0.2-0.6,0.5-0.9c0.3-0.2,0.6-0.3,1-0.3C173.9,93.6,174.1,93.8,174.3,94z"/>
		<path fill="#D5D5D2" d="M178.3,99.1c0.2,0.3,0.3,0.6,0.2,1c-0.1,0.3-0.2,0.6-0.5,0.8c-0.3,0.2-0.6,0.3-1,0.2
			c-0.3-0.1-0.6-0.2-0.8-0.5c-0.2-0.3-0.3-0.6-0.2-0.9c0.1-0.3,0.2-0.6,0.5-0.8c0.3-0.2,0.6-0.3,1-0.2
			C177.8,98.7,178.1,98.9,178.3,99.1z"/>
		<path fill="#D5D5D2" d="M181.8,104.5c0.2,0.3,0.3,0.7,0.2,1c-0.1,0.3-0.3,0.6-0.6,0.8c-0.3,0.2-0.6,0.2-1,0.2
			c-0.3-0.1-0.6-0.3-0.8-0.6c-0.2-0.3-0.2-0.6-0.1-0.9c0.1-0.3,0.3-0.6,0.6-0.8c0.3-0.2,0.6-0.2,1-0.2
			C181.4,104,181.7,104.2,181.8,104.5z"/>
		<path fill="#D5D5D2" d="M185,110c0.2,0.3,0.2,0.7,0.1,1c-0.1,0.3-0.3,0.6-0.6,0.7c-0.3,0.2-0.6,0.2-1,0.1
			c-0.3-0.1-0.6-0.3-0.7-0.6c-0.2-0.3-0.2-0.6-0.1-1c0.1-0.3,0.3-0.6,0.6-0.8c0.3-0.2,0.7-0.2,1-0.1
			C184.7,109.6,184.9,109.8,185,110z"/>
		<path fill="#D5D5D2" d="M187.9,115.8c0.2,0.3,0.2,0.7,0,1c-0.1,0.3-0.4,0.6-0.7,0.7c-0.3,0.1-0.6,0.2-1,0
			c-0.3-0.1-0.6-0.3-0.7-0.7c-0.1-0.3-0.1-0.6,0-1c0.1-0.3,0.3-0.6,0.7-0.7c0.3-0.2,0.7-0.2,1,0
			C187.5,115.3,187.8,115.5,187.9,115.8z"/>
		<path fill="#D5D5D2" d="M190.4,121.8c0.1,0.4,0.1,0.7,0,1c-0.2,0.3-0.4,0.5-0.7,0.7c-0.3,0.1-0.7,0.1-1,0
			c-0.3-0.1-0.5-0.4-0.7-0.7c-0.1-0.3-0.1-0.6,0-1c0.1-0.3,0.4-0.5,0.7-0.7c0.3-0.1,0.7-0.1,1,0C190,121.3,190.3,121.5,190.4,121.8z
			"/>
		<path fill="#D5D5D2" d="M192.4,127.9c0.1,0.4,0.1,0.7-0.1,1c-0.2,0.3-0.4,0.5-0.8,0.6c-0.3,0.1-0.7,0.1-1-0.1
			c-0.3-0.2-0.5-0.4-0.6-0.7c-0.1-0.3-0.1-0.6,0.1-1c0.2-0.3,0.4-0.5,0.8-0.6c0.3-0.1,0.7-0.1,1,0.1
			C192.1,127.4,192.3,127.6,192.4,127.9z"/>
		<path fill="#D5D5D2" d="M194.1,134.1c0.1,0.4,0,0.7-0.2,1c-0.2,0.3-0.5,0.5-0.8,0.6c-0.3,0.1-0.7,0-1-0.2
			c-0.3-0.2-0.5-0.4-0.6-0.8c-0.1-0.3,0-0.6,0.2-0.9c0.2-0.3,0.5-0.5,0.8-0.6c0.4-0.1,0.7,0,1,0.2
			C193.8,133.5,194,133.8,194.1,134.1z"/>
		<path fill="#D5D5D2" d="M195.3,140.4c0.1,0.4,0,0.7-0.2,1c-0.2,0.3-0.5,0.5-0.8,0.5c-0.4,0.1-0.7,0-1-0.2
			c-0.3-0.2-0.5-0.5-0.5-0.8c-0.1-0.3,0-0.6,0.2-0.9c0.2-0.3,0.5-0.5,0.8-0.5c0.4-0.1,0.7,0,1,0.2
			C195.1,139.8,195.3,140.1,195.3,140.4z"/>
		<path fill="#D5D5D2" d="M196.2,146.8c0,0.4-0.1,0.7-0.3,1c-0.2,0.3-0.5,0.4-0.9,0.5c-0.4,0-0.7-0.1-0.9-0.3
			c-0.3-0.2-0.4-0.5-0.5-0.8c0-0.3,0.1-0.6,0.3-0.9c0.2-0.3,0.5-0.4,0.9-0.5c0.4,0,0.7,0.1,1,0.3C196,146.2,196.1,146.5,196.2,146.8
			z"/>
		<path fill="#D5D5D2" d="M196.6,153.2c0,0.4-0.1,0.7-0.3,1c-0.2,0.3-0.5,0.4-0.9,0.4c-0.4,0-0.7-0.1-0.9-0.3
			c-0.3-0.2-0.4-0.5-0.4-0.9c0-0.3,0.1-0.6,0.3-0.9c0.2-0.3,0.5-0.4,0.9-0.4c0.4,0,0.7,0.1,0.9,0.4
			C196.4,152.6,196.6,152.9,196.6,153.2z"/>
		<path fill="#D5D5D2" d="M196.6,159.6c0,0.4-0.1,0.7-0.4,0.9c-0.3,0.2-0.6,0.3-0.9,0.3c-0.4,0-0.7-0.1-0.9-0.4
			c-0.2-0.3-0.4-0.6-0.3-0.9c0-0.3,0.1-0.6,0.4-0.9c0.3-0.2,0.6-0.4,0.9-0.3c0.4,0,0.7,0.1,0.9,0.4
			C196.5,159.1,196.6,159.3,196.6,159.6z"/>
		<path fill="#D5D5D2" d="M196.1,166c0,0.4-0.2,0.7-0.5,0.9c-0.3,0.2-0.6,0.3-0.9,0.3c-0.4,0-0.6-0.2-0.9-0.5
			c-0.2-0.3-0.3-0.6-0.3-0.9c0-0.3,0.2-0.6,0.5-0.8c0.3-0.2,0.6-0.3,0.9-0.3c0.4,0,0.7,0.2,0.9,0.5
			C196.1,165.5,196.2,165.8,196.1,166z"/>
		<path fill="#D5D5D2" d="M195.3,172.4c-0.1,0.4-0.2,0.7-0.5,0.9c-0.3,0.2-0.6,0.3-1,0.2c-0.3-0.1-0.6-0.2-0.8-0.5
			c-0.2-0.3-0.3-0.6-0.2-0.9c0.1-0.3,0.2-0.6,0.5-0.8c0.3-0.2,0.6-0.3,0.9-0.2c0.4,0.1,0.6,0.2,0.8,0.5
			C195.3,171.8,195.4,172.1,195.3,172.4z"/>
		<path fill="#D5D5D2" d="M194.1,178.7c-0.1,0.4-0.3,0.6-0.6,0.8c-0.3,0.2-0.6,0.2-1,0.2c-0.3-0.1-0.6-0.3-0.8-0.6
			c-0.2-0.3-0.2-0.6-0.2-0.9c0.1-0.3,0.3-0.6,0.6-0.8c0.3-0.2,0.6-0.2,1-0.2c0.4,0.1,0.6,0.3,0.8,0.6
			C194.1,178.2,194.1,178.4,194.1,178.7z"/>
		<path fill="#D5D5D2" d="M192.4,185c-0.1,0.4-0.3,0.6-0.6,0.8c-0.3,0.2-0.6,0.2-1,0.1c-0.3-0.1-0.6-0.3-0.8-0.6
			c-0.2-0.3-0.2-0.6-0.1-1c0.1-0.3,0.3-0.6,0.6-0.7c0.3-0.2,0.6-0.2,1-0.1c0.3,0.1,0.6,0.3,0.8,0.6
			C192.4,184.4,192.5,184.7,192.4,185z"/>
		<path fill="#D5D5D2" d="M190.3,191.1c-0.1,0.4-0.4,0.6-0.7,0.7c-0.3,0.1-0.6,0.1-1,0c-0.3-0.1-0.6-0.3-0.7-0.7
			c-0.1-0.3-0.2-0.6,0-1c0.1-0.3,0.3-0.5,0.7-0.7c0.3-0.1,0.6-0.2,1,0c0.3,0.1,0.6,0.4,0.7,0.7C190.4,190.5,190.4,190.8,190.3,191.1
			z"/>
		<path fill="#D5D5D2" d="M187.9,197c-0.2,0.3-0.4,0.6-0.7,0.7c-0.3,0.1-0.7,0.1-1,0c-0.3-0.1-0.5-0.4-0.7-0.7c-0.1-0.3-0.1-0.6,0-1
			c0.1-0.3,0.4-0.5,0.7-0.6c0.3-0.1,0.7-0.1,1,0c0.3,0.2,0.6,0.4,0.7,0.7C188,196.4,188,196.7,187.9,197z"/>
		<path fill="#D5D5D2" d="M185,202.8c-0.2,0.3-0.4,0.6-0.8,0.6c-0.3,0.1-0.7,0.1-1-0.1c-0.3-0.2-0.5-0.4-0.6-0.8
			c-0.1-0.3-0.1-0.7,0.1-1c0.2-0.3,0.4-0.5,0.7-0.6c0.3-0.1,0.7-0.1,1,0.1c0.3,0.2,0.5,0.4,0.6,0.8
			C185.2,202.2,185.1,202.5,185,202.8z"/>
		<path fill="#D5D5D2" d="M181.8,208.3c-0.2,0.3-0.5,0.5-0.8,0.6c-0.3,0.1-0.7,0-1-0.2c-0.3-0.2-0.5-0.5-0.6-0.8
			c-0.1-0.3,0-0.7,0.2-1c0.2-0.3,0.4-0.5,0.8-0.5c0.3-0.1,0.7,0,1,0.2c0.3,0.2,0.5,0.5,0.6,0.8C182,207.8,181.9,208.1,181.8,208.3z"
			/>
		<path fill="#D5D5D2" d="M178.2,213.7c-0.2,0.3-0.5,0.5-0.9,0.5c-0.3,0.1-0.7,0-0.9-0.2c-0.3-0.2-0.5-0.5-0.5-0.8
			c-0.1-0.3,0-0.7,0.2-0.9c0.2-0.3,0.5-0.4,0.8-0.5c0.3-0.1,0.7,0,0.9,0.2c0.3,0.2,0.5,0.5,0.5,0.8
			C178.4,213.2,178.4,213.5,178.2,213.7z"/>
		<path fill="#D5D5D2" d="M174.3,218.8c-0.2,0.3-0.5,0.5-0.9,0.5c-0.4,0-0.7-0.1-0.9-0.3c-0.3-0.2-0.4-0.5-0.5-0.9
			c0-0.3,0.1-0.7,0.3-0.9c0.2-0.3,0.5-0.4,0.8-0.4c0.4,0,0.7,0.1,0.9,0.3c0.3,0.2,0.4,0.5,0.5,0.9
			C174.5,218.3,174.5,218.6,174.3,218.8z"/>
		<path fill="#D5D5D2" d="M170,223.6c-0.3,0.3-0.6,0.4-0.9,0.4c-0.4,0-0.7-0.1-0.9-0.4c-0.3-0.2-0.4-0.5-0.4-0.9
			c0-0.4,0.1-0.7,0.3-0.9c0.2-0.2,0.5-0.4,0.9-0.4c0.4,0,0.7,0.1,0.9,0.3c0.3,0.2,0.4,0.6,0.4,0.9
			C170.3,223.1,170.2,223.4,170,223.6z"/>
		<path fill="#D5D5D2" d="M165.5,228.2c-0.3,0.3-0.6,0.4-0.9,0.4c-0.4,0-0.6-0.2-0.9-0.4c-0.2-0.3-0.4-0.6-0.3-0.9
			c0-0.4,0.1-0.6,0.4-0.9c0.2-0.2,0.5-0.3,0.9-0.3c0.4,0,0.6,0.1,0.9,0.4c0.2,0.3,0.4,0.6,0.4,0.9
			C165.8,227.7,165.7,228,165.5,228.2z"/>
		<path fill="#D5D5D2" d="M160.6,232.4c-0.3,0.2-0.6,0.3-1,0.3c-0.3,0-0.6-0.2-0.9-0.5c-0.2-0.3-0.3-0.6-0.3-0.9
			c0-0.4,0.2-0.6,0.4-0.9c0.3-0.2,0.6-0.3,0.9-0.3c0.4,0,0.6,0.2,0.9,0.5c0.2,0.3,0.3,0.6,0.3,1C161,232,160.8,232.2,160.6,232.4z"
			/>
		<path fill="#D5D5D2" d="M155.5,236.3c-0.3,0.2-0.6,0.3-1,0.2c-0.3-0.1-0.6-0.2-0.8-0.5c-0.2-0.3-0.3-0.6-0.2-1
			c0.1-0.3,0.2-0.6,0.5-0.8c0.3-0.2,0.6-0.3,0.9-0.2c0.3,0.1,0.6,0.2,0.8,0.5c0.2,0.3,0.3,0.6,0.2,1
			C155.9,235.9,155.8,236.2,155.5,236.3z"/>
		<path fill="#D5D5D2" d="M150.2,239.9c-0.3,0.2-0.7,0.3-1,0.2c-0.3-0.1-0.6-0.3-0.8-0.6c-0.2-0.3-0.2-0.6-0.2-1
			c0.1-0.3,0.3-0.6,0.6-0.8c0.3-0.2,0.6-0.2,0.9-0.1c0.3,0.1,0.6,0.3,0.8,0.6c0.2,0.3,0.2,0.6,0.2,1
			C150.6,239.5,150.4,239.7,150.2,239.9z"/>
		<path fill="#D5D5D2" d="M144.6,243.1c-0.3,0.2-0.7,0.2-1,0.1c-0.3-0.1-0.6-0.3-0.7-0.6c-0.2-0.3-0.2-0.6-0.1-1s0.3-0.6,0.6-0.7
			c0.3-0.2,0.6-0.2,1-0.1c0.3,0.1,0.6,0.3,0.8,0.6c0.2,0.3,0.2,0.7,0.1,1C145,242.8,144.8,243,144.6,243.1z"/>
		<path fill="#D5D5D2" d="M138.8,246c-0.3,0.2-0.7,0.2-1,0c-0.3-0.1-0.6-0.4-0.7-0.7c-0.1-0.3-0.2-0.6,0-1c0.1-0.3,0.3-0.6,0.7-0.7
			c0.3-0.1,0.6-0.1,1,0c0.3,0.1,0.6,0.3,0.7,0.7c0.2,0.3,0.2,0.7,0,1C139.3,245.6,139.1,245.8,138.8,246z"/>
		<path fill="#D5D5D2" d="M132.9,248.4c-0.4,0.1-0.7,0.1-1,0c-0.3-0.2-0.5-0.4-0.7-0.7c-0.1-0.3-0.1-0.7,0-1
			c0.1-0.3,0.4-0.5,0.7-0.7c0.3-0.1,0.6-0.1,1,0c0.3,0.1,0.5,0.4,0.7,0.7c0.1,0.3,0.1,0.7,0,1C133.4,248.1,133.2,248.3,132.9,248.4z
			"/>
		<path fill="#D5D5D2" d="M126.8,250.5c-0.4,0.1-0.7,0.1-1-0.1c-0.3-0.2-0.5-0.4-0.6-0.8c-0.1-0.3-0.1-0.7,0.1-1
			c0.2-0.3,0.4-0.5,0.7-0.6c0.3-0.1,0.6-0.1,1,0.1c0.3,0.2,0.5,0.4,0.6,0.8c0.1,0.3,0.1,0.7-0.1,1
			C127.3,250.2,127.1,250.4,126.8,250.5z"/>
		<path fill="#D5D5D2" d="M120.6,252.2c-0.4,0.1-0.7,0-1-0.2c-0.3-0.2-0.5-0.5-0.6-0.8c-0.1-0.3,0-0.7,0.2-1
			c0.2-0.3,0.4-0.5,0.8-0.6c0.3-0.1,0.6,0,0.9,0.2c0.3,0.2,0.5,0.5,0.6,0.8c0.1,0.4,0,0.7-0.2,1
			C121.1,251.9,120.8,252.1,120.6,252.2z"/>
		<path fill="#D5D5D2" d="M114.3,253.4c-0.4,0.1-0.7,0-1-0.2c-0.3-0.2-0.5-0.5-0.5-0.8c-0.1-0.4,0-0.7,0.2-1s0.5-0.5,0.8-0.5
			c0.3-0.1,0.6,0,0.9,0.2c0.3,0.2,0.5,0.5,0.5,0.8c0.1,0.4,0,0.7-0.2,1C114.8,253.2,114.6,253.4,114.3,253.4z"/>
		<path fill="#D5D5D2" d="M107.9,254.2c-0.4,0-0.7-0.1-1-0.3s-0.4-0.5-0.5-0.9c0-0.4,0.1-0.7,0.3-0.9c0.2-0.3,0.5-0.4,0.8-0.5
			c0.3,0,0.6,0.1,0.9,0.3c0.3,0.2,0.4,0.5,0.5,0.9c0,0.4-0.1,0.7-0.3,1C108.4,254.1,108.2,254.2,107.9,254.2z"/>
		<path fill="#D5D5D2" d="M101.4,254.6c-0.4,0-0.7-0.1-1-0.3c-0.3-0.2-0.4-0.5-0.4-0.9c0-0.4,0.1-0.7,0.3-0.9
			c0.2-0.3,0.5-0.4,0.9-0.4c0.3,0,0.6,0.1,0.9,0.3c0.3,0.2,0.4,0.5,0.4,0.9c0,0.4-0.1,0.7-0.4,0.9
			C102,254.5,101.7,254.6,101.4,254.6z"/>
		<path fill="#D5D5D2" d="M95,254.6c-0.4,0-0.7-0.1-0.9-0.4c-0.2-0.3-0.3-0.6-0.3-0.9c0-0.4,0.1-0.7,0.4-0.9
			c0.3-0.2,0.6-0.4,0.9-0.3c0.3,0,0.6,0.1,0.9,0.4c0.2,0.3,0.4,0.6,0.3,0.9c0,0.4-0.1,0.7-0.4,0.9C95.6,254.5,95.3,254.6,95,254.6z"
			/>
		<path fill="#D5D5D2" d="M88.6,254.2c-0.4,0-0.7-0.2-0.9-0.5c-0.2-0.3-0.3-0.6-0.3-0.9c0-0.4,0.2-0.6,0.5-0.9
			c0.3-0.2,0.6-0.3,0.9-0.3c0.3,0,0.6,0.2,0.8,0.5c0.2,0.3,0.3,0.6,0.3,0.9c0,0.4-0.2,0.7-0.5,0.9C89.2,254.2,88.9,254.2,88.6,254.2
			z"/>
		<path fill="#D5D5D2" d="M82.2,253.4c-0.4-0.1-0.7-0.2-0.9-0.5c-0.2-0.3-0.3-0.6-0.2-1c0.1-0.3,0.2-0.6,0.5-0.8
			c0.3-0.2,0.6-0.3,0.9-0.2c0.3,0.1,0.6,0.2,0.8,0.5c0.2,0.3,0.3,0.6,0.2,0.9c-0.1,0.4-0.2,0.6-0.5,0.8
			C82.8,253.4,82.5,253.4,82.2,253.4z"/>
		<path fill="#D5D5D2" d="M75.9,252.1c-0.4-0.1-0.6-0.3-0.8-0.6c-0.2-0.3-0.2-0.6-0.2-1c0.1-0.3,0.3-0.6,0.6-0.8
			c0.3-0.2,0.6-0.2,0.9-0.2c0.3,0.1,0.6,0.3,0.8,0.6c0.2,0.3,0.2,0.6,0.2,1c-0.1,0.4-0.3,0.6-0.6,0.8
			C76.5,252.1,76.2,252.2,75.9,252.1z"/>
		<path fill="#D5D5D2" d="M69.7,250.5c-0.4-0.1-0.6-0.3-0.8-0.6c-0.2-0.3-0.2-0.6-0.1-1c0.1-0.3,0.3-0.6,0.6-0.8
			c0.3-0.2,0.6-0.2,1-0.1c0.3,0.1,0.6,0.3,0.7,0.6c0.2,0.3,0.2,0.6,0.1,1c-0.1,0.3-0.3,0.6-0.6,0.8C70.3,250.5,70,250.5,69.7,250.5z
			"/>
		<path fill="#D5D5D2" d="M63.6,248.4c-0.4-0.1-0.6-0.4-0.7-0.7c-0.1-0.3-0.1-0.6,0-1c0.1-0.3,0.3-0.6,0.7-0.7c0.3-0.1,0.6-0.2,1,0
			c0.3,0.1,0.5,0.3,0.7,0.7c0.1,0.3,0.2,0.6,0,1c-0.1,0.3-0.4,0.6-0.7,0.7C64.1,248.5,63.8,248.5,63.6,248.4z"/>
		<path fill="#D5D5D2" d="M57.6,245.9c-0.3-0.2-0.6-0.4-0.7-0.7c-0.1-0.3-0.1-0.7,0-1c0.1-0.3,0.4-0.5,0.7-0.7c0.3-0.1,0.6-0.1,1,0
			c0.3,0.1,0.5,0.4,0.6,0.7c0.1,0.3,0.1,0.7,0,1c-0.2,0.3-0.4,0.6-0.7,0.7C58.2,246,57.9,246,57.6,245.9z"/>
		<path fill="#D5D5D2" d="M51.9,243.1c-0.3-0.2-0.6-0.4-0.6-0.8c-0.1-0.3-0.1-0.7,0.1-1c0.2-0.3,0.4-0.5,0.8-0.6
			c0.3-0.1,0.7-0.1,1,0.1c0.3,0.2,0.5,0.4,0.6,0.7c0.1,0.3,0.1,0.7-0.1,1c-0.2,0.3-0.4,0.5-0.8,0.6
			C52.4,243.2,52.1,243.2,51.9,243.1z"/>
		<path fill="#D5D5D2" d="M46.3,239.8c-0.3-0.2-0.5-0.5-0.6-0.8c-0.1-0.3,0-0.7,0.2-1c0.2-0.3,0.5-0.5,0.8-0.6c0.3-0.1,0.7,0,1,0.2
			c0.3,0.2,0.5,0.4,0.5,0.8c0.1,0.3,0,0.7-0.2,1c-0.2,0.3-0.5,0.5-0.8,0.6C46.8,240,46.5,240,46.3,239.8z"/>
		<path fill="#D5D5D2" d="M41,236.3c-0.3-0.2-0.5-0.5-0.5-0.9c-0.1-0.3,0-0.7,0.2-0.9c0.2-0.3,0.5-0.5,0.8-0.5
			c0.3-0.1,0.7,0,0.9,0.2c0.3,0.2,0.4,0.5,0.5,0.8c0.1,0.3,0,0.7-0.2,0.9c-0.2,0.3-0.5,0.5-0.8,0.5C41.5,236.5,41.2,236.4,41,236.3z
			"/>
		<path fill="#D5D5D2" d="M35.9,232.3c-0.3-0.2-0.5-0.5-0.5-0.9c0-0.4,0.1-0.7,0.3-0.9c0.2-0.3,0.5-0.4,0.9-0.5
			c0.3,0,0.7,0.1,0.9,0.3c0.3,0.2,0.4,0.5,0.4,0.8c0,0.4-0.1,0.7-0.3,0.9c-0.2,0.3-0.5,0.4-0.9,0.5
			C36.4,232.6,36.1,232.5,35.9,232.3z"/>
		<path fill="#D5D5D2" d="M31,228.1c-0.3-0.3-0.4-0.6-0.4-0.9c0-0.4,0.1-0.7,0.4-0.9c0.2-0.3,0.5-0.4,0.9-0.4c0.4,0,0.7,0.1,0.9,0.3
			c0.2,0.2,0.4,0.5,0.4,0.9c0,0.4-0.1,0.7-0.3,0.9c-0.2,0.3-0.6,0.4-0.9,0.4C31.5,228.4,31.2,228.3,31,228.1z"/>
		<path fill="#D5D5D2" d="M26.5,223.5c-0.3-0.3-0.4-0.6-0.4-0.9c0-0.4,0.2-0.6,0.4-0.9c0.3-0.2,0.6-0.4,0.9-0.3
			c0.4,0,0.6,0.1,0.9,0.4c0.2,0.2,0.3,0.5,0.3,0.9c0,0.4-0.1,0.6-0.4,0.9c-0.3,0.2-0.6,0.4-0.9,0.4
			C26.9,223.8,26.7,223.7,26.5,223.5z"/>
		<path fill="#D5D5D2" d="M22.2,218.7c-0.2-0.3-0.3-0.6-0.3-1c0-0.3,0.2-0.6,0.5-0.9c0.3-0.2,0.6-0.3,0.9-0.3c0.4,0,0.6,0.2,0.9,0.4
			c0.2,0.3,0.3,0.6,0.3,0.9c0,0.4-0.2,0.6-0.5,0.9c-0.3,0.2-0.6,0.3-1,0.3C22.7,219.1,22.4,218.9,22.2,218.7z"/>
		<path fill="#D5D5D2" d="M18.3,213.6c-0.2-0.3-0.3-0.6-0.2-1c0.1-0.3,0.2-0.6,0.5-0.8c0.3-0.2,0.6-0.3,1-0.2
			c0.3,0.1,0.6,0.2,0.8,0.5c0.2,0.3,0.3,0.6,0.2,0.9c-0.1,0.3-0.2,0.6-0.5,0.8c-0.3,0.2-0.6,0.3-1,0.2
			C18.7,214,18.5,213.8,18.3,213.6z"/>
		<path fill="#D5D5D2" d="M14.7,208.2c-0.2-0.3-0.3-0.7-0.2-1c0.1-0.3,0.3-0.6,0.6-0.8c0.3-0.2,0.6-0.2,1-0.2
			c0.3,0.1,0.6,0.3,0.8,0.6c0.2,0.3,0.2,0.6,0.1,0.9c-0.1,0.3-0.3,0.6-0.6,0.8c-0.3,0.2-0.6,0.2-1,0.2
			C15.1,208.6,14.9,208.5,14.7,208.2z"/>
		<path fill="#D5D5D2" d="M11.5,202.7c-0.2-0.3-0.2-0.7-0.1-1c0.1-0.3,0.3-0.6,0.6-0.7c0.3-0.2,0.6-0.2,1-0.1
			c0.3,0.1,0.6,0.3,0.7,0.6c0.2,0.3,0.2,0.6,0.1,1c-0.1,0.3-0.3,0.6-0.6,0.8c-0.3,0.2-0.7,0.2-1,0.1
			C11.9,203.1,11.6,202.9,11.5,202.7z"/>
		<path fill="#D5D5D2" d="M8.7,196.9c-0.2-0.3-0.2-0.7,0-1c0.1-0.3,0.4-0.6,0.7-0.7c0.3-0.1,0.7-0.2,1,0c0.3,0.1,0.6,0.3,0.7,0.7
			c0.1,0.3,0.1,0.6,0,1c-0.1,0.3-0.3,0.6-0.7,0.7c-0.3,0.2-0.7,0.2-1,0C9,197.3,8.8,197.1,8.7,196.9z"/>
		<path fill="#D5D5D2" d="M6.2,190.9c-0.1-0.4-0.1-0.7,0-1c0.2-0.3,0.4-0.5,0.7-0.7c0.3-0.1,0.7-0.1,1,0c0.3,0.1,0.5,0.4,0.7,0.7
			c0.1,0.3,0.1,0.6,0,1c-0.1,0.3-0.4,0.5-0.7,0.7c-0.3,0.1-0.7,0.1-1,0C6.5,191.4,6.3,191.2,6.2,190.9z"/>
		<path fill="#D5D5D2" d="M4.1,184.9c-0.1-0.4-0.1-0.7,0.1-1c0.2-0.3,0.4-0.5,0.8-0.6c0.3-0.1,0.7-0.1,1,0.1
			c0.3,0.2,0.5,0.4,0.6,0.7c0.1,0.3,0.1,0.6-0.1,1c-0.2,0.3-0.4,0.5-0.8,0.6c-0.3,0.1-0.7,0.1-1-0.1C4.4,185.4,4.2,185.1,4.1,184.9z
			"/>
		<path fill="#D5D5D2" d="M2.5,178.6c-0.1-0.4,0-0.7,0.2-1c0.2-0.3,0.5-0.5,0.8-0.6c0.3-0.1,0.7,0,1,0.2c0.3,0.2,0.5,0.4,0.6,0.8
			c0.1,0.3,0,0.6-0.2,0.9s-0.5,0.5-0.8,0.6c-0.4,0.1-0.7,0-1-0.2C2.7,179.1,2.5,178.9,2.5,178.6z"/>
		<path fill="#D5D5D2" d="M1.2,172.3c-0.1-0.4,0-0.7,0.2-1c0.2-0.3,0.5-0.5,0.8-0.5c0.4-0.1,0.7,0,1,0.2c0.3,0.2,0.5,0.5,0.5,0.8
			c0.1,0.3,0,0.6-0.2,0.9c-0.2,0.3-0.5,0.5-0.8,0.5c-0.4,0.1-0.7,0-1-0.2C1.5,172.8,1.3,172.6,1.2,172.3z"/>
		<path fill="#D5D5D2" d="M0.4,165.9c0-0.4,0.1-0.7,0.3-1c0.2-0.3,0.5-0.4,0.9-0.5c0.4,0,0.7,0.1,0.9,0.3c0.3,0.2,0.4,0.5,0.5,0.8
			c0,0.3-0.1,0.6-0.3,0.9c-0.2,0.3-0.5,0.4-0.9,0.5c-0.4,0-0.7-0.1-1-0.3C0.6,166.5,0.4,166.2,0.4,165.9z"/>
		<path fill="#D5D5D2" d="M0,159.5c0-0.4,0.1-0.7,0.3-1c0.2-0.3,0.5-0.4,0.9-0.4c0.4,0,0.7,0.1,0.9,0.3c0.3,0.2,0.4,0.5,0.4,0.9
			c0,0.3-0.1,0.6-0.3,0.9c-0.2,0.3-0.5,0.4-0.9,0.4c-0.4,0-0.7-0.1-0.9-0.4C0.1,160.1,0,159.8,0,159.5z"/>
		<path fill="#D5D5D2" d="M0,153.1c0-0.4,0.1-0.7,0.4-0.9c0.3-0.2,0.6-0.3,0.9-0.3c0.4,0,0.7,0.1,0.9,0.4c0.2,0.3,0.4,0.6,0.3,0.9
			c0,0.3-0.1,0.6-0.4,0.9c-0.3,0.2-0.6,0.4-0.9,0.3c-0.4,0-0.7-0.1-0.9-0.4C0.1,153.6,0,153.4,0,153.1z"/>
		<path fill="#D5D5D2" d="M0.4,146.6c0-0.4,0.2-0.7,0.5-0.9c0.3-0.2,0.6-0.3,0.9-0.3c0.4,0,0.6,0.2,0.9,0.5c0.2,0.3,0.3,0.6,0.3,0.9
			c0,0.3-0.2,0.6-0.5,0.8c-0.3,0.2-0.6,0.3-0.9,0.3c-0.4,0-0.7-0.2-0.9-0.5C0.5,147.2,0.4,146.9,0.4,146.6z"/>
		<path fill="#D5D5D2" d="M1.3,140.3c0.1-0.4,0.2-0.7,0.5-0.9c0.3-0.2,0.6-0.3,1-0.2c0.4,0.1,0.6,0.2,0.8,0.5
			c0.2,0.3,0.3,0.6,0.2,0.9c-0.1,0.3-0.2,0.6-0.5,0.8c-0.3,0.2-0.6,0.3-0.9,0.2c-0.4-0.1-0.6-0.2-0.8-0.5
			C1.3,140.8,1.2,140.5,1.3,140.3z"/>
		<path fill="#D5D5D2" d="M2.5,133.9c0.1-0.4,0.3-0.6,0.6-0.8c0.3-0.2,0.6-0.2,1-0.2c0.3,0.1,0.6,0.3,0.8,0.6
			c0.2,0.3,0.2,0.6,0.2,0.9c-0.1,0.3-0.3,0.6-0.6,0.8c-0.3,0.2-0.6,0.2-1,0.2c-0.4-0.1-0.6-0.3-0.8-0.6
			C2.5,134.5,2.5,134.2,2.5,133.9z"/>
		<path fill="#D5D5D2" d="M4.2,127.7c0.1-0.4,0.3-0.6,0.6-0.8s0.6-0.2,1-0.1c0.3,0.1,0.6,0.3,0.8,0.6c0.2,0.3,0.2,0.6,0.1,1
			c-0.1,0.3-0.3,0.6-0.6,0.7c-0.3,0.2-0.6,0.2-1,0.1c-0.3-0.1-0.6-0.3-0.8-0.6C4.1,128.3,4.1,128,4.2,127.7z"/>
		<path fill="#D5D5D2" d="M6.3,121.6c0.1-0.4,0.4-0.6,0.7-0.7c0.3-0.1,0.6-0.1,1,0c0.3,0.1,0.6,0.3,0.7,0.7c0.1,0.3,0.2,0.6,0,1
			c-0.1,0.3-0.3,0.5-0.7,0.7c-0.3,0.1-0.6,0.2-1,0c-0.3-0.1-0.6-0.4-0.7-0.7C6.2,122.2,6.1,121.9,6.3,121.6z"/>
		<path fill="#D5D5D2" d="M8.7,115.7c0.2-0.3,0.4-0.6,0.7-0.7c0.3-0.1,0.7-0.1,1,0c0.3,0.1,0.5,0.4,0.7,0.7c0.1,0.3,0.1,0.6,0,1
			c-0.1,0.3-0.4,0.5-0.7,0.6c-0.3,0.1-0.7,0.1-1,0c-0.3-0.2-0.6-0.4-0.7-0.7C8.6,116.3,8.6,116,8.7,115.7z"/>
		<path fill="#D5D5D2" d="M11.6,109.9c0.2-0.3,0.4-0.6,0.8-0.6c0.3-0.1,0.7-0.1,1,0.1c0.3,0.2,0.5,0.4,0.6,0.8
			c0.1,0.3,0.1,0.7-0.1,1c-0.2,0.3-0.4,0.5-0.7,0.6c-0.3,0.1-0.7,0.1-1-0.1c-0.3-0.2-0.5-0.4-0.6-0.8
			C11.4,110.5,11.4,110.2,11.6,109.9z"/>
		<path fill="#D5D5D2" d="M14.8,104.4c0.2-0.3,0.5-0.5,0.8-0.6c0.3-0.1,0.7,0,1,0.2c0.3,0.2,0.5,0.5,0.6,0.8c0.1,0.3,0,0.7-0.2,1
			c-0.2,0.3-0.4,0.5-0.8,0.5c-0.3,0.1-0.7,0-1-0.2c-0.3-0.2-0.5-0.5-0.6-0.8C14.6,104.9,14.6,104.6,14.8,104.4z"/>
		<path fill="#D5D5D2" d="M18.4,99c0.2-0.3,0.5-0.5,0.9-0.5c0.3-0.1,0.7,0,0.9,0.2c0.3,0.2,0.5,0.5,0.5,0.8c0.1,0.3,0,0.7-0.2,0.9
			c-0.2,0.3-0.5,0.4-0.8,0.5c-0.3,0.1-0.7,0-0.9-0.2c-0.3-0.2-0.5-0.5-0.5-0.8C18.2,99.6,18.2,99.3,18.4,99z"/>
		<path fill="#D5D5D2" d="M22.3,93.9c0.2-0.3,0.5-0.5,0.9-0.5c0.4,0,0.7,0.1,0.9,0.3c0.3,0.2,0.4,0.5,0.5,0.9c0,0.3-0.1,0.7-0.3,0.9
			c-0.2,0.3-0.5,0.4-0.8,0.4c-0.3,0-0.7-0.1-0.9-0.3c-0.3-0.2-0.4-0.5-0.5-0.9C22.1,94.4,22.1,94.1,22.3,93.9z"/>
		<path fill="#D5D5D2" d="M26.6,89.1c0.3-0.3,0.6-0.4,0.9-0.4c0.4,0,0.7,0.1,0.9,0.3c0.3,0.2,0.4,0.5,0.4,0.9c0,0.4-0.1,0.7-0.3,0.9
			c-0.2,0.2-0.5,0.4-0.9,0.4c-0.4,0-0.7-0.1-0.9-0.3c-0.3-0.2-0.4-0.6-0.4-0.9C26.3,89.6,26.4,89.3,26.6,89.1z"/>
		<path fill="#D5D5D2" d="M31.1,84.5c0.3-0.3,0.6-0.4,0.9-0.4c0.4,0,0.6,0.2,0.9,0.4c0.2,0.3,0.4,0.6,0.3,0.9c0,0.4-0.1,0.6-0.4,0.9
			c-0.2,0.2-0.5,0.3-0.9,0.3c-0.4,0-0.6-0.1-0.9-0.4c-0.2-0.3-0.4-0.6-0.4-0.9C30.8,85,30.9,84.7,31.1,84.5z"/>
		<path fill="#D5D5D2" d="M36,80.3c0.3-0.2,0.6-0.3,1-0.3c0.3,0,0.6,0.2,0.9,0.5c0.2,0.3,0.3,0.6,0.3,0.9c0,0.3-0.2,0.6-0.4,0.9
			c-0.3,0.2-0.6,0.3-0.9,0.3c-0.3,0-0.6-0.2-0.9-0.5c-0.2-0.3-0.3-0.6-0.3-1C35.6,80.7,35.7,80.5,36,80.3z"/>
		<path fill="#D5D5D2" d="M41.1,76.4c0.3-0.2,0.6-0.3,1-0.2c0.3,0.1,0.6,0.2,0.8,0.5c0.2,0.3,0.3,0.6,0.2,1
			c-0.1,0.3-0.2,0.6-0.5,0.8c-0.3,0.2-0.6,0.3-0.9,0.2c-0.3-0.1-0.6-0.2-0.8-0.5c-0.2-0.3-0.3-0.6-0.2-1
			C40.7,76.8,40.8,76.5,41.1,76.4z"/>
		<path fill="#D5D5D2" d="M46.4,72.8c0.3-0.2,0.7-0.3,1-0.2c0.3,0.1,0.6,0.3,0.8,0.6c0.2,0.3,0.2,0.6,0.2,1
			c-0.1,0.3-0.3,0.6-0.6,0.8c-0.3,0.2-0.6,0.2-0.9,0.1c-0.3-0.1-0.6-0.3-0.8-0.6c-0.2-0.3-0.2-0.6-0.2-1
			C46,73.2,46.2,72.9,46.4,72.8z"/>
		<path fill="#D5D5D2" d="M52,69.6c0.3-0.2,0.7-0.2,1-0.1c0.3,0.1,0.6,0.3,0.7,0.6c0.2,0.3,0.2,0.6,0.1,1c-0.1,0.3-0.3,0.6-0.6,0.7
			c-0.3,0.2-0.6,0.2-1,0.1c-0.3-0.1-0.6-0.3-0.8-0.6c-0.2-0.3-0.2-0.7-0.1-1C51.5,70,51.7,69.7,52,69.6z"/>
		<path fill="#D5D5D2" d="M57.8,66.7c0.3-0.2,0.7-0.2,1,0c0.3,0.1,0.6,0.4,0.7,0.7c0.1,0.3,0.2,0.7,0,1c-0.1,0.3-0.3,0.6-0.7,0.7
			c-0.3,0.1-0.6,0.1-1,0c-0.3-0.1-0.6-0.3-0.7-0.7c-0.2-0.3-0.2-0.7,0-1C57.3,67.1,57.5,66.9,57.8,66.7z"/>
		<path fill="#D5D5D2" d="M63.7,64.3c0.4-0.1,0.7-0.1,1,0c0.3,0.2,0.5,0.4,0.7,0.7c0.1,0.3,0.1,0.7,0,1c-0.1,0.3-0.4,0.5-0.7,0.7
			c-0.3,0.1-0.6,0.1-1,0c-0.3-0.1-0.5-0.4-0.7-0.7c-0.1-0.3-0.1-0.7,0-1C63.2,64.6,63.4,64.4,63.7,64.3z"/>
		<path fill="#D5D5D2" d="M69.8,62.2c0.4-0.1,0.7-0.1,1,0.1c0.3,0.2,0.5,0.4,0.6,0.8c0.1,0.3,0.1,0.7-0.1,1
			c-0.2,0.3-0.4,0.5-0.7,0.6c-0.3,0.1-0.6,0.1-0.9-0.1c-0.3-0.2-0.5-0.4-0.6-0.8c-0.1-0.3-0.1-0.7,0.1-1
			C69.3,62.5,69.5,62.3,69.8,62.2z"/>
	</g>
	<g>
		<g>
			<path fill="#464442" d="M28.9,314.4h98.2c10.9,0,19.7,0,19.7,0V180c0-14.4-9.4-23.7-23.7-23.7H28.9V314.4z"/>
		</g>
		<g>
			<path fill="#FFFFFF" d="M34.9,304.9h79.7c8.9,0,32.2,0,32.2,0V197.8c0-11.8-19.7-19.4-31.4-19.4H34.9V304.9z"/>
		</g>
		<g>
			<path fill="#ECEDEC" d="M38.7,301.3h80.7c8.9,0,27.2,0,27.2,0V194.1c0-11.8-14.7-19.4-26.4-19.4H38.7V301.3z"/>
		</g>
		<g>
			<path fill="#FFFFFF" d="M42.4,298H123c8.9,0,23.2,0,23.2,0V190.9c0-11.8-10.7-19.4-22.4-19.4H42.4V298z"/>
		</g>
		<g>
			<path fill="#ECEDEC" d="M46.3,294.5h80.7c8.9,0,20.2,0,20.2,0V187.4c0-11.8-7.7-19.4-19.4-19.4H46.3V294.5z"/>
		</g>
		<g>
			<path fill="#FFFFFF" d="M49.9,290.7h80.7c8.9,0,16.2,0,16.2,0V183.5c0-11.8-7.7-19.4-19.4-19.4H49.9V290.7z"/>
		</g>
		<g>
			<path fill="#464442" d="M264.4,314.4h-98.2c-10.9,0-19.7,0-19.7,0V180c0-14.4,9.4-23.7,23.7-23.7h94.2V314.4z"/>
		</g>
		<g>
			<path fill="#FFFFFF" d="M258.4,304.9h-79.7c-8.9,0-32.2,0-32.2,0V197.8c0-11.8,19.7-19.4,31.4-19.4h80.4V304.9z"/>
		</g>
		<g>
			<path fill="#ECEDEC" d="M254.6,301.3H174c-8.9,0-27.2,0-27.2,0V194.1c0-11.8,14.7-19.4,26.4-19.4h81.4V301.3z"/>
		</g>
		<g>
			<path fill="#FFFFFF" d="M250.9,298h-80.7c-8.9,0-23.2,0-23.2,0V190.9c0-11.8,10.7-19.4,22.4-19.4h81.4V298z"/>
		</g>
		<g>
			<path fill="#ECEDEC" d="M247,294.5h-80.7c-8.9,0-20.2,0-20.2,0V187.4c0-11.8,7.7-19.4,19.4-19.4H247V294.5z"/>
		</g>
		<g>
			<path fill="#FFFFFF" d="M243.4,290.7h-80.7c-8.9,0-16.2,0-16.2,0V183.5c0-11.8,7.7-19.4,19.4-19.4h77.4V290.7z"/>
		</g>
		<g>
			<rect x="144.9" y="175" fill="#C0BFBD" width="3.8" height="130.1"/>
		</g>
	</g>
	<g>
		<rect x="65" y="347.7" fill="#464442" width="1" height="0.5"/>
	</g>
	<g>
		<g>
			<circle fill="#DCDBDA" cx="72.4" cy="206" r="2.8"/>
		</g>
		<g>
			<path fill="#DCDBDA" d="M118.3,205.7c0,1.1-0.9,2.1-2.1,2.1H80.3c-1.1,0-2.1-0.9-2.1-2.1l0,0c0-1.1,0.9-2.1,2.1-2.1h35.9
				C117.4,203.6,118.3,204.5,118.3,205.7L118.3,205.7z"/>
		</g>
		<g>
			<circle fill="#F8C7C3" cx="73" cy="192.3" r="2.8"/>
		</g>
		<g>
			<path fill="#F8C7C3" d="M107.2,192c0,1.1-0.9,2.1-2.1,2.1H81c-1.1,0-2.1-0.9-2.1-2.1l0,0c0-1.1,0.9-2.1,2.1-2.1h24.2
				C106.3,189.9,107.2,190.8,107.2,192L107.2,192z"/>
		</g>
		<g>
			<circle fill="#F8C7C3" cx="72.4" cy="221.9" r="2.8"/>
		</g>
		<g>
			<path fill="#F8C7C3" d="M96.1,221.6c0,1.1-0.9,2.1-2.1,2.1H80.3c-1.1,0-2.1-0.9-2.1-2.1l0,0c0-1.1,0.9-2.1,2.1-2.1h13.7
				C95.2,219.5,96.1,220.4,96.1,221.6L96.1,221.6z"/>
		</g>
	</g>
	<g>
		<g>
			<circle fill="#DCDBDA" cx="173.7" cy="235.1" r="1.6"/>
		</g>
		<g>
			<path fill="#DCDBDA" d="M218.8,234.9c0,0.7-0.5,1.2-1.2,1.2h-39.3c-0.7,0-1.2-0.5-1.2-1.2l0,0c0-0.7,0.5-1.2,1.2-1.2h39.3
				C218.3,233.7,218.8,234.3,218.8,234.9L218.8,234.9z"/>
		</g>
		<g>
			<circle fill="#F8C7C3" cx="174.1" cy="227.1" r="1.6"/>
		</g>
		<g>
			<path fill="#F8C7C3" d="M212.4,226.9c0,0.7-0.5,1.2-1.2,1.2h-32.4c-0.7,0-1.2-0.5-1.2-1.2l0,0c0-0.7,0.5-1.2,1.2-1.2h32.4
				C211.8,225.7,212.4,226.3,212.4,226.9L212.4,226.9z"/>
		</g>
	</g>
	<g>
		<g>
			<polygon fill="#F8C7C3" points="71.6,259.9 117.3,259.9 117.3,253.3 100.2,247.7 89.4,247.7 71.6,253.9 			"/>
		</g>
		<g>
			<rect x="71.6" y="258.9" fill="#FFFFFF" width="45.7" height="16.8"/>
		</g>
		<g>
			<rect x="71.6" y="275.7" fill="#DCDBDA" width="45.7" height="3"/>
		</g>
		<g>
			
				<rect x="71.6" y="274.2" transform="matrix(1 -8.634949e-03 8.634949e-03 1 -2.3703 0.8262)" fill="#E7E7E5" width="45.7" height="1.5"/>
		</g>
		<g>
			<rect x="72.2" y="259.7" fill="#E7E7E5" width="1.5" height="14.9"/>
		</g>
		<g>
			<rect x="87.9" y="259.7" fill="#E7E7E5" width="1.5" height="14.9"/>
		</g>
		<g>
			<rect x="101" y="259.7" fill="#E7E7E5" width="1.5" height="14.9"/>
		</g>
		<g>
			<rect x="115.2" y="259.7" fill="#E7E7E5" width="1.5" height="14.9"/>
		</g>
		<g>
			<line fill="#F09390" x1="105.3" y1="249.6" x2="105.3" y2="250"/>
		</g>
		<g>
			<line fill="#F09390" x1="83.7" y1="250" x2="83.7" y2="249.6"/>
		</g>
		<g>
			<path fill="#2A2825" d="M79.3,274.2V267c0-1.3,1-2.3,2.3-2.3l0,0c1.3,0,2.3,1,2.3,2.3v7.1"/>
		</g>
		<g>
			<path fill="#2A2825" d="M106.9,274.2V267c0-1.3,1-2.3,2.3-2.3l0,0c1.3,0,2.3,1,2.3,2.3v7.1"/>
		</g>
		<g>
			<path fill="#2A2825" d="M91.9,274.2v-9.3c0-1.7,1.4-3,3-3l0,0c1.7,0,3,1.4,3,3v9.3"/>
		</g>
	</g>
	<g>
		<path fill="#DCDBDA" d="M219,130.9c0,0-7.3-7.3-11.4-11.4c-4.1-4.1-11.4-6.4-15.4-0.2c-3,4.6,0.6,11.6,6.1,11.6"/>
	</g>
	<g>
		<path fill="#F9CECF" d="M219,130.9c0,0-7.3,7.3-11.4,11.4c-4.1,4.1-11.4,6.4-15.4,0.2c-3-4.6,0.6-11.6,6.1-11.6"/>
	</g>
	<g>
		<g>
			<path fill="#464442" d="M187.8,276.8c0,0.8-0.7,1.5-1.5,1.5l0,0c-0.8,0-1.5-0.7-1.5-1.5v-6.7c0-0.8,0.7-1.5,1.5-1.5l0,0
				c0.8,0,1.5,0.7,1.5,1.5V276.8z"/>
		</g>
		<g>
			<path fill="#464442" d="M208.5,276.7c0,0.8-0.7,1.5-1.5,1.5l0,0c-0.8,0-1.5-0.7-1.5-1.5v-6.7c0-0.8,0.7-1.5,1.5-1.5l0,0
				c0.8,0,1.5,0.7,1.5,1.5V276.7z"/>
		</g>
		<g>
			<path fill="#FFFFFF" d="M204.3,264.4c0,0.8-0.7,1.5-1.5,1.5h-12.5c-0.8,0-1.5-0.7-1.5-1.5v-2.2c0-0.8,0.7-1.5,1.5-1.5h12.5
				c0.8,0,1.5,0.7,1.5,1.5V264.4z"/>
		</g>
		<g>
			<path fill="#F8C7C3" d="M204.3,258c0,0.8-0.7,1.5-1.5,1.5h-12.5c-0.8,0-1.5-0.7-1.5-1.5v-9.1c0-0.8,0.7-1.5,1.5-1.5h12.5
				c0.8,0,1.5,0.7,1.5,1.5V258z"/>
		</g>
		<g>
			<rect x="183" y="260.6" fill="#F8C7C3" width="4.9" height="11.2"/>
		</g>
		<g>
			<rect x="205.5" y="260.1" fill="#F8C7C3" width="4.9" height="11.2"/>
		</g>
		<g>
			<rect x="183" y="266.8" fill="#F8C7C3" width="27.5" height="7"/>
		</g>
		<g>
			<circle fill="#F8C7C3" cx="184.1" cy="260.1" r="3.8"/>
		</g>
		<g>
			<circle fill="#F8C7C3" cx="209.3" cy="260.6" r="3.8"/>
		</g>
	</g>
	<g>
		<path fill="#FFFFFF" d="M156.6,172.4c0,0,6.9-5,23.5-5h65v-70c0,0-51.5,0-67,0s-21.6-5-21.6-5L156.6,172.4z"/>
	</g>
	<g>
		<path fill="#FFFFFF" d="M111.6,40.6c0,0-5.1,7-5.1,23.9v66.2l-71.3,0c0,0,0-52.5,0-68.2c0-15.7,5.1-22,5.1-22L111.6,40.6z"/>
	</g>
	<g>
		<path fill="#FCFCFD" d="M165.8,0.5c0,0-2.5,3.3-2.6,11.5l-0.4,31.9l-34.4-0.4c0,0,0.3-25.3,0.4-32.9C129,3,131.5,0,131.5,0
			L165.8,0.5z"/>
	</g>
	<g>
		<g>
			
				<rect x="188.4" y="120.8" transform="matrix(-0.7071 -0.7071 0.7071 -0.7071 247.0805 349.5356)" fill="#DCDBDA" width="15" height="5.5"/>
		</g>
		<g>
			
				<rect x="171.8" y="118.2" transform="matrix(0.7071 -0.7071 0.7071 0.7071 -32.1084 164.333)" fill="#DCDBDA" width="21" height="5.5"/>
		</g>
		<g>
			
				<rect x="188.4" y="130.5" transform="matrix(-0.7071 -0.7071 0.7071 -0.7071 240.2459 366.0332)" fill="#F8C7C3" width="15" height="5.5"/>
		</g>
		<g>
			
				<rect x="171.8" y="127.8" transform="matrix(0.7071 -0.7071 0.7071 0.7071 -38.9418 167.1643)" fill="#F8C7C3" width="21" height="5.5"/>
		</g>
		<g>
			
				<rect x="188.4" y="140.2" transform="matrix(-0.7071 -0.7071 0.7071 -0.7071 233.4135 382.5307)" fill="#DCDBDA" width="15" height="5.5"/>
		</g>
		<g>
			
				<rect x="171.8" y="137.5" transform="matrix(0.7071 -0.7071 0.7071 0.7071 -45.7755 169.9941)" fill="#DCDBDA" width="21" height="5.5"/>
		</g>
	</g>
	<g>
		<g>
			<path fill="#DCDBDA" d="M205.5,200.7l0-10.6c0-5.3-4.3-9.6-9.6-9.6c-5.3,0-9.6,4.3-9.6,9.6l0,10.6L205.5,200.7z"/>
		</g>
		<g>
			<path fill="#DCDBDA" d="M203.5,194.7c0,4.4-3.6,8-8,8l0,0c-4.4,0-7.7-3.6-7.7-8l0-4.8c0-4.4,3.6-8,8-8l-0.3-0.3
				c4.4,0,8,3.9,8,8.3L203.5,194.7z"/>
		</g>
		<g>
			<path fill="#DCDBDA" d="M186.4,193c0,3.4-1.5,6.9-3.3,7.6l4,0L186.4,193z"/>
		</g>
		<g>
			<path fill="#DCDBDA" d="M205.5,193c0,3.4,1.5,6.9,4,7.6l-4,0L205.5,193z"/>
		</g>
		<g>
			<path fill="#DCDBDA" d="M198.6,200.9c0,4.2-0.2,7.1,6.9,7.8c7,0.6,7,6.2,7,7.6h-18.4v-15.4H198.6z"/>
		</g>
		<g>
			<path fill="#DCDBDA" d="M192.6,200.9c0,4.2,0.2,7.1-6.9,7.8c-7,0.6-7,6.2-7,7.6H197v-15.4H192.6z"/>
		</g>
	</g>
	<g>
		<polygon fill="#F3F4F4" points="243.4,164.1 170.9,164.1 156.5,164.1 245,156.3 		"/>
	</g>
	<g>
		<g>
			<circle fill="#DCDBDA" cx="217.7" cy="140.4" r="0.7"/>
		</g>
		<g>
			<path fill="#DCDBDA" d="M236.8,140.5c0-0.3-0.2-0.5-0.5-0.5h-16.7c-0.3,0-0.5,0.2-0.5,0.5l0,0c0,0.3,0.2,0.5,0.5,0.5h16.7
				C236.6,141,236.8,140.8,236.8,140.5L236.8,140.5z"/>
		</g>
		<g>
			<circle fill="#DCDBDA" cx="217.9" cy="143.8" r="0.7"/>
		</g>
		<g>
			<path fill="#DCDBDA" d="M234.1,143.9c0-0.3-0.2-0.5-0.5-0.5h-13.8c-0.3,0-0.5,0.2-0.5,0.5l0,0c0,0.3,0.2,0.5,0.5,0.5h13.8
				C233.9,144.4,234.1,144.2,234.1,143.9L234.1,143.9z"/>
		</g>
	</g>
	<g>
		<g>
			<rect x="205.2" y="118.6" fill="#DCDBDA" width="13.7" height="0.8"/>
		</g>
		<g>
			<rect x="218.1" y="118.6" fill="#DCDBDA" width="0.8" height="13.7"/>
		</g>
		<g>
			<circle fill="#F8C7C3" cx="205" cy="119" r="1.7"/>
		</g>
	</g>
	<g>
		<rect x="57.8" y="298" fill="#F8C7C3" width="21" height="38.7"/>
	</g>
	<g>
		<g>
			<path fill="#FFFFFF" d="M69,331.7c0,0-3.1-3.1-4.9-4.9c-1.8-1.8-2.7-4.9-0.1-6.6c2-1.3,5,0.3,5,2.6"/>
		</g>
		<g>
			<path fill="#FFFFFF" d="M69,331.7c0,0,3.1-3.1,4.9-4.9c1.8-1.8,2.7-4.9,0.1-6.6c-2-1.3-5,0.3-5,2.6"/>
		</g>
	</g>
	<g>
		<g>
			<path fill="#F8C7C3" d="M70.1,104.6c0.1,0.6-0.3,1.1-0.9,1.2l0,0c-0.6,0.1-1.1-0.3-1.2-0.9l-2.8-20.1c-0.1-0.6,0.3-1.1,0.9-1.2
				l0,0c0.6-0.1,1.1,0.3,1.2,0.9L70.1,104.6z"/>
		</g>
		<g>
			<path fill="#F8C7C3" d="M53.3,84.3c0,0.6-0.4,1.1-0.9,1.1l0,0c-0.6,0-1.1-0.4-1.1-0.9l-1.6-20.3c0-0.6,0.4-1.1,0.9-1.1l0,0
				c0.6,0,1.1,0.4,1.1,0.9L53.3,84.3z"/>
		</g>
		<g>
			<path fill="#F8C7C3" d="M56.9,81.7c0,0.3-0.2,0.6-0.5,0.6l0,0c-0.3,0-0.6-0.2-0.6-0.5l-0.9-11.1c0-0.3,0.2-0.6,0.5-0.6l0,0
				c0.3,0,0.6,0.2,0.6,0.5L56.9,81.7z"/>
		</g>
		<g>
			<path fill="#F8C7C3" d="M60.1,81.8c0,0.3-0.3,0.6-0.6,0.6l0,0c-0.3,0-0.6-0.3-0.6-0.6l0.2-11.1c0-0.3,0.3-0.6,0.6-0.6l0,0
				c0.3,0,0.6,0.3,0.6,0.6L60.1,81.8z"/>
		</g>
		<g>
			<path fill="#F8C7C3" d="M62.6,81.7c0,0.3,0.2,0.6,0.5,0.6l0,0c0.3,0,0.6-0.2,0.6-0.5l0.9-11.1c0-0.3-0.2-0.6-0.5-0.6l0,0
				c-0.3,0-0.6,0.2-0.6,0.5L62.6,81.7z"/>
		</g>
		<g>
			<path fill="#F8C7C3" d="M66.2,84.3c0,0.6,0.4,1.1,0.9,1.1l0,0c0.6,0,1.1-0.4,1.1-0.9l1.6-20.3c0-0.6-0.4-1.1-0.9-1.1l0,0
				c-0.6,0-1.1,0.4-1.1,0.9L66.2,84.3z"/>
		</g>
		<g>
			<path fill="#F8C7C3" d="M49.1,104.6c-0.1,0.6,0.3,1.1,0.9,1.2l0,0c0.6,0.1,1.1-0.3,1.2-0.9l2.8-20.1c0.1-0.6-0.3-1.1-0.9-1.2l0,0
				c-0.6-0.1-1.1,0.3-1.2,0.9L49.1,104.6z"/>
		</g>
		<g>
			<path fill="#F8C7C3" d="M66.6,93.8c0.5,0,0.9,0.4,0.9,0.9l0,0c0,0.5-0.4,0.9-0.9,0.9H52.2c-0.5,0-0.9-0.4-0.9-0.9l0,0
				c0-0.5,0.4-0.9,0.9-0.9H66.6z"/>
		</g>
		<g>
			<path fill="#DCDBDA" d="M71.5,85.4c0,2-1.6,3.7-3.7,3.7h-16c-2,0-3.7-1.6-3.7-3.7l0,0c0-2,3-3.7,5-3.7h13.2
				C68.5,81.7,71.5,83.3,71.5,85.4L71.5,85.4z"/>
		</g>
		<g>
			<rect x="50.6" y="67" fill="#F8C7C3" width="18" height="4.5"/>
		</g>
		<g>
			<circle fill="#F8C7C3" cx="50.5" cy="63.9" r="1.7"/>
		</g>
		<g>
			<circle fill="#F8C7C3" cx="68.6" cy="63.9" r="1.7"/>
		</g>
	</g>
	<g>
		<g>
			<circle fill="#DCDBDA" cx="67" cy="110.4" r="0.8"/>
		</g>
		<g>
			<path fill="#DCDBDA" d="M90.5,110.5c0-0.3-0.3-0.6-0.6-0.6l-20.4,0c-0.4,0-0.6,0.3-0.6,0.6l0,0c0,0.3,0.3,0.6,0.6,0.6l20.4,0
				C90.2,111.1,90.5,110.9,90.5,110.5L90.5,110.5z"/>
		</g>
		<g>
			<circle fill="#DCDBDA" cx="67.2" cy="114.6" r="0.8"/>
		</g>
		<g>
			<path fill="#DCDBDA" d="M87.2,114.7c0-0.3-0.3-0.6-0.6-0.6H69.7c-0.3,0-0.6,0.3-0.6,0.6l0,0c0,0.3,0.3,0.6,0.6,0.6h16.9
				C86.9,115.3,87.2,115,87.2,114.7L87.2,114.7z"/>
		</g>
	</g>
	<g>
		<g>
			<circle fill="#DCDBDA" cx="139.4" cy="21.7" r="0.9"/>
		</g>
		<g>
			<path fill="#DCDBDA" d="M153.9,21.9c0,0.4-0.3,0.6-0.7,0.6l-11.3-0.2c-0.4,0-0.6-0.3-0.6-0.7l0,0c0-0.4,0.3-0.6,0.7-0.6l11.3,0.2
				C153.6,21.2,153.9,21.5,153.9,21.9L153.9,21.9z"/>
		</g>
		<g>
			<circle fill="#DCDBDA" cx="139.7" cy="17.4" r="0.9"/>
		</g>
		<g>
			<path fill="#DCDBDA" d="M150.5,17.5c0,0.4-0.3,0.6-0.7,0.6l-7.6-0.2c-0.4,0-0.6-0.3-0.6-0.7l0,0c0-0.4,0.3-0.6,0.7-0.6l7.6,0.2
				C150.2,16.9,150.5,17.2,150.5,17.5L150.5,17.5z"/>
		</g>
		<g>
			<circle fill="#DCDBDA" cx="139.3" cy="26.7" r="0.9"/>
		</g>
		<g>
			<path fill="#DCDBDA" d="M146.8,26.7c0,0.4-0.3,0.6-0.7,0.6l-4.3-0.1c-0.4,0-0.6-0.3-0.6-0.7l0,0c0-0.4,0.3-0.6,0.7-0.6l4.3,0.1
				C146.5,26.1,146.8,26.4,146.8,26.7L146.8,26.7z"/>
		</g>
	</g>
	<g>
		<g>
			<g>
				<g>
					<path fill="#DCDBDA" d="M86.5,59.7l0-3.3c0-1.6-1.3-3-3-3c-1.6,0-3,1.3-3,3l0,3.3L86.5,59.7z"/>
				</g>
				<g>
					<path fill="#DCDBDA" d="M85.9,57.8c0,1.4-1.1,2.5-2.5,2.5l0,0c-1.4,0-2.4-1.1-2.4-2.5l0-1.5c0-1.4,1.1-2.5,2.5-2.5l-0.1-0.1
						c1.4,0,2.5,1.2,2.5,2.6L85.9,57.8z"/>
				</g>
				<g>
					<path fill="#DCDBDA" d="M80.6,57.3c0,1.1-0.5,2.1-1,2.4h1.2L80.6,57.3z"/>
				</g>
				<g>
					<path fill="#DCDBDA" d="M86.5,57.3c0,1.1,0.5,2.1,1.2,2.4h-1.2L86.5,57.3z"/>
				</g>
				<g>
					<path fill="#DCDBDA" d="M84.4,59.8c0,1.3-0.1,2.2,2.1,2.4c2.2,0.2,2.2,1.9,2.2,2.4H83v-4.8H84.4z"/>
				</g>
				<g>
					<path fill="#DCDBDA" d="M82.5,59.8c0,1.3,0.1,2.2-2.1,2.4c-2.2,0.2-2.2,1.9-2.2,2.4h5.7v-4.8H82.5z"/>
				</g>
			</g>
			<g>
				<polygon fill="#DCDBDA" points="85.4,91.2 87.1,91.2 87.1,74.7 83.8,74.7 				"/>
			</g>
			<g>
				<path fill="#DCDBDA" d="M85.4,92.8v-1.4h1.7l1.4,0.6c0.8,0.3,1.4,0.7,1.4,1.4l0,0h-1.9L85.4,92.8z"/>
			</g>
			<g>
				<rect x="85.4" y="92.3" fill="#DCDBDA" width="1.7" height="1.1"/>
			</g>
			<g>
				<polygon fill="#DCDBDA" points="81.8,91.2 80.1,91.2 80.1,74.7 83.4,74.7 				"/>
			</g>
			<g>
				<path fill="#DCDBDA" d="M78.8,61"/>
			</g>
			<g>
				<path fill="#DCDBDA" d="M87.4,68.3"/>
			</g>
			<g>
				<path fill="#DCDBDA" d="M81.8,92.8v-1.4h-1.7l-1.4,0.6c-0.8,0.3-1.4,0.7-1.4,1.4l0,0h1.9L81.8,92.8z"/>
			</g>
			<g>
				<polygon fill="#DCDBDA" points="88.8,81.1 78.6,81.1 79.2,72.3 88.1,72.3 				"/>
			</g>
			<g>
				<rect x="80.1" y="92.3" fill="#DCDBDA" width="1.7" height="1.1"/>
			</g>
			<g>
				<polygon fill="#DCDBDA" points="78.2,64.4 79.2,72.3 88.1,72.3 88.7,64.6 				"/>
			</g>
		</g>
		<g>
			<g>
				<g>
					<path fill="#DCDBDA" d="M94.5,73.7c0,1-0.9,1.8-2,1.8l0,0c-1.1,0-1.9-0.8-1.9-1.9l0-1.1c0-1,0.9-1.8,2-1.8l-0.1-0.1
						c1.1,0,2,0.9,2,1.9L94.5,73.7z"/>
				</g>
				<g>
					<path fill="#DCDBDA" d="M91,75.1"/>
				</g>
				<g>
					<path fill="#DCDBDA" d="M93.1,75.2c0,0.7,0,1.2,1.3,1.3c1.3,0.1,1.3,1.1,1.3,1.3h-3.4v-2.7H93.1z"/>
				</g>
				<g>
					<path fill="#DCDBDA" d="M92,75.2c0,0.7,0,1.2-1.3,1.3c-1.3,0.1-1.3,1.1-1.3,1.3h3.4v-2.7H92z"/>
				</g>
			</g>
			<g>
				<polygon fill="#DCDBDA" points="93.7,92.2 94.7,92.2 94.7,83 92.8,83 				"/>
			</g>
			<g>
				<path fill="#DCDBDA" d="M93.7,93.1v-0.8h1l0.8,0.4c0.5,0.2,0.8,0.4,0.8,0.8l0,0h-1.2L93.7,93.1z"/>
			</g>
			<g>
				<rect x="93.7" y="92.8" fill="#DCDBDA" width="1" height="0.6"/>
			</g>
			<g>
				<polygon fill="#DCDBDA" points="91.6,92.2 90.5,92.2 90.5,83 92.5,83 				"/>
			</g>
			<g>
				<path fill="#DCDBDA" d="M89.8,75.9"/>
			</g>
			<g>
				<path fill="#DCDBDA" d="M94.9,79.9"/>
			</g>
			<g>
				<path fill="#DCDBDA" d="M91.6,93.1v-0.8h-1l-0.8,0.4c-0.5,0.2-0.8,0.4-0.8,0.8l0,0H90L91.6,93.1z"/>
			</g>
			<g>
				<polygon fill="#DCDBDA" points="95.7,87.1 89.6,87.1 90,82.2 95.4,82.2 				"/>
			</g>
			<g>
				<rect x="90.5" y="92.8" fill="#DCDBDA" width="1" height="0.6"/>
			</g>
			<g>
				<polygon fill="#DCDBDA" points="89.4,77.8 90,82.2 95.4,82.2 95.7,77.9 				"/>
			</g>
		</g>
		<g>
			<polyline fill="#DCDBDA" points="88.6,63.7 91,77.3 89.8,77.8 87.4,68.3 			"/>
		</g>
	</g>
</g>
</svg>
