<?xml version="1.0" encoding="utf-8"?>
<!-- Generator: Adobe Illustrator 18.1.1, SVG Export Plug-In . SVG Version: 6.00 Build 0)  -->
<svg version="1.1" id="레이어_1" xmlns="http://www.w3.org/2000/svg" xmlns:xlink="http://www.w3.org/1999/xlink" x="0px"
	 y="0px" viewBox="0 0 223.2 285.8" enable-background="new 0 0 223.2 285.8" xml:space="preserve">
<g>
	<g>
		<path fill="#D5D5D2" d="M48.6,163.3c0.2,0,0.4,0,0.5,0.1c0.2,0.1,0.2,0.2,0.3,0.4c0,0.2,0,0.3-0.1,0.5c-0.1,0.2-0.2,0.3-0.4,0.3
			c-0.2,0-0.3,0-0.5-0.1c-0.2-0.1-0.2-0.2-0.3-0.4c0-0.2,0-0.4,0.1-0.5C48.4,163.5,48.5,163.4,48.6,163.3z"/>
		<path fill="#D5D5D2" d="M51.9,162.7c0.2,0,0.4,0,0.5,0.1c0.1,0.1,0.2,0.3,0.3,0.4c0,0.2,0,0.3-0.1,0.5c-0.1,0.1-0.2,0.2-0.4,0.3
			c-0.2,0-0.3,0-0.5-0.1c-0.1-0.1-0.2-0.2-0.3-0.4c0-0.2,0-0.4,0.1-0.5C51.6,162.8,51.8,162.7,51.9,162.7z"/>
		<path fill="#D5D5D2" d="M55.2,162.3c0.2,0,0.4,0,0.5,0.1c0.1,0.1,0.2,0.3,0.2,0.4c0,0.2,0,0.3-0.1,0.5c-0.1,0.1-0.3,0.2-0.4,0.2
			c-0.2,0-0.3,0-0.5-0.1c-0.1-0.1-0.2-0.3-0.2-0.4c0-0.2,0-0.4,0.1-0.5C54.9,162.4,55.1,162.3,55.2,162.3z"/>
		<path fill="#D5D5D2" d="M58.5,162.1c0.2,0,0.4,0.1,0.5,0.2c0.1,0.1,0.2,0.3,0.2,0.5c0,0.2-0.1,0.3-0.2,0.5
			c-0.1,0.1-0.3,0.2-0.5,0.2c-0.2,0-0.3-0.1-0.5-0.2c-0.1-0.1-0.2-0.3-0.2-0.5c0-0.2,0.1-0.3,0.2-0.5
			C58.2,162.1,58.4,162.1,58.5,162.1z"/>
		<path fill="#D5D5D2" d="M61.8,162.1c0.2,0,0.4,0.1,0.5,0.2c0.1,0.1,0.2,0.3,0.2,0.5c0,0.2-0.1,0.3-0.2,0.5
			c-0.1,0.1-0.3,0.2-0.5,0.2c-0.2,0-0.3-0.1-0.4-0.2c-0.1-0.1-0.2-0.3-0.2-0.5c0-0.2,0.1-0.3,0.2-0.5
			C61.5,162.1,61.7,162.1,61.8,162.1z"/>
		<path fill="#D5D5D2" d="M65.1,162.3c0.2,0,0.4,0.1,0.5,0.2c0.1,0.1,0.2,0.3,0.1,0.5c0,0.2-0.1,0.3-0.2,0.4
			c-0.1,0.1-0.3,0.2-0.5,0.1c-0.2,0-0.3-0.1-0.4-0.2c-0.1-0.1-0.2-0.3-0.1-0.5c0-0.2,0.1-0.3,0.2-0.5
			C64.8,162.3,65,162.3,65.1,162.3z"/>
		<path fill="#D5D5D2" d="M68.4,162.7c0.2,0,0.3,0.1,0.4,0.3c0.1,0.1,0.1,0.3,0.1,0.5c0,0.2-0.1,0.3-0.3,0.4
			c-0.1,0.1-0.3,0.1-0.5,0.1c-0.2,0-0.3-0.1-0.4-0.3c-0.1-0.1-0.1-0.3-0.1-0.5c0-0.2,0.1-0.3,0.3-0.4
			C68.1,162.7,68.3,162.7,68.4,162.7z"/>
		<path fill="#D5D5D2" d="M71.7,163.4c0.2,0,0.3,0.1,0.4,0.3c0.1,0.2,0.1,0.3,0.1,0.5c0,0.2-0.1,0.3-0.3,0.4
			c-0.2,0.1-0.3,0.1-0.5,0.1c-0.2,0-0.3-0.1-0.4-0.3c-0.1-0.2-0.1-0.3-0.1-0.5c0-0.2,0.1-0.3,0.3-0.4
			C71.4,163.4,71.6,163.3,71.7,163.4z"/>
		<path fill="#D5D5D2" d="M74.9,164.2c0.2,0.1,0.3,0.2,0.4,0.3c0.1,0.2,0.1,0.3,0,0.5c-0.1,0.2-0.2,0.3-0.3,0.4
			c-0.2,0.1-0.3,0.1-0.5,0.1c-0.2-0.1-0.3-0.2-0.4-0.3c-0.1-0.2-0.1-0.3,0-0.5c0.1-0.2,0.2-0.3,0.3-0.4
			C74.6,164.2,74.8,164.2,74.9,164.2z"/>
		<path fill="#D5D5D2" d="M78.1,165.3c0.2,0.1,0.3,0.2,0.4,0.4c0.1,0.2,0.1,0.3,0,0.5c-0.1,0.2-0.2,0.3-0.3,0.4
			c-0.2,0.1-0.3,0.1-0.5,0c-0.2-0.1-0.3-0.2-0.4-0.3c-0.1-0.2-0.1-0.3,0-0.5c0.1-0.2,0.2-0.3,0.4-0.4
			C77.8,165.2,77.9,165.2,78.1,165.3z"/>
		<path fill="#D5D5D2" d="M81.1,166.6c0.2,0.1,0.3,0.2,0.4,0.4c0.1,0.2,0.1,0.3,0,0.5c-0.1,0.2-0.2,0.3-0.4,0.3
			c-0.2,0.1-0.3,0.1-0.5,0c-0.2-0.1-0.3-0.2-0.3-0.4c-0.1-0.2-0.1-0.3,0-0.5c0.1-0.2,0.2-0.3,0.4-0.4
			C80.8,166.5,81,166.5,81.1,166.6z"/>
		<path fill="#D5D5D2" d="M84.1,168c0.2,0.1,0.3,0.2,0.3,0.4c0,0.2,0,0.3-0.1,0.5c-0.1,0.2-0.2,0.3-0.4,0.3c-0.2,0.1-0.3,0-0.5,0
			c-0.2-0.1-0.3-0.2-0.3-0.4c-0.1-0.2,0-0.3,0.1-0.5c0.1-0.2,0.2-0.3,0.4-0.3C83.8,168,84,168,84.1,168z"/>
		<path fill="#D5D5D2" d="M87,169.7c0.2,0.1,0.3,0.2,0.3,0.4c0,0.2,0,0.3-0.1,0.5c-0.1,0.2-0.2,0.3-0.4,0.3s-0.3,0-0.5-0.1
			c-0.1-0.1-0.2-0.2-0.3-0.4c0-0.2,0-0.3,0.1-0.5c0.1-0.2,0.2-0.3,0.4-0.3C86.7,169.6,86.8,169.6,87,169.7z"/>
		<path fill="#D5D5D2" d="M89.7,171.6c0.2,0.1,0.3,0.3,0.3,0.4c0,0.2,0,0.3-0.1,0.5c-0.1,0.1-0.2,0.2-0.4,0.3c-0.2,0-0.3,0-0.5-0.1
			c-0.1-0.1-0.2-0.2-0.3-0.4c0-0.2,0-0.3,0.1-0.5c0.1-0.2,0.3-0.2,0.4-0.3C89.4,171.4,89.6,171.5,89.7,171.6z"/>
		<path fill="#D5D5D2" d="M92.4,173.6c0.2,0.1,0.2,0.3,0.2,0.5c0,0.2,0,0.3-0.1,0.5c-0.1,0.1-0.3,0.2-0.4,0.2c-0.2,0-0.3,0-0.5-0.1
			c-0.1-0.1-0.2-0.3-0.2-0.4c0-0.2,0-0.3,0.1-0.5c0.1-0.1,0.3-0.2,0.5-0.2C92.1,173.4,92.2,173.5,92.4,173.6z"/>
		<path fill="#D5D5D2" d="M94.9,175.8c0.1,0.1,0.2,0.3,0.2,0.5c0,0.2-0.1,0.3-0.2,0.5c-0.1,0.1-0.3,0.2-0.5,0.2
			c-0.2,0-0.3-0.1-0.5-0.2c-0.1-0.1-0.2-0.3-0.2-0.5c0-0.2,0.1-0.3,0.2-0.5c0.1-0.1,0.3-0.2,0.5-0.2
			C94.6,175.6,94.7,175.7,94.9,175.8z"/>
		<path fill="#D5D5D2" d="M97.2,178.1c0.1,0.1,0.2,0.3,0.2,0.5c0,0.2-0.1,0.3-0.2,0.5c-0.1,0.1-0.3,0.2-0.5,0.2
			c-0.2,0-0.3-0.1-0.5-0.2c-0.1-0.1-0.2-0.3-0.2-0.5c0-0.2,0.1-0.3,0.2-0.5c0.1-0.1,0.3-0.2,0.5-0.2S97.1,178,97.2,178.1z"/>
		<path fill="#D5D5D2" d="M99.4,180.6c0.1,0.2,0.2,0.3,0.2,0.5c0,0.2-0.1,0.3-0.2,0.4c-0.1,0.1-0.3,0.2-0.5,0.1
			c-0.2,0-0.3-0.1-0.4-0.2c-0.1-0.1-0.2-0.3-0.1-0.5c0-0.2,0.1-0.3,0.2-0.4c0.1-0.1,0.3-0.2,0.5-0.1
			C99.2,180.5,99.3,180.5,99.4,180.6z"/>
		<path fill="#D5D5D2" d="M101.4,183.3c0.1,0.2,0.2,0.3,0.1,0.5c0,0.2-0.1,0.3-0.3,0.4c-0.1,0.1-0.3,0.1-0.5,0.1
			c-0.2,0-0.3-0.1-0.4-0.3c-0.1-0.1-0.1-0.3-0.1-0.5c0-0.2,0.1-0.3,0.3-0.4c0.2-0.1,0.3-0.1,0.5-0.1
			C101.2,183.1,101.3,183.2,101.4,183.3z"/>
		<path fill="#D5D5D2" d="M103.3,186c0.1,0.2,0.1,0.3,0.1,0.5c0,0.2-0.1,0.3-0.3,0.4c-0.2,0.1-0.3,0.1-0.5,0.1
			c-0.2,0-0.3-0.1-0.4-0.3c-0.1-0.1-0.1-0.3-0.1-0.5c0-0.2,0.1-0.3,0.3-0.4c0.2-0.1,0.3-0.1,0.5-0.1
			C103,185.8,103.2,185.9,103.3,186z"/>
		<path fill="#D5D5D2" d="M104.9,188.9c0.1,0.2,0.1,0.3,0.1,0.5c-0.1,0.2-0.2,0.3-0.3,0.4c-0.2,0.1-0.3,0.1-0.5,0.1
			c-0.2-0.1-0.3-0.2-0.4-0.3c-0.1-0.2-0.1-0.3,0-0.5c0.1-0.2,0.2-0.3,0.3-0.4c0.2-0.1,0.3-0.1,0.5-0.1
			C104.7,188.7,104.8,188.8,104.9,188.9z"/>
		<path fill="#D5D5D2" d="M106.4,191.9c0.1,0.2,0.1,0.4,0,0.5c-0.1,0.2-0.2,0.3-0.3,0.4c-0.2,0.1-0.3,0.1-0.5,0
			c-0.2-0.1-0.3-0.2-0.4-0.3c-0.1-0.2-0.1-0.3,0-0.5c0.1-0.2,0.2-0.3,0.3-0.4c0.2-0.1,0.3-0.1,0.5,0
			C106.2,191.6,106.3,191.7,106.4,191.9z"/>
		<path fill="#D5D5D2" d="M107.6,195c0.1,0.2,0.1,0.4,0,0.5c-0.1,0.2-0.2,0.3-0.4,0.3c-0.2,0.1-0.3,0.1-0.5,0
			c-0.2-0.1-0.3-0.2-0.3-0.4c-0.1-0.2-0.1-0.3,0-0.5c0.1-0.2,0.2-0.3,0.4-0.3c0.2-0.1,0.3-0.1,0.5,0
			C107.5,194.7,107.6,194.8,107.6,195z"/>
		<path fill="#D5D5D2" d="M108.7,198.1c0.1,0.2,0,0.4,0,0.5s-0.2,0.3-0.4,0.3c-0.2,0.1-0.3,0-0.5,0c-0.2-0.1-0.3-0.2-0.3-0.4
			c-0.1-0.2,0-0.3,0.1-0.5c0.1-0.2,0.2-0.3,0.4-0.3c0.2-0.1,0.4,0,0.5,0.1C108.6,197.8,108.7,198,108.7,198.1z"/>
		<path fill="#D5D5D2" d="M109.6,201.3c0,0.2,0,0.4-0.1,0.5c-0.1,0.2-0.2,0.2-0.4,0.3c-0.2,0-0.3,0-0.5-0.1
			c-0.2-0.1-0.3-0.2-0.3-0.4c0-0.2,0-0.3,0.1-0.5c0.1-0.2,0.2-0.2,0.4-0.3c0.2,0,0.4,0,0.5,0.1C109.4,201,109.5,201.2,109.6,201.3z"
			/>
		<path fill="#D5D5D2" d="M110.2,204.6c0,0.2,0,0.4-0.1,0.5c-0.1,0.1-0.3,0.2-0.4,0.3c-0.2,0-0.3,0-0.5-0.1
			c-0.1-0.1-0.2-0.2-0.3-0.4c0-0.2,0-0.3,0.1-0.5c0.1-0.1,0.2-0.2,0.4-0.3c0.2,0,0.4,0,0.5,0.1C110.1,204.3,110.2,204.4,110.2,204.6
			z"/>
		<path fill="#D5D5D2" d="M110.6,207.9c0,0.2,0,0.4-0.1,0.5c-0.1,0.1-0.3,0.2-0.4,0.2c-0.2,0-0.3,0-0.5-0.1
			c-0.1-0.1-0.2-0.3-0.2-0.4c0-0.2,0-0.3,0.1-0.5c0.1-0.1,0.3-0.2,0.4-0.2c0.2,0,0.4,0,0.5,0.1C110.5,207.6,110.6,207.7,110.6,207.9
			z"/>
		<path fill="#D5D5D2" d="M110.8,211.2c0,0.2-0.1,0.4-0.2,0.5c-0.1,0.1-0.3,0.2-0.5,0.2c-0.2,0-0.3-0.1-0.5-0.2
			c-0.1-0.1-0.2-0.3-0.2-0.5c0-0.2,0.1-0.3,0.2-0.5c0.1-0.1,0.3-0.2,0.5-0.2c0.2,0,0.3,0.1,0.5,0.2
			C110.8,210.9,110.8,211,110.8,211.2z"/>
		<path fill="#D5D5D2" d="M110.8,214.5c0,0.2-0.1,0.4-0.2,0.5c-0.1,0.1-0.3,0.2-0.5,0.2c-0.2,0-0.3-0.1-0.5-0.2
			c-0.1-0.1-0.2-0.3-0.2-0.5c0-0.2,0.1-0.3,0.2-0.4c0.1-0.1,0.3-0.2,0.5-0.2c0.2,0,0.3,0.1,0.5,0.2
			C110.8,214.2,110.8,214.4,110.8,214.5z"/>
		<path fill="#D5D5D2" d="M110.6,217.8c0,0.2-0.1,0.3-0.2,0.5c-0.1,0.1-0.3,0.2-0.5,0.1c-0.2,0-0.3-0.1-0.4-0.2
			c-0.1-0.1-0.2-0.3-0.1-0.5c0-0.2,0.1-0.3,0.2-0.4c0.1-0.1,0.3-0.2,0.5-0.1c0.2,0,0.3,0.1,0.5,0.2
			C110.6,217.5,110.6,217.7,110.6,217.8z"/>
		<path fill="#D5D5D2" d="M110.2,221.1c0,0.2-0.1,0.3-0.3,0.4c-0.1,0.1-0.3,0.1-0.5,0.1c-0.2,0-0.3-0.1-0.4-0.3
			c-0.1-0.1-0.1-0.3-0.1-0.5c0-0.2,0.1-0.3,0.3-0.4c0.1-0.1,0.3-0.1,0.5-0.1c0.2,0,0.3,0.1,0.4,0.3
			C110.1,220.8,110.2,221,110.2,221.1z"/>
		<path fill="#D5D5D2" d="M109.5,224.4c0,0.2-0.1,0.3-0.3,0.4c-0.2,0.1-0.3,0.1-0.5,0.1c-0.2,0-0.3-0.1-0.4-0.3
			c-0.1-0.2-0.1-0.3-0.1-0.5c0-0.2,0.1-0.3,0.3-0.4c0.2-0.1,0.3-0.1,0.5-0.1c0.2,0,0.3,0.1,0.4,0.3
			C109.5,224.1,109.5,224.2,109.5,224.4z"/>
		<path fill="#D5D5D2" d="M108.6,227.6c-0.1,0.2-0.2,0.3-0.3,0.4c-0.2,0.1-0.3,0.1-0.5,0c-0.2-0.1-0.3-0.2-0.4-0.3
			c-0.1-0.2-0.1-0.3-0.1-0.5c0.1-0.2,0.2-0.3,0.3-0.4c0.2-0.1,0.3-0.1,0.5,0c0.2,0.1,0.3,0.2,0.4,0.3
			C108.7,227.3,108.7,227.4,108.6,227.6z"/>
		<path fill="#D5D5D2" d="M107.6,230.7c-0.1,0.2-0.2,0.3-0.4,0.4c-0.2,0.1-0.3,0.1-0.5,0c-0.2-0.1-0.3-0.2-0.4-0.3
			c-0.1-0.2-0.1-0.3,0-0.5c0.1-0.2,0.2-0.3,0.3-0.4c0.2-0.1,0.3-0.1,0.5,0c0.2,0.1,0.3,0.2,0.4,0.4
			C107.6,230.4,107.6,230.6,107.6,230.7z"/>
		<path fill="#D5D5D2" d="M106.3,233.8c-0.1,0.2-0.2,0.3-0.4,0.4c-0.2,0.1-0.3,0.1-0.5,0c-0.2-0.1-0.3-0.2-0.3-0.4
			c-0.1-0.2-0.1-0.3,0-0.5c0.1-0.2,0.2-0.3,0.4-0.3c0.2-0.1,0.3-0.1,0.5,0c0.2,0.1,0.3,0.2,0.3,0.4
			C106.4,233.5,106.3,233.7,106.3,233.8z"/>
		<path fill="#D5D5D2" d="M104.8,236.8c-0.1,0.2-0.2,0.3-0.4,0.3c-0.2,0-0.3,0-0.5-0.1c-0.2-0.1-0.3-0.2-0.3-0.4
			c-0.1-0.2,0-0.3,0-0.5c0.1-0.2,0.2-0.3,0.4-0.3c0.2-0.1,0.3,0,0.5,0.1c0.2,0.1,0.3,0.2,0.3,0.4
			C104.9,236.5,104.9,236.6,104.8,236.8z"/>
		<path fill="#D5D5D2" d="M103.1,239.6c-0.1,0.2-0.2,0.3-0.4,0.3c-0.2,0-0.3,0-0.5-0.1c-0.2-0.1-0.3-0.2-0.3-0.4
			c0-0.2,0-0.3,0.1-0.5c0.1-0.1,0.2-0.2,0.4-0.3c0.2,0,0.3,0,0.5,0.1c0.2,0.1,0.3,0.2,0.3,0.4C103.2,239.4,103.2,239.5,103.1,239.6z
			"/>
		<path fill="#D5D5D2" d="M101.3,242.4c-0.1,0.2-0.3,0.3-0.4,0.3c-0.2,0-0.3,0-0.5-0.1c-0.1-0.1-0.2-0.3-0.3-0.4
			c0-0.2,0-0.3,0.1-0.5c0.1-0.1,0.2-0.2,0.4-0.3c0.2,0,0.3,0,0.5,0.1c0.2,0.1,0.2,0.3,0.3,0.4C101.4,242.1,101.4,242.3,101.3,242.4z
			"/>
		<path fill="#D5D5D2" d="M99.3,245c-0.1,0.2-0.3,0.2-0.5,0.2c-0.2,0-0.3,0-0.5-0.2c-0.1-0.1-0.2-0.3-0.2-0.4c0-0.2,0-0.3,0.1-0.5
			c0.1-0.1,0.3-0.2,0.4-0.2c0.2,0,0.3,0,0.5,0.1c0.1,0.1,0.2,0.3,0.2,0.5C99.4,244.7,99.4,244.9,99.3,245z"/>
		<path fill="#D5D5D2" d="M97.1,247.5c-0.1,0.1-0.3,0.2-0.5,0.2c-0.2,0-0.3-0.1-0.5-0.2c-0.1-0.1-0.2-0.3-0.2-0.5
			c0-0.2,0.1-0.3,0.2-0.5c0.1-0.1,0.3-0.2,0.5-0.2c0.2,0,0.3,0.1,0.5,0.2c0.1,0.1,0.2,0.3,0.2,0.5C97.2,247.3,97.2,247.4,97.1,247.5
			z"/>
		<path fill="#D5D5D2" d="M94.7,249.9c-0.1,0.1-0.3,0.2-0.5,0.2c-0.2,0-0.3-0.1-0.5-0.2c-0.1-0.1-0.2-0.3-0.2-0.5
			c0-0.2,0.1-0.3,0.2-0.5c0.1-0.1,0.3-0.2,0.5-0.2c0.2,0,0.3,0.1,0.5,0.2c0.1,0.1,0.2,0.3,0.2,0.5C94.9,249.6,94.8,249.7,94.7,249.9
			z"/>
		<path fill="#D5D5D2" d="M92.2,252c-0.2,0.1-0.3,0.2-0.5,0.2c-0.2,0-0.3-0.1-0.4-0.2c-0.1-0.1-0.2-0.3-0.1-0.5
			c0-0.2,0.1-0.3,0.2-0.4c0.1-0.1,0.3-0.2,0.5-0.1c0.2,0,0.3,0.1,0.4,0.2c0.1,0.1,0.2,0.3,0.1,0.5C92.4,251.8,92.3,251.9,92.2,252z"
			/>
		<path fill="#D5D5D2" d="M89.5,254.1c-0.2,0.1-0.3,0.2-0.5,0.1c-0.2,0-0.3-0.1-0.4-0.3c-0.1-0.1-0.1-0.3-0.1-0.5
			c0-0.2,0.1-0.3,0.3-0.4c0.1-0.1,0.3-0.1,0.5-0.1c0.2,0,0.3,0.1,0.4,0.3c0.1,0.2,0.1,0.3,0.1,0.5C89.8,253.8,89.7,254,89.5,254.1z"
			/>
		<path fill="#D5D5D2" d="M86.8,255.9c-0.2,0.1-0.3,0.1-0.5,0.1c-0.2,0-0.3-0.1-0.4-0.3c-0.1-0.2-0.1-0.3-0.1-0.5
			c0-0.2,0.1-0.3,0.3-0.4c0.1-0.1,0.3-0.1,0.5-0.1c0.2,0,0.3,0.1,0.4,0.3c0.1,0.2,0.1,0.3,0.1,0.5C87,255.7,86.9,255.8,86.8,255.9z"
			/>
		<path fill="#D5D5D2" d="M83.9,257.6c-0.2,0.1-0.3,0.1-0.5,0.1c-0.2-0.1-0.3-0.2-0.4-0.3c-0.1-0.2-0.1-0.3-0.1-0.5
			c0.1-0.2,0.2-0.3,0.3-0.4c0.2-0.1,0.3-0.1,0.5,0c0.2,0.1,0.3,0.2,0.4,0.3c0.1,0.2,0.1,0.3,0,0.5C84.1,257.4,84,257.5,83.9,257.6z"
			/>
		<path fill="#D5D5D2" d="M80.9,259c-0.2,0.1-0.4,0.1-0.5,0c-0.2-0.1-0.3-0.2-0.4-0.3c-0.1-0.2-0.1-0.3,0-0.5s0.2-0.3,0.3-0.4
			c0.2-0.1,0.3-0.1,0.5,0c0.2,0.1,0.3,0.2,0.4,0.3c0.1,0.2,0.1,0.3,0,0.5C81.2,258.8,81.1,258.9,80.9,259z"/>
		<path fill="#D5D5D2" d="M77.9,260.3c-0.2,0.1-0.4,0.1-0.5,0c-0.2-0.1-0.3-0.2-0.3-0.4c-0.1-0.2-0.1-0.3,0-0.5
			c0.1-0.2,0.2-0.3,0.4-0.3c0.2-0.1,0.3-0.1,0.5,0c0.2,0.1,0.3,0.2,0.3,0.4c0.1,0.2,0.1,0.3,0,0.5C78.1,260.1,78,260.2,77.9,260.3z"
			/>
		<path fill="#D5D5D2" d="M74.7,261.3c-0.2,0.1-0.4,0-0.5,0c-0.2-0.1-0.3-0.2-0.3-0.4c-0.1-0.2,0-0.3,0-0.5c0.1-0.2,0.2-0.3,0.4-0.3
			c0.2-0.1,0.3,0,0.5,0.1c0.2,0.1,0.3,0.2,0.3,0.4c0.1,0.2,0,0.4-0.1,0.5C75,261.2,74.9,261.3,74.7,261.3z"/>
		<path fill="#D5D5D2" d="M71.5,262.2c-0.2,0-0.4,0-0.5-0.1c-0.2-0.1-0.2-0.2-0.3-0.4c0-0.2,0-0.3,0.1-0.5c0.1-0.2,0.2-0.3,0.4-0.3
			c0.2,0,0.3,0,0.5,0.1c0.2,0.1,0.2,0.2,0.3,0.4c0,0.2,0,0.4-0.1,0.5S71.7,262.1,71.5,262.2z"/>
		<path fill="#D5D5D2" d="M68.2,262.8c-0.2,0-0.4,0-0.5-0.1c-0.1-0.1-0.2-0.3-0.3-0.4c0-0.2,0-0.3,0.1-0.5c0.1-0.1,0.2-0.2,0.4-0.3
			c0.2,0,0.3,0,0.5,0.1c0.1,0.1,0.2,0.2,0.3,0.4c0,0.2,0,0.4-0.1,0.5C68.5,262.7,68.4,262.8,68.2,262.8z"/>
		<path fill="#D5D5D2" d="M65,263.2c-0.2,0-0.4,0-0.5-0.1c-0.1-0.1-0.2-0.3-0.2-0.4c0-0.2,0-0.3,0.1-0.5c0.1-0.1,0.3-0.2,0.4-0.2
			c0.2,0,0.3,0,0.5,0.2c0.1,0.1,0.2,0.3,0.2,0.4c0,0.2,0,0.4-0.2,0.5C65.2,263.1,65.1,263.2,65,263.2z"/>
		<path fill="#D5D5D2" d="M61.6,263.4c-0.2,0-0.4-0.1-0.5-0.2c-0.1-0.1-0.2-0.3-0.2-0.5c0-0.2,0.1-0.3,0.2-0.5
			c0.1-0.1,0.3-0.2,0.5-0.2c0.2,0,0.3,0.1,0.5,0.2c0.1,0.1,0.2,0.3,0.2,0.5c0,0.2-0.1,0.3-0.2,0.5C61.9,263.4,61.8,263.4,61.6,263.4
			z"/>
		<path fill="#D5D5D2" d="M58.3,263.4c-0.2,0-0.4-0.1-0.5-0.2c-0.1-0.1-0.2-0.3-0.2-0.5c0-0.2,0.1-0.3,0.2-0.5
			c0.1-0.1,0.3-0.2,0.5-0.2c0.2,0,0.3,0.1,0.4,0.2c0.1,0.1,0.2,0.3,0.2,0.5c0,0.2-0.1,0.3-0.2,0.5C58.6,263.4,58.4,263.4,58.3,263.4
			z"/>
		<path fill="#D5D5D2" d="M55,263.2c-0.2,0-0.4-0.1-0.5-0.2c-0.1-0.1-0.2-0.3-0.1-0.5c0-0.2,0.1-0.3,0.2-0.4
			c0.1-0.1,0.3-0.2,0.5-0.1c0.2,0,0.3,0.1,0.4,0.2c0.1,0.1,0.2,0.3,0.1,0.5c0,0.2-0.1,0.3-0.2,0.5C55.3,263.2,55.1,263.2,55,263.2z"
			/>
		<path fill="#D5D5D2" d="M51.7,262.8c-0.2,0-0.3-0.1-0.4-0.3c-0.1-0.1-0.1-0.3-0.1-0.5c0-0.2,0.1-0.3,0.3-0.4
			c0.1-0.1,0.3-0.1,0.5-0.1c0.2,0,0.3,0.1,0.4,0.3c0.1,0.1,0.1,0.3,0.1,0.5c0,0.2-0.1,0.3-0.3,0.4C52,262.7,51.9,262.8,51.7,262.8z"
			/>
		<path fill="#D5D5D2" d="M48.4,262.1c-0.2,0-0.3-0.1-0.4-0.3c-0.1-0.2-0.1-0.3-0.1-0.5c0-0.2,0.1-0.3,0.3-0.4
			c0.2-0.1,0.3-0.1,0.5-0.1c0.2,0,0.3,0.1,0.4,0.3c0.1,0.2,0.1,0.3,0.1,0.5c0,0.2-0.1,0.3-0.3,0.4C48.7,262.1,48.6,262.1,48.4,262.1
			z"/>
		<path fill="#D5D5D2" d="M45.2,261.2c-0.2-0.1-0.3-0.2-0.4-0.3c-0.1-0.2-0.1-0.3,0-0.5c0.1-0.2,0.2-0.3,0.3-0.4
			c0.2-0.1,0.3-0.1,0.5-0.1c0.2,0.1,0.3,0.2,0.4,0.3c0.1,0.2,0.1,0.3,0,0.5c-0.1,0.2-0.2,0.3-0.3,0.4
			C45.5,261.3,45.4,261.3,45.2,261.2z"/>
		<path fill="#D5D5D2" d="M42.1,260.1c-0.2-0.1-0.3-0.2-0.4-0.4c-0.1-0.2-0.1-0.3,0-0.5c0.1-0.2,0.2-0.3,0.3-0.4
			c0.2-0.1,0.3-0.1,0.5,0c0.2,0.1,0.3,0.2,0.4,0.3c0.1,0.2,0.1,0.3,0,0.5c-0.1,0.2-0.2,0.3-0.4,0.4
			C42.4,260.2,42.2,260.2,42.1,260.1z"/>
		<path fill="#D5D5D2" d="M39,258.9c-0.2-0.1-0.3-0.2-0.4-0.4c-0.1-0.2-0.1-0.3,0-0.5c0.1-0.2,0.2-0.3,0.4-0.3
			c0.2-0.1,0.3-0.1,0.5,0c0.2,0.1,0.3,0.2,0.3,0.4c0.1,0.2,0.1,0.3,0,0.5c-0.1,0.2-0.2,0.3-0.4,0.3C39.3,258.9,39.2,258.9,39,258.9z
			"/>
		<path fill="#D5D5D2" d="M36.1,257.4c-0.2-0.1-0.3-0.2-0.3-0.4c0-0.2,0-0.3,0.1-0.5c0.1-0.2,0.2-0.3,0.4-0.3c0.2-0.1,0.3,0,0.5,0
			c0.2,0.1,0.3,0.2,0.3,0.4c0.1,0.2,0,0.3-0.1,0.5c-0.1,0.2-0.2,0.3-0.4,0.3C36.3,257.5,36.2,257.5,36.1,257.4z"/>
		<path fill="#D5D5D2" d="M33.2,255.7c-0.2-0.1-0.3-0.2-0.3-0.4c0-0.2,0-0.3,0.1-0.5c0.1-0.2,0.2-0.3,0.4-0.3c0.2,0,0.3,0,0.5,0.1
			c0.1,0.1,0.2,0.2,0.3,0.4c0,0.2,0,0.3-0.1,0.5c-0.1,0.2-0.2,0.3-0.4,0.3C33.5,255.8,33.3,255.8,33.2,255.7z"/>
		<path fill="#D5D5D2" d="M30.4,253.8c-0.2-0.1-0.3-0.3-0.3-0.4c0-0.2,0-0.3,0.1-0.5c0.1-0.1,0.3-0.2,0.4-0.3c0.2,0,0.3,0,0.5,0.1
			c0.1,0.1,0.2,0.2,0.3,0.4c0,0.2,0,0.3-0.1,0.5c-0.1,0.2-0.3,0.2-0.4,0.3C30.7,254,30.6,253.9,30.4,253.8z"/>
		<path fill="#D5D5D2" d="M27.8,251.8c-0.2-0.1-0.2-0.3-0.2-0.5c0-0.2,0-0.3,0.2-0.5c0.1-0.1,0.3-0.2,0.4-0.2c0.2,0,0.3,0,0.5,0.1
			c0.1,0.1,0.2,0.3,0.2,0.4c0,0.2,0,0.3-0.1,0.5c-0.1,0.1-0.3,0.2-0.5,0.2C28.1,252,27.9,251.9,27.8,251.8z"/>
		<path fill="#D5D5D2" d="M25.3,249.6c-0.1-0.1-0.2-0.3-0.2-0.5c0-0.2,0.1-0.3,0.2-0.5c0.1-0.1,0.3-0.2,0.5-0.2
			c0.2,0,0.3,0.1,0.5,0.2c0.1,0.1,0.2,0.3,0.2,0.5c0,0.2-0.1,0.3-0.2,0.5c-0.1,0.1-0.3,0.2-0.5,0.2S25.4,249.7,25.3,249.6z"/>
		<path fill="#D5D5D2" d="M23,247.3c-0.1-0.1-0.2-0.3-0.2-0.5c0-0.2,0.1-0.3,0.2-0.5c0.1-0.1,0.3-0.2,0.5-0.2c0.2,0,0.3,0.1,0.5,0.2
			c0.1,0.1,0.2,0.3,0.2,0.5c0,0.2-0.1,0.3-0.2,0.5c-0.1,0.1-0.3,0.2-0.5,0.2C23.2,247.4,23.1,247.4,23,247.3z"/>
		<path fill="#D5D5D2" d="M20.8,244.7c-0.1-0.2-0.2-0.3-0.2-0.5c0-0.2,0.1-0.3,0.2-0.4c0.1-0.1,0.3-0.2,0.5-0.1
			c0.2,0,0.3,0.1,0.4,0.2c0.1,0.1,0.2,0.3,0.1,0.5c0,0.2-0.1,0.3-0.2,0.4c-0.1,0.1-0.3,0.2-0.5,0.1C21,244.9,20.9,244.9,20.8,244.7z
			"/>
		<path fill="#D5D5D2" d="M18.8,242.1c-0.1-0.2-0.2-0.3-0.1-0.5c0-0.2,0.1-0.3,0.3-0.4c0.1-0.1,0.3-0.1,0.5-0.1
			c0.2,0,0.3,0.1,0.4,0.3c0.1,0.1,0.1,0.3,0.1,0.5c0,0.2-0.1,0.3-0.3,0.4c-0.2,0.1-0.3,0.1-0.5,0.1C19,242.3,18.9,242.2,18.8,242.1z
			"/>
		<path fill="#D5D5D2" d="M16.9,239.3c-0.1-0.2-0.1-0.3-0.1-0.5c0-0.2,0.1-0.3,0.3-0.4c0.2-0.1,0.3-0.1,0.5-0.1
			c0.2,0,0.3,0.1,0.4,0.3c0.1,0.1,0.1,0.3,0.1,0.5c0,0.2-0.1,0.3-0.3,0.4c-0.2,0.1-0.3,0.1-0.5,0.1C17.2,239.5,17,239.5,16.9,239.3z
			"/>
		<path fill="#D5D5D2" d="M15.3,236.5c-0.1-0.2-0.1-0.3-0.1-0.5c0.1-0.2,0.2-0.3,0.3-0.4c0.2-0.1,0.3-0.1,0.5,0
			c0.2,0.1,0.3,0.2,0.4,0.3c0.1,0.2,0.1,0.3,0,0.5c-0.1,0.2-0.2,0.3-0.3,0.4c-0.2,0.1-0.3,0.1-0.5,0
			C15.5,236.7,15.4,236.6,15.3,236.5z"/>
		<path fill="#D5D5D2" d="M13.8,233.5c-0.1-0.2-0.1-0.4,0-0.5c0.1-0.2,0.2-0.3,0.3-0.4c0.2-0.1,0.3-0.1,0.5,0
			c0.2,0.1,0.3,0.2,0.4,0.3c0.1,0.2,0.1,0.3,0,0.5c-0.1,0.2-0.2,0.3-0.3,0.4c-0.2,0.1-0.3,0.1-0.5,0C14,233.7,13.9,233.6,13.8,233.5
			z"/>
		<path fill="#D5D5D2" d="M12.6,230.4c-0.1-0.2-0.1-0.4,0-0.5c0.1-0.2,0.2-0.3,0.4-0.3c0.2-0.1,0.3-0.1,0.5,0
			c0.2,0.1,0.3,0.2,0.3,0.4c0.1,0.2,0.1,0.3,0,0.5c-0.1,0.2-0.2,0.3-0.4,0.3c-0.2,0.1-0.3,0.1-0.5,0
			C12.7,230.6,12.6,230.5,12.6,230.4z"/>
		<path fill="#D5D5D2" d="M11.5,227.3c-0.1-0.2,0-0.4,0-0.5c0.1-0.2,0.2-0.3,0.4-0.3c0.2-0.1,0.3,0,0.5,0.1c0.2,0.1,0.3,0.2,0.3,0.4
			c0,0.2,0,0.3-0.1,0.5c-0.1,0.2-0.2,0.3-0.4,0.3c-0.2,0.1-0.4,0-0.5-0.1C11.7,227.5,11.6,227.4,11.5,227.3z"/>
		<path fill="#D5D5D2" d="M10.7,224c0-0.2,0-0.4,0.1-0.5c0.1-0.2,0.2-0.2,0.4-0.3c0.2,0,0.3,0,0.5,0.1s0.3,0.2,0.3,0.4
			c0,0.2,0,0.3-0.1,0.5c-0.1,0.2-0.2,0.2-0.4,0.3c-0.2,0-0.4,0-0.5-0.1C10.8,224.3,10.7,224.2,10.7,224z"/>
		<path fill="#D5D5D2" d="M10.1,220.8c0-0.2,0-0.4,0.1-0.5c0.1-0.1,0.3-0.2,0.4-0.3c0.2,0,0.3,0,0.5,0.1c0.1,0.1,0.2,0.2,0.3,0.4
			c0,0.2,0,0.3-0.1,0.5c-0.1,0.1-0.2,0.2-0.4,0.3c-0.2,0-0.4,0-0.5-0.1C10.2,221.1,10.1,220.9,10.1,220.8z"/>
		<path fill="#D5D5D2" d="M9.7,217.5c0-0.2,0-0.4,0.2-0.5c0.1-0.1,0.3-0.2,0.4-0.2c0.2,0,0.3,0,0.5,0.1c0.1,0.1,0.2,0.3,0.2,0.4
			c0,0.2,0,0.3-0.2,0.5c-0.1,0.1-0.3,0.2-0.4,0.2c-0.2,0-0.4,0-0.5-0.2C9.7,217.8,9.7,217.6,9.7,217.5z"/>
		<path fill="#D5D5D2" d="M9.5,214.2c0-0.2,0.1-0.4,0.2-0.5c0.1-0.1,0.3-0.2,0.5-0.2c0.2,0,0.3,0.1,0.5,0.2c0.1,0.1,0.2,0.3,0.2,0.5
			c0,0.2-0.1,0.3-0.2,0.5c-0.1,0.1-0.3,0.2-0.5,0.2c-0.2,0-0.3-0.1-0.5-0.2C9.5,214.5,9.5,214.3,9.5,214.2z"/>
		<path fill="#D5D5D2" d="M9.5,210.8c0-0.2,0.1-0.4,0.2-0.5c0.1-0.1,0.3-0.2,0.5-0.2c0.2,0,0.3,0.1,0.5,0.2c0.1,0.1,0.2,0.3,0.2,0.5
			c0,0.2-0.1,0.3-0.2,0.4c-0.1,0.1-0.3,0.2-0.5,0.2c-0.2,0-0.3-0.1-0.5-0.2C9.5,211.1,9.5,211,9.5,210.8z"/>
		<path fill="#D5D5D2" d="M9.7,207.5c0-0.2,0.1-0.3,0.2-0.5c0.1-0.1,0.3-0.2,0.5-0.1c0.2,0,0.3,0.1,0.4,0.2c0.1,0.1,0.2,0.3,0.1,0.5
			c0,0.2-0.1,0.3-0.2,0.4c-0.1,0.1-0.3,0.2-0.5,0.1c-0.2,0-0.3-0.1-0.5-0.2C9.7,207.8,9.7,207.7,9.7,207.5z"/>
		<path fill="#D5D5D2" d="M10.1,204.2c0-0.2,0.1-0.3,0.3-0.4c0.1-0.1,0.3-0.1,0.5-0.1c0.2,0,0.3,0.1,0.4,0.3
			c0.1,0.1,0.1,0.3,0.1,0.5c0,0.2-0.1,0.3-0.3,0.4c-0.1,0.1-0.3,0.1-0.5,0.1c-0.2,0-0.3-0.1-0.4-0.3S10.1,204.4,10.1,204.2z"/>
		<path fill="#D5D5D2" d="M10.8,201c0-0.2,0.1-0.3,0.3-0.4c0.2-0.1,0.3-0.1,0.5-0.1c0.2,0,0.3,0.1,0.4,0.3c0.1,0.2,0.1,0.3,0.1,0.5
			c0,0.2-0.1,0.3-0.3,0.4c-0.2,0.1-0.3,0.1-0.5,0.1c-0.2,0-0.3-0.1-0.4-0.3C10.8,201.3,10.8,201.1,10.8,201z"/>
		<path fill="#D5D5D2" d="M11.7,197.8c0.1-0.2,0.2-0.3,0.3-0.4c0.2-0.1,0.3-0.1,0.5,0c0.2,0.1,0.3,0.2,0.4,0.3
			c0.1,0.2,0.1,0.3,0,0.5c-0.1,0.2-0.2,0.3-0.3,0.4c-0.2,0.1-0.3,0.1-0.5,0c-0.2-0.1-0.3-0.2-0.4-0.3
			C11.7,198.1,11.6,197.9,11.7,197.8z"/>
		<path fill="#D5D5D2" d="M12.8,194.6c0.1-0.2,0.2-0.3,0.4-0.4c0.2-0.1,0.3-0.1,0.5,0c0.2,0.1,0.3,0.2,0.4,0.3
			c0.1,0.2,0.1,0.3,0,0.5c-0.1,0.2-0.2,0.3-0.3,0.4c-0.2,0.1-0.3,0.1-0.5,0c-0.2-0.1-0.3-0.2-0.4-0.4
			C12.7,194.9,12.7,194.8,12.8,194.6z"/>
		<path fill="#D5D5D2" d="M14.1,191.6c0.1-0.2,0.2-0.3,0.4-0.4c0.2-0.1,0.3-0.1,0.5,0c0.2,0.1,0.3,0.2,0.3,0.4
			c0.1,0.2,0.1,0.3,0,0.5c-0.1,0.2-0.2,0.3-0.4,0.3c-0.2,0.1-0.3,0.1-0.5,0c-0.2-0.1-0.3-0.2-0.3-0.4C14,191.8,14,191.7,14.1,191.6z
			"/>
		<path fill="#D5D5D2" d="M15.5,188.6c0.1-0.2,0.2-0.3,0.4-0.3c0.2,0,0.3,0,0.5,0.1c0.2,0.1,0.3,0.2,0.3,0.4c0.1,0.2,0,0.3,0,0.5
			c-0.1,0.2-0.2,0.3-0.4,0.3c-0.2,0.1-0.3,0-0.5-0.1c-0.2-0.1-0.3-0.2-0.3-0.4C15.5,188.9,15.5,188.7,15.5,188.6z"/>
		<path fill="#D5D5D2" d="M17.2,185.7c0.1-0.2,0.2-0.3,0.4-0.3c0.2,0,0.3,0,0.5,0.1c0.2,0.1,0.3,0.2,0.3,0.4c0,0.2,0,0.3-0.1,0.5
			c-0.1,0.1-0.2,0.2-0.4,0.3c-0.2,0-0.3,0-0.5-0.1c-0.2-0.1-0.3-0.2-0.3-0.4C17.1,186,17.1,185.9,17.2,185.7z"/>
	</g>
	<g>
		<rect x="82.3" y="112" fill="#FFFFFF" width="140.9" height="155.1"/>
	</g>
	<g>
		<rect x="147.6" y="73.6" fill="#FFFFFF" width="75.6" height="146.4"/>
	</g>
	<g>
		<rect x="82.3" y="267.1" fill="#FFFFFF" width="140.9" height="9.4"/>
	</g>
	<g>
		<rect x="82.3" y="276.4" fill="#DCDBDA" width="140.9" height="9.4"/>
	</g>
	<g>
		<rect x="131.7" y="219.2" fill="#F8C7C3" width="4.7" height="45.8"/>
	</g>
	<g>
		<rect x="82.3" y="263.5" fill="#F8C7C3" width="140.9" height="4.7"/>
	</g>
	<g>
		<rect x="82.3" y="216.2" fill="#F8C7C3" width="140.9" height="4.7"/>
	</g>
	<g>
		<rect x="82.3" y="166.8" fill="#F8C7C3" width="140.9" height="4.7"/>
	</g>
	<g>
		<rect x="82.3" y="112" fill="#F8C7C3" width="140.9" height="4.7"/>
	</g>
	<g>
		<rect x="171.5" y="217.7" fill="#F8C7C3" width="4.7" height="45.8"/>
	</g>
	<g>
		<rect x="218.5" y="73.6" fill="#DCDBDA" width="4.7" height="189.9"/>
	</g>
	<g>
		<rect x="49.9" y="18.2" fill="#F8C7C3" width="21.5" height="53"/>
	</g>
	<g>
		<rect x="35.5" y="77.5" fill="#F8C7C3" width="21.5" height="56.2"/>
	</g>
	<g>
		<polygon fill="#F8C7C3" points="61.2,0 86.6,25.4 36.8,25.4 		"/>
	</g>
	<g>
		<polygon fill="#FFFFFF" points="71.4,71.2 57.1,77.5 35.5,77.5 49.9,71.2 		"/>
	</g>
	<g>
		<g>
			<rect x="100.6" y="231.2" fill="#353332" width="18.8" height="18.8"/>
		</g>
		<g>
			<rect x="100.6" y="231.2" fill="#5D5C59" width="3.3" height="18.8"/>
		</g>
		<g>
			<rect x="100.6" y="231.2" fill="#5D5C59" width="18.8" height="3.3"/>
		</g>
	</g>
	<g>
		<g>
			<rect x="186.7" y="231.2" fill="#353332" width="18.8" height="18.8"/>
		</g>
		<g>
			<rect x="186.7" y="231.2" fill="#5D5C59" width="3.3" height="18.8"/>
		</g>
		<g>
			<rect x="186.7" y="231.2" fill="#5D5C59" width="18.8" height="3.3"/>
		</g>
	</g>
	<g>
		<g>
			<rect x="100.3" y="133.7" fill="#353332" width="18.8" height="18.8"/>
		</g>
		<g>
			<rect x="100.3" y="133.7" fill="#5D5C59" width="3.3" height="18.8"/>
		</g>
		<g>
			<rect x="100.3" y="133" fill="#5D5C59" width="18.8" height="3.3"/>
		</g>
	</g>
	<g>
		<g>
			<rect x="186.4" y="133.7" fill="#353332" width="18.8" height="18.8"/>
		</g>
		<g>
			<rect x="186.4" y="133.7" fill="#5D5C59" width="3.3" height="18.8"/>
		</g>
		<g>
			<rect x="186.4" y="133" fill="#5D5C59" width="18.8" height="3.3"/>
		</g>
	</g>
	<g>
		<g>
			<rect x="143.4" y="133.7" fill="#353332" width="18.8" height="18.8"/>
		</g>
		<g>
			<rect x="143.4" y="133.7" fill="#5D5C59" width="3.3" height="18.8"/>
		</g>
		<g>
			<rect x="143.4" y="133" fill="#5D5C59" width="18.8" height="3.3"/>
		</g>
	</g>
	<g>
		<g>
			<rect x="100.3" y="182.1" fill="#353332" width="18.8" height="18.8"/>
		</g>
		<g>
			<rect x="100.3" y="182.1" fill="#5D5C59" width="3.3" height="18.8"/>
		</g>
		<g>
			<rect x="100.3" y="182.1" fill="#5D5C59" width="18.8" height="3.3"/>
		</g>
	</g>
	<g>
		<g>
			<rect x="186.4" y="182.8" fill="#353332" width="18.8" height="18.8"/>
		</g>
		<g>
			<rect x="186.7" y="182.8" fill="#5D5C59" width="3.3" height="18.8"/>
		</g>
		<g>
			<rect x="186.4" y="182.1" fill="#5D5C59" width="18.8" height="3.3"/>
		</g>
	</g>
	<g>
		<g>
			<rect x="143.4" y="182.8" fill="#353332" width="18.8" height="18.8"/>
		</g>
		<g>
			<rect x="143.4" y="182.8" fill="#5D5C59" width="3.3" height="18.8"/>
		</g>
		<g>
			<rect x="143.4" y="182.1" fill="#5D5C59" width="18.8" height="3.3"/>
		</g>
	</g>
	<g>
		<rect x="144.3" y="233.9" fill="#353332" width="18.8" height="34"/>
	</g>
	<g>
		<rect x="144.3" y="234" fill="#5D5C59" width="3.3" height="33.7"/>
	</g>
	<g>
		<rect x="144.3" y="234.5" fill="#5D5C59" width="18.8" height="3.3"/>
	</g>
	<g>
		<rect x="66.6" y="100.6" fill="#F8C7C3" width="52.9" height="10.5"/>
	</g>
	<g>
		<rect x="70.3" y="101.7" fill="#FDECED" width="0.7" height="8.2"/>
	</g>
	<g>
		<rect x="72.7" y="101.7" fill="#FDECED" width="0.7" height="8.2"/>
	</g>
	<g>
		<rect x="75" y="101.7" fill="#FDECED" width="0.7" height="8.2"/>
	</g>
	<g>
		<rect x="77.5" y="101.7" fill="#FDECED" width="0.7" height="8.2"/>
	</g>
	<g>
		<rect x="80" y="101.7" fill="#FDECED" width="0.7" height="8.2"/>
	</g>
	<g>
		<rect x="82.4" y="101.7" fill="#FDECED" width="0.7" height="8.2"/>
	</g>
	<g>
		<rect x="84.7" y="101.7" fill="#FDECED" width="0.7" height="8.2"/>
	</g>
	<g>
		<rect x="87.2" y="101.7" fill="#FDECED" width="0.7" height="8.2"/>
	</g>
	<g>
		<rect x="73.9" y="88.6" fill="#F8C7C3" width="52.9" height="10.5"/>
	</g>
	<g>
		<rect x="77.6" y="89.7" fill="#FDECED" width="0.7" height="8.2"/>
	</g>
	<g>
		<rect x="80.1" y="89.7" fill="#FDECED" width="0.7" height="8.2"/>
	</g>
	<g>
		<rect x="82.4" y="89.7" fill="#FDECED" width="0.7" height="8.2"/>
	</g>
	<g>
		<rect x="84.8" y="89.7" fill="#FDECED" width="0.7" height="8.2"/>
	</g>
	<g>
		<rect x="87.3" y="89.7" fill="#FDECED" width="0.7" height="8.2"/>
	</g>
	<g>
		<rect x="89.8" y="89.7" fill="#FDECED" width="0.7" height="8.2"/>
	</g>
	<g>
		<rect x="92.1" y="89.7" fill="#FDECED" width="0.7" height="8.2"/>
	</g>
	<g>
		<rect x="94.5" y="89.7" fill="#FDECED" width="0.7" height="8.2"/>
	</g>
	<g>
		<circle fill="#FBDDDC" cx="125.2" cy="86.7" r="24.8"/>
	</g>
	<g>
		<path fill="#FFFFFF" d="M125,108.6v-1c11.5,0,20.9-9.4,20.9-20.9c0-11.5-9.4-20.9-20.9-20.9v-1c12.1,0,21.9,9.8,21.9,21.9
			C146.9,98.8,137.1,108.6,125,108.6z"/>
	</g>
	<g>
		<g>
			<rect x="114.2" y="84.3" fill="#F7BFB6" width="21.6" height="2.7"/>
		</g>
		<g>
			<path fill="#F7BFB6" d="M130.7,94.9h-3.4l-2.2-10l-2.2,10h-3.4l-3.1-15h2.8l2,10.3l2.5-10.3h2.7l2.5,10.3l2-10.3h2.8L130.7,94.9z
				"/>
		</g>
	</g>
	<g>
		<path fill="#DCDBDA" d="M16,167.9h-1v-2.1h3.1v14.6H16V167.9z"/>
		<path fill="#DCDBDA" d="M30,176.7c0,2.4-1.2,3.6-3.6,3.6h-2.6c-2.4,0-3.6-1.2-3.6-3.6v-7.3c0-2.4,1.2-3.6,3.6-3.6h2.6
			c2.4,0,3.6,1.2,3.6,3.6V176.7z M22.2,174l5.7-4.1v-0.5c0-1-0.5-1.6-1.6-1.6h-2.6c-1,0-1.6,0.5-1.6,1.6V174z M27.9,172.1l-5.7,4.1
			v0.5c0,1,0.5,1.6,1.6,1.6h2.6c1,0,1.6-0.5,1.6-1.6V172.1z"/>
		<path fill="#DCDBDA" d="M42,176.7c0,2.4-1.2,3.6-3.6,3.6h-2.6c-2.4,0-3.6-1.2-3.6-3.6v-7.3c0-2.4,1.2-3.6,3.6-3.6h2.6
			c2.4,0,3.6,1.2,3.6,3.6V176.7z M34.2,174l5.7-4.1v-0.5c0-1-0.5-1.6-1.6-1.6h-2.6c-1,0-1.6,0.5-1.6,1.6V174z M39.9,172.1l-5.7,4.1
			v0.5c0,1,0.5,1.6,1.6,1.6h2.6c1,0,1.6-0.5,1.6-1.6V172.1z"/>
	</g>
	<g>
		<circle fill="#FBDDDC" cx="158.9" cy="48.7" r="24.8"/>
	</g>
	<g>
		<path fill="#FFFFFF" d="M158.7,70.6v-1c11.5,0,20.9-9.4,20.9-20.9c0-11.5-9.4-20.9-20.9-20.9v-1c12.1,0,21.9,9.8,21.9,21.9
			C180.6,60.8,170.8,70.6,158.7,70.6z"/>
	</g>
	<g>
		<g>
			<rect x="147.9" y="46.3" fill="#F7BFB6" width="21.6" height="2.7"/>
		</g>
		<g>
			<path fill="#F7BFB6" d="M164.4,57h-3.4l-2.2-10l-2.2,10h-3.4l-3.1-15h2.8l2,10.3l2.5-10.3h2.7l2.5,10.3l2-10.3h2.8L164.4,57z"/>
		</g>
	</g>
	<g>
		<g>
			<rect x="31" y="221.2" fill="#F8C7C3" width="35.5" height="53.1"/>
		</g>
		<g>
			<rect x="34.9" y="229.7" fill="#FFFFFF" width="5.5" height="5.5"/>
		</g>
		<g>
			<rect x="46" y="229.7" fill="#FFFFFF" width="5.5" height="5.5"/>
		</g>
		<g>
			<rect x="57" y="229.7" fill="#FFFFFF" width="5.5" height="5.5"/>
		</g>
		<g>
			<rect x="35" y="241.1" fill="#FFFFFF" width="5.5" height="5.5"/>
		</g>
		<g>
			<rect x="46.1" y="241.1" fill="#FFFFFF" width="5.5" height="5.5"/>
		</g>
		<g>
			<rect x="57.1" y="241.1" fill="#FFFFFF" width="5.5" height="5.5"/>
		</g>
		<g>
			<rect x="35" y="252.6" fill="#FFFFFF" width="5.5" height="5.5"/>
		</g>
		<g>
			<rect x="46.1" y="252.6" fill="#FFFFFF" width="5.5" height="5.5"/>
		</g>
		<g>
			<rect x="46" y="265.9" fill="#FFFFFF" width="5.5" height="8.4"/>
		</g>
		<g>
			<rect x="57.1" y="252.6" fill="#FFFFFF" width="5.5" height="5.5"/>
		</g>
	</g>
	<g>
		<g>
			<rect x="0" y="197.4" fill="#DCDBDA" width="20.5" height="30.6"/>
		</g>
		<g>
			<rect x="2.3" y="202.3" fill="#FFFFFF" width="3.2" height="3.2"/>
		</g>
		<g>
			<rect x="8.7" y="202.3" fill="#FFFFFF" width="3.2" height="3.2"/>
		</g>
		<g>
			<rect x="15" y="202.3" fill="#FFFFFF" width="3.2" height="3.2"/>
		</g>
		<g>
			<rect x="2.3" y="208.9" fill="#FFFFFF" width="3.2" height="3.2"/>
		</g>
		<g>
			<rect x="8.7" y="208.9" fill="#FFFFFF" width="3.2" height="3.2"/>
		</g>
		<g>
			<rect x="15.1" y="208.9" fill="#FFFFFF" width="3.2" height="3.2"/>
		</g>
		<g>
			<rect x="2.3" y="215.6" fill="#FFFFFF" width="3.2" height="3.2"/>
		</g>
		<g>
			<rect x="8.7" y="215.6" fill="#FFFFFF" width="3.2" height="3.2"/>
		</g>
		<g>
			<rect x="8.6" y="223.2" fill="#FFFFFF" width="3.2" height="4.8"/>
		</g>
		<g>
			<rect x="15.1" y="215.6" fill="#FFFFFF" width="3.2" height="3.2"/>
		</g>
	</g>
</g>
</svg>
