<?xml version="1.0" encoding="utf-8"?>
<!-- Generator: Adobe Illustrator 18.1.1, SVG Export Plug-In . SVG Version: 6.00 Build 0)  -->
<svg version="1.1" id="레이어_1" xmlns="http://www.w3.org/2000/svg" xmlns:xlink="http://www.w3.org/1999/xlink" x="0px"
	 y="0px" viewBox="0 0 282.6 310" enable-background="new 0 0 282.6 310" xml:space="preserve">
<g>
	<g>
		<ellipse fill="#FCE4E5" cx="245.1" cy="144.2" rx="4.3" ry="5.4"/>
	</g>
	<g>
		<polygon fill="#F8C7C3" points="75,81.9 78.5,89.1 86.5,90.3 80.7,95.9 82.1,103.8 75,100 67.9,103.8 69.3,95.9 63.5,90.3 
			71.5,89.1 		"/>
	</g>
	<g>
		<polygon fill="#FCE4E5" points="75,81.9 75,95.4 71.5,89.1 		"/>
	</g>
	<g>
		<polygon fill="#FCE4E5" points="67.9,103.8 69.3,95.9 75,95.4 		"/>
	</g>
	<g>
		<polygon fill="#FCE4E5" points="80.7,95.9 75,95.4 86.5,90.3 		"/>
	</g>
	<g>
		<polygon fill="#F8C7C3" points="167,0 170.6,7.2 178.5,8.3 172.8,13.9 174.1,21.8 167,18.1 159.9,21.8 161.3,13.9 155.6,8.3 
			163.5,7.2 		"/>
	</g>
	<g>
		<polygon fill="#FCE4E5" points="167,0 167,13.4 163.5,7.2 		"/>
	</g>
	<g>
		<polygon fill="#FCE4E5" points="159.9,21.8 161.3,13.9 167,13.4 		"/>
	</g>
	<g>
		<polygon fill="#FCE4E5" points="172.8,13.9 167,13.4 178.5,8.3 		"/>
	</g>
	<g>
		<polygon fill="#F8C7C3" points="246.4,77.7 250,84.9 257.9,86.1 252.2,91.7 253.5,99.6 246.4,95.8 239.3,99.6 240.7,91.7 
			235,86.1 242.9,84.9 		"/>
	</g>
	<g>
		<polygon fill="#FCE4E5" points="246.4,77.7 246.4,91.1 242.9,84.9 		"/>
	</g>
	<g>
		<polyline fill="#FCE4E5" points="239.3,99.6 240.7,91.7 246.4,91.1 		"/>
	</g>
	<g>
		<path fill="#D5D5D2" d="M147,119.2c0.3-0.1,0.6,0,0.9,0.1c0.3,0.2,0.4,0.4,0.5,0.7c0.1,0.3,0,0.6-0.1,0.8
			c-0.2,0.3-0.4,0.4-0.7,0.5c-0.3,0.1-0.6,0-0.8-0.1c-0.3-0.2-0.4-0.4-0.5-0.7c-0.1-0.3,0-0.6,0.1-0.9
			C146.5,119.4,146.7,119.3,147,119.2z"/>
		<path fill="#D5D5D2" d="M152.5,118.1c0.3-0.1,0.6,0,0.9,0.2c0.2,0.2,0.4,0.4,0.4,0.7c0.1,0.3,0,0.6-0.2,0.8
			c-0.2,0.2-0.4,0.4-0.7,0.4c-0.3,0-0.6,0-0.8-0.2c-0.2-0.2-0.4-0.4-0.4-0.7c-0.1-0.3,0-0.6,0.2-0.8
			C152,118.3,152.2,118.2,152.5,118.1z"/>
		<path fill="#D5D5D2" d="M158,117.4c0.3,0,0.6,0.1,0.8,0.3c0.2,0.2,0.4,0.5,0.4,0.8c0,0.3-0.1,0.6-0.2,0.8
			c-0.2,0.2-0.4,0.4-0.7,0.4c-0.3,0-0.6-0.1-0.8-0.3c-0.2-0.2-0.4-0.4-0.4-0.7c0-0.3,0.1-0.6,0.3-0.8
			C157.5,117.6,157.8,117.4,158,117.4z"/>
		<path fill="#D5D5D2" d="M163.6,117c0.3,0,0.6,0.1,0.8,0.3c0.2,0.2,0.3,0.5,0.3,0.8c0,0.3-0.1,0.6-0.3,0.8
			c-0.2,0.2-0.5,0.3-0.8,0.4c-0.3,0-0.6-0.1-0.8-0.3c-0.2-0.2-0.3-0.5-0.3-0.8c0-0.3,0.1-0.6,0.3-0.8
			C163.1,117.2,163.4,117,163.6,117z"/>
		<path fill="#D5D5D2" d="M169.3,117c0.3,0,0.6,0.1,0.8,0.4c0.2,0.2,0.3,0.5,0.3,0.8c0,0.3-0.1,0.6-0.3,0.8
			c-0.2,0.2-0.5,0.3-0.8,0.3c-0.3,0-0.5-0.1-0.8-0.4c-0.2-0.2-0.3-0.5-0.3-0.8c0-0.3,0.1-0.6,0.4-0.8C168.8,117.1,169,117,169.3,117
			z"/>
		<path fill="#D5D5D2" d="M174.9,117.4c0.3,0,0.6,0.2,0.8,0.4c0.2,0.2,0.3,0.5,0.2,0.8c0,0.3-0.2,0.6-0.4,0.8
			c-0.2,0.2-0.5,0.3-0.8,0.2c-0.3,0-0.5-0.2-0.7-0.4c-0.2-0.2-0.3-0.5-0.2-0.8c0-0.3,0.2-0.6,0.4-0.8
			C174.3,117.5,174.6,117.4,174.9,117.4z"/>
		<path fill="#D5D5D2" d="M180.4,118.1c0.3,0.1,0.6,0.2,0.8,0.5c0.2,0.3,0.2,0.5,0.2,0.8c-0.1,0.3-0.2,0.5-0.4,0.7
			c-0.2,0.2-0.5,0.2-0.8,0.2c-0.3,0-0.5-0.2-0.7-0.4c-0.2-0.3-0.2-0.5-0.2-0.8c0.1-0.3,0.2-0.6,0.5-0.7
			C179.9,118.2,180.2,118.1,180.4,118.1z"/>
		<path fill="#D5D5D2" d="M186,119.2c0.3,0.1,0.6,0.2,0.7,0.5c0.2,0.3,0.2,0.5,0.1,0.8c-0.1,0.3-0.2,0.5-0.5,0.7
			c-0.3,0.2-0.5,0.2-0.8,0.1c-0.3-0.1-0.5-0.2-0.7-0.5c-0.2-0.3-0.2-0.5-0.1-0.8c0.1-0.3,0.2-0.5,0.5-0.7
			C185.4,119.2,185.7,119.2,186,119.2z"/>
		<path fill="#D5D5D2" d="M191.4,120.7c0.3,0.1,0.5,0.3,0.7,0.6c0.1,0.3,0.2,0.6,0.1,0.8c-0.1,0.3-0.3,0.5-0.5,0.7
			c-0.3,0.1-0.5,0.2-0.8,0.1c-0.3-0.1-0.5-0.3-0.6-0.5c-0.1-0.3-0.2-0.6-0.1-0.8c0.1-0.3,0.3-0.5,0.5-0.7
			C190.9,120.6,191.1,120.6,191.4,120.7z"/>
		<path fill="#D5D5D2" d="M196.7,122.5c0.3,0.1,0.5,0.3,0.6,0.6c0.1,0.3,0.1,0.6,0,0.9c-0.1,0.3-0.3,0.5-0.6,0.6
			c-0.3,0.1-0.6,0.1-0.8,0c-0.3-0.1-0.5-0.3-0.6-0.6c-0.1-0.3-0.1-0.6,0-0.8c0.1-0.3,0.3-0.5,0.6-0.6
			C196.2,122.4,196.4,122.4,196.7,122.5z"/>
		<path fill="#D5D5D2" d="M201.9,124.7c0.3,0.1,0.5,0.4,0.6,0.6c0.1,0.3,0.1,0.6,0,0.8c-0.1,0.3-0.3,0.5-0.6,0.6
			c-0.3,0.1-0.6,0.1-0.8,0c-0.3-0.1-0.5-0.3-0.6-0.6c-0.1-0.3-0.1-0.6,0-0.8c0.1-0.3,0.3-0.5,0.6-0.6
			C201.4,124.5,201.6,124.5,201.9,124.7z"/>
		<path fill="#D5D5D2" d="M206.9,127.1c0.3,0.2,0.5,0.4,0.6,0.7c0.1,0.3,0.1,0.6-0.1,0.8c-0.1,0.3-0.4,0.5-0.7,0.5
			c-0.3,0.1-0.6,0.1-0.8-0.1c-0.3-0.1-0.4-0.4-0.5-0.7c-0.1-0.3-0.1-0.6,0.1-0.8c0.2-0.3,0.4-0.5,0.7-0.5
			C206.4,127,206.7,127,206.9,127.1z"/>
		<path fill="#D5D5D2" d="M211.8,130c0.3,0.2,0.5,0.4,0.5,0.7c0.1,0.3,0,0.6-0.1,0.8c-0.2,0.3-0.4,0.4-0.7,0.5
			c-0.3,0.1-0.6,0-0.8-0.1c-0.3-0.2-0.4-0.4-0.5-0.7c-0.1-0.3,0-0.6,0.1-0.8c0.2-0.3,0.4-0.4,0.7-0.5
			C211.3,129.8,211.6,129.8,211.8,130z"/>
		<path fill="#D5D5D2" d="M216.4,133.1c0.3,0.2,0.4,0.4,0.5,0.7c0,0.3,0,0.6-0.2,0.8c-0.2,0.3-0.4,0.4-0.7,0.5
			c-0.3,0.1-0.6,0-0.8-0.2c-0.2-0.2-0.4-0.4-0.4-0.7c0-0.3,0-0.6,0.2-0.8c0.2-0.3,0.4-0.4,0.7-0.5
			C216,132.9,216.2,132.9,216.4,133.1z"/>
		<path fill="#D5D5D2" d="M220.9,136.5c0.3,0.2,0.4,0.5,0.4,0.8c0,0.3-0.1,0.6-0.3,0.8c-0.2,0.2-0.4,0.4-0.8,0.4
			c-0.3,0-0.6,0-0.8-0.2c-0.2-0.2-0.4-0.4-0.4-0.7c0-0.3,0.1-0.6,0.2-0.8c0.2-0.2,0.5-0.4,0.8-0.4
			C220.4,136.3,220.7,136.4,220.9,136.5z"/>
		<path fill="#D5D5D2" d="M225.1,140.2c0.2,0.2,0.4,0.5,0.4,0.8c0,0.3-0.1,0.6-0.3,0.8c-0.2,0.2-0.5,0.3-0.8,0.4
			c-0.3,0-0.6-0.1-0.8-0.3c-0.2-0.2-0.3-0.5-0.3-0.8c0-0.3,0.1-0.6,0.3-0.8c0.2-0.2,0.5-0.4,0.8-0.4
			C224.7,140,224.9,140.1,225.1,140.2z"/>
		<path fill="#D5D5D2" d="M229.1,144.2c0.2,0.2,0.3,0.5,0.3,0.8c0,0.3-0.1,0.6-0.4,0.8c-0.2,0.2-0.5,0.3-0.8,0.3
			c-0.3,0-0.6-0.1-0.8-0.3c-0.2-0.2-0.3-0.5-0.3-0.8c0-0.3,0.1-0.6,0.4-0.8c0.2-0.2,0.5-0.3,0.8-0.3
			C228.7,143.9,228.9,144,229.1,144.2z"/>
		<path fill="#D5D5D2" d="M232.8,148.4c0.2,0.3,0.3,0.5,0.3,0.8c0,0.3-0.2,0.6-0.4,0.7c-0.2,0.2-0.5,0.3-0.8,0.3
			c-0.3,0-0.6-0.2-0.7-0.4c-0.2-0.2-0.3-0.5-0.2-0.8c0-0.3,0.2-0.6,0.4-0.7c0.2-0.2,0.5-0.3,0.8-0.3
			C232.4,148.1,232.6,148.2,232.8,148.4z"/>
		<path fill="#D5D5D2" d="M236.2,152.9c0.2,0.3,0.3,0.6,0.2,0.9c-0.1,0.3-0.2,0.5-0.5,0.7c-0.3,0.2-0.5,0.2-0.8,0.2
			c-0.3,0-0.5-0.2-0.7-0.4c-0.2-0.2-0.2-0.5-0.2-0.8c0.1-0.3,0.2-0.5,0.4-0.7c0.3-0.2,0.5-0.3,0.8-0.2
			C235.8,152.6,236.1,152.7,236.2,152.9z"/>
		<path fill="#D5D5D2" d="M239.3,157.6c0.2,0.3,0.2,0.6,0.2,0.9c-0.1,0.3-0.2,0.5-0.5,0.7c-0.3,0.2-0.5,0.2-0.8,0.1
			c-0.3-0.1-0.5-0.2-0.7-0.5c-0.2-0.3-0.2-0.5-0.1-0.8c0.1-0.3,0.2-0.5,0.5-0.7c0.3-0.2,0.6-0.2,0.9-0.1
			C239,157.2,239.2,157.4,239.3,157.6z"/>
		<path fill="#D5D5D2" d="M242.1,162.4c0.2,0.3,0.2,0.6,0.1,0.9c-0.1,0.3-0.3,0.5-0.5,0.7c-0.3,0.1-0.6,0.2-0.8,0.1
			c-0.3-0.1-0.5-0.3-0.7-0.5c-0.1-0.3-0.2-0.5-0.1-0.8c0.1-0.3,0.3-0.5,0.5-0.7c0.3-0.1,0.6-0.2,0.9-0.1
			C241.8,162,242,162.2,242.1,162.4z"/>
		<path fill="#D5D5D2" d="M244.6,167.5c0.1,0.3,0.1,0.6,0,0.9c-0.1,0.3-0.3,0.5-0.6,0.6c-0.3,0.1-0.6,0.1-0.9,0
			c-0.3-0.1-0.5-0.3-0.6-0.6c-0.1-0.3-0.1-0.5,0-0.8c0.1-0.3,0.3-0.5,0.6-0.6c0.3-0.1,0.6-0.1,0.9,0
			C244.3,167.1,244.5,167.2,244.6,167.5z"/>
		<path fill="#D5D5D2" d="M248.6,178c0.1,0.3,0.1,0.6-0.1,0.9c-0.1,0.3-0.4,0.4-0.7,0.5c-0.3,0.1-0.6,0.1-0.9-0.1
			c-0.3-0.1-0.5-0.4-0.5-0.6c-0.1-0.3-0.1-0.6,0.1-0.8c0.1-0.3,0.4-0.4,0.7-0.5c0.3-0.1,0.6-0.1,0.9,0.1
			C248.3,177.5,248.5,177.7,248.6,178z"/>
		<path fill="#D5D5D2" d="M250,183.4c0.1,0.3,0,0.6-0.1,0.9c-0.2,0.3-0.4,0.4-0.7,0.5c-0.3,0.1-0.6,0-0.8-0.1
			c-0.3-0.2-0.4-0.4-0.5-0.7c-0.1-0.3,0-0.6,0.1-0.8c0.2-0.3,0.4-0.4,0.7-0.5c0.3-0.1,0.6,0,0.9,0.1
			C249.8,182.9,249.9,183.2,250,183.4z"/>
		<path fill="#D5D5D2" d="M251.1,188.9c0.1,0.3,0,0.6-0.2,0.9c-0.2,0.2-0.4,0.4-0.7,0.4c-0.3,0-0.6,0-0.8-0.2
			c-0.2-0.2-0.4-0.4-0.4-0.7c0-0.3,0-0.6,0.2-0.8c0.2-0.2,0.4-0.4,0.7-0.4c0.3-0.1,0.6,0,0.8,0.2C250.9,188.4,251,188.7,251.1,188.9
			z"/>
		<path fill="#D5D5D2" d="M251.8,194.5c0,0.3-0.1,0.6-0.2,0.8c-0.2,0.2-0.5,0.4-0.8,0.4c-0.3,0-0.6-0.1-0.8-0.2
			c-0.2-0.2-0.4-0.4-0.4-0.7c0-0.3,0.1-0.6,0.3-0.8c0.2-0.2,0.4-0.4,0.8-0.4c0.3,0,0.6,0.1,0.8,0.3
			C251.6,194,251.8,194.2,251.8,194.5z"/>
		<path fill="#D5D5D2" d="M252.2,200.1c0,0.3-0.1,0.6-0.3,0.8c-0.2,0.2-0.5,0.3-0.8,0.3c-0.3,0-0.6-0.1-0.8-0.3s-0.3-0.5-0.4-0.8
			c0-0.3,0.1-0.6,0.3-0.8c0.2-0.2,0.5-0.3,0.8-0.3c0.3,0,0.6,0.1,0.8,0.3C252,199.6,252.1,199.9,252.2,200.1z"/>
		<path fill="#D5D5D2" d="M252.1,205.7c0,0.3-0.1,0.6-0.4,0.8c-0.2,0.2-0.5,0.3-0.8,0.3c-0.3,0-0.6-0.1-0.8-0.4
			c-0.2-0.2-0.3-0.5-0.3-0.8c0-0.3,0.1-0.5,0.4-0.8c0.2-0.2,0.5-0.3,0.8-0.3c0.3,0,0.6,0.1,0.8,0.4
			C252.1,205.2,252.2,205.5,252.1,205.7z"/>
		<path fill="#D5D5D2" d="M251.8,211.3c0,0.3-0.2,0.6-0.4,0.8c-0.2,0.2-0.5,0.3-0.8,0.2c-0.3,0-0.6-0.2-0.8-0.4
			c-0.2-0.2-0.3-0.5-0.2-0.8c0-0.3,0.2-0.5,0.4-0.7s0.5-0.3,0.8-0.2c0.3,0,0.6,0.2,0.8,0.4C251.7,210.8,251.8,211.1,251.8,211.3z"/>
		<path fill="#D5D5D2" d="M251,216.9c-0.1,0.3-0.2,0.6-0.5,0.8c-0.3,0.2-0.5,0.2-0.8,0.2c-0.3-0.1-0.5-0.2-0.7-0.4
			c-0.2-0.2-0.2-0.5-0.2-0.8c0-0.3,0.2-0.5,0.4-0.7c0.2-0.2,0.5-0.2,0.8-0.2c0.3,0.1,0.6,0.2,0.7,0.5
			C251,216.4,251.1,216.6,251,216.9z"/>
		<path fill="#D5D5D2" d="M249.9,222.4c-0.1,0.3-0.2,0.6-0.5,0.7c-0.3,0.2-0.5,0.2-0.8,0.1c-0.3-0.1-0.5-0.2-0.7-0.5
			c-0.2-0.3-0.2-0.5-0.1-0.8c0.1-0.3,0.2-0.5,0.5-0.7c0.3-0.2,0.5-0.2,0.8-0.1c0.3,0.1,0.5,0.2,0.7,0.5
			C249.9,221.9,250,222.2,249.9,222.4z"/>
		<path fill="#D5D5D2" d="M248.5,227.8c-0.1,0.3-0.3,0.5-0.6,0.7c-0.3,0.1-0.6,0.2-0.8,0.1c-0.3-0.1-0.5-0.3-0.7-0.5
			c-0.1-0.3-0.2-0.5-0.1-0.8c0.1-0.3,0.3-0.5,0.5-0.6c0.3-0.1,0.6-0.2,0.8-0.1c0.3,0.1,0.5,0.3,0.7,0.6
			C248.5,227.3,248.6,227.6,248.5,227.8z"/>
		<path fill="#D5D5D2" d="M246.7,233.1c-0.1,0.3-0.3,0.5-0.6,0.6c-0.3,0.1-0.6,0.1-0.8,0c-0.3-0.1-0.5-0.3-0.6-0.6
			c-0.1-0.3-0.1-0.6,0-0.8c0.1-0.3,0.3-0.5,0.6-0.6c0.3-0.1,0.6-0.1,0.8,0c0.3,0.1,0.5,0.3,0.6,0.6
			C246.7,232.6,246.8,232.9,246.7,233.1z"/>
		<path fill="#D5D5D2" d="M244.5,238.3c-0.1,0.3-0.4,0.5-0.6,0.6c-0.3,0.1-0.6,0.1-0.8,0c-0.3-0.1-0.5-0.3-0.6-0.6
			c-0.1-0.3-0.1-0.6,0-0.8c0.1-0.3,0.3-0.5,0.6-0.6c0.3-0.1,0.6-0.1,0.8,0c0.3,0.1,0.5,0.3,0.6,0.6
			C244.6,237.8,244.6,238.1,244.5,238.3z"/>
		<path fill="#D5D5D2" d="M242,243.4c-0.2,0.3-0.4,0.5-0.7,0.6c-0.3,0.1-0.6,0.1-0.8-0.1c-0.3-0.1-0.5-0.4-0.5-0.7
			c-0.1-0.3-0.1-0.6,0.1-0.8c0.1-0.3,0.4-0.4,0.7-0.5c0.3-0.1,0.6-0.1,0.8,0.1c0.3,0.2,0.5,0.4,0.5,0.7
			C242.2,242.9,242.1,243.1,242,243.4z"/>
		<path fill="#D5D5D2" d="M236.1,252.9c-0.2,0.3-0.4,0.4-0.7,0.5c-0.3,0-0.6,0-0.8-0.2c-0.3-0.2-0.4-0.4-0.5-0.7
			c-0.1-0.3,0-0.6,0.2-0.8c0.2-0.2,0.4-0.4,0.7-0.4c0.3,0,0.6,0,0.8,0.2c0.3,0.2,0.4,0.4,0.5,0.7
			C236.3,252.4,236.2,252.7,236.1,252.9z"/>
		<path fill="#D5D5D2" d="M232.6,257.3c-0.2,0.3-0.5,0.4-0.8,0.4c-0.3,0-0.6-0.1-0.8-0.3c-0.2-0.2-0.4-0.4-0.4-0.8
			c0-0.3,0-0.6,0.2-0.8c0.2-0.2,0.4-0.4,0.7-0.4c0.3,0,0.6,0.1,0.8,0.2c0.2,0.2,0.4,0.5,0.4,0.8
			C232.9,256.9,232.8,257.1,232.6,257.3z"/>
		<path fill="#D5D5D2" d="M228.9,261.5c-0.2,0.2-0.5,0.4-0.8,0.4c-0.3,0-0.6-0.1-0.8-0.3c-0.2-0.2-0.3-0.5-0.4-0.8
			c0-0.3,0.1-0.6,0.3-0.8c0.2-0.2,0.5-0.3,0.8-0.3c0.3,0,0.6,0.1,0.8,0.3c0.2,0.2,0.4,0.5,0.4,0.8
			C229.2,261.1,229.1,261.4,228.9,261.5z"/>
		<path fill="#D5D5D2" d="M224.9,265.5c-0.2,0.2-0.5,0.3-0.8,0.3c-0.3,0-0.6-0.1-0.8-0.4c-0.2-0.2-0.3-0.5-0.3-0.8
			c0-0.3,0.1-0.6,0.3-0.8c0.2-0.2,0.5-0.3,0.8-0.3c0.3,0,0.6,0.1,0.8,0.4c0.2,0.2,0.3,0.5,0.3,0.8
			C225.2,265.1,225.1,265.3,224.9,265.5z"/>
		<path fill="#D5D5D2" d="M220.7,269.2c-0.3,0.2-0.5,0.3-0.8,0.3c-0.3,0-0.6-0.2-0.7-0.4c-0.2-0.2-0.3-0.5-0.2-0.8
			c0-0.3,0.2-0.6,0.4-0.7c0.2-0.2,0.5-0.3,0.8-0.2c0.3,0,0.6,0.2,0.7,0.4c0.2,0.2,0.3,0.5,0.3,0.8C221,268.8,220.9,269,220.7,269.2z
			"/>
		<path fill="#D5D5D2" d="M211.6,275.7c-0.3,0.2-0.6,0.2-0.9,0.2c-0.3-0.1-0.5-0.2-0.7-0.5c-0.2-0.3-0.2-0.5-0.1-0.8
			c0.1-0.3,0.2-0.5,0.5-0.7c0.3-0.2,0.5-0.2,0.8-0.1c0.3,0.1,0.5,0.2,0.7,0.5c0.2,0.3,0.2,0.6,0.1,0.9
			C211.9,275.4,211.8,275.6,211.6,275.7z"/>
		<path fill="#D5D5D2" d="M206.7,278.5c-0.3,0.2-0.6,0.2-0.9,0.1c-0.3-0.1-0.5-0.3-0.7-0.5c-0.1-0.3-0.2-0.6-0.1-0.9
			c0.1-0.3,0.3-0.5,0.5-0.7c0.3-0.1,0.5-0.2,0.8-0.1c0.3,0.1,0.5,0.3,0.7,0.5c0.1,0.3,0.2,0.6,0.1,0.9
			C207.1,278.2,206.9,278.4,206.7,278.5z"/>
		<path fill="#D5D5D2" d="M201.7,281c-0.3,0.1-0.6,0.1-0.9,0c-0.3-0.1-0.5-0.3-0.6-0.6c-0.1-0.3-0.1-0.6,0-0.9
			c0.1-0.3,0.3-0.5,0.6-0.6c0.3-0.1,0.5-0.1,0.8,0c0.3,0.1,0.5,0.3,0.6,0.6c0.1,0.3,0.1,0.6,0,0.9
			C202.1,280.7,201.9,280.9,201.7,281z"/>
		<path fill="#D5D5D2" d="M196.5,283.2c-0.3,0.1-0.6,0.1-0.9,0c-0.3-0.1-0.5-0.3-0.6-0.6c-0.1-0.3-0.1-0.6,0-0.9
			c0.1-0.3,0.3-0.5,0.6-0.6c0.3-0.1,0.6-0.1,0.8,0c0.3,0.1,0.5,0.3,0.6,0.6c0.1,0.3,0.1,0.6,0,0.9
			C196.9,282.9,196.7,283.1,196.5,283.2z"/>
		<path fill="#D5D5D2" d="M191.1,285c-0.3,0.1-0.6,0.1-0.9-0.1c-0.3-0.1-0.4-0.4-0.5-0.7c-0.1-0.3-0.1-0.6,0.1-0.9
			c0.1-0.3,0.4-0.4,0.6-0.5c0.3-0.1,0.6-0.1,0.8,0.1c0.3,0.1,0.4,0.4,0.5,0.7c0.1,0.3,0.1,0.6-0.1,0.9
			C191.6,284.7,191.4,284.9,191.1,285z"/>
		<path fill="#D5D5D2" d="M185.7,286.4c-0.3,0.1-0.6,0-0.9-0.1c-0.3-0.2-0.4-0.4-0.5-0.7c-0.1-0.3,0-0.6,0.1-0.8
			c0.2-0.3,0.4-0.4,0.7-0.5c0.3-0.1,0.6,0,0.8,0.1c0.3,0.2,0.4,0.4,0.5,0.7c0.1,0.3,0,0.6-0.1,0.9
			C186.2,286.2,186,286.3,185.7,286.4z"/>
		<path fill="#D5D5D2" d="M180.2,287.5c-0.3,0.1-0.6,0-0.9-0.2c-0.2-0.2-0.4-0.4-0.4-0.7c0-0.3,0-0.6,0.2-0.8
			c0.2-0.2,0.4-0.4,0.7-0.4c0.3,0,0.6,0,0.8,0.2c0.2,0.2,0.4,0.4,0.4,0.7c0.1,0.3,0,0.6-0.2,0.8
			C180.7,287.3,180.5,287.4,180.2,287.5z"/>
		<path fill="#D5D5D2" d="M174.6,288.2c-0.3,0-0.6-0.1-0.8-0.3c-0.2-0.2-0.4-0.5-0.4-0.8c0-0.3,0.1-0.6,0.2-0.8
			c0.2-0.2,0.4-0.4,0.7-0.4c0.3,0,0.6,0.1,0.8,0.3c0.2,0.2,0.4,0.4,0.4,0.8c0,0.3-0.1,0.6-0.3,0.8
			C175.1,288,174.9,288.2,174.6,288.2z"/>
		<path fill="#D5D5D2" d="M169,288.5c-0.3,0-0.6-0.1-0.8-0.3c-0.2-0.2-0.3-0.5-0.3-0.8c0-0.3,0.1-0.6,0.3-0.8
			c0.2-0.2,0.5-0.3,0.8-0.3c0.3,0,0.6,0.1,0.8,0.3c0.2,0.2,0.3,0.5,0.3,0.8c0,0.3-0.1,0.6-0.3,0.8
			C169.5,288.4,169.3,288.5,169,288.5z"/>
		<path fill="#D5D5D2" d="M163.4,288.5c-0.3,0-0.6-0.1-0.8-0.4c-0.2-0.2-0.3-0.5-0.3-0.8c0-0.3,0.1-0.6,0.4-0.8
			c0.2-0.2,0.5-0.3,0.8-0.3c0.3,0,0.5,0.1,0.8,0.4c0.2,0.2,0.3,0.5,0.3,0.8c0,0.3-0.1,0.6-0.4,0.8
			C163.9,288.4,163.7,288.5,163.4,288.5z"/>
		<path fill="#D5D5D2" d="M157.8,288.2c-0.3,0-0.6-0.2-0.8-0.4c-0.2-0.2-0.3-0.5-0.2-0.8c0-0.3,0.2-0.6,0.4-0.8
			c0.2-0.2,0.5-0.3,0.8-0.2c0.3,0,0.5,0.2,0.7,0.4c0.2,0.2,0.3,0.5,0.2,0.8c0,0.3-0.2,0.6-0.4,0.8
			C158.3,288.1,158,288.2,157.8,288.2z"/>
		<path fill="#D5D5D2" d="M152.2,287.4c-0.3-0.1-0.6-0.2-0.8-0.5c-0.2-0.3-0.2-0.5-0.2-0.8c0.1-0.3,0.2-0.5,0.5-0.7
			c0.2-0.2,0.5-0.2,0.8-0.2c0.3,0,0.5,0.2,0.7,0.4c0.2,0.3,0.2,0.5,0.2,0.8c-0.1,0.3-0.2,0.6-0.5,0.7
			C152.7,287.4,152.5,287.5,152.2,287.4z"/>
		<path fill="#D5D5D2" d="M146.7,286.3c-0.3-0.1-0.6-0.2-0.7-0.5c-0.2-0.3-0.2-0.5-0.1-0.8c0.1-0.3,0.2-0.5,0.5-0.7
			c0.3-0.2,0.5-0.2,0.8-0.1c0.3,0.1,0.5,0.2,0.7,0.5c0.2,0.3,0.2,0.5,0.1,0.8c-0.1,0.3-0.2,0.5-0.5,0.7
			C147.2,286.3,147,286.4,146.7,286.3z"/>
		<path fill="#D5D5D2" d="M141.3,284.8c-0.3-0.1-0.5-0.3-0.7-0.6c-0.1-0.3-0.2-0.6-0.1-0.8c0.1-0.3,0.3-0.5,0.5-0.7
			c0.3-0.1,0.5-0.2,0.8-0.1c0.3,0.1,0.5,0.3,0.6,0.5c0.1,0.3,0.2,0.6,0.1,0.8c-0.1,0.3-0.3,0.5-0.6,0.7
			C141.8,284.9,141.5,284.9,141.3,284.8z"/>
		<path fill="#D5D5D2" d="M136,283c-0.3-0.1-0.5-0.3-0.6-0.6c-0.1-0.3-0.1-0.6,0-0.9c0.1-0.3,0.3-0.5,0.6-0.6c0.3-0.1,0.6-0.1,0.8,0
			c0.3,0.1,0.5,0.3,0.6,0.6c0.1,0.3,0.1,0.6,0,0.8c-0.1,0.3-0.3,0.5-0.6,0.6C136.5,283.1,136.2,283.1,136,283z"/>
		<path fill="#D5D5D2" d="M130.8,280.9c-0.3-0.1-0.5-0.4-0.6-0.6c-0.1-0.3-0.1-0.6,0-0.8c0.1-0.3,0.3-0.5,0.6-0.6
			c0.3-0.1,0.6-0.1,0.8,0c0.3,0.1,0.5,0.3,0.6,0.6c0.1,0.3,0.1,0.6,0,0.8c-0.1,0.3-0.3,0.5-0.6,0.6C131.3,281,131,281,130.8,280.9z"
			/>
		<path fill="#D5D5D2" d="M125.7,278.4c-0.3-0.2-0.5-0.4-0.6-0.7c-0.1-0.3-0.1-0.6,0.1-0.8c0.1-0.3,0.4-0.5,0.7-0.5
			c0.3-0.1,0.6-0.1,0.8,0.1c0.3,0.1,0.4,0.4,0.5,0.7c0.1,0.3,0.1,0.6-0.1,0.8c-0.2,0.3-0.4,0.5-0.7,0.5
			C126.2,278.5,126,278.5,125.7,278.4z"/>
		<path fill="#D5D5D2" d="M120.9,275.5c-0.3-0.2-0.5-0.4-0.5-0.7c-0.1-0.3,0-0.6,0.1-0.8c0.2-0.3,0.4-0.4,0.7-0.5
			c0.3-0.1,0.6,0,0.8,0.1c0.2,0.2,0.4,0.4,0.5,0.7c0.1,0.3,0,0.6-0.1,0.8c-0.2,0.3-0.4,0.4-0.7,0.5
			C121.4,275.7,121.1,275.7,120.9,275.5z"/>
		<path fill="#D5D5D2" d="M111.8,269c-0.3-0.2-0.4-0.5-0.4-0.8c0-0.3,0.1-0.6,0.3-0.8c0.2-0.2,0.4-0.4,0.8-0.4c0.3,0,0.6,0,0.8,0.2
			c0.2,0.2,0.4,0.4,0.4,0.7c0,0.3-0.1,0.6-0.3,0.8c-0.2,0.2-0.5,0.4-0.8,0.4C112.2,269.2,112,269.1,111.8,269z"/>
		<path fill="#D5D5D2" d="M107.6,265.3c-0.2-0.2-0.4-0.5-0.4-0.8c0-0.3,0.1-0.6,0.3-0.8c0.2-0.2,0.5-0.3,0.8-0.4
			c0.3,0,0.6,0.1,0.8,0.3c0.2,0.2,0.3,0.5,0.3,0.8c0,0.3-0.1,0.6-0.3,0.8c-0.2,0.2-0.5,0.4-0.8,0.4
			C108,265.5,107.8,265.4,107.6,265.3z"/>
		<path fill="#D5D5D2" d="M103.6,261.3c-0.2-0.2-0.3-0.5-0.3-0.8c0-0.3,0.1-0.6,0.4-0.8c0.2-0.2,0.5-0.3,0.8-0.3
			c0.3,0,0.6,0.1,0.8,0.3c0.2,0.2,0.3,0.5,0.3,0.8c0,0.3-0.1,0.6-0.4,0.8c-0.2,0.2-0.5,0.3-0.8,0.3
			C104,261.6,103.8,261.5,103.6,261.3z"/>
		<path fill="#D5D5D2" d="M99.9,257c-0.2-0.3-0.3-0.5-0.3-0.8c0-0.3,0.2-0.6,0.4-0.7c0.2-0.2,0.5-0.3,0.8-0.2c0.3,0,0.6,0.2,0.7,0.4
			c0.2,0.2,0.3,0.5,0.2,0.8c0,0.3-0.2,0.6-0.4,0.7c-0.2,0.2-0.5,0.3-0.8,0.3C100.3,257.3,100.1,257.2,99.9,257z"/>
		<path fill="#D5D5D2" d="M96.5,252.6c-0.2-0.3-0.3-0.6-0.2-0.9c0.1-0.3,0.2-0.5,0.5-0.7c0.3-0.2,0.5-0.2,0.8-0.2
			c0.3,0,0.5,0.2,0.7,0.4c0.2,0.2,0.2,0.5,0.2,0.8c-0.1,0.3-0.2,0.5-0.5,0.7c-0.3,0.2-0.5,0.3-0.8,0.2
			C96.9,252.9,96.7,252.8,96.5,252.6z"/>
		<path fill="#D5D5D2" d="M90.6,243c-0.2-0.3-0.2-0.6-0.1-0.9c0.1-0.3,0.3-0.5,0.5-0.7c0.3-0.1,0.6-0.2,0.9-0.1
			c0.3,0.1,0.5,0.3,0.7,0.5c0.1,0.3,0.2,0.5,0.1,0.8c-0.1,0.3-0.3,0.5-0.5,0.7c-0.3,0.1-0.6,0.2-0.9,0.1
			C90.9,243.4,90.7,243.2,90.6,243z"/>
		<path fill="#D5D5D2" d="M88.1,238c-0.1-0.3-0.1-0.6,0-0.9c0.1-0.3,0.3-0.5,0.6-0.6c0.3-0.1,0.6-0.1,0.9,0c0.3,0.1,0.5,0.3,0.6,0.6
			c0.1,0.3,0.1,0.5,0,0.8c-0.1,0.3-0.3,0.5-0.6,0.6c-0.3,0.1-0.6,0.1-0.9,0C88.4,238.4,88.2,238.2,88.1,238z"/>
		<path fill="#D5D5D2" d="M86,232.8c-0.1-0.3-0.1-0.6,0-0.9c0.1-0.3,0.3-0.5,0.6-0.6c0.3-0.1,0.6-0.1,0.9,0c0.3,0.1,0.5,0.3,0.6,0.6
			c0.1,0.3,0.1,0.6,0,0.8c-0.1,0.3-0.3,0.5-0.6,0.6c-0.3,0.1-0.6,0.1-0.9,0C86.3,233.2,86.1,233,86,232.8z"/>
		<path fill="#D5D5D2" d="M84.2,227.5c-0.1-0.3-0.1-0.6,0.1-0.9c0.1-0.3,0.4-0.4,0.7-0.5c0.3-0.1,0.6-0.1,0.9,0.1
			c0.3,0.1,0.4,0.4,0.5,0.6c0.1,0.3,0.1,0.6-0.1,0.8c-0.1,0.3-0.4,0.4-0.7,0.5c-0.3,0.1-0.6,0.1-0.9-0.1
			C84.5,227.9,84.3,227.7,84.2,227.5z"/>
		<path fill="#D5D5D2" d="M82.8,222c-0.1-0.3,0-0.6,0.1-0.9c0.2-0.3,0.4-0.4,0.7-0.5c0.3-0.1,0.6,0,0.8,0.1c0.3,0.2,0.4,0.4,0.5,0.7
			c0.1,0.3,0,0.6-0.1,0.8c-0.2,0.3-0.4,0.4-0.7,0.5c-0.3,0.1-0.6,0-0.9-0.1C83,222.5,82.8,222.3,82.8,222z"/>
		<path fill="#D5D5D2" d="M81.7,216.5c-0.1-0.3,0-0.6,0.2-0.9c0.2-0.2,0.4-0.4,0.7-0.4c0.3,0,0.6,0,0.8,0.2c0.2,0.2,0.4,0.4,0.4,0.7
			c0,0.3,0,0.6-0.2,0.8c-0.2,0.2-0.4,0.4-0.7,0.4c-0.3,0.1-0.6,0-0.8-0.2C81.9,217,81.7,216.7,81.7,216.5z"/>
		<path fill="#D5D5D2" d="M81,210.9c0-0.3,0.1-0.6,0.3-0.8c0.2-0.2,0.5-0.4,0.8-0.4c0.3,0,0.6,0.1,0.8,0.2c0.2,0.2,0.4,0.4,0.4,0.7
			c0,0.3-0.1,0.6-0.3,0.8c-0.2,0.2-0.4,0.4-0.8,0.4c-0.3,0-0.6-0.1-0.8-0.3C81.1,211.4,81,211.2,81,210.9z"/>
		<path fill="#D5D5D2" d="M80.6,205.3c0-0.3,0.1-0.6,0.3-0.8c0.2-0.2,0.5-0.3,0.8-0.3c0.3,0,0.6,0.1,0.8,0.3
			c0.2,0.2,0.3,0.5,0.3,0.8c0,0.3-0.1,0.6-0.3,0.8c-0.2,0.2-0.5,0.3-0.8,0.3c-0.3,0-0.6-0.1-0.8-0.3
			C80.8,205.8,80.7,205.6,80.6,205.3z"/>
		<path fill="#D5D5D2" d="M80.7,199.7c0-0.3,0.1-0.6,0.4-0.8c0.2-0.2,0.5-0.3,0.8-0.3c0.3,0,0.6,0.1,0.8,0.4
			c0.2,0.2,0.3,0.5,0.3,0.8c0,0.3-0.1,0.5-0.4,0.8c-0.2,0.2-0.5,0.3-0.8,0.3c-0.3,0-0.6-0.1-0.8-0.4
			C80.8,200.2,80.7,199.9,80.7,199.7z"/>
		<path fill="#D5D5D2" d="M81,194.1c0-0.3,0.2-0.6,0.4-0.8c0.2-0.2,0.5-0.3,0.8-0.2c0.3,0,0.6,0.2,0.8,0.4c0.2,0.2,0.3,0.5,0.2,0.8
			c0,0.3-0.2,0.5-0.4,0.7c-0.2,0.2-0.5,0.3-0.8,0.2c-0.3,0-0.6-0.2-0.8-0.4C81.1,194.6,81,194.4,81,194.1z"/>
		<path fill="#D5D5D2" d="M81.8,188.5c0.1-0.3,0.2-0.6,0.5-0.8c0.3-0.2,0.5-0.2,0.8-0.2c0.3,0.1,0.5,0.2,0.7,0.4
			c0.2,0.2,0.2,0.5,0.2,0.8c0,0.3-0.2,0.5-0.4,0.7c-0.2,0.2-0.5,0.2-0.8,0.2c-0.3-0.1-0.6-0.2-0.7-0.5
			C81.8,189.1,81.7,188.8,81.8,188.5z"/>
		<path fill="#D5D5D2" d="M82.9,183c0.1-0.3,0.2-0.6,0.5-0.7c0.3-0.2,0.5-0.2,0.8-0.1c0.3,0.1,0.5,0.2,0.7,0.5
			c0.2,0.3,0.2,0.5,0.1,0.8c-0.1,0.3-0.2,0.5-0.5,0.7c-0.3,0.2-0.5,0.2-0.8,0.1c-0.3-0.1-0.5-0.2-0.7-0.5
			C82.9,183.5,82.8,183.3,82.9,183z"/>
		<path fill="#D5D5D2" d="M84.4,177.6c0.1-0.3,0.3-0.5,0.6-0.7c0.3-0.1,0.6-0.2,0.8-0.1c0.3,0.1,0.5,0.3,0.7,0.5
			c0.1,0.3,0.2,0.5,0.1,0.8c-0.1,0.3-0.3,0.5-0.5,0.6c-0.3,0.1-0.6,0.2-0.8,0.1c-0.3-0.1-0.5-0.3-0.7-0.6
			C84.3,178.1,84.3,177.9,84.4,177.6z"/>
		<path fill="#D5D5D2" d="M88.4,167.1c0.1-0.3,0.4-0.5,0.6-0.6c0.3-0.1,0.6-0.1,0.8,0c0.3,0.1,0.5,0.3,0.6,0.6
			c0.1,0.3,0.1,0.6,0,0.8c-0.1,0.3-0.3,0.5-0.6,0.6c-0.3,0.1-0.6,0.1-0.8,0c-0.3-0.1-0.5-0.3-0.6-0.6
			C88.3,167.6,88.3,167.3,88.4,167.1z"/>
		<path fill="#D5D5D2" d="M90.9,162.1c0.2-0.3,0.4-0.5,0.7-0.6c0.3-0.1,0.6-0.1,0.8,0.1c0.3,0.1,0.5,0.4,0.5,0.7
			c0.1,0.3,0.1,0.6-0.1,0.8c-0.1,0.3-0.4,0.4-0.7,0.5c-0.3,0.1-0.6,0.1-0.8-0.1c-0.3-0.2-0.5-0.4-0.5-0.7
			C90.7,162.6,90.7,162.3,90.9,162.1z"/>
		<path fill="#D5D5D2" d="M93.7,157.2c0.2-0.3,0.4-0.5,0.7-0.5c0.3-0.1,0.6,0,0.8,0.1c0.3,0.2,0.4,0.4,0.5,0.7
			c0.1,0.3,0,0.6-0.1,0.8c-0.2,0.2-0.4,0.4-0.7,0.5c-0.3,0.1-0.6,0-0.8-0.1c-0.3-0.2-0.4-0.4-0.5-0.7
			C93.5,157.7,93.6,157.4,93.7,157.2z"/>
		<path fill="#D5D5D2" d="M100.3,148.1c0.2-0.3,0.5-0.4,0.8-0.4c0.3,0,0.6,0.1,0.8,0.3c0.2,0.2,0.4,0.4,0.4,0.8
			c0,0.3-0.1,0.6-0.2,0.8c-0.2,0.2-0.4,0.4-0.7,0.4c-0.3,0-0.6-0.1-0.8-0.3c-0.2-0.2-0.4-0.5-0.4-0.8
			C100,148.6,100.1,148.3,100.3,148.1z"/>
		<path fill="#D5D5D2" d="M104,143.9c0.2-0.2,0.5-0.4,0.8-0.4c0.3,0,0.6,0.1,0.8,0.3c0.2,0.2,0.3,0.5,0.4,0.8c0,0.3-0.1,0.6-0.3,0.8
			c-0.2,0.2-0.5,0.3-0.8,0.3c-0.3,0-0.6-0.1-0.8-0.3c-0.2-0.2-0.4-0.5-0.4-0.8C103.7,144.3,103.8,144.1,104,143.9z"/>
		<path fill="#D5D5D2" d="M108,140c0.2-0.2,0.5-0.3,0.8-0.3c0.3,0,0.6,0.1,0.8,0.4c0.2,0.2,0.3,0.5,0.3,0.8c0,0.3-0.1,0.6-0.3,0.8
			c-0.2,0.2-0.5,0.3-0.8,0.3c-0.3,0-0.6-0.1-0.8-0.4c-0.2-0.2-0.3-0.5-0.3-0.8C107.7,140.4,107.8,140.1,108,140z"/>
		<path fill="#D5D5D2" d="M112.2,136.3c0.3-0.2,0.5-0.3,0.8-0.3c0.3,0,0.6,0.2,0.7,0.4c0.2,0.2,0.3,0.5,0.2,0.8
			c0,0.3-0.2,0.6-0.4,0.7c-0.2,0.2-0.5,0.3-0.8,0.2c-0.3,0-0.6-0.2-0.7-0.4c-0.2-0.2-0.3-0.5-0.3-0.8
			C111.9,136.7,112,136.4,112.2,136.3z"/>
		<path fill="#D5D5D2" d="M121.4,129.7c0.3-0.2,0.6-0.2,0.9-0.1c0.3,0.1,0.5,0.2,0.7,0.5c0.2,0.3,0.2,0.5,0.1,0.8
			c-0.1,0.3-0.2,0.5-0.5,0.7c-0.3,0.2-0.5,0.2-0.8,0.1c-0.3-0.1-0.5-0.2-0.7-0.5c-0.2-0.3-0.2-0.6-0.1-0.9
			C121,130.1,121.2,129.9,121.4,129.7z"/>
		<path fill="#D5D5D2" d="M126.2,127c0.3-0.2,0.6-0.2,0.9-0.1c0.3,0.1,0.5,0.3,0.7,0.5c0.1,0.3,0.2,0.6,0.1,0.9
			c-0.1,0.3-0.3,0.5-0.5,0.7c-0.3,0.1-0.5,0.2-0.8,0.1c-0.3-0.1-0.5-0.3-0.7-0.5c-0.2-0.3-0.2-0.6-0.1-0.9
			C125.9,127.3,126,127.1,126.2,127z"/>
		<path fill="#D5D5D2" d="M131.3,124.5c0.3-0.1,0.6-0.1,0.9,0c0.3,0.1,0.5,0.3,0.6,0.6c0.1,0.3,0.1,0.6,0,0.9
			c-0.1,0.3-0.3,0.5-0.6,0.6c-0.3,0.1-0.5,0.1-0.8,0c-0.3-0.1-0.5-0.3-0.6-0.6c-0.1-0.3-0.1-0.6,0-0.9
			C130.9,124.8,131.1,124.6,131.3,124.5z"/>
	</g>
	<g>
		<g>
			<polygon fill="#FFFFFF" points="32.4,203.6 32.4,179.8 11.7,179.8 11.7,208.8 27.2,208.8 			"/>
		</g>
		<g>
			<polygon fill="#F8C7C3" points="32.2,203.8 27.4,203.8 27.4,208.8 			"/>
		</g>
		<g>
			<polygon fill="#F5F5F5" points="28.3,200.7 28.3,176.8 7.7,176.8 7.7,205.8 23.1,205.8 			"/>
		</g>
		<g>
			<polygon fill="#FFFFFF" points="27.4,199.6 27.4,175.8 6.8,175.8 6.8,204.8 22.3,204.8 			"/>
		</g>
		<g>
			<polygon fill="#F8C7C3" points="27.3,199.8 22.5,199.8 22.5,204.8 			"/>
		</g>
		<g>
			<path fill="#FFFFFF" d="M114.3,247.2v-52.9c0-9.7-7.9-17.6-17.6-17.6H64.4c-9.7,0-17.6,7.9-17.6,17.6v52.9H114.3z"/>
		</g>
		<g>
			<path fill="#FBDDDC" d="M98.2,153.2c0,10.9-8.8,19.8-19.8,19.8l0,0c-10.9,0-19.8-8.8-19.8-19.8l-0.3-12
				c0-10.9,9.8-19.8,20.8-19.8l-0.7-0.7c10.9,0,19.8,9.5,19.8,20.5L98.2,153.2z"/>
		</g>
		<g>
			<ellipse fill="#FBDDDC" cx="89.8" cy="152.2" rx="4.3" ry="5.4"/>
		</g>
		<g>
			<path fill="#464442" d="M58.6,164.9"/>
		</g>
		<g>
			<path fill-rule="evenodd" clip-rule="evenodd" fill="#F9CECF" d="M101,206.1c-0.2,0-0.4-0.2-0.4-0.4v-4l-2.2,2h0
				c-0.1,0.1-0.2,0.1-0.2,0.1c-0.1,0-0.2,0-0.2-0.1c0,0,0,0,0,0l-2.2-2v4c0,0.2-0.2,0.4-0.4,0.4c-0.2,0-0.4-0.2-0.4-0.4v-4.8
				c0-0.1,0-0.2,0.1-0.3c0,0,0,0,0,0c0,0,0,0,0,0l2.7-2.5c0,0,0,0,0,0c0.1-0.1,0.2-0.1,0.2-0.1c0.1,0,0.2,0,0.2,0.1c0,0,0,0,0,0
				l2.7,2.5c0,0,0,0,0,0c0,0,0,0,0,0c0.1,0.1,0.1,0.2,0.1,0.3v4.8C101.3,205.9,101.2,206.1,101,206.1z M98.2,198.8l-2.2,2l2.2,2
				l2.2-2L98.2,198.8z"/>
		</g>
		<g>
			<polyline fill="#646360" points="85.4,176.5 78.6,183.3 71.8,176.5 			"/>
		</g>
		<g>
			<polygon fill="#646360" points="84.4,221 79.2,227.5 74,221 75.6,177.5 81.9,177.5 			"/>
		</g>
		<g>
			<path fill="#464442" d="M101.9,128.8c0,5.6-4.6,10.2-10.2,10.2H59.9c-5.6,0-10.2-4.6-10.2-10.2l0,0c0-5.6,4.6-10.2,10.2-10.2
				h31.8C97.4,118.7,101.9,123.2,101.9,128.8L101.9,128.8z"/>
		</g>
		<g>
			<path fill="#464442" d="M93.7,120.8c4.5,0,8.2,3.7,8.2,8.2v9.6c0,4.5-3.7,8.2-8.2,8.2l0,0c-4.5,0-8.2-3.7-8.2-8.2V129
				C85.5,124.5,89.2,120.8,93.7,120.8L93.7,120.8z"/>
		</g>
		<g>
			<path fill="#FFFFFF" d="M39.3,218c6.1,0,7.5-3.1,7.5-10.5v-14H49c5.6,0,10.1,5.2,10.1,11.5v14.3c0,6.4-4.5,11.5-10.1,11.5H10.4
				c-5.6,0-2.7-6.1-2.7-12.5V218H39.3z"/>
		</g>
		<g>
			<path fill="#FBDDDC" d="M11.6,230.7l-6.7,0c-2.7,0-4.9-2.5-4.9-5.6l0,0c0-3.1,2.2-5.6,4.9-5.6l6.7,0"/>
		</g>
		<g>
			<path fill="#FBDDDC" d="M11.6,220H6.4c-0.5,0-0.9-0.5-0.9-1l0,0c0-0.6,0.4-1,0.9-1l5.2,0"/>
		</g>
		<g>
			<path fill="#646360" d="M72.4,160.1c0,0.4-0.3,0.7-0.7,0.7l0,0c-0.4,0-0.7-0.3-0.7-0.7V147c0-0.4,0.3-0.7,0.7-0.7l0,0
				c0.4,0,0.7,0.3,0.7,0.7V160.1z"/>
		</g>
	</g>
	<g>
		<g>
			<path fill="#464442" d="M270.1,167.9v-26.2c0-13.1-10.6-23.6-23.6-23.6c-13.1,0-23.6,10.6-23.6,23.6v26.2H270.1z"/>
		</g>
		<g>
			<path fill="#464442" d="M282.3,246.5v-52.9c0-9.7-4.9-17.6-14.6-17.6h-32.3c-9.7,0-17.6,7.9-17.6,17.6v52.9H282.3z"/>
		</g>
		<g>
			<polygon fill="#FFFFFF" points="244.8,175.9 254.9,175.9 254.9,186 			"/>
		</g>
		<g>
			<polygon fill="#FFFFFF" points="245.3,175.9 235.2,175.9 235.2,186 			"/>
		</g>
		<g>
			<path fill="#FBDDDC" d="M263.5,153.2c0,10.9-8.8,19.8-19.8,19.8l0,0c-10.9,0-19.1-8.8-19.1-19.7v-12c0-10.9,8.8-19.8,19.8-19.8
				l-0.7-0.7c10.9,0,19.8,9.5,19.8,20.5L263.5,153.2z"/>
		</g>
		<g>
			<path fill="#464442" d="M229,126.6c0,0-4.1,26.4,39.2,39.6c0,0,3.2-17.9-0.5-24.1C263.4,135,252.6,107.1,229,126.6z"/>
		</g>
		<g>
			<path fill-rule="evenodd" clip-rule="evenodd" fill="#F8C7C3" d="M253.5,207.1c-0.2,0-0.4-0.2-0.4-0.4v-4l-2.2,2h0
				c-0.1,0.1-0.2,0.1-0.2,0.1c-0.1,0-0.2,0-0.2-0.1h0l-2.2-2v4c0,0.2-0.2,0.4-0.4,0.4c-0.2,0-0.4-0.2-0.4-0.4v-4.8
				c0-0.1,0-0.2,0.1-0.3c0,0,0,0,0,0c0,0,0,0,0,0l2.7-2.5c0,0,0,0,0,0c0.1-0.1,0.2-0.1,0.2-0.1c0.1,0,0.2,0,0.2,0.1c0,0,0,0,0,0
				l2.7,2.5c0,0,0,0,0,0c0,0,0,0,0,0c0.1,0.1,0.1,0.2,0.1,0.3v4.8C253.8,207,253.7,207.1,253.5,207.1z M250.7,199.9l-2.2,2l2.2,2
				l2.2-2L250.7,199.9z"/>
		</g>
		<g>
			<path fill="#464442" d="M222.8,149.1c0,8.4-3.8,17.1-8.1,18.8h9.9L222.8,149.1z"/>
		</g>
		<g>
			<path fill="#FFFFFF" d="M257.2,217c7.6,0,11.5-1,11.5-12v-29.2h2.4c6.4,0,11.5,6.4,11.5,13v29.5c0,6.6-5.2,12-11.5,12h-68.9
				c-6.4,0-5.7-6.7-5.7-13.3l14.8,0H257.2z"/>
		</g>
		<g>
			<path fill="#D5D5D2" d="M199,219.6c0,0.8-0.6,1.4-1.4,1.4l0,0c-0.8,0-1.4-0.6-1.4-1.4v-13.3c0-0.8,0.6-1.4,1.4-1.4v1
				c0.8,0,1.4-0.4,1.4,0.4V219.6z"/>
		</g>
		<g>
			<path fill="#FBDDDC" d="M201.7,230.3l-8,0c-3.2,0-5.8-2.6-5.8-5.8l0,0c0-3.2,2.6-5.8,5.8-5.8l8,0"/>
		</g>
		<g>
			<path fill="#FBDDDC" d="M201.7,219.2l-6.2,0c-0.6,0-1.1-0.5-1.1-1.1l0,0c0-0.6,0.5-1.1,1.1-1.1l6.2,0"/>
		</g>
		<g>
			<path fill="#FFFFFF" d="M206.6,197.1c0,4.9-4.3,8.8-8.8,8.8c-4.9,0-8.8-4-8.8-8.8s4-8.8,8.8-8.8
				C202.6,188.2,206.6,192.2,206.6,197.1z"/>
			<path fill="#5A5956" d="M197.7,206.9c-5.4,0-9.8-4.4-9.8-9.8c0-5.4,4.4-9.8,9.8-9.8c5.4,0,9.8,4.4,9.8,9.8
				C207.6,202.3,203,206.9,197.7,206.9z M197.7,189.2c-4.3,0-7.8,3.5-7.8,7.8c0,4.3,3.5,7.8,7.8,7.8c4.2,0,7.8-3.7,7.8-7.8
				C205.6,192.7,202.1,189.2,197.7,189.2z"/>
		</g>
		<g>
			<path fill="#646360" d="M232.9,160c0,0.4-0.3,0.7-0.7,0.7l0,0c-0.4,0-0.7-0.3-0.7-0.7v-13.1c0-0.4,0.3-0.7,0.7-0.7l0,0
				c0.4,0,0.7,0.3,0.7,0.7V160z"/>
		</g>
	</g>
	<g>
		<g>
			<polygon fill="#F8C7C3" points="118.3,270.6 213.7,270.6 213.7,257 178,245.3 155.3,245.3 118.3,258.3 			"/>
		</g>
		<g>
			<rect x="118.3" y="268.6" fill="#FFFFFF" width="95.3" height="35"/>
		</g>
		<g>
			<rect x="118.3" y="303.6" fill="#FFFFFF" width="95.3" height="6.3"/>
		</g>
		<g>
			
				<rect x="118.3" y="300.5" transform="matrix(1 -8.604954e-03 8.604954e-03 1 -2.5931 1.4398)" fill="#E7E7E5" width="95.3" height="3.2"/>
		</g>
		<g>
			<rect x="119.5" y="270.2" fill="#E7E7E5" width="3.2" height="31"/>
		</g>
		<g>
			<rect x="152.3" y="270.2" fill="#E7E7E5" width="3.2" height="31"/>
		</g>
		<g>
			<rect x="179.7" y="270.2" fill="#E7E7E5" width="3.2" height="31"/>
		</g>
		<g>
			<rect x="209.3" y="270.2" fill="#E7E7E5" width="3.2" height="31"/>
		</g>
		<g>
			<rect x="118.3" y="267.1" fill="#F09390" width="95.3" height="3.2"/>
		</g>
		<g>
			<polyline fill="#F09390" points="143.5,250.1 143.5,249.3 188.5,249.3 188.5,250.1 			"/>
		</g>
		<g>
			<path fill="#2A2825" d="M134.3,300.5v-14.9c0-2.7,2.2-4.9,4.9-4.9l0,0c2.7,0,4.9,2.2,4.9,4.9v14.9"/>
		</g>
		<g>
			<path fill="#2A2825" d="M192,300.5v-14.9c0-2.7,2.2-4.9,4.9-4.9l0,0c2.7,0,4.9,2.2,4.9,4.9v14.9"/>
		</g>
		<g>
			<path fill="#2A2825" d="M160.7,300.5v-19.4c0-3.5,2.8-6.4,6.4-6.4l0,0c3.5,0,6.4,2.8,6.4,6.4v19.4"/>
		</g>
		<g>
			<rect x="118.3" y="257.6" fill="#F09390" width="5.5" height="12.6"/>
		</g>
		<g>
			<rect x="208.1" y="257.6" fill="#F09390" width="5.5" height="12.6"/>
		</g>
		<g>
			<rect x="138.7" y="280.8" fill="#FFFFFF" width="1" height="20.5"/>
		</g>
		<g>
			<rect x="130" y="290.5" fill="#FFFFFF" width="20.5" height="1"/>
		</g>
		<g>
			<rect x="196.4" y="280.3" fill="#FFFFFF" width="1" height="20.5"/>
		</g>
		<g>
			<rect x="187.6" y="290" fill="#FFFFFF" width="20.5" height="1"/>
		</g>
	</g>
	<g>
		<g>
			<path fill="#464442" d="M184.4,128.9h17.1v-19.8c0-9.7-3.9-17.6-13.6-17.6h-34.3c-9.7,0-17.6,7.9-17.6,17.6v52.9h48.5V128.9z"/>
		</g>
		<g>
			<path fill="#FBDDDC" d="M190.4,68.1c0,10.9-8.8,19.8-19.8,19.8l0,0c-10.9,0-19.8-8.8-19.8-19.8V56.2c0-10.9,9.5-19.8,20.4-19.8
				l-0.7-0.7c10.9,0,19.8,9.5,19.8,20.5L190.4,68.1z"/>
		</g>
		<g>
			<path fill="#464442" d="M137.8,79.8"/>
		</g>
		<g>
			<path fill="#F8C7C3" d="M144,162.1h52V92.5c-2.2-1.1-1.1-1-8.2-1H181l-11.8,32.4l-11.8-32.4h-3.8c-3.5,0-6.8,1-9.5,2.8V162.1z"/>
		</g>
		<g>
			<path fill="#464442" d="M195.9,128.9"/>
		</g>
		<g>
			<path fill="#464442" d="M183.6,47.3c4.6,0,8.3,3.6,8.3,8v5.4c0,4.4-3.7,8-8.3,8l0,0c-4.6,0-8.3-3.6-8.3-8v-5.4
				C175.2,50.9,179,47.3,183.6,47.3L183.6,47.3z"/>
		</g>
		<g>
			<path fill="#FFFFFF" d="M170.8,34.8c-11.6,0-21.1,9.4-21.1,21.1h42.1C191.9,44.2,182.5,34.8,170.8,34.8z"/>
		</g>
		<g>
			<path fill="#FFFFFF" d="M152.1,54.8c0,0.5-0.4,1-1,1H133c-0.5,0-1-0.4-1-1l0,0c0-0.5,0.4-1,1-1h18.1
				C151.7,53.9,152.1,54.3,152.1,54.8L152.1,54.8z"/>
		</g>
		<g>
			<path fill-rule="evenodd" clip-rule="evenodd" fill="#F8C7C3" d="M162.8,52.2c-0.2,0-0.4-0.2-0.4-0.4v-4l-2.2,2h0
				c-0.1,0.1-0.2,0.1-0.2,0.1c-0.1,0-0.2,0-0.2-0.1h0l-2.2-2v4c0,0.2-0.2,0.4-0.4,0.4c-0.2,0-0.4-0.2-0.4-0.4V47
				c0-0.1,0-0.2,0.1-0.3c0,0,0,0,0,0c0,0,0,0,0,0l2.7-2.5c0,0,0,0,0,0c0.1-0.1,0.2-0.1,0.2-0.1c0.1,0,0.2,0,0.2,0.1c0,0,0,0,0,0
				l2.7,2.5c0,0,0,0,0,0c0,0,0,0,0,0c0.1,0.1,0.1,0.2,0.1,0.3v4.8C163.2,52.1,163,52.2,162.8,52.2z M160.1,45l-2.2,2l2.2,2l2.2-2
				L160.1,45z"/>
		</g>
		<g>
			<path fill="#464442" d="M180.1,131.5c7.4,0,9-4.4,9-11V91.3h2.5c6.6,0,12,5.4,12,12v29.5c0,6.6-5.4,12-12,12h-67.3
				c-6.6,0-6-6.4-6-13v-0.3H180.1z"/>
		</g>
		<g>
			<path fill="#646360" d="M160.7,73.6c0,0.4-0.3,0.7-0.7,0.7l0,0c-0.4,0-0.7-0.3-0.7-0.7V60.5c0-0.4,0.3-0.7,0.7-0.7l0,0
				c0.4,0,0.7,0.3,0.7,0.7V73.6z"/>
		</g>
		<g>
			<g>
				<g>
					<rect x="119.3" y="111.4" fill="#D5D5D2" width="4.4" height="26"/>
				</g>
				<g>
					<rect x="118.5" y="111.4" fill="#E6E6E5" width="4.4" height="26"/>
				</g>
				<g>
					<path fill="#FFFFFF" d="M112.9,108.5c0,0,8.5,0,10.8,0c2.3,0,6.8,1.5,8.1,5.8c0,0-2.7-0.8-7.6-0.8c-4.9,0-12.5,0-12.5,0"/>
				</g>
				<g>
					<rect x="110.5" y="106.2" fill="#D5D5D2" width="4.9" height="9"/>
				</g>
				<g>
					<rect x="109.9" y="106.2" fill="#FFFFFF" width="4.9" height="9"/>
				</g>
			</g>
			<g>
				<path fill="#FBDDDC" d="M124.8,144.8l-8,0c-3.2,0-5.8-2.6-5.8-5.7l0,0c0-3.2,2.6-5.7,5.8-5.7l8,0"/>
			</g>
			<g>
				<path fill="#FBDDDC" d="M124.8,133.8l-6.2,0c-0.6,0-1.1-0.5-1.1-1.2l0,0c0-0.6,0.5-1.2,1.1-1.2l6.2,0"/>
			</g>
		</g>
	</g>
</g>
</svg>
