<?xml version="1.0" encoding="utf-8"?>
<!-- Generator: Adobe Illustrator 18.1.1, SVG Export Plug-In . SVG Version: 6.00 Build 0)  -->
<svg version="1.1" id="레이어_1" xmlns="http://www.w3.org/2000/svg" xmlns:xlink="http://www.w3.org/1999/xlink" x="0px"
	 y="0px" viewBox="0 0 245 323" enable-background="new 0 0 245 323" xml:space="preserve">
<g>
	<g>
		<rect x="147" y="27" fill="#F9CECF" width="19.5" height="4.2"/>
	</g>
	<g>
		<path fill="#FFFFFF" d="M145.6,44c0,0,4.5,10.7,0,16.3c-6,3.6,12.5-5.5,10-16.3"/>
	</g>
	<g>
		<circle fill="#FFFFFF" cx="153.1" cy="25.1" r="25.1"/>
	</g>
	<g>
		<path fill="#464442" d="M140,188.9v-67c0-12.3-10-22.3-22.3-22.3H68.2c-12.3,0-22.3,10-22.3,22.3v67H140z"/>
	</g>
	<g>
		<g>
			<path fill="#464442" d="M120,91V59.2c0-15.8-12.8-28.7-28.7-28.7c-15.8,0-28.7,12.8-28.7,28.7V91H120z"/>
		</g>
		<g>
			<path fill="#FBDDDC" d="M116.8,68.6c0,14.1-11.4,25.5-25.5,25.5l0,0c-14.1,0-25.5-11.4-25.5-25.5V58.3
				c0-14.1,11.4-25.5,25.5-25.5l0,0c14.1,0,25.5,11.4,25.5,25.5V68.6z"/>
		</g>
		<g>
			<path fill="#F4AAAA" d="M90.7,58.3"/>
		</g>
		<g>
			<path fill="#464442" d="M97.1,32c-1.7-0.4-3.4-0.6-5.1-0.7c-0.4,0-0.7,0-1.1,0c-14.6,0-26.4,11.8-26.4,26.4v8.3
				c13.5,0,25-8.2,30-19.8c4.1,9.5,12.5,16.6,22.7,19v-7.5C117.2,45.2,108.6,34.8,97.1,32z"/>
		</g>
	</g>
	<g>
		<polygon fill="#FFFFFF" points="107.6,99.6 91.4,116.8 75.1,99.6 		"/>
	</g>
	<g>
		<polygon fill="#FBDDDC" points="102,99.6 91.4,110.9 80.7,99.6 		"/>
	</g>
	<g>
		<path fill="#83817E" d="M91.3,86.3c-3.9,0-7.6-1.7-10.1-4.6c-0.3-0.3-0.2-0.8,0.1-1.1c0.3-0.3,0.8-0.2,1.1,0.1
			c2.2,2.6,5.5,4.1,9,4.1c3.5,0,6.8-1.5,9.1-4.2c0.3-0.3,0.7-0.4,1.1-0.1c0.3,0.3,0.4,0.7,0.1,1.1C99,84.5,95.3,86.3,91.3,86.3z"/>
	</g>
	<g>
		<path fill="#A19F9B" d="M211,279.9c0,4.3-3.5,7.7-7.8,7.7h-82.9c-4.3,0-7.8-3.5-7.8-7.7V161.4c0-4.3,3.5-7.8,7.8-7.8h82.9
			c4.3,0,7.8,3.5,7.8,7.8V279.9z"/>
	</g>
	<g>
		<rect x="117.3" y="162.7" fill="#FFFFFF" width="87.7" height="116.5"/>
	</g>
	<g>
		<rect x="148.7" y="158" fill="#464442" width="26.4" height="8.7"/>
	</g>
	<g>
		<rect x="129.2" y="179.2" fill="#FBDDDC" width="17.6" height="17.6"/>
	</g>
	<g>
		<rect x="126.2" y="258.8" fill="#FBDDDC" width="9.1" height="9.1"/>
	</g>
	<g>
		<polygon fill="#FBDDDC" points="126.6,246.6 137.6,231.4 148.6,246.6 		"/>
	</g>
	<g>
		<polygon fill="#FBDDDC" points="160.6,267.9 167.1,258.9 173.6,267.9 		"/>
	</g>
	<g>
		<g>
			<rect x="153.1" y="179.2" fill="#E7E7E5" width="19.8" height="4.1"/>
		</g>
		<g>
			<rect x="153.1" y="186.3" fill="#E7E7E5" width="43.3" height="2"/>
		</g>
		<g>
			<rect x="153.1" y="190.7" fill="#E7E7E5" width="43.3" height="2"/>
		</g>
		<g>
			<rect x="153.1" y="195" fill="#E7E7E5" width="43.3" height="2"/>
		</g>
	</g>
	<g>
		<g>
			<rect x="153.1" y="204.2" fill="#E7E7E5" width="19.8" height="4.1"/>
		</g>
		<g>
			<rect x="153.1" y="211.4" fill="#E7E7E5" width="43.3" height="2"/>
		</g>
		<g>
			<rect x="153.1" y="215.7" fill="#E7E7E5" width="43.3" height="2"/>
		</g>
		<g>
			<rect x="153.1" y="220" fill="#E7E7E5" width="43.3" height="2"/>
		</g>
	</g>
	<g>
		<g>
			<rect x="153.1" y="228.5" fill="#E7E7E5" width="19.8" height="4.1"/>
		</g>
		<g>
			<rect x="153.1" y="235.7" fill="#E7E7E5" width="43.3" height="2"/>
		</g>
		<g>
			<rect x="153.1" y="240" fill="#E7E7E5" width="43.3" height="2"/>
		</g>
		<g>
			<rect x="153.1" y="244.4" fill="#E7E7E5" width="43.3" height="2"/>
		</g>
	</g>
	<g>
		<circle fill="#FBDDDC" cx="137.7" cy="213.8" r="9.6"/>
	</g>
	<g>
		<circle fill="#FBDDDC" cx="148.7" cy="263.4" r="4.8"/>
	</g>
	<g>
		<path fill="#FBDDDC" d="M139.6,262.6v-1.9h1.2v1.9h1.9v1.2h-1.9v1.9h-1.2v-1.9h-1.9v-1.2H139.6z"/>
	</g>
	<g>
		<path fill="#FBDDDC" d="M157.4,262.6v-1.9h1.2v1.9h1.9v1.2h-1.9v1.9h-1.2v-1.9h-1.9v-1.2H157.4z"/>
	</g>
	<g>
		<path fill="#FBDDDC" d="M177.7,261.3v1.2h-3.7v-1.2H177.7z M177.7,263.8v1.2h-3.7v-1.2H177.7z"/>
	</g>
	<g>
		<rect x="180.8" y="258.9" fill="#E7E7E5" width="17.4" height="9.2"/>
	</g>
	<g>
		<rect x="189.5" y="104.3" fill="#F8C7C3" width="55.5" height="1.3"/>
	</g>
	<g>
		<rect x="231.3" y="89" fill="#F8C7C3" width="1.3" height="55.5"/>
	</g>
	<g>
		<g>
			<rect x="15.1" y="224.4" fill="#FBDDDC" width="20.2" height="91.7"/>
		</g>
		<g>
			<rect x="15.1" y="302.8" fill="#F8C7C3" width="91.7" height="20.2"/>
		</g>
		<g>
			<rect x="26.1" y="234.5" fill="#FFFFFF" width="9.2" height="1.4"/>
		</g>
		<g>
			<rect x="29.7" y="243.9" fill="#FFFFFF" width="5.6" height="1.4"/>
		</g>
		<g>
			<rect x="29.7" y="262" fill="#FFFFFF" width="5.6" height="1.4"/>
		</g>
		<g>
			<rect x="29.7" y="281.3" fill="#FFFFFF" width="5.6" height="1.4"/>
		</g>
		<g>
			<rect x="26.1" y="253.6" fill="#FFFFFF" width="9.2" height="1.4"/>
		</g>
		<g>
			<rect x="26.1" y="271.9" fill="#FFFFFF" width="9.2" height="1.4"/>
		</g>
		<g>
			<rect x="26.1" y="291" fill="#FFFFFF" width="9.2" height="1.4"/>
		</g>
		<g>
			<rect x="41.2" y="302.8" fill="#FFFFFF" width="1.4" height="9.9"/>
		</g>
		<g>
			<rect x="50.6" y="302.8" fill="#FFFFFF" width="1.4" height="6.1"/>
		</g>
		<g>
			<rect x="69.6" y="302.8" fill="#FFFFFF" width="1.4" height="6.1"/>
		</g>
		<g>
			<rect x="88.1" y="302.8" fill="#FFFFFF" width="1.4" height="6.1"/>
		</g>
		<g>
			<rect x="60.4" y="302.8" fill="#FFFFFF" width="1.4" height="9.9"/>
		</g>
		<g>
			<rect x="78.6" y="302.8" fill="#FFFFFF" width="1.4" height="9.9"/>
		</g>
		<g>
			<rect x="97.7" y="302.8" fill="#FFFFFF" width="1.4" height="9.9"/>
		</g>
	</g>
	<g>
		<path fill="#FFFFFF" d="M15.4,183.9c0,0-7.3-7.3-11.4-11.4c-4.1-4.1-6.4-11.4-0.2-15.4c4.6-3,11.6,0.6,11.6,6.1"/>
	</g>
	<g>
		<path fill="#F8C7C3" d="M15.4,183.9c0,0,7.3-7.3,11.4-11.4c4.1-4.1,6.4-11.4,0.2-15.4c-4.6-3-11.6,0.6-11.6,6.1"/>
	</g>
	<g>
		<path fill="#F8C7C3" d="M151.9,29.6v-17h3.4v17H151.9z M151.9,36.3v-3.4h3.4v3.4H151.9z"/>
	</g>
</g>
</svg>
