<?xml version="1.0" encoding="utf-8"?>
<!-- Generator: Adobe Illustrator 18.1.1, SVG Export Plug-In . SVG Version: 6.00 Build 0)  -->
<svg version="1.1" id="레이어_1" xmlns="http://www.w3.org/2000/svg" xmlns:xlink="http://www.w3.org/1999/xlink" x="0px"
	 y="0px" viewBox="0 0 76.9 66.2" enable-background="new 0 0 76.9 66.2" xml:space="preserve">
<path fill-rule="evenodd" clip-rule="evenodd" fill="#FFFFFF" d="M76.4,40.9c-1,1.8-3.4,2.4-5.2,1.4L48.4,29.1
	c-0.2,0.7-0.5,1.4-0.8,2l26.3,15.2c1.8,1,2.4,3.4,1.4,5.2c-1,1.8-3.4,2.4-5.2,1.4L43.8,37.7l-1.1,2l22.6,13.1c1.8,1,2.4,3.4,1.4,5.2
	c-1,1.8-3.4,2.4-5.2,1.4L38.9,46.2c-0.4,0.7-0.9,1.4-1.5,2l18.8,10.9c1.8,1,2.4,3.4,1.4,5.2c-1,1.8-3.4,2.4-5.2,1.4L25.2,49.9l0,0
	l-13.8-8c-3.4-2-5.2-5.6-5-9.3L0,29L13.9,4.7l3.5,2c3.9-6.5,12.2-8.7,18.8-4.9l6.4,3.7l0,0L58.9,15c1.8,1,0.9,2.5-0.2,4.3
	c-1,1.8-3.4,2.4-5.2,1.4L39,12.3l-1.1,2l1.9,1.1l0,0L75,35.7C76.9,36.8,77.5,39.1,76.4,40.9z"/>
</svg>
