<?xml version="1.0" encoding="utf-8"?>
<!-- Generator: Adobe Illustrator 18.1.1, SVG Export Plug-In . SVG Version: 6.00 Build 0)  -->
<svg version="1.1" id="레이어_1" xmlns="http://www.w3.org/2000/svg" xmlns:xlink="http://www.w3.org/1999/xlink" x="0px"
	 y="0px" viewBox="0 0 230.6 37" enable-background="new 0 0 230.6 37" xml:space="preserve">
<g id="Rounded_Rectangle_13_copy_8_1_">
	<g>
		<path fill="#F3A6A2" d="M23.6,10C23.5,9.9,23.5,9.9,23.6,10C23.5,9.9,23.5,9.9,23.6,10L12.9,0.4c0,0,0,0,0,0C12.7,0.1,12.3,0,12,0
			c-0.3,0-0.7,0.1-0.9,0.4c0,0,0,0,0,0L0.5,9.9c0,0,0,0,0,0c0,0,0,0,0,0C0.2,10.2,0,10.6,0,11v18.5c0,0.8,0.6,1.4,1.4,1.4
			c0.8,0,1.4-0.6,1.4-1.4V14l8.3,7.5c0,0,0,0,0,0c0.3,0.2,0.6,0.4,0.9,0.4c0.3,0,0.7-0.1,0.9-0.4c0,0,0,0,0,0l8.3-7.5v15.4
			c0,0.8,0.6,1.4,1.4,1.4c0.8,0,1.4-0.6,1.4-1.4V11C24,10.6,23.8,10.2,23.6,10z M12,18.6l-8.5-7.7L12,3.2l8.5,7.7L12,18.6z"/>
	</g>
</g>
<g id="logo_copy_5">
	<g>
		<path fill="#F3A6A2" d="M106.7,24.1c0,0,0-0.1,0-0.1h0v-5h4.5v-1.6h-4.5v-3H105V24h0c0,0,0,0,0,0.1c0,3.6,2.9,6.6,6.7,6.7v-1.6
			C108.7,29,106.7,27,106.7,24.1z M101.2,17.4c-2.1,0-4.1,1.1-5.5,2.7v-2.5h-1.7v6.7c0,0.1,0,0.1,0,0.2c0,0,0,0.1,0,0.1v6.1h1.7
			v-5.9l0,0c0,0,0-0.1,0-0.1c0-3,2.4-5.6,5.5-5.6c0.1,0,0.1,0,0.2,0l0-1.7C101.4,17.4,101.3,17.4,101.2,17.4z M88.1,19.8
			c-1.3-1.4-3.1-2.3-5.2-2.3c-3.8,0-6.9,3-6.9,6.7c0,3.7,3.1,6.7,6.9,6.7c2.1,0,4-0.9,5.2-2.3v2.3h1.7V17.6h-1.7V19.8z M88.1,24.3
			c-0.1,2.7-2.4,4.8-5.2,4.8c-2.9,0-5.2-2.2-5.2-5s2.3-5,5.2-5c2.8,0,5.1,2.1,5.2,4.8V24.3z M66,17.4c-2.1,0-4,0.9-5.3,2.4v-2.2H59
			v18.8h1.7v-8c1.3,1.4,3.2,2.4,5.3,2.4c3.8,0,6.9-3,6.9-6.7C72.9,20.4,69.8,17.4,66,17.4z M66,29.2c-2.9,0-5.2-2.3-5.2-5.1
			c0-2.8,2.3-5.1,5.2-5.1c2.9,0,5.2,2.3,5.2,5.1C71.3,27,68.9,29.2,66,29.2z M52.5,19.8c-1.3-1.4-3.2-2.3-5.3-2.3
			c-3.8,0-6.9,3-6.9,6.7c0,3.7,3.1,6.7,6.9,6.7c2.1,0,4-0.9,5.3-2.3v2.3h1.7V17.6h-1.7V19.8z M52.5,24.2c0,2.8-2.3,5.1-5.2,5.1
			c-2.9,0-5.2-2.3-5.2-5.1c0-2.8,2.3-5.1,5.2-5.1C50.1,19.1,52.5,21.4,52.5,24.2L52.5,24.2z M230.6,30.7V17.4h0v0l-0.1,0h-1v0h-0.1
			v9.3c-0.4,1.7-2,3-3.8,3c-2.2,0-3.9-1.7-3.9-3.8v-8.5l-1.2,0v8.5c0,2.7,2.3,4.9,5.1,4.9c1.6,0,2.9-0.7,3.9-1.8v1.7h0v0
			c0,2.7-2,4.9-4.9,5.1V37C228,36.8,230.6,34.1,230.6,30.7C230.6,30.8,230.6,30.8,230.6,30.7z M204.9,20.7c-1.2-1.9-3.4-3.2-5.9-3.2
			c-3.8,0-6.9,3-6.9,6.7c0,3.7,3.1,6.7,6.9,6.7c2.5,0,4.7-1.3,5.9-3.2v3.2h1.2V17.6h-1.2V20.7z M199.1,29.8c-3.2,0-5.9-2.5-5.9-5.7
			c0-3.1,2.6-5.7,5.9-5.7c3.2,0,5.9,2.5,5.9,5.7C204.9,27.3,202.3,29.8,199.1,29.8z M173.2,17.4c-1.6,0-3.1,0.8-4,1.9v-1.7h-1.1
			v13.1h0v0l0.2,0h0.8v0h0v-8.5c0-2.1,1.8-3.8,3.9-3.8s3.9,1.7,3.9,3.8v8.6l1.2,0v-8.5C178.3,19.6,176,17.4,173.2,17.4z M183.6,24
			c0,0,0-0.1,0-0.1h0v-5.5h5.1v-1.2h-5.1v-3h-1.2v9.7h0c0,0,0,0,0,0.1c0,3.6,3,6.6,6.7,6.7v-1.1C186.1,29.5,183.6,27.2,183.6,24z
			 M211.5,20.9v-3.3h-1.2v13.1h1.2v-6.5c0.2-3.1,3.2-5.9,6.2-5.9c0.1,0,0,0,0.1,0l0-1c-0.1,0-0.2,0-0.2,0
			C215.1,17.4,212.8,18.9,211.5,20.9z M120.3,10.4c-0.7,0-1.2,0.5-1.2,1.2c0,0.7,0.6,1.2,1.2,1.2c0.7,0,1.2-0.5,1.2-1.2
			C121.6,11,121,10.4,120.3,10.4z M120.3,28.8c-0.7,0-1.2,0.5-1.2,1.2c0,0.7,0.6,1.2,1.2,1.2c0.7,0,1.2-0.5,1.2-1.2
			C121.6,29.3,121,28.8,120.3,28.8z M142,17.4c-2,0-3.6,1.1-4.5,2.7c-0.8-1.6-2.6-2.7-4.5-2.7c-1.6,0-3.1,0.8-4,1.9v-1.7h-1.1v13.1
			h0v0l0.2,0h0.8v0h0v-8.5c0-2.1,1.8-3.8,3.9-3.8s3.9,1.7,3.9,3.8v8.6l1.2,0v-8.5c0-0.1,0-0.2,0-0.2c0.1-2,1.8-3.6,3.9-3.6
			c2.2,0,3.9,1.7,3.9,3.8v8.6l1.2,0v-8.5C147.1,19.6,144.8,17.4,142,17.4z M157.5,17.4c-3.8,0-6.9,3-6.9,6.7c0,3.7,3.1,6.7,6.9,6.7
			c3,0,5.5-1.8,6.5-4.4h-1.1c-0.9,2-3,3.4-5.4,3.4c-3,0-5.5-2.2-5.8-5h12.6c0-0.2,0-0.4,0-0.7C164.4,20.4,161.3,17.4,157.5,17.4z
			 M151.7,23.7c0.2-2.9,2.8-5.2,5.8-5.2c3.1,0,5.6,2.3,5.8,5.2H151.7z"/>
	</g>
</g>
</svg>
