<?xml version="1.0" encoding="utf-8"?>
<!-- Generator: Adobe Illustrator 18.1.1, SVG Export Plug-In . SVG Version: 6.00 Build 0)  -->
<svg version="1.1" id="레이어_1" xmlns="http://www.w3.org/2000/svg" xmlns:xlink="http://www.w3.org/1999/xlink" x="0px"
	 y="0px" viewBox="0 0 300.9 250.3" enable-background="new 0 0 300.9 250.3" xml:space="preserve">
<g>
	<g>
		<g>
			<polygon fill="#E6E6E5" points="145.1,206.6 137.5,206.6 137.5,157.2 149.8,157.2 			"/>
		</g>
		<g>
			<path fill="#E6E6E5" d="M133.1,116.2"/>
		</g>
		<g>
			<path fill="#E6E6E5" d="M160.2,139.2"/>
		</g>
		<g>
			<path fill="#E6E6E5" d="M131.9,210.6L131.9,210.6c0-2.2,1.8-4,4-4h9.2v4"/>
		</g>
		<g>
			<polygon fill="#E6E6E5" points="153.6,206.6 161.2,206.6 161.2,157.2 148.9,157.2 			"/>
		</g>
		<g>
			<path fill="#E6E6E5" d="M166.8,210.6L166.8,210.6c0-2.2-1.8-4-4-4h-9.2v4"/>
		</g>
		<g>
			<line fill="#E6E6E5" x1="162" y1="157.2" x2="149.7" y2="157.2"/>
		</g>
		<g>
			<path fill="#E6E6E5" d="M157.2,109.7c0,4.4-3.5,7.9-7.9,7.9l0,0c-4.4,0-7.9-3.5-7.9-7.9v-5.2c0-4.4,3.5-7.9,7.9-7.9l0,0
				c4.4,0,7.9,3.5,7.9,7.9V109.7z"/>
		</g>
		<g>
			<path fill="#E6E6E5" d="M165.7,152.9c0,4.7-3.8,8.5-8.5,8.5h-15.8c-4.7,0-8.5-3.8-8.5-8.5v-24.5c0-4.7,3.8-8.5,8.5-8.5h15.8
				c4.7,0,8.5,3.8,8.5,8.5V152.9z"/>
		</g>
	</g>
	<g>
		<g>
			<polygon fill="#E6E6E5" points="72.2,206.6 64.6,206.6 64.6,157.2 76.9,157.2 			"/>
		</g>
		<g>
			<path fill="#E6E6E5" d="M60.2,116.2"/>
		</g>
		<g>
			<path fill="#E6E6E5" d="M87.4,139.2"/>
		</g>
		<g>
			<path fill="#E6E6E5" d="M59,210.6L59,210.6c0-2.2,1.8-4,4-4h9.2v4"/>
		</g>
		<g>
			<polygon fill="#E6E6E5" points="80.8,206.6 88.4,206.6 88.4,157.2 76.1,157.2 			"/>
		</g>
		<g>
			<path fill="#E6E6E5" d="M94,210.6L94,210.6c0-2.2-1.8-4-4-4h-9.2v4"/>
		</g>
		<g>
			<line fill="#E6E6E5" x1="89.1" y1="157.2" x2="76.8" y2="157.2"/>
		</g>
		<g>
			<path fill="#E6E6E5" d="M84.3,109.7c0,4.4-3.5,7.9-7.9,7.9l0,0c-4.4,0-7.9-3.5-7.9-7.9v-5.2c0-4.4,3.5-7.9,7.9-7.9l0,0
				c4.4,0,7.9,3.5,7.9,7.9V109.7z"/>
		</g>
		<g>
			<path fill="#E6E6E5" d="M92.8,152.9c0,4.7-3.8,8.5-8.5,8.5H68.6c-4.7,0-8.5-3.8-8.5-8.5v-24.5c0-4.7,3.8-8.5,8.5-8.5h15.8
				c4.7,0,8.5,3.8,8.5,8.5V152.9z"/>
		</g>
	</g>
	<g>
		<g>
			<polygon fill="#E6E6E5" points="226.2,203.6 218.6,203.6 218.6,154.2 230.9,154.2 			"/>
		</g>
		<g>
			<path fill="#E6E6E5" d="M214.2,113.2"/>
		</g>
		<g>
			<path fill="#E6E6E5" d="M241.3,136.2"/>
		</g>
		<g>
			<path fill="#E6E6E5" d="M213,207.6L213,207.6c0-2.2,1.8-4,4-4h9.2v4"/>
		</g>
		<g>
			<polygon fill="#E6E6E5" points="234.7,203.6 242.3,203.6 242.3,154.2 230,154.2 			"/>
		</g>
		<g>
			<path fill="#E6E6E5" d="M247.9,207.6L247.9,207.6c0-2.2-1.8-4-4-4h-9.2v4"/>
		</g>
		<g>
			<line fill="#E6E6E5" x1="243.1" y1="154.2" x2="230.8" y2="154.2"/>
		</g>
		<g>
			<path fill="#E6E6E5" d="M238.3,106.8c0,4.4-3.5,7.9-7.9,7.9l0,0c-4.4,0-7.9-3.5-7.9-7.9v-5.2c0-4.4,3.5-7.9,7.9-7.9l0,0
				c4.4,0,7.9,3.5,7.9,7.9V106.8z"/>
		</g>
		<g>
			<path fill="#E6E6E5" d="M246.8,150c0,4.7-3.8,8.5-8.5,8.5h-15.8c-4.7,0-8.5-3.8-8.5-8.5v-24.5c0-4.7,3.8-8.5,8.5-8.5h15.8
				c4.7,0,8.5,3.8,8.5,8.5V150z"/>
		</g>
	</g>
	<g>
		<g>
			<polygon fill="#E8E8E7" points="180.3,163.1 174.7,163.1 174.7,126.4 183.8,126.4 			"/>
		</g>
		<g>
			<path fill="#E8E8E7" d="M171.4,96"/>
		</g>
		<g>
			<path fill="#E8E8E7" d="M191.6,113.1"/>
		</g>
		<g>
			<path fill="#E8E8E7" d="M170.5,166.1L170.5,166.1c0-1.7,1.3-3,3-3h6.8v3"/>
		</g>
		<g>
			<polygon fill="#E8E8E7" points="186.7,163.1 192.3,163.1 192.3,126.4 183.2,126.4 			"/>
		</g>
		<g>
			<path fill="#E8E8E7" d="M196.5,166.1L196.5,166.1c0-1.7-1.3-3-3-3h-6.8v3"/>
		</g>
		<g>
			<line fill="#E8E8E7" x1="192.9" y1="126.4" x2="183.7" y2="126.4"/>
		</g>
		<g>
			<path fill="#E8E8E7" d="M189.3,91.2c0,3.2-2.6,5.9-5.9,5.9l0,0c-3.2,0-5.9-2.6-5.9-5.9v-3.9c0-3.2,2.6-5.9,5.9-5.9l0,0
				c3.2,0,5.9,2.6,5.9,5.9V91.2z"/>
		</g>
		<g>
			<path fill="#E8E8E7" d="M195.6,123.3c0,3.5-2.8,6.3-6.3,6.3h-11.7c-3.5,0-6.3-2.8-6.3-6.3v-18.2c0-3.5,2.8-6.3,6.3-6.3h11.7
				c3.5,0,6.3,2.8,6.3,6.3V123.3z"/>
		</g>
	</g>
	<g>
		<g>
			<polygon fill="#E8E8E7" points="103.8,160.7 98.1,160.7 98.1,124 107.3,124 			"/>
		</g>
		<g>
			<path fill="#E8E8E7" d="M94.9,93.6"/>
		</g>
		<g>
			<path fill="#E8E8E7" d="M115,110.6"/>
		</g>
		<g>
			<path fill="#E8E8E7" d="M94,163.6L94,163.6c0-1.7,1.3-3,3-3h6.8v3"/>
		</g>
		<g>
			<polygon fill="#E8E8E7" points="110.1,160.7 115.8,160.7 115.8,124 106.6,124 			"/>
		</g>
		<g>
			<path fill="#E8E8E7" d="M119.9,163.6L119.9,163.6c0-1.7-1.3-3-3-3h-6.8v3"/>
		</g>
		<g>
			<line fill="#E8E8E7" x1="116.3" y1="124" x2="107.2" y2="124"/>
		</g>
		<g>
			<path fill="#E8E8E7" d="M112.8,88.8c0,3.2-2.6,5.9-5.9,5.9l0,0c-3.2,0-5.9-2.6-5.9-5.9v-3.9c0-3.2,2.6-5.9,5.9-5.9l0,0
				c3.2,0,5.9,2.6,5.9,5.9V88.8z"/>
		</g>
		<g>
			<path fill="#E8E8E7" d="M119.1,120.8c0,3.5-2.8,6.3-6.3,6.3h-11.7c-3.5,0-6.3-2.8-6.3-6.3v-18.2c0-3.5,2.8-6.3,6.3-6.3h11.7
				c3.5,0,6.3,2.8,6.3,6.3V120.8z"/>
		</g>
	</g>
	<g>
		<polygon fill="#FBDDDC" points="205.2,241.5 211.8,241.5 211.8,178.2 199.1,178.2 		"/>
	</g>
	<g>
		<path fill="#464442" d="M205.1,247.8v-5.3h6.7l5.3,2.4c3,1.2,5.3,2.9,5.3,5.3l0,0h-7.5L205.1,247.8z"/>
	</g>
	<g>
		<rect x="205.1" y="246" fill="#464442" width="6.5" height="4.2"/>
	</g>
	<g>
		<polygon fill="#464442" points="34.2,243.1 24.3,243.1 24.3,179.8 40.3,179.8 		"/>
	</g>
	<g>
		<polygon fill="#D5D5D2" points="77,136.2 77,154.7 93.8,154.7 93.8,132 81.2,132 		"/>
	</g>
	<g>
		<polygon fill="#FFFFFF" points="76.5,135.7 76.5,154.2 93.2,154.2 93.2,131.5 80.7,131.5 		"/>
	</g>
	<g>
		<polygon fill="#F8C7C3" points="76.6,135.5 80.5,135.5 80.5,131.5 		"/>
	</g>
	<g>
		<path fill="#FBDDDC" d="M52.8,116.2c0,6.6-5.4,12-12,12l0,0c-6.6,0-12-5.4-12-12v-7.2c0-6.6,5.8-12.1,12.4-12.1l-0.4-0.4
			c6.6,0,12,5.8,12,12.4L52.8,116.2z"/>
	</g>
	<g>
		<path fill="#464442" d="M20.8,123.3"/>
	</g>
	<g>
		<path fill="#464442" d="M56.1,153.2"/>
	</g>
	<g>
		<path fill="#646360" d="M40.2,119.5c0,0.2-0.2,0.4-0.4,0.4l0,0c-0.2,0-0.4-0.2-0.4-0.4v-8c0-0.2,0.2-0.4,0.4-0.4l0,0
			c0.2,0,0.4,0.2,0.4,0.4V119.5z"/>
	</g>
	<g>
		<path fill="#464442" d="M43.3,97.1c-0.7-0.2-1.5-0.3-2.3-0.3c-0.2,0-0.3,0-0.5,0c-6.6,0-11.9,5.3-11.9,11.9v3.7
			c6.1,0,11.3-3.7,13.5-8.9"/>
	</g>
	<g>
		<path fill="#464442" d="M212,125.8v-15.4c0-7.7-6.2-13.9-13.9-13.9c-7.7,0-13.9,6.2-13.9,13.9v15.4H212z"/>
	</g>
	<g>
		<path fill="#FBDDDC" d="M210.5,115.7c0,6.8-5.5,12.3-12.3,12.3l0,0c-6.8,0-12.3-5.5-12.3-12.3v-5c0-6.8,5.5-12.3,12.3-12.3l0,0
			c6.8,0,12.3,5.5,12.3,12.3V115.7z"/>
	</g>
	<g>
		<path fill="#F4AAAA" d="M197.9,109.9"/>
	</g>
	<g>
		<path fill="#464442" d="M200.9,97.2c-0.8-0.2-1.6-0.3-2.5-0.3c-0.2,0-0.3,0-0.5,0c-7,0-12.8,5.7-12.8,12.8v4
			c6.5,0,12.1-4,14.5-9.6c2,4.6,6,8.1,11,9.2v-3.6C210.7,103.6,206.5,98.5,200.9,97.2z"/>
	</g>
	<g>
		<path fill="#464442" d="M17,249.4L17,249.4c0-2.9,2.4-5.3,5.3-5.3h11.9v5.3"/>
	</g>
	<g>
		<polygon fill="#464442" points="49.6,243.1 59.5,243.1 59.5,179.8 43.5,179.8 		"/>
	</g>
	<g>
		<path fill="#464442" d="M66.7,249.4L66.7,249.4c0-2.9-2.4-5.3-5.3-5.3H49.6v5.3"/>
	</g>
	<g>
		<rect x="24.2" y="130.4" fill="#F8C7C3" width="35.3" height="57.6"/>
	</g>
	<g>
		<path fill="#FFFFFF" d="M40.9,93c-8.1,0-14.7,6.6-14.7,14.7h29.4C55.5,99.5,49,93,40.9,93z"/>
	</g>
	<g>
		<path fill="#FFFFFF" d="M58.5,107c0,0.4-0.3,0.7-0.7,0.7H24.2c-0.4,0-0.7-0.3-0.7-0.7l0,0c0-0.4,0.3-0.7,0.7-0.7h33.6
			C58.2,106.3,58.5,106.6,58.5,107L58.5,107z"/>
	</g>
	<g>
		<path fill-rule="evenodd" clip-rule="evenodd" fill="#F8C7C3" d="M42.3,105.1c-0.1,0-0.3-0.1-0.3-0.3v-2.8l-1.5,1.4c0,0,0,0,0,0
			c0,0-0.1,0.1-0.2,0.1s-0.1,0-0.2-0.1c0,0,0,0,0,0l-1.5-1.4v2.8c0,0.1-0.1,0.3-0.3,0.3c-0.1,0-0.3-0.1-0.3-0.3v-3.4
			c0-0.1,0-0.1,0.1-0.2c0,0,0,0,0,0c0,0,0,0,0,0l1.9-1.7c0,0,0,0,0,0c0,0,0.1-0.1,0.2-0.1s0.1,0,0.2,0.1c0,0,0,0,0,0l1.9,1.7
			c0,0,0,0,0,0c0,0,0,0,0,0c0,0,0.1,0.1,0.1,0.2v3.4C42.5,105,42.4,105.1,42.3,105.1z M40.3,100.1l-1.5,1.4l1.5,1.4l1.5-1.4
			L40.3,100.1z"/>
	</g>
	<g>
		<path fill="#464442" d="M31.9,157.1c-4.5,0-5.5-2.7-5.5-6.7v-20.2h-1.5c-4,0-7.3,3.3-7.3,7.3V158c0,4,3.3,7.3,7.3,7.3h36.9
			c4,0-0.4-3.9-0.4-7.9v-0.2H31.9z"/>
	</g>
	<g>
		<g>
			<rect x="11.6" y="134.1" fill="#D5D5D2" width="3.1" height="18.5"/>
		</g>
		<g>
			<rect x="11" y="134.1" fill="#C0BFBD" width="3.1" height="18.5"/>
		</g>
		<g>
			<path fill="#FFFFFF" d="M7.1,132.1c0,0,6,0,7.7,0c1.6,0,4.8,1.1,5.7,4.1c0,0-1.9-0.6-5.4-0.6s-8.9,0-8.9,0"/>
		</g>
		<g>
			<rect x="5.3" y="130.4" fill="#D5D5D2" width="3.5" height="6.4"/>
		</g>
		<g>
			<rect x="4.9" y="130.4" fill="#FFFFFF" width="3.5" height="6.4"/>
		</g>
	</g>
	<g>
		<g>
			<path fill="#464442" d="M50.1,149c4.5,0,5.5-2.7,5.5-6.7v-12.1h1.5c4,0,7.3,3.3,7.3,7.3v12.3c0,4-3.3,7.3-7.3,7.3H16.1
				c-4,0-3.6-3.9-3.6-7.9V149H50.1z"/>
		</g>
		<g>
			<path fill="#FBDDDC" d="M16.4,157.1l-4.9,0c-1.9,0-3.5-1.6-3.5-3.5l0,0c0-1.9,1.6-3.5,3.5-3.5l4.9,0"/>
		</g>
		<g>
			<path fill="#FBDDDC" d="M16.4,150.4l-3.8,0c-0.4,0-0.7-0.3-0.7-0.7l0,0c0-0.4,0.3-0.7,0.7-0.7h3.8"/>
		</g>
	</g>
	<g>
		<polygon fill="#464442" points="40.1,149.2 31.2,130.4 50,130.4 		"/>
	</g>
	<g>
		<g>
			<path fill="#FBDDDC" d="M60.7,165.2l4.9,0c1.9,0,3.5-1.6,3.5-3.5l0,0c0-1.9-1.6-3.5-3.5-3.5l-4.9,0"/>
		</g>
		<g>
			<path fill="#FBDDDC" d="M60.7,158.5l3.8,0c0.4,0,0.7-0.3,0.7-0.7l0,0c0-0.4-0.3-0.7-0.7-0.7l-3.8,0"/>
		</g>
	</g>
	<g>
		<polygon fill="#72706E" points="112.4,243.6 102.5,243.6 102.5,180.3 118.5,180.3 		"/>
	</g>
	<g>
		<path fill="#FBDDDC" d="M131,116.7c0,6.6-5.4,12-12,12l0,0c-6.6,0-12-5.4-12-12v-7.2c0-6.6,5.8-12.1,12.4-12.1l-0.4-0.4
			c6.6,0,12,5.8,12,12.4L131,116.7z"/>
	</g>
	<g>
		<path fill="#464442" d="M99,123.8"/>
	</g>
	<g>
		<path fill="#464442" d="M134.3,153.6"/>
	</g>
	<g>
		<path fill="#646360" d="M118.4,120c0,0.2-0.2,0.4-0.4,0.4l0,0c-0.2,0-0.4-0.2-0.4-0.4v-8c0-0.2,0.2-0.4,0.4-0.4l0,0
			c0.2,0,0.4,0.2,0.4,0.4V120z"/>
	</g>
	<g>
		<path fill="#464442" d="M95.3,249.9L95.3,249.9c0-2.9,2.4-5.3,5.3-5.3h11.9v5.3"/>
	</g>
	<g>
		<polygon fill="#72706E" points="127.8,243.6 137.7,243.6 137.7,180.3 121.7,180.3 		"/>
	</g>
	<g>
		<path fill="#464442" d="M145,249.9L145,249.9c0-2.9-2.4-5.3-5.3-5.3h-11.9v5.3"/>
	</g>
	<g>
		<polyline fill="#FFFFFF" points="137.8,133.3 137.8,188.5 102.5,188.5 102.5,130.9 136,130.9 		"/>
	</g>
	<g>
		<path fill-rule="evenodd" clip-rule="evenodd" fill="#464442" d="M133.4,101c0,4.1-3.4,7.5-7.5,7.5h-14.5c-4.1,0-7.5-3.4-7.5-7.5
			l0,0c0-4.1,3.4-7.5,7.5-7.5h14.5C130.1,93.5,133.4,96.9,133.4,101L133.4,101z"/>
	</g>
	<g>
		<path fill-rule="evenodd" clip-rule="evenodd" fill="#464442" d="M129.9,97.8c1.9,0,3.5,1.6,3.5,3.5v8.5c0,1.9-1.6,3.5-3.5,3.5
			l0,0c-1.9,0-3.5-1.6-3.5-3.5v-8.5C126.4,99.4,128,97.8,129.9,97.8L129.9,97.8z"/>
	</g>
	<g>
		<g>
			<polyline fill="#464442" points="123.2,130.8 119,135.1 114.7,130.8 			"/>
		</g>
		<g>
			<polygon fill="#464442" points="122.6,167.5 119.3,171.6 116.1,167.5 117.1,131.5 121,131.5 			"/>
		</g>
	</g>
	<g>
		<path fill="#F5F5F5" d="M109.7,157c-4.5,0-4.6-3.6-4.5-14v-4.8h-1.5c-4,0-7.3,3.3-7.3,7.3v6.6c0,4,3.3,7.3,7.3,7.3h24.7
			c4,0,3.6-3.9,3.6-7.9v-0.2L109.7,157z"/>
	</g>
	<g>
		<path fill="#FFFFFF" d="M110.1,157.7c-4.5,0-5.5-2.7-5.5-6.7v-20.2h-1.5c-4,0-7.3,3.3-7.3,7.3v20.4c0,4,3.3,7.3,7.3,7.3H140
			c4,0-0.4-3.9-0.4-7.9v-0.2H110.1z"/>
	</g>
	<g>
		<path fill="#F5F5F5" d="M128.6,149.1c4.9,0,5.5-2.7,5.5-6.7v-4.8h6.4c4,0,7.3,3.3,7.3,7.3v4.9c0,4-3.3,7.3-7.3,7.3h-39.3
			c-4,0-5.3-4.1-5.3-8.1l1.6,0H128.6z"/>
	</g>
	<g>
		<g>
			<path fill="#FFFFFF" d="M129.1,149.6c4.5,0,5.5-2.7,5.5-6.7v-12.1h1.5c4,0,7.3,3.3,7.3,7.3v12.3c0,4-3.3,7.3-7.3,7.3H94.4
				c-4,0-3.6-3.9-3.6-7.9v-0.2H129.1z"/>
		</g>
		<g>
			<path fill="#FBDDDC" d="M94.6,157.7l-4.9,0c-1.9,0-3.5-1.6-3.5-3.5l0,0c0-1.9,1.6-3.5,3.5-3.5l4.9,0"/>
		</g>
		<g>
			<path fill="#FBDDDC" d="M94.6,150.9h-3.8c-0.4,0-0.7-0.3-0.7-0.7l0,0c0-0.4,0.3-0.7,0.7-0.7l3.8,0"/>
		</g>
	</g>
	<g>
		<rect x="94.6" y="157.5" fill="#F5F5F5" width="44.3" height="0.5"/>
	</g>
	<g>
		<rect x="101.1" y="165.5" fill="#F5F5F5" width="41.3" height="0.7"/>
	</g>
	<g>
		<g>
			<path fill="#FBDDDC" d="M138.9,165.8l4.9,0c1.9,0,3.5-1.6,3.5-3.5l0,0c0-1.9-1.6-3.5-3.5-3.5l-4.9,0"/>
		</g>
		<g>
			<path fill="#FBDDDC" d="M138.9,159l3.8,0c0.4,0,0.7-0.3,0.7-0.7l0,0c0-0.4-0.3-0.7-0.7-0.7h-3.8"/>
		</g>
	</g>
	<g>
		<g>
			<path fill="#CAC9C7" d="M91.7,143.2c0,0.3-0.2,0.5-0.5,0.5H80.7c-0.3,0-0.5-0.2-0.5-0.5l0,0c0-0.3,0.2-0.5,0.5-0.5h10.5
				C91.4,142.7,91.7,142.9,91.7,143.2L91.7,143.2z"/>
		</g>
		<g>
			<path fill="#CAC9C7" d="M89.3,140c0,0.3-0.2,0.5-0.5,0.5h-8c-0.3,0-0.5-0.2-0.5-0.5l0,0c0-0.3,0.2-0.5,0.5-0.5h8
				C89.1,139.5,89.3,139.8,89.3,140L89.3,140z"/>
		</g>
		<g>
			<path fill="#CAC9C7" d="M87.3,146.9c0,0.3-0.2,0.5-0.5,0.5h-6.2c-0.3,0-0.5-0.2-0.5-0.5l0,0c0-0.3,0.2-0.5,0.5-0.5h6.2
				C87.1,146.4,87.3,146.6,87.3,146.9L87.3,146.9z"/>
		</g>
		<g>
			<circle fill="#CAC9C7" cx="78.9" cy="140.1" r="0.5"/>
		</g>
		<g>
			<circle fill="#CAC9C7" cx="78.9" cy="143.2" r="0.5"/>
		</g>
		<g>
			<circle fill="#CAC9C7" cx="78.9" cy="146.9" r="0.5"/>
		</g>
	</g>
	<g>
		<polygon fill="#FBDDDC" points="191.4,241.5 184.7,241.5 184.7,178.2 197.4,178.2 		"/>
	</g>
	<g>
		<path fill="#464442" d="M179.9,125.2"/>
	</g>
	<g>
		<path fill="#464442" d="M212.8,153.3"/>
	</g>
	<g>
		<path fill="#646360" d="M197.9,121.4c0,0.2-0.2,0.4-0.4,0.4l0,0c-0.2,0-0.4-0.2-0.4-0.4V114c0-0.2,0.2-0.4,0.4-0.4l0,0
			c0.2,0,0.4,0.2,0.4,0.4V121.4z"/>
	</g>
	<g>
		<path fill="#464442" d="M191.4,247.8v-5.3h-6.7l-5.3,2.4c-3,1.2-5.3,2.9-5.3,5.3l0,0h7.5L191.4,247.8z"/>
	</g>
	<g>
		<polyline fill="#464442" points="215.7,133 215.7,188.1 181.5,188.1 181.5,130.5 214.1,130.5 		"/>
	</g>
	<g>
		<path fill="#FFFFFF" d="M188.6,157.4c-4.5,0-5.5-2.7-5.5-6.7v-20.2h-1.5c-4,0-7.3,3.3-7.3,7.3v20.4c0,4,3.3,7.3,7.3,7.3h36.9
			c4,0-0.4-3.9-0.4-7.9v-0.2H188.6z"/>
	</g>
	<g>
		<path fill="#F5F5F5" d="M207,148.7c4.9,0,5.5-2.7,5.5-6.7v-11.5h1.5c4,0,7.3,10,7.3,14.1v4.9c0,4-3.3,7.3-7.3,7.3h-34.4
			c-4,0-5.3-4.1-5.3-8.1l1.6,0H207z"/>
	</g>
	<g>
		<rect x="173.1" y="157.1" fill="#F5F5F5" width="44.3" height="0.5"/>
	</g>
	<g>
		<rect x="179.5" y="165.1" fill="#F5F5F5" width="41.3" height="0.7"/>
	</g>
	<g>
		<g>
			<path fill="#FBDDDC" d="M217.4,165.5l4.9,0c1.9,0,3.5-1.6,3.5-3.5l0,0c0-1.9-1.6-3.5-3.5-3.5l-4.9,0"/>
		</g>
		<g>
			<path fill="#FBDDDC" d="M217.4,158.7l3.8,0c0.4,0,0.7-0.3,0.7-0.7l0,0c0-0.4-0.3-0.7-0.7-0.7h-3.8"/>
		</g>
	</g>
	<g>
		<path fill-rule="evenodd" clip-rule="evenodd" fill="#F8C7C3" d="M128.9,145.7c-0.1,0-0.2-0.1-0.2-0.2V143l-1.3,1.2c0,0,0,0,0,0
			c0,0-0.1,0.1-0.1,0.1c-0.1,0-0.1,0-0.1-0.1l0,0l-1.3-1.2v2.5c0,0.1-0.1,0.2-0.2,0.2c-0.1,0-0.2-0.1-0.2-0.2v-2.9
			c0-0.1,0-0.1,0.1-0.2c0,0,0,0,0,0c0,0,0,0,0,0l1.7-1.5c0,0,0,0,0,0c0,0,0.1-0.1,0.1-0.1c0.1,0,0.1,0,0.1,0.1c0,0,0,0,0,0l1.7,1.5
			c0,0,0,0,0,0c0,0,0,0,0,0c0,0,0.1,0.1,0.1,0.2v2.9C129.1,145.6,129,145.7,128.9,145.7z M127.2,141.3l-1.3,1.2l1.3,1.2l1.3-1.2
			L127.2,141.3z"/>
	</g>
	<g>
		<path fill-rule="evenodd" clip-rule="evenodd" fill="#F8C7C3" d="M209,144.3c-0.1,0-0.2-0.1-0.2-0.2v-2.5l-1.3,1.2c0,0,0,0,0,0
			c0,0-0.1,0.1-0.1,0.1c-0.1,0-0.1,0-0.1-0.1l0,0l-1.3-1.2v2.5c0,0.1-0.1,0.2-0.2,0.2c-0.1,0-0.2-0.1-0.2-0.2v-2.9
			c0-0.1,0-0.1,0.1-0.2c0,0,0,0,0,0c0,0,0,0,0,0l1.7-1.5c0,0,0,0,0,0c0,0,0.1-0.1,0.1-0.1c0.1,0,0.1,0,0.1,0.1c0,0,0,0,0,0l1.7,1.5
			c0,0,0,0,0,0c0,0,0,0,0,0c0,0,0.1,0.1,0.1,0.2v2.9C209.2,144.2,209.1,144.3,209,144.3z M207.3,139.9l-1.3,1.2l1.3,1.2l1.3-1.2
			L207.3,139.9z"/>
	</g>
	<g>
		<polygon fill="#464442" points="218.3,202.9 179.1,202.9 181.5,169 215.7,169 		"/>
	</g>
	<g>
		<rect x="184.9" y="246" fill="#464442" width="6.5" height="4.2"/>
	</g>
	<g>
		<g>
			<polygon fill="#FFFFFF" points="197.5,130.5 204.7,130.5 204.7,137.7 			"/>
		</g>
		<g>
			<polygon fill="#FFFFFF" points="197.5,130.5 190.3,130.5 190.3,137.7 			"/>
		</g>
	</g>
	<g>
		<g>
			<path fill="#FFFFFF" d="M175.8,136.3c0,4-3.5,7.2-7.2,7.2c-4,0-7.2-3.2-7.2-7.2c0-4,3.2-7.2,7.2-7.2
				C172.5,129.1,175.8,132.4,175.8,136.3z"/>
		</g>
		<g>
			<path fill="#BCBAB7" d="M169.7,155.1c0,0.6-0.5,1.2-1.2,1.2l0,0c-0.6,0-1.2-0.5-1.2-1.2v-10.8c0-0.6,0.5-1.2,1.2-1.2v0.8
				c0.6,0,1.2-0.3,1.2,0.3V155.1z"/>
		</g>
		<g>
			<polygon fill="#F0F1F1" points="162.8,140.9 171.6,130.2 174.4,132.4 165.4,143.1 			"/>
		</g>
		<g>
			<polygon fill="#F0F1F1" points="166.4,144.1 175.6,133.4 175.9,134.5 167,144.5 			"/>
		</g>
		<g>
			<path fill="#5A5956" d="M168.6,144.9c-4.5,0-8.2-3.7-8.2-8.2c0-4.5,3.7-8.2,8.2-8.2c4.5,0,8.2,3.7,8.2,8.2
				C176.8,141.1,172.9,144.9,168.6,144.9z M168.6,130.5c-3.4,0-6.2,2.8-6.2,6.2c0,3.4,2.8,6.2,6.2,6.2c3.3,0,6.2-2.9,6.2-6.2
				C174.8,133.3,172,130.5,168.6,130.5z"/>
		</g>
	</g>
	<g>
		<g>
			<path fill="#FFFFFF" d="M207.6,149.2c4.5,0,5.5-2.7,5.5-6.7v-12.1h1.5c4,0,7.3,3.3,7.3,7.3v12.3c0,4-3.3,7.3-7.3,7.3h-41.7
				c-4,0-3.6-3.9-3.6-7.9v-0.2H207.6z"/>
		</g>
		<g>
			<path fill="#FBDDDC" d="M173.1,157.3l-4.9,0c-1.9,0-3.5-1.6-3.5-3.5l0,0c0-1.9,1.6-3.5,3.5-3.5l4.9,0"/>
		</g>
		<g>
			<path fill="#FBDDDC" d="M173.1,150.6h-3.8c-0.4,0-0.7-0.3-0.7-0.7l0,0c0-0.4,0.3-0.7,0.7-0.7l3.8,0"/>
		</g>
	</g>
	<g>
		<path fill="#FBDDDC" d="M155.4,120.2c2.9,0.5,5,3,5.2,5.9c0.3-3,2.6-5.4,5.5-5.8c-2.9-0.5-5-3-5.2-5.9
			C160.6,117.4,158.3,119.8,155.4,120.2z"/>
	</g>
	<g>
		<path fill="#FBDDDC" d="M5.8,116.1c2.6,0.5,4.6,2.7,4.7,5.4c0.2-2.7,2.3-4.8,4.9-5.2c-2.6-0.5-4.6-2.7-4.7-5.4
			C10.5,113.6,8.5,115.8,5.8,116.1z"/>
	</g>
	<g>
		<path fill="#FFFFFF" d="M164.3,112.8c1.6,0.3,2.9,1.7,3,3.4c0.2-1.7,1.5-3.1,3.2-3.3c-1.6-0.3-2.9-1.7-3-3.4
			C167.3,111.1,166,112.5,164.3,112.8z"/>
	</g>
	<g>
		<path fill="#FFFFFF" d="M0,122.3c1.6,0.3,2.9,1.7,3,3.4c0.2-1.7,1.5-3.1,3.2-3.3c-1.6-0.3-2.9-1.7-3-3.4C3,120.7,1.7,122,0,122.3z
			"/>
	</g>
	<g>
		<polygon fill="#464442" points="266,244 256.1,244 256.1,180.8 272.1,180.8 		"/>
	</g>
	<g>
		<path fill="#FBDDDC" d="M283.7,117.3c0,6.6-5.4,12-12,12l0,0c-6.6,0-12-5.4-12-12v-7.2c0-6.6,5.8-12.1,12.4-12.1l-0.4-0.4
			c6.6,0,12,5.8,12,12.4L283.7,117.3z"/>
	</g>
	<g>
		<path fill="#FBDDDC" d="M283.7,117.2c0,6.6-5.4,12-12,12l0,0c-6.6,0-12-5.4-12-12"/>
	</g>
	<g>
		<path fill="#464442" d="M252.6,124.2"/>
	</g>
	<g>
		<path fill="#464442" d="M287.9,154.1"/>
	</g>
	<g>
		<path fill="#646360" d="M272,120.4c0,0.2-0.2,0.4-0.4,0.4l0,0c-0.2,0-0.4-0.2-0.4-0.4v-8c0-0.2,0.2-0.4,0.4-0.4l0,0
			c0.2,0,0.4,0.2,0.4,0.4V120.4z"/>
	</g>
	<g>
		<path fill="#464442" d="M248.8,250.3L248.8,250.3c0-2.9,2.4-5.3,5.3-5.3H266v5.3"/>
	</g>
	<g>
		<polygon fill="#464442" points="281.4,244 291.3,244 291.3,180.8 275.3,180.8 		"/>
	</g>
	<g>
		<path fill="#464442" d="M298.5,250.3L298.5,250.3c0-2.9-2.4-5.3-5.3-5.3h-11.9v5.3"/>
	</g>
	<g>
		<rect x="256" y="131.3" fill="#F8C7C3" width="35.3" height="57.6"/>
	</g>
	<g>
		<path fill-rule="evenodd" clip-rule="evenodd" fill="#F9CECF" d="M283,148.1c-0.1,0-0.2-0.1-0.2-0.2v-2.5l-1.3,1.2c0,0,0,0,0,0
			c0,0-0.1,0.1-0.1,0.1c-0.1,0-0.1,0-0.1-0.1c0,0,0,0,0,0l-1.3-1.2v2.5c0,0.1-0.1,0.2-0.2,0.2c-0.1,0-0.2-0.1-0.2-0.2v-2.9
			c0-0.1,0-0.1,0.1-0.2c0,0,0,0,0,0c0,0,0,0,0,0l1.7-1.5c0,0,0,0,0,0c0,0,0.1-0.1,0.1-0.1c0.1,0,0.1,0,0.1,0.1c0,0,0,0,0,0l1.7,1.5
			c0,0,0,0,0,0c0,0,0,0,0,0c0,0,0.1,0.1,0.1,0.2v2.9C283.3,148,283.2,148.1,283,148.1z M281.4,143.7l-1.3,1.2l1.3,1.2l1.3-1.2
			L281.4,143.7z"/>
	</g>
	<g>
		<path fill="#464442" d="M263.7,158.1c-4.5,0-5.5-2.7-5.5-6.7v-20.2h-1.5c-4,0-7.3,3.3-7.3,7.3v20.4c0,4,3.3,7.3,7.3,7.3h36.9
			c4,0-0.4-3.9-0.4-7.9v-0.2H263.7z"/>
	</g>
	<g>
		<path fill="#464442" d="M281.9,150c4.5,0,5.5-2.7,5.5-6.7v-12.1h1.5c4,0,7.3,3.3,7.3,7.3v12.3c0,4-3.3,7.3-7.3,7.3h-40.9
			c-4,0-3.6-3.9-3.6-7.9V150H281.9z"/>
	</g>
	<g>
		<polygon fill="#464442" points="271.9,150.1 263,131.3 281.7,131.3 		"/>
	</g>
	<g>
		<g>
			<path fill="#FBDDDC" d="M292.5,166.1l4.9,0c1.9,0,3.5-1.6,3.5-3.5l0,0c0-1.9-1.6-3.5-3.5-3.5l-4.9,0"/>
		</g>
		<g>
			<path fill="#FBDDDC" d="M292.5,159.4l3.8,0c0.4,0,0.7-0.3,0.7-0.7l0,0c0-0.4-0.3-0.7-0.7-0.7h-3.8"/>
		</g>
	</g>
	<g>
		<path fill="#FBDDDC" d="M235.6,121.6c1.9,0.4,3.3,1.9,3.4,3.9c0.2-1.9,1.7-3.5,3.6-3.8c-1.9-0.4-3.3-1.9-3.4-3.9
			C239,119.7,237.5,121.3,235.6,121.6z"/>
	</g>
	<g>
		<path fill="#FFFFFF" d="M238.6,112.8c3.2,0.6,5.7,3.3,5.9,6.7c0.3-3.3,2.9-6,6.1-6.5c-3.2-0.6-5.7-3.3-5.9-6.7
			C244.5,109.7,241.9,112.4,238.6,112.8z"/>
	</g>
	<g>
		<path fill="#FFFFFF" d="M77.8,117.2c3.8,0.7,6.7,3.9,6.9,7.9c0.4-3.9,3.4-7.1,7.2-7.7c-3.8-0.7-6.7-3.9-6.9-7.9
			C84.6,113.5,81.6,116.6,77.8,117.2z"/>
	</g>
	<g>
		<rect x="230.5" y="132.5" fill="#BEBDBA" width="8.5" height="1.9"/>
	</g>
	<g>
		<rect x="230.5" y="132.9" fill="#BEBDBA" width="1.9" height="7.8"/>
	</g>
	<g>
		<rect x="230.7" y="139.2" fill="#BEBDBA" width="14.1" height="1.5"/>
	</g>
	<g>
		<rect x="243.6" y="139.2" fill="#BEBDBA" width="1.5" height="12.5"/>
	</g>
	<g>
		<path fill="#464442" d="M246.2,145.4v10.8c0,1-0.8,1.8-1.8,1.8l0,0c-1,0-1.8-0.8-1.8-1.8v-10.8H246.2z"/>
	</g>
	<g>
		<path fill="#BEBDBA" d="M256.1,136.6c0,0.5-0.4,1-1,1l-19.9,0.1c-0.5,0-1-0.4-1-1v-6.9c0-0.5,0.4-1,1-1l19.9-0.1c0.5,0,1,0.4,1,1
			V136.6z"/>
	</g>
	<g>
		<path fill="#FFFFFF" d="M256.1,136.1c0,0.5-0.4,1-1,1h-19.4c-0.5,0-1-0.4-1-1v-6.3c0-0.5,0.4-1,1-1h19.4c0.5,0,1,0.4,1,1V136.1z"
			/>
	</g>
	<g>
		<g>
			<path fill="#FBDDDC" d="M248.2,158l-4.9,0c-1.9,0-3.5-1.6-3.5-3.5l0,0c0-1.9,1.6-3.5,3.5-3.5l4.9,0"/>
		</g>
		<g>
			<path fill="#FBDDDC" d="M248.2,151.3h-3.8c-0.4,0-0.7-0.3-0.7-0.7l0,0c0-0.4,0.3-0.7,0.7-0.7l3.8,0"/>
		</g>
	</g>
	<g>
		<path fill-rule="evenodd" clip-rule="evenodd" fill="#464442" d="M286.9,101.8c0,4.1-3.4,7.5-7.5,7.5H265c-4.1,0-7.5-3.4-7.5-7.5
			l0,0c0-4.1,3.4-7.5,7.5-7.5h14.5C283.6,94.3,286.9,97.7,286.9,101.8L286.9,101.8z"/>
	</g>
	<g>
		<path fill-rule="evenodd" clip-rule="evenodd" fill="#464442" d="M283.4,98.6c1.9,0,3.5,1.6,3.5,3.5v8.5c0,1.9-1.6,3.5-3.5,3.5
			l0,0c-1.9,0-3.5-1.6-3.5-3.5v-8.5C279.9,100.1,281.5,98.6,283.4,98.6L283.4,98.6z"/>
	</g>
	<g>
		<path fill-rule="evenodd" clip-rule="evenodd" fill="#F5F5F5" d="M283.6,146.9c-0.1,0-0.2-0.1-0.2-0.2v-2.5l-1.3,1.2c0,0,0,0,0,0
			c0,0-0.1,0.1-0.1,0.1c-0.1,0-0.1,0-0.1-0.1l0,0l-1.3-1.2v2.5c0,0.1-0.1,0.2-0.2,0.2c-0.1,0-0.2-0.1-0.2-0.2v-2.9
			c0-0.1,0-0.1,0.1-0.2c0,0,0,0,0,0c0,0,0,0,0,0l1.7-1.5c0,0,0,0,0,0c0,0,0.1-0.1,0.1-0.1c0.1,0,0.1,0,0.1,0.1c0,0,0,0,0,0l1.7,1.5
			c0,0,0,0,0,0c0,0,0,0,0,0c0,0,0.1,0.1,0.1,0.2v2.9C283.8,146.8,283.7,146.9,283.6,146.9z M281.9,142.5l-1.3,1.2l1.3,1.2l1.3-1.2
			L281.9,142.5z"/>
	</g>
	<g>
		<path fill="#F8C7C3" d="M70.6,9.7c-3.3,3.5-6.2,6.4-8.8,9.1c1-0.4,2-0.8,3.3-1.1c0.7-0.1,1.2,1,0.5,1.2c-2.7,0.6-7.7,3.7-5.8,6
			c1.5,1.8,12.5-1.3,18.9-5c8.6-5,12.9-11.5,10.7-14.3C86.3,1.5,59.5,10,50.8,15.8c-0.8,0.6-0.3,1.3-1,1.3c-0.7,0.1-1.3-1.2-0.7-1.7
			c2.9-2.6,7.7-4.7,12-6.4C73,4.3,80.8,2.5,85.6,2.9c3.4,0.3,5,2,5.5,3.1c1.2,2.2,0.4,5.5-4,10.1C79.3,24,68.4,27.2,62,27.2
			c-3.3,0-4.7-2-4.1-4.1c-4.6,5.1-9.5,11.1-12.4,15.5c-0.7,1.2-0.3,1.6-0.7,1.9c-0.7,0.4-2.1-1.1-1.6-1.8c3.7-6,8.7-11.8,13.3-16.9
			C63.7,14,70.1,8.3,70.4,8C71.1,7.4,70.9,9.5,70.6,9.7z"/>
		<path fill="#F8C7C3" d="M80.5,25.7c2.1-2.5,4.9-4.7,6.4-5.8c4.5-3.3,7.5,0.5,2,5.3c-3.3,2.9-7.8,5-9.4,5.7
			c-0.4,3.1,4.8,2.9,9.4-1.1c0.4-0.4,1.1,0.6,0.4,1.2C81.9,38.6,73,34.8,80.5,25.7z M88.8,23.4c2.3-2.2,2.1-4.2-2.2-1
			c-1.6,1.2-3.6,3-5,4.8c-0.5,0.6-0.9,1.1-1.2,1.7C83.6,27.7,87.5,24.7,88.8,23.4z"/>
		<path fill="#F8C7C3" d="M93,31.7c1.4-2.7,4.4-5.9,5.5-6.8c1.1-0.8,1.8-2.1,1-1.9c-0.7,0.2-1.7,0.2-2.4-0.2c-1.5,1.9-3.6,4.5-8,8.4
			c-1.1,1.1-1.3-0.5-1-0.8c2.9-2.4,6.3-6.2,8.2-8.5c-0.3-1.2,0.7-2.7,1.6-3.4c1.5-1.2,2.6,0.1,1.8,1.6c-0.5,1,0.1,1,1.6,0.8
			c1.6-0.2,2.6,2.4,1.1,3.4c-1.5,1-4.9,4.7-7.2,7.4c-1.6,2-0.6,2.4,0.7,1.7c1.3-0.6,3.4-2,5.3-3.5c0.4-0.4,1.1,0.6,0.4,1.2
			c-1.5,1.5-4.5,3.5-6.6,4.1C93.4,35.8,91.7,34.2,93,31.7z"/>
		<path fill="#F8C7C3" d="M105.5,27.7c1,1,0.8,3.1,0.3,4.9c1,0.1,2.2-0.2,3.6-1.1c1.2-0.8,2.1-1.6,2.2-1.7c0.4-0.4,1.1,0.6,0.5,1.2
			c-0.7,0.7-1.5,1.3-2.1,1.8c-1.6,1.3-3.6,1.9-5,1.6c-1.7,3.6-7,13.2-11.7,16.3c-4.8,3.2-5.3-1.5-3.8-4.7c2-4.2,5-8.1,9.9-13.8
			c4.9-5.8,26.6-29.9,29.8-32.2c0.8-0.6,1.4,1.6,0.7,2.1c-0.6,0.5-16,16.5-23.5,24.6L105.5,27.7z M102.6,31
			c-5.8,6.8-10.4,13.4-11.3,15.3c-1.8,3.9-0.7,4.9,2.2,2.4c2.7-2.4,7.9-9.4,10.3-14.7C103.1,33.3,102.7,32.2,102.6,31z M104.9,30.6
			c0.2-1.1-0.5-1.3-0.8-0.6c-0.5,0.8-0.3,1.7,0.4,2.2C104.7,31.6,104.8,31.1,104.9,30.6z"/>
		<path fill="#F8C7C3" d="M113.9,25.7c2.1-2.5,4.9-4.7,6.4-5.8c4.5-3.3,7.5,0.5,2,5.3c-3.3,2.9-7.8,5-9.4,5.7
			c-0.4,3.1,4.8,2.9,9.4-1.1c0.4-0.4,1.1,0.6,0.4,1.2C115.2,38.6,106.3,34.8,113.9,25.7z M122.2,23.4c2.3-2.2,2.1-4.2-2.2-1
			c-1.6,1.2-3.6,3-5,4.8c-0.5,0.6-0.9,1.1-1.2,1.7C116.9,27.7,120.8,24.7,122.2,23.4z"/>
		<path fill="#F8C7C3" d="M134.6,31.1c-3,3-10,7.3-12.3,3c-1.7-3,1.8-7.2,3.9-9.4c1.2-1.2,4.5-3.8,7.3-4.7c2.7-1,4.7,1,2.8,3.4
			c-0.6,0.7-1.2,1.2-1.6,1.5c-1,0.6-1.5-1-1-1.5c0.5-0.6,1.3-1.6,1-1.8c-0.3-0.2-3.2,0.9-6.2,3.5c-3.1,2.9-5.9,7.2-4.3,8.5
			c2.1,1.6,6.3-1,8.5-2.6c0.8-0.6,1.4-1,1.5-1.1C134.5,29.5,135.2,30.5,134.6,31.1z"/>
		<path fill="#F8C7C3" d="M133.6,30.8c2.2-4.8,8.5-10.5,10.9-12.9l2.6-2.5c-3.7,0.2-6.8,0.3-8.3,0.2c-2-0.1-1.1-2-0.1-2.2
			c0.3-0.1,5.4-0.2,10.8-0.4c3.6-3.5,7.3-7.2,7.8-7.6c0.9-0.6,1.7,1.1,0.8,1.9c-0.2,0.3-2.4,2.4-5.6,5.5c5.1-0.2,9.8-0.4,10.1-0.4
			c1.5,0,1.4,1.9,0.8,1.9c-2.8,0.2-8.2,0.6-13.3,0.8c-4.3,4.1-8.6,7.8-14.3,15.6c-1.3,1.8-0.4,3.4,1.9,2.1c1.3-0.7,3.2-2.1,4.3-3
			c0.4-0.4,1.1,0.6,0.4,1.2c-0.7,0.7-1.4,1.3-2.1,1.8c-1.6,1.2-4.8,3-6.5,1.7C133,34,132.7,32.7,133.6,30.8z"/>
		<path fill="#F8C7C3" d="M192.6,9.7c-3.3,3.5-6.2,6.4-8.8,9.1c1-0.4,2-0.8,3.3-1.1c0.7-0.1,1.2,1,0.5,1.2c-2.7,0.6-7.7,3.7-5.8,6
			c1.5,1.8,12.5-1.3,18.9-5c8.6-5,12.9-11.5,10.7-14.3c-3.1-4.2-29.9,4.4-38.7,10.1c-0.8,0.6-0.3,1.3-1,1.3
			c-0.7,0.1-1.3-1.2-0.7-1.7c2.9-2.6,7.7-4.7,12-6.4c11.9-4.8,19.7-6.5,24.5-6.1c3.4,0.3,5,2,5.5,3.1c1.2,2.2,0.4,5.5-4,10.1
			c-7.8,7.8-18.7,11.1-25.1,11.1c-3.3,0-4.7-2-4.1-4.1c-4.6,5.1-9.5,11.1-12.4,15.5c-0.7,1.2-0.3,1.6-0.7,1.9
			c-0.7,0.4-2.1-1.1-1.6-1.8c3.7-6,8.7-11.8,13.3-16.9c7.2-7.8,13.6-13.5,14-13.8C193.1,7.4,193,9.5,192.6,9.7z"/>
		<path fill="#F8C7C3" d="M201.9,34.7c-1.4-0.1-4.4-2.7,0.6-8.6c5.1-6.1,10.7-7.8,12.3-6.3c0.6,0.6,0.8,1.2,0.7,1.9
			c0.3,0.4,0.6,1.1,0.3,1.5c-0.5,0.7-6.3,6.1-7.2,7.9c-1.2,2.7,0.4,2.2,2,1.2c1.7-1,3.3-2.3,3.5-2.5c0.4-0.4,1.1,0.6,0.4,1.2
			c-0.7,0.7-1.5,1.3-2.1,1.8c-3.3,2.6-6.6,2.2-5.5-1.3C205.1,33.3,203.2,34.7,201.9,34.7z M205.3,25.8c-3.5,3.6-4.3,5.9-3.8,6.7
			c0.8,1.1,3.3-1.3,7.2-4.7c1.5-2.1,3.6-4.3,5-5.5c0.4-1.1-0.2-1.4-0.7-1.5C212.1,20.7,208.8,22.2,205.3,25.8z"/>
		<path fill="#F8C7C3" d="M218.1,31.7c1.4-2.7,4.4-5.9,5.5-6.8c1.1-0.8,1.8-2.1,1-1.9c-0.7,0.2-1.7,0.2-2.4-0.2
			c-1.5,1.9-3.6,4.5-8,8.4c-1.1,1.1-1.3-0.5-1-0.8c2.9-2.4,6.3-6.2,8.2-8.5c-0.3-1.2,0.7-2.7,1.6-3.4c1.5-1.2,2.6,0.1,1.8,1.6
			c-0.5,1,0.1,1,1.6,0.8c1.6-0.2,2.6,2.4,1.1,3.4c-1.5,1-4.9,4.7-7.2,7.4c-1.6,2-0.6,2.4,0.7,1.7c1.3-0.6,3.4-2,5.3-3.5
			c0.4-0.4,1.1,0.6,0.4,1.2c-1.5,1.5-4.5,3.5-6.6,4.1C218.5,35.8,216.8,34.2,218.1,31.7z"/>
		<path fill="#F8C7C3" d="M226.1,30.8c2.2-4.8,8.5-10.5,10.9-12.9l2.6-2.5c-3.7,0.2-6.8,0.3-8.3,0.2c-2-0.1-1.1-2-0.1-2.2
			c0.3-0.1,5.4-0.2,10.8-0.4c3.6-3.5,7.3-7.2,7.8-7.6c0.9-0.6,1.7,1.1,0.8,1.9c-0.2,0.3-2.4,2.4-5.6,5.5c5.1-0.2,9.8-0.4,10.1-0.4
			c1.5,0,1.4,1.9,0.8,1.9c-2.8,0.2-8.2,0.6-13.3,0.8c-4.3,4.1-8.6,7.8-14.3,15.6c-1.3,1.8-0.4,3.4,1.9,2.1c1.3-0.7,3.2-2.1,4.3-3
			c0.4-0.4,1.1,0.6,0.4,1.2c-0.7,0.7-1.4,1.3-2.1,1.8c-1.6,1.2-4.8,3-6.5,1.7C225.5,34,225.2,32.7,226.1,30.8z"/>
		<path fill="#F8C7C3" d="M241.2,31c1.1-2,2.4-3.5,2.7-3.9c0.4-0.4,0-0.5-0.8,0.1c-2,1.5-6.3,4.7-9.9,8.2c-1.3,1.2-2.4-0.9-0.8-3
			c1-1.2,7.7-9.9,8.3-10.5c1.1-1.2,2.3,0.8,1.6,1.8c-0.2,0.3-4.6,5.3-4.8,5.6c-0.2,0.3,0.2,0.3,0.9-0.3c1.4-1.1,8.3-6.2,10.6-7.2
			c1.7-0.8,2.6,1,2,1.5c-0.6,0.4-6.6,6.3-8,8.6c-0.6,1.1-0.8,1.7-0.7,2c0.7,1.2,4.5-0.8,5.3-1.3c1.3-0.9,2.6-2,3.3-2.6
			c0.4-0.3,1.1,0.6,0.5,1.2c-2,2-4.8,4.7-7.7,4.8C240.5,36.1,240,33.3,241.2,31z"/>
		<path fill="#F8C7C3" d="M253,25.7c2.1-2.5,4.9-4.7,6.4-5.8c4.5-3.3,7.5,0.5,2,5.3c-3.3,2.9-7.8,5-9.4,5.7
			c-0.4,3.1,4.8,2.9,9.4-1.1c0.4-0.4,1.1,0.6,0.4,1.2C254.3,38.6,245.4,34.8,253,25.7z M261.3,23.4c2.3-2.2,2.1-4.2-2.2-1
			c-1.6,1.2-3.6,3-5,4.8c-0.5,0.6-0.9,1.1-1.2,1.7C256,27.7,259.9,24.7,261.3,23.4z"/>
		<path fill="#F8C7C3" d="M265.5,31.7c1.4-2.7,4.4-5.9,5.5-6.8c1.1-0.8,1.8-2.1,1-1.9c-0.7,0.2-1.7,0.2-2.4-0.2
			c-1.5,1.9-3.6,4.5-8,8.4c-1.1,1.1-1.3-0.5-1-0.8c2.9-2.4,6.3-6.2,8.2-8.5c-0.3-1.2,0.7-2.7,1.6-3.4c1.5-1.2,2.6,0.1,1.8,1.6
			c-0.5,1,0.1,1,1.6,0.8c1.6-0.2,2.6,2.4,1.1,3.4c-1.5,1-4.9,4.7-7.2,7.4c-1.6,2-0.6,2.4,0.7,1.7c1.3-0.6,3.4-2,5.3-3.5
			c0.4-0.4,1.1,0.6,0.4,1.2c-1.5,1.5-4.5,3.5-6.6,4.1C265.9,35.8,264.2,34.2,265.5,31.7z"/>
	</g>
</g>
</svg>
