<?xml version="1.0" encoding="utf-8"?>
<!-- Generator: Adobe Illustrator 18.1.1, SVG Export Plug-In . SVG Version: 6.00 Build 0)  -->
<svg version="1.1" id="레이어_1" xmlns="http://www.w3.org/2000/svg" xmlns:xlink="http://www.w3.org/1999/xlink" x="0px"
	 y="0px" viewBox="0 0 276.4 335.9" enable-background="new 0 0 276.4 335.9" xml:space="preserve">
<g>
	<g>
		<path fill="#D5D5D2" d="M105.2,105.7c0.3-0.1,0.6-0.1,0.9,0.1c0.3,0.1,0.4,0.4,0.5,0.7c0.1,0.3,0.1,0.6-0.1,0.8
			c-0.1,0.3-0.4,0.4-0.6,0.5c-0.3,0.1-0.6,0.1-0.8-0.1c-0.3-0.1-0.4-0.4-0.5-0.7c-0.1-0.3-0.1-0.6,0.1-0.9
			C104.7,106,104.9,105.8,105.2,105.7z"/>
		<path fill="#D5D5D2" d="M110.6,104.3c0.3-0.1,0.6,0,0.9,0.1c0.3,0.2,0.4,0.4,0.5,0.7c0.1,0.3,0,0.6-0.1,0.8
			c-0.2,0.3-0.4,0.4-0.7,0.5c-0.3,0.1-0.6,0-0.8-0.1c-0.3-0.2-0.4-0.4-0.5-0.7c-0.1-0.3,0-0.6,0.1-0.8
			C110.1,104.6,110.3,104.4,110.6,104.3z"/>
		<path fill="#D5D5D2" d="M116,103.3c0.3-0.1,0.6,0,0.9,0.2c0.2,0.2,0.4,0.4,0.4,0.7c0,0.3,0,0.6-0.2,0.8c-0.2,0.2-0.4,0.4-0.7,0.4
			c-0.3,0-0.6,0-0.8-0.2c-0.2-0.2-0.4-0.4-0.4-0.7c0-0.3,0-0.6,0.2-0.8C115.6,103.5,115.8,103.3,116,103.3z"/>
		<path fill="#D5D5D2" d="M121.6,102.6c0.3,0,0.6,0.1,0.8,0.3c0.2,0.2,0.4,0.4,0.4,0.8c0,0.3-0.1,0.6-0.2,0.8
			c-0.2,0.2-0.4,0.4-0.7,0.4c-0.3,0-0.6-0.1-0.8-0.3c-0.2-0.2-0.4-0.4-0.4-0.7c0-0.3,0.1-0.6,0.3-0.8
			C121.1,102.7,121.3,102.6,121.6,102.6z"/>
		<path fill="#D5D5D2" d="M127.2,102.3c0.3,0,0.6,0.1,0.8,0.3c0.2,0.2,0.3,0.5,0.3,0.8c0,0.3-0.1,0.6-0.3,0.8
			c-0.2,0.2-0.5,0.3-0.8,0.3c-0.3,0-0.5-0.1-0.8-0.3c-0.2-0.2-0.3-0.5-0.3-0.8c0-0.3,0.1-0.6,0.3-0.8
			C126.7,102.4,126.9,102.3,127.2,102.3z"/>
		<path fill="#D5D5D2" d="M132.7,102.3c0.3,0,0.6,0.1,0.8,0.4c0.2,0.2,0.3,0.5,0.3,0.8c0,0.3-0.1,0.6-0.3,0.8
			c-0.2,0.2-0.5,0.3-0.8,0.3c-0.3,0-0.5-0.1-0.7-0.4c-0.2-0.2-0.3-0.5-0.3-0.8c0-0.3,0.1-0.6,0.4-0.8
			C132.2,102.4,132.5,102.3,132.7,102.3z"/>
		<path fill="#D5D5D2" d="M138.3,102.7c0.3,0,0.6,0.2,0.8,0.4c0.2,0.2,0.3,0.5,0.2,0.8c0,0.3-0.2,0.6-0.4,0.7
			c-0.2,0.2-0.5,0.3-0.8,0.2c-0.3,0-0.5-0.2-0.7-0.4c-0.2-0.2-0.3-0.5-0.2-0.8c0-0.3,0.2-0.6,0.4-0.8
			C137.8,102.7,138,102.7,138.3,102.7z"/>
		<path fill="#D5D5D2" d="M149.3,104.6c0.3,0.1,0.6,0.2,0.7,0.5c0.2,0.3,0.2,0.5,0.1,0.8c-0.1,0.3-0.2,0.5-0.5,0.7
			c-0.3,0.2-0.5,0.2-0.8,0.1c-0.3-0.1-0.5-0.2-0.7-0.5c-0.2-0.3-0.2-0.5-0.1-0.8c0.1-0.3,0.2-0.5,0.5-0.7
			C148.8,104.5,149.1,104.5,149.3,104.6z"/>
		<path fill="#D5D5D2" d="M154.7,106c0.3,0.1,0.5,0.3,0.7,0.6c0.1,0.3,0.2,0.6,0.1,0.8c-0.1,0.3-0.3,0.5-0.5,0.7
			c-0.3,0.1-0.5,0.2-0.8,0.1c-0.3-0.1-0.5-0.3-0.6-0.5c-0.1-0.3-0.2-0.6-0.1-0.8c0.1-0.3,0.3-0.5,0.6-0.7
			C154.2,106,154.4,106,154.7,106z"/>
		<path fill="#D5D5D2" d="M160,107.9c0.3,0.1,0.5,0.3,0.6,0.6c0.1,0.3,0.1,0.6,0,0.8c-0.1,0.3-0.3,0.5-0.6,0.6
			c-0.3,0.1-0.6,0.1-0.8,0c-0.3-0.1-0.5-0.3-0.6-0.6c-0.1-0.3-0.1-0.6,0-0.8c0.1-0.3,0.3-0.5,0.6-0.6
			C159.5,107.8,159.7,107.8,160,107.9z"/>
		<path fill="#D5D5D2" d="M165.1,110c0.3,0.1,0.5,0.4,0.6,0.6c0.1,0.3,0.1,0.6,0,0.8c-0.1,0.3-0.3,0.5-0.6,0.6
			c-0.3,0.1-0.6,0.1-0.8,0c-0.3-0.1-0.5-0.3-0.6-0.6c-0.1-0.3-0.1-0.6,0-0.8c0.1-0.3,0.3-0.5,0.6-0.6
			C164.6,109.9,164.8,109.9,165.1,110z"/>
		<path fill="#D5D5D2" d="M170.1,112.5c0.3,0.2,0.5,0.4,0.6,0.7c0.1,0.3,0,0.6-0.1,0.8c-0.1,0.3-0.4,0.4-0.7,0.5
			c-0.3,0.1-0.6,0.1-0.8-0.1c-0.3-0.1-0.4-0.4-0.5-0.6c-0.1-0.3-0.1-0.6,0.1-0.8c0.2-0.3,0.4-0.5,0.7-0.5
			C169.6,112.4,169.8,112.4,170.1,112.5z"/>
		<path fill="#D5D5D2" d="M174.9,115.4c0.3,0.2,0.4,0.4,0.5,0.7c0.1,0.3,0,0.6-0.1,0.8c-0.2,0.3-0.4,0.4-0.7,0.5
			c-0.3,0.1-0.6,0-0.8-0.1c-0.2-0.2-0.4-0.4-0.5-0.7c-0.1-0.3,0-0.6,0.1-0.8c0.2-0.3,0.4-0.4,0.7-0.5
			C174.4,115.2,174.7,115.2,174.9,115.4z"/>
		<path fill="#D5D5D2" d="M179.5,118.5c0.3,0.2,0.4,0.4,0.5,0.7c0,0.3,0,0.6-0.2,0.8c-0.2,0.2-0.4,0.4-0.7,0.4c-0.3,0-0.6,0-0.8-0.2
			c-0.2-0.2-0.4-0.4-0.4-0.7c0-0.3,0-0.6,0.2-0.8c0.2-0.3,0.4-0.4,0.7-0.5C179,118.3,179.3,118.3,179.5,118.5z"/>
		<path fill="#D5D5D2" d="M183.9,121.9c0.3,0.2,0.4,0.5,0.4,0.8c0,0.3-0.1,0.6-0.3,0.8c-0.2,0.2-0.4,0.4-0.8,0.4
			c-0.3,0-0.6-0.1-0.8-0.2c-0.2-0.2-0.4-0.4-0.4-0.7c0-0.3,0.1-0.6,0.3-0.8c0.2-0.2,0.5-0.4,0.8-0.4
			C183.5,121.7,183.7,121.8,183.9,121.9z"/>
		<path fill="#D5D5D2" d="M188.1,125.6c0.2,0.2,0.4,0.5,0.4,0.8c0,0.3-0.1,0.6-0.3,0.8c-0.2,0.2-0.5,0.3-0.8,0.3
			c-0.3,0-0.6-0.1-0.8-0.3c-0.2-0.2-0.3-0.5-0.3-0.8c0-0.3,0.1-0.6,0.3-0.8c0.2-0.2,0.5-0.3,0.8-0.4
			C187.6,125.4,187.9,125.4,188.1,125.6z"/>
		<path fill="#D5D5D2" d="M192,129.6c0.2,0.2,0.3,0.5,0.3,0.8c0,0.3-0.1,0.6-0.4,0.8c-0.2,0.2-0.5,0.3-0.8,0.3
			c-0.3,0-0.6-0.1-0.8-0.3c-0.2-0.2-0.3-0.5-0.3-0.8c0-0.3,0.1-0.6,0.4-0.8c0.2-0.2,0.5-0.3,0.8-0.3
			C191.6,129.3,191.8,129.4,192,129.6z"/>
		<path fill="#D5D5D2" d="M199,138.2c0.2,0.3,0.3,0.6,0.2,0.9c-0.1,0.3-0.2,0.5-0.5,0.7c-0.2,0.2-0.5,0.2-0.8,0.2
			c-0.3,0-0.5-0.2-0.7-0.4c-0.2-0.2-0.2-0.5-0.2-0.8c0.1-0.3,0.2-0.5,0.5-0.7c0.3-0.2,0.5-0.2,0.8-0.2
			C198.6,137.9,198.9,138,199,138.2z"/>
		<path fill="#D5D5D2" d="M204.9,147.7c0.2,0.3,0.2,0.6,0.1,0.9c-0.1,0.3-0.3,0.5-0.5,0.6c-0.3,0.1-0.6,0.2-0.8,0.1
			c-0.3-0.1-0.5-0.3-0.6-0.5c-0.1-0.3-0.2-0.5-0.1-0.8c0.1-0.3,0.3-0.5,0.5-0.6c0.3-0.1,0.6-0.2,0.9-0.1
			C204.5,147.4,204.7,147.5,204.9,147.7z"/>
		<path fill="#D5D5D2" d="M207.3,152.8c0.1,0.3,0.1,0.6,0,0.9c-0.1,0.3-0.3,0.5-0.6,0.6c-0.3,0.1-0.6,0.1-0.8,0
			c-0.3-0.1-0.5-0.3-0.6-0.6c-0.1-0.3-0.1-0.5,0-0.8c0.1-0.3,0.3-0.5,0.6-0.6c0.3-0.1,0.6-0.1,0.9,0
			C207,152.4,207.2,152.5,207.3,152.8z"/>
		<path fill="#D5D5D2" d="M209.4,157.9c0.1,0.3,0.1,0.6,0,0.9c-0.1,0.3-0.3,0.5-0.6,0.6c-0.3,0.1-0.6,0.1-0.9,0
			c-0.3-0.1-0.5-0.3-0.6-0.6c-0.1-0.3-0.1-0.6,0-0.8c0.1-0.3,0.3-0.5,0.6-0.6c0.3-0.1,0.6-0.1,0.9,0
			C209.1,157.5,209.3,157.7,209.4,157.9z"/>
		<path fill="#D5D5D2" d="M211.1,163.2c0.1,0.3,0.1,0.6-0.1,0.9c-0.2,0.3-0.4,0.4-0.7,0.5c-0.3,0.1-0.6,0.1-0.8-0.1
			c-0.3-0.1-0.4-0.4-0.5-0.6c-0.1-0.3-0.1-0.6,0.1-0.8c0.1-0.3,0.4-0.4,0.7-0.5c0.3-0.1,0.6-0.1,0.9,0.1
			C210.9,162.8,211.1,163,211.1,163.2z"/>
		<path fill="#D5D5D2" d="M212.6,168.6c0.1,0.3,0,0.6-0.1,0.9c-0.2,0.3-0.4,0.4-0.7,0.5c-0.3,0.1-0.6,0-0.8-0.1
			c-0.3-0.2-0.4-0.4-0.5-0.7c-0.1-0.3,0-0.6,0.2-0.8c0.2-0.3,0.4-0.4,0.7-0.5c0.3-0.1,0.6,0,0.8,0.1
			C212.3,168.2,212.5,168.4,212.6,168.6z"/>
		<path fill="#D5D5D2" d="M213.6,174.1c0.1,0.3,0,0.6-0.2,0.9c-0.2,0.2-0.4,0.4-0.7,0.4c-0.3,0-0.6,0-0.8-0.2
			c-0.2-0.2-0.4-0.4-0.4-0.7c0-0.3,0-0.6,0.2-0.8c0.2-0.2,0.4-0.4,0.7-0.4c0.3,0,0.6,0,0.8,0.2C213.4,173.7,213.6,173.9,213.6,174.1
			z"/>
		<path fill="#D5D5D2" d="M214.3,179.6c0,0.3-0.1,0.6-0.3,0.8c-0.2,0.2-0.4,0.4-0.8,0.4c-0.3,0-0.6-0.1-0.8-0.2
			c-0.2-0.2-0.4-0.4-0.4-0.7c0-0.3,0.1-0.6,0.3-0.8c0.2-0.2,0.4-0.4,0.7-0.4c0.3,0,0.6,0.1,0.8,0.3
			C214.1,179.2,214.3,179.4,214.3,179.6z"/>
		<path fill="#D5D5D2" d="M214.6,185.2c0,0.3-0.1,0.6-0.3,0.8c-0.2,0.2-0.5,0.3-0.8,0.3c-0.3,0-0.6-0.1-0.8-0.3
			c-0.2-0.2-0.3-0.5-0.3-0.8c0-0.3,0.1-0.6,0.3-0.8c0.2-0.2,0.5-0.3,0.8-0.3c0.3,0,0.6,0.1,0.8,0.3
			C214.5,184.7,214.6,185,214.6,185.2z"/>
		<path fill="#D5D5D2" d="M214.6,190.8c0,0.3-0.1,0.6-0.4,0.8c-0.2,0.2-0.5,0.3-0.8,0.3c-0.3,0-0.6-0.1-0.8-0.4
			c-0.2-0.2-0.3-0.5-0.3-0.8c0-0.3,0.1-0.5,0.4-0.7c0.2-0.2,0.5-0.3,0.8-0.3c0.3,0,0.6,0.1,0.8,0.4
			C214.5,190.3,214.6,190.5,214.6,190.8z"/>
		<path fill="#D5D5D2" d="M214.2,196.4c0,0.3-0.2,0.6-0.4,0.8c-0.2,0.2-0.5,0.3-0.8,0.2c-0.3,0-0.6-0.2-0.7-0.4
			c-0.2-0.2-0.3-0.5-0.2-0.8c0-0.3,0.2-0.5,0.4-0.7c0.2-0.2,0.5-0.3,0.8-0.2c0.3,0,0.6,0.2,0.8,0.4
			C214.1,195.9,214.2,196.1,214.2,196.4z"/>
		<path fill="#D5D5D2" d="M213.4,201.9c-0.1,0.3-0.2,0.6-0.5,0.7c-0.2,0.2-0.5,0.2-0.8,0.2c-0.3-0.1-0.5-0.2-0.7-0.5
			c-0.2-0.2-0.2-0.5-0.2-0.8c0.1-0.3,0.2-0.5,0.5-0.7c0.2-0.2,0.5-0.2,0.8-0.2c0.3,0.1,0.6,0.2,0.7,0.5
			C213.4,201.4,213.5,201.6,213.4,201.9z"/>
		<path fill="#D5D5D2" d="M212.3,207.3c-0.1,0.3-0.2,0.6-0.5,0.7c-0.3,0.2-0.5,0.2-0.8,0.1c-0.3-0.1-0.5-0.2-0.7-0.5
			c-0.2-0.3-0.2-0.5-0.1-0.8c0.1-0.3,0.2-0.5,0.5-0.7c0.3-0.2,0.5-0.2,0.8-0.1c0.3,0.1,0.5,0.2,0.7,0.5
			C212.3,206.8,212.4,207.1,212.3,207.3z"/>
		<path fill="#D5D5D2" d="M210.8,212.7c-0.1,0.3-0.3,0.5-0.6,0.7c-0.3,0.1-0.6,0.2-0.8,0.1c-0.3-0.1-0.5-0.3-0.7-0.5
			c-0.1-0.3-0.2-0.5-0.1-0.8c0.1-0.3,0.3-0.5,0.5-0.6c0.3-0.1,0.6-0.2,0.8-0.1c0.3,0.1,0.5,0.3,0.7,0.6
			C210.9,212.2,210.9,212.5,210.8,212.7z"/>
		<path fill="#D5D5D2" d="M209,218c-0.1,0.3-0.3,0.5-0.6,0.6c-0.3,0.1-0.6,0.1-0.8,0c-0.3-0.1-0.5-0.3-0.6-0.6
			c-0.1-0.3-0.1-0.6,0-0.8c0.1-0.3,0.3-0.5,0.6-0.6c0.3-0.1,0.6-0.1,0.8,0c0.3,0.1,0.5,0.3,0.6,0.6C209.1,217.5,209.1,217.8,209,218
			z"/>
		<path fill="#D5D5D2" d="M206.8,223.2c-0.1,0.3-0.4,0.5-0.6,0.6c-0.3,0.1-0.6,0.1-0.8,0c-0.3-0.1-0.5-0.3-0.6-0.6
			c-0.1-0.3-0.1-0.6,0-0.8c0.1-0.3,0.3-0.5,0.6-0.6c0.3-0.1,0.6-0.1,0.8,0c0.3,0.1,0.5,0.3,0.6,0.6
			C206.9,222.7,206.9,222.9,206.8,223.2z"/>
		<path fill="#D5D5D2" d="M204.3,228.1c-0.2,0.3-0.4,0.5-0.7,0.6c-0.3,0.1-0.6,0-0.8-0.1c-0.3-0.1-0.4-0.4-0.5-0.7
			c-0.1-0.3-0.1-0.6,0.1-0.8c0.1-0.3,0.4-0.4,0.6-0.5c0.3-0.1,0.6-0.1,0.8,0.1c0.3,0.2,0.5,0.4,0.5,0.7
			C204.5,227.7,204.4,227.9,204.3,228.1z"/>
		<path fill="#D5D5D2" d="M201.5,232.9c-0.2,0.3-0.4,0.5-0.7,0.5c-0.3,0.1-0.6,0-0.8-0.2c-0.3-0.2-0.4-0.4-0.5-0.7
			c-0.1-0.3,0-0.6,0.1-0.8c0.2-0.2,0.4-0.4,0.7-0.5c0.3-0.1,0.6,0,0.8,0.1c0.3,0.2,0.4,0.4,0.5,0.7
			C201.7,232.5,201.6,232.7,201.5,232.9z"/>
		<path fill="#D5D5D2" d="M198.4,237.6c-0.2,0.3-0.4,0.4-0.7,0.5c-0.3,0-0.6,0-0.8-0.2c-0.2-0.2-0.4-0.4-0.4-0.7
			c0-0.3,0-0.6,0.2-0.8c0.2-0.2,0.4-0.4,0.7-0.4c0.3,0,0.6,0,0.8,0.2c0.3,0.2,0.4,0.4,0.5,0.7C198.6,237.1,198.5,237.4,198.4,237.6z
			"/>
		<path fill="#D5D5D2" d="M191.2,246.1c-0.2,0.2-0.5,0.4-0.8,0.4c-0.3,0-0.6-0.1-0.8-0.3c-0.2-0.2-0.3-0.5-0.3-0.8
			c0-0.3,0.1-0.6,0.3-0.8c0.2-0.2,0.5-0.3,0.8-0.3c0.3,0,0.6,0.1,0.8,0.3c0.2,0.2,0.3,0.5,0.4,0.8
			C191.5,245.7,191.4,245.9,191.2,246.1z"/>
		<path fill="#D5D5D2" d="M187.3,250c-0.2,0.2-0.5,0.3-0.8,0.3c-0.3,0-0.6-0.1-0.8-0.4c-0.2-0.2-0.3-0.5-0.3-0.8
			c0-0.3,0.1-0.6,0.3-0.8c0.2-0.2,0.5-0.3,0.8-0.3c0.3,0,0.6,0.1,0.8,0.4c0.2,0.2,0.3,0.5,0.3,0.8
			C187.6,249.6,187.5,249.9,187.3,250z"/>
		<path fill="#D5D5D2" d="M183.1,253.7c-0.3,0.2-0.5,0.3-0.8,0.3c-0.3,0-0.5-0.2-0.7-0.4c-0.2-0.2-0.3-0.5-0.2-0.8
			c0-0.3,0.2-0.5,0.4-0.7c0.2-0.2,0.5-0.3,0.8-0.2c0.3,0,0.5,0.2,0.7,0.4c0.2,0.2,0.3,0.5,0.2,0.8
			C183.4,253.3,183.3,253.5,183.1,253.7z"/>
		<path fill="#D5D5D2" d="M178.6,257.1c-0.3,0.2-0.6,0.3-0.9,0.2c-0.3-0.1-0.5-0.2-0.7-0.5c-0.2-0.3-0.2-0.5-0.2-0.8
			c0-0.3,0.2-0.5,0.4-0.7c0.2-0.2,0.5-0.2,0.8-0.2c0.3,0.1,0.5,0.2,0.7,0.5c0.2,0.3,0.2,0.5,0.2,0.8
			C178.9,256.7,178.8,256.9,178.6,257.1z"/>
		<path fill="#D5D5D2" d="M173.9,260.1c-0.3,0.2-0.6,0.2-0.9,0.1c-0.3-0.1-0.5-0.2-0.7-0.5c-0.2-0.3-0.2-0.5-0.1-0.8
			c0.1-0.3,0.2-0.5,0.5-0.7c0.2-0.2,0.5-0.2,0.8-0.1c0.3,0.1,0.5,0.2,0.7,0.5c0.2,0.3,0.2,0.6,0.1,0.9
			C174.3,259.8,174.1,260,173.9,260.1z"/>
		<path fill="#D5D5D2" d="M169.1,262.9c-0.3,0.2-0.6,0.2-0.9,0.1c-0.3-0.1-0.5-0.3-0.6-0.5c-0.1-0.3-0.2-0.6-0.1-0.8
			c0.1-0.3,0.3-0.5,0.5-0.6c0.3-0.1,0.5-0.2,0.8-0.1c0.3,0.1,0.5,0.3,0.6,0.5c0.1,0.3,0.2,0.6,0.1,0.9
			C169.5,262.6,169.3,262.8,169.1,262.9z"/>
		<path fill="#D5D5D2" d="M158.9,267.4c-0.3,0.1-0.6,0.1-0.9,0c-0.3-0.1-0.5-0.3-0.6-0.6c-0.1-0.3-0.1-0.6,0-0.8
			c0.1-0.3,0.3-0.5,0.6-0.6c0.3-0.1,0.5-0.1,0.8,0c0.3,0.1,0.5,0.3,0.6,0.6c0.1,0.3,0.1,0.6,0,0.9
			C159.3,267.2,159.1,267.3,158.9,267.4z"/>
		<path fill="#D5D5D2" d="M153.6,269.2c-0.3,0.1-0.6,0.1-0.9-0.1c-0.3-0.2-0.4-0.4-0.5-0.7c-0.1-0.3-0.1-0.6,0.1-0.8
			c0.1-0.3,0.4-0.4,0.6-0.5c0.3-0.1,0.6-0.1,0.8,0.1c0.3,0.1,0.4,0.4,0.5,0.7c0.1,0.3,0.1,0.6-0.1,0.9
			C154,268.9,153.8,269.1,153.6,269.2z"/>
		<path fill="#D5D5D2" d="M148.2,270.6c-0.3,0.1-0.6,0-0.9-0.1c-0.3-0.2-0.4-0.4-0.5-0.7c-0.1-0.3,0-0.6,0.1-0.8
			c0.2-0.3,0.4-0.4,0.7-0.5c0.3-0.1,0.6,0,0.8,0.2c0.3,0.2,0.4,0.4,0.5,0.7c0.1,0.3,0,0.6-0.1,0.8
			C148.7,270.4,148.4,270.5,148.2,270.6z"/>
		<path fill="#D5D5D2" d="M142.7,271.6c-0.3,0.1-0.6,0-0.9-0.2c-0.2-0.2-0.4-0.4-0.4-0.7c0-0.3,0-0.6,0.2-0.8
			c0.2-0.2,0.4-0.4,0.7-0.4c0.3,0,0.6,0,0.8,0.2c0.2,0.2,0.4,0.4,0.4,0.7c0,0.3,0,0.6-0.2,0.8C143.2,271.4,143,271.6,142.7,271.6z"
			/>
		<path fill="#D5D5D2" d="M137.2,272.3c-0.3,0-0.6-0.1-0.8-0.3c-0.2-0.2-0.4-0.4-0.4-0.8c0-0.3,0.1-0.6,0.2-0.8
			c0.2-0.2,0.4-0.4,0.7-0.4c0.3,0,0.6,0.1,0.8,0.3c0.2,0.2,0.4,0.4,0.4,0.7c0,0.3-0.1,0.6-0.3,0.8
			C137.7,272.2,137.4,272.3,137.2,272.3z"/>
		<path fill="#D5D5D2" d="M131.6,272.6c-0.3,0-0.6-0.1-0.8-0.3c-0.2-0.2-0.3-0.5-0.3-0.8c0-0.3,0.1-0.6,0.3-0.8
			c0.2-0.2,0.5-0.3,0.8-0.3c0.3,0,0.5,0.1,0.8,0.3c0.2,0.2,0.3,0.5,0.3,0.8c0,0.3-0.1,0.6-0.3,0.8
			C132.1,272.5,131.9,272.6,131.6,272.6z"/>
		<path fill="#D5D5D2" d="M126,272.6c-0.3,0-0.6-0.1-0.8-0.4c-0.2-0.2-0.3-0.5-0.3-0.8c0-0.3,0.1-0.6,0.4-0.8
			c0.2-0.2,0.5-0.3,0.8-0.3c0.3,0,0.5,0.1,0.7,0.4c0.2,0.2,0.3,0.5,0.3,0.8c0,0.3-0.1,0.6-0.4,0.8
			C126.5,272.5,126.3,272.6,126,272.6z"/>
		<path fill="#D5D5D2" d="M120.5,272.2c-0.3,0-0.6-0.2-0.8-0.4c-0.2-0.2-0.3-0.5-0.2-0.8c0-0.3,0.2-0.6,0.4-0.7
			c0.2-0.2,0.5-0.3,0.8-0.2c0.3,0,0.5,0.2,0.7,0.4c0.2,0.2,0.3,0.5,0.2,0.8c0,0.3-0.2,0.6-0.4,0.8
			C121,272.2,120.7,272.2,120.5,272.2z"/>
		<path fill="#D5D5D2" d="M114.9,271.4c-0.3-0.1-0.6-0.2-0.7-0.5c-0.2-0.3-0.2-0.5-0.2-0.8c0.1-0.3,0.2-0.5,0.5-0.7
			c0.2-0.2,0.5-0.2,0.8-0.2c0.3,0.1,0.5,0.2,0.7,0.5c0.2,0.2,0.2,0.5,0.2,0.8c-0.1,0.3-0.2,0.6-0.5,0.7
			C115.4,271.4,115.2,271.5,114.9,271.4z"/>
		<path fill="#D5D5D2" d="M109.5,270.3c-0.3-0.1-0.6-0.2-0.7-0.5c-0.2-0.3-0.2-0.5-0.1-0.8c0.1-0.3,0.2-0.5,0.5-0.7
			c0.3-0.2,0.5-0.2,0.8-0.1c0.3,0.1,0.5,0.2,0.7,0.5c0.2,0.3,0.2,0.5,0.1,0.8c-0.1,0.3-0.2,0.5-0.5,0.7
			C110,270.3,109.7,270.4,109.5,270.3z"/>
		<path fill="#D5D5D2" d="M104.1,268.8c-0.3-0.1-0.5-0.3-0.7-0.6c-0.1-0.3-0.2-0.6-0.1-0.8c0.1-0.3,0.3-0.5,0.5-0.7
			c0.3-0.1,0.5-0.2,0.8-0.1c0.3,0.1,0.5,0.3,0.6,0.5c0.1,0.3,0.2,0.5,0.1,0.8c-0.1,0.3-0.3,0.5-0.6,0.7
			C104.6,268.9,104.3,268.9,104.1,268.8z"/>
		<path fill="#D5D5D2" d="M98.8,267c-0.3-0.1-0.5-0.3-0.6-0.6c-0.1-0.3-0.1-0.6,0-0.8c0.1-0.3,0.3-0.5,0.6-0.6
			c0.3-0.1,0.6-0.1,0.8,0c0.3,0.1,0.5,0.3,0.6,0.6c0.1,0.3,0.1,0.6,0,0.8c-0.1,0.3-0.3,0.5-0.6,0.6C99.3,267.1,99.1,267.1,98.8,267z
			"/>
		<path fill="#D5D5D2" d="M93.7,264.8c-0.3-0.1-0.5-0.4-0.6-0.6c-0.1-0.3-0.1-0.6,0-0.8c0.1-0.3,0.3-0.5,0.6-0.6
			c0.3-0.1,0.6-0.1,0.8,0c0.3,0.1,0.5,0.3,0.6,0.6c0.1,0.3,0.1,0.6,0,0.8c-0.1,0.3-0.3,0.5-0.6,0.6
			C94.2,264.9,93.9,264.9,93.7,264.8z"/>
		<path fill="#D5D5D2" d="M88.7,262.3c-0.3-0.2-0.5-0.4-0.6-0.7c-0.1-0.3,0-0.6,0.1-0.8c0.1-0.3,0.4-0.4,0.7-0.5
			c0.3-0.1,0.6-0.1,0.8,0.1c0.3,0.1,0.4,0.4,0.5,0.7c0.1,0.3,0.1,0.6-0.1,0.8c-0.2,0.3-0.4,0.5-0.7,0.5
			C89.2,262.5,88.9,262.4,88.7,262.3z"/>
		<path fill="#D5D5D2" d="M83.9,259.5c-0.3-0.2-0.5-0.4-0.5-0.7c-0.1-0.3,0-0.6,0.2-0.8c0.2-0.3,0.4-0.4,0.7-0.5
			c0.3-0.1,0.6,0,0.8,0.1c0.2,0.2,0.4,0.4,0.5,0.7c0.1,0.3,0,0.6-0.1,0.8c-0.2,0.3-0.4,0.4-0.7,0.5
			C84.4,259.6,84.1,259.6,83.9,259.5z"/>
		<path fill="#D5D5D2" d="M79.3,256.3c-0.3-0.2-0.4-0.4-0.5-0.7c0-0.3,0-0.6,0.2-0.8c0.2-0.2,0.4-0.4,0.7-0.4c0.3,0,0.6,0,0.8,0.2
			c0.2,0.2,0.4,0.4,0.4,0.7c0,0.3,0,0.6-0.2,0.8c-0.2,0.3-0.4,0.4-0.7,0.5C79.8,256.6,79.5,256.5,79.3,256.3z"/>
		<path fill="#D5D5D2" d="M74.9,252.9c-0.3-0.2-0.4-0.5-0.4-0.8c0-0.3,0.1-0.6,0.3-0.8c0.2-0.2,0.4-0.4,0.8-0.4
			c0.3,0,0.6,0.1,0.8,0.2c0.2,0.2,0.4,0.4,0.4,0.7c0,0.3-0.1,0.6-0.3,0.8c-0.2,0.2-0.5,0.4-0.8,0.4
			C75.3,253.1,75.1,253.1,74.9,252.9z"/>
		<path fill="#D5D5D2" d="M70.7,249.2c-0.2-0.2-0.4-0.5-0.4-0.8c0-0.3,0.1-0.6,0.3-0.8c0.2-0.2,0.5-0.3,0.8-0.3
			c0.3,0,0.6,0.1,0.8,0.3c0.2,0.2,0.3,0.5,0.3,0.8c0,0.3-0.1,0.6-0.3,0.8c-0.2,0.2-0.5,0.3-0.8,0.4
			C71.1,249.5,70.9,249.4,70.7,249.2z"/>
		<path fill="#D5D5D2" d="M66.8,245.2c-0.2-0.2-0.3-0.5-0.3-0.8c0-0.3,0.1-0.6,0.4-0.8c0.2-0.2,0.5-0.3,0.8-0.3
			c0.3,0,0.6,0.1,0.8,0.3c0.2,0.2,0.3,0.5,0.3,0.8c0,0.3-0.1,0.6-0.4,0.8c-0.2,0.2-0.5,0.3-0.8,0.3C67.2,245.5,67,245.4,66.8,245.2z
			"/>
		<path fill="#D5D5D2" d="M63.2,241c-0.2-0.3-0.3-0.5-0.3-0.8c0-0.3,0.2-0.5,0.4-0.7c0.2-0.2,0.5-0.3,0.8-0.2c0.3,0,0.5,0.2,0.7,0.4
			c0.2,0.2,0.3,0.5,0.2,0.8c0,0.3-0.2,0.5-0.4,0.7c-0.2,0.2-0.5,0.3-0.8,0.2C63.5,241.3,63.3,241.2,63.2,241z"/>
		<path fill="#D5D5D2" d="M51.5,222c-0.1-0.3-0.1-0.6,0-0.9c0.1-0.3,0.3-0.5,0.6-0.6c0.3-0.1,0.6-0.1,0.8,0c0.3,0.1,0.5,0.3,0.6,0.6
			c0.1,0.3,0.1,0.5,0,0.8c-0.1,0.3-0.3,0.5-0.6,0.6c-0.3,0.1-0.6,0.1-0.9,0C51.8,222.4,51.6,222.3,51.5,222z"/>
		<path fill="#D5D5D2" d="M49.4,216.9c-0.1-0.3-0.1-0.6,0-0.9c0.1-0.3,0.3-0.5,0.6-0.6c0.3-0.1,0.6-0.1,0.8,0
			c0.3,0.1,0.5,0.3,0.6,0.6c0.1,0.3,0.1,0.6,0,0.8c-0.1,0.3-0.3,0.5-0.6,0.6c-0.3,0.1-0.6,0.1-0.9,0
			C49.7,217.3,49.5,217.1,49.4,216.9z"/>
		<path fill="#D5D5D2" d="M47.7,211.6c-0.1-0.3-0.1-0.6,0.1-0.9c0.2-0.3,0.4-0.4,0.7-0.5c0.3-0.1,0.6-0.1,0.8,0.1
			c0.3,0.1,0.4,0.4,0.5,0.6c0.1,0.3,0.1,0.6-0.1,0.8c-0.1,0.3-0.4,0.4-0.7,0.5c-0.3,0.1-0.6,0.1-0.9-0.1
			C47.9,212,47.8,211.8,47.7,211.6z"/>
		<path fill="#D5D5D2" d="M46.3,206.2c-0.1-0.3,0-0.6,0.1-0.9c0.2-0.3,0.4-0.4,0.7-0.5c0.3-0.1,0.6,0,0.8,0.1
			c0.3,0.2,0.4,0.4,0.5,0.7c0.1,0.3,0,0.6-0.2,0.8c-0.2,0.3-0.4,0.4-0.7,0.5c-0.3,0.1-0.6,0-0.8-0.1
			C46.5,206.6,46.4,206.4,46.3,206.2z"/>
		<path fill="#D5D5D2" d="M45.3,200.7c-0.1-0.3,0-0.6,0.2-0.9c0.2-0.2,0.4-0.4,0.7-0.4c0.3,0,0.6,0,0.8,0.2c0.2,0.2,0.4,0.4,0.4,0.7
			c0,0.3,0,0.6-0.2,0.8c-0.2,0.2-0.4,0.4-0.7,0.4c-0.3,0-0.6,0-0.8-0.2C45.4,201.1,45.3,200.9,45.3,200.7z"/>
		<path fill="#D5D5D2" d="M44.6,195.1c0-0.3,0.1-0.6,0.3-0.8c0.2-0.2,0.4-0.4,0.8-0.4c0.3,0,0.6,0.1,0.8,0.2
			c0.2,0.2,0.4,0.4,0.4,0.7c0,0.3-0.1,0.6-0.3,0.8c-0.2,0.2-0.4,0.4-0.7,0.4c-0.3,0-0.6-0.1-0.8-0.3
			C44.7,195.6,44.6,195.4,44.6,195.1z"/>
		<path fill="#D5D5D2" d="M44.2,189.6c0-0.3,0.1-0.6,0.3-0.8c0.2-0.2,0.5-0.3,0.8-0.3c0.3,0,0.6,0.1,0.8,0.3
			c0.2,0.2,0.3,0.5,0.3,0.8c0,0.3-0.1,0.6-0.3,0.8c-0.2,0.2-0.5,0.3-0.8,0.3c-0.3,0-0.6-0.1-0.8-0.3
			C44.4,190.1,44.2,189.8,44.2,189.6z"/>
		<path fill="#D5D5D2" d="M44.3,184c0-0.3,0.1-0.6,0.4-0.8c0.2-0.2,0.5-0.3,0.8-0.3c0.3,0,0.6,0.1,0.8,0.4c0.2,0.2,0.3,0.5,0.3,0.8
			c0,0.3-0.1,0.5-0.4,0.7c-0.2,0.2-0.5,0.3-0.8,0.3c-0.3,0-0.6-0.1-0.8-0.4C44.4,184.5,44.3,184.2,44.3,184z"/>
		<path fill="#D5D5D2" d="M44.7,178.4c0-0.3,0.2-0.6,0.4-0.8c0.2-0.2,0.5-0.3,0.8-0.2c0.3,0,0.6,0.2,0.7,0.4
			c0.2,0.2,0.3,0.5,0.2,0.8c0,0.3-0.2,0.5-0.4,0.7c-0.2,0.2-0.5,0.3-0.8,0.2c-0.3,0-0.6-0.2-0.8-0.4
			C44.7,178.9,44.7,178.7,44.7,178.4z"/>
		<path fill="#D5D5D2" d="M45.4,172.9c0.1-0.3,0.2-0.6,0.5-0.7c0.3-0.2,0.5-0.2,0.8-0.2c0.3,0.1,0.5,0.2,0.7,0.5
			c0.2,0.2,0.2,0.5,0.2,0.8c0,0.3-0.2,0.5-0.5,0.7c-0.2,0.2-0.5,0.2-0.8,0.2c-0.3-0.1-0.6-0.2-0.7-0.5
			C45.5,173.4,45.4,173.2,45.4,172.9z"/>
		<path fill="#D5D5D2" d="M46.6,167.5c0.1-0.3,0.2-0.6,0.5-0.7c0.3-0.2,0.5-0.2,0.8-0.1c0.3,0.1,0.5,0.2,0.7,0.5
			c0.2,0.3,0.2,0.5,0.1,0.8c-0.1,0.3-0.2,0.5-0.5,0.7c-0.3,0.2-0.5,0.2-0.8,0.1c-0.3-0.1-0.5-0.2-0.7-0.5
			C46.6,168,46.5,167.7,46.6,167.5z"/>
		<path fill="#D5D5D2" d="M48.1,162.1c0.1-0.3,0.3-0.5,0.6-0.7c0.3-0.1,0.6-0.2,0.8-0.1c0.3,0.1,0.5,0.3,0.7,0.5
			c0.1,0.3,0.2,0.5,0.1,0.8c-0.1,0.3-0.3,0.5-0.5,0.6c-0.3,0.1-0.6,0.2-0.8,0.1c-0.3-0.1-0.5-0.3-0.7-0.6
			C48,162.6,48,162.3,48.1,162.1z"/>
		<path fill="#D5D5D2" d="M54.6,146.7c0.2-0.3,0.4-0.5,0.7-0.6c0.3-0.1,0.6,0,0.8,0.1c0.3,0.1,0.4,0.4,0.5,0.7
			c0.1,0.3,0.1,0.6-0.1,0.8c-0.1,0.3-0.4,0.4-0.7,0.5c-0.3,0.1-0.6,0.1-0.8-0.1c-0.3-0.2-0.5-0.4-0.5-0.7
			C54.5,147.2,54.5,146.9,54.6,146.7z"/>
		<path fill="#D5D5D2" d="M57.4,141.9c0.2-0.3,0.4-0.5,0.7-0.5c0.3-0.1,0.6,0,0.8,0.2c0.3,0.2,0.4,0.4,0.5,0.7
			c0.1,0.3,0,0.6-0.1,0.8c-0.2,0.2-0.4,0.4-0.7,0.5c-0.3,0.1-0.6,0-0.8-0.1c-0.3-0.2-0.4-0.4-0.5-0.7
			C57.3,142.4,57.3,142.1,57.4,141.9z"/>
		<path fill="#D5D5D2" d="M64,132.9c0.2-0.3,0.5-0.4,0.8-0.4c0.3,0,0.6,0.1,0.8,0.3c0.2,0.2,0.4,0.4,0.4,0.7c0,0.3-0.1,0.6-0.2,0.8
			c-0.2,0.2-0.4,0.4-0.7,0.4c-0.3,0-0.6-0.1-0.8-0.3c-0.2-0.2-0.4-0.5-0.4-0.8C63.8,133.3,63.8,133.1,64,132.9z"/>
		<path fill="#D5D5D2" d="M67.7,128.7c0.2-0.2,0.5-0.4,0.8-0.4c0.3,0,0.6,0.1,0.8,0.3c0.2,0.2,0.3,0.5,0.3,0.8
			c0,0.3-0.1,0.6-0.3,0.8c-0.2,0.2-0.5,0.3-0.8,0.3c-0.3,0-0.6-0.1-0.8-0.3c-0.2-0.2-0.3-0.5-0.3-0.8
			C67.4,129.1,67.5,128.9,67.7,128.7z"/>
		<path fill="#D5D5D2" d="M71.7,124.8c0.2-0.2,0.5-0.3,0.8-0.3c0.3,0,0.6,0.1,0.8,0.4c0.2,0.2,0.3,0.5,0.3,0.8
			c0,0.3-0.1,0.6-0.3,0.8c-0.2,0.2-0.5,0.3-0.8,0.3c-0.3,0-0.6-0.1-0.8-0.4c-0.2-0.2-0.3-0.5-0.3-0.8
			C71.4,125.2,71.5,124.9,71.7,124.8z"/>
		<path fill="#D5D5D2" d="M75.9,121.1c0.3-0.2,0.5-0.3,0.8-0.3c0.3,0,0.5,0.2,0.7,0.4c0.2,0.2,0.3,0.5,0.2,0.8
			c0,0.3-0.2,0.5-0.4,0.7c-0.2,0.2-0.5,0.3-0.8,0.2c-0.3,0-0.5-0.2-0.7-0.4c-0.2-0.2-0.3-0.5-0.2-0.8
			C75.6,121.5,75.7,121.3,75.9,121.1z"/>
		<path fill="#D5D5D2" d="M80.4,117.8c0.3-0.2,0.6-0.3,0.9-0.2c0.3,0.1,0.5,0.2,0.7,0.5c0.2,0.3,0.2,0.5,0.2,0.8
			c-0.1,0.3-0.2,0.5-0.4,0.7c-0.2,0.2-0.5,0.2-0.8,0.2c-0.3-0.1-0.5-0.2-0.7-0.5c-0.2-0.3-0.2-0.5-0.2-0.8
			C80,118.1,80.1,117.9,80.4,117.8z"/>
		<path fill="#D5D5D2" d="M85,114.7c0.3-0.2,0.6-0.2,0.9-0.1c0.3,0.1,0.5,0.2,0.7,0.5c0.2,0.3,0.2,0.5,0.1,0.8
			c-0.1,0.3-0.2,0.5-0.5,0.7c-0.3,0.2-0.5,0.2-0.8,0.1c-0.3-0.1-0.5-0.2-0.7-0.5c-0.2-0.3-0.2-0.6-0.1-0.9
			C84.7,115,84.8,114.8,85,114.7z"/>
	</g>
	<g>
		<path fill="#FFFFFF" d="M237.5,45.1c0,0,4.6,11,0,16.7c-6.1,3.7,12.9-5.6,10.3-16.7"/>
	</g>
	<g>
		<circle fill="#FFFFFF" cx="245.2" cy="25.7" r="25.7"/>
	</g>
	<g>
		<path fill="#F8C7C3" d="M241.3,33.5v-8.8h5.5c2.2,0,3.3-1.1,3.3-3.3v-2.2c0-2.2-1.1-3.3-3.3-3.3h-9.9v-4.4h9.9
			c5.2,0,7.7,2.6,7.7,7.7v2.2c0,5.2-2.6,7.7-7.7,7.7h-1.1v4.4H241.3z M245.7,37.9v4.4h-4.4v-4.4H245.7z"/>
	</g>
	<g>
		<g>
			<rect x="61.4" y="64.8" fill="#FFFFFF" width="20.9" height="4.6"/>
		</g>
		<g>
			<rect x="61.4" y="65.7" fill="#FFFFFF" width="4.6" height="19.3"/>
		</g>
		<g>
			<rect x="62" y="81.3" fill="#FFFFFF" width="34.6" height="3.7"/>
		</g>
		<g>
			<rect x="93.8" y="81.3" fill="#FFFFFF" width="3.7" height="30.8"/>
		</g>
		<g>
			<path fill="#464442" d="M100.1,96.5v26.6c0,2.5-2,4.5-4.5,4.5l0,0c-2.5,0-4.5-2-4.5-4.5V96.5H100.1z"/>
		</g>
		<g>
			<path fill="#F8C7C3" d="M122,74.9c0,1.3-1.1,2.4-2.4,2.4H71.7c-1.3,0-2.4-1.1-2.4-2.4V59.3c0-1.3,1.1-2.4,2.4-2.4h47.9
				c1.3,0,2.4,1.1,2.4,2.4V74.9z"/>
		</g>
	</g>
	<g>
		<g>
			<path fill="#FFFFFF" d="M161.7,129.7c0,9.8,1.3,14.7,15.3,14.7l37.4,0l0,3.1c0,8.1-8.1,14.7-16.6,14.7l-37.8,0
				c-8.5,0-15.3-6.6-15.3-14.7l0.1-89.1c0-8.1,8.6-2.9,17-2.9l0,15.4L161.7,129.7z"/>
		</g>
		<g>
			<path fill="#FBDDDC" d="M161.8,61.2l0-7.9c0-0.8-0.6-1.4-1.4-1.4l0,0c-0.8,0-1.4,0.6-1.4,1.4l0,7.9h0.6l0-10.3
				c0-4.1-3.3-7.4-7.4-7.4l0,0c-4.1,0-7.4,3.3-7.4,7.4v10.3"/>
		</g>
		<g>
			<path fill="#464442" d="M260.4,134.6l0-33.5c0-16.7-13.5-30.3-30.2-30.3c-16.7,0-30.3,13.5-30.3,30.2l0,33.5L260.4,134.6z"/>
		</g>
		<g>
			<path fill="#464442" d="M276,261.4l0-94c0-12.5-6.2-22.6-18.7-22.6l-41.3,0c-12.5,0-22.6,10.1-22.6,22.6l0,94L276,261.4z"/>
		</g>
		<g>
			<path fill="#FBDDDC" d="M251.9,115.7c0,14-11.3,25.3-25.3,25.3l0,0c-14,0-24.4-11.3-24.4-25.3l0-15.3c0-14,11.3-25.3,25.3-25.3
				l-0.9-0.9c14,0,25.3,12.2,25.3,26.2L251.9,115.7z"/>
		</g>
		<g>
			<path fill="#464442" d="M207.9,81.6c0,0-5.2,33.8,50.1,50.7c0,0,4.2-22.9-0.6-30.8C251.8,92.4,238.1,56.7,207.9,81.6z"/>
		</g>
		<g>
			<path fill="#464442" d="M199.9,110.5c0,10.8-4.8,21.8-10.3,24l12.6,0L199.9,110.5z"/>
		</g>
		<g>
			<path fill="#FFFFFF" d="M243.9,197.4c9.8,0,14.7-1.3,14.7-15.3l0-37.4l3.1,0c8.1,0,14.7,8.1,14.7,16.6l0,37.8
				c0,8.5-6.6,15.3-14.7,15.3l-103.1-0.1c-8.1,0-7.2-8.6-7.2-17l33.8,0L243.9,197.4z"/>
		</g>
		<g>
			<path fill="#FBDDDC" d="M158.8,197.3l-7.9,0c-0.8,0-1.4,0.6-1.4,1.4l0,0c0,0.8,0.6,1.4,1.4,1.4l7.9,0v-0.6l-10.3,0
				c-4.1,0-7.4,3.3-7.4,7.4l0,0c0,4.1,3.3,7.4,7.4,7.4l10.3,0"/>
		</g>
		<g>
			<path fill="#646360" d="M212.8,124.4c0,0.5-0.4,0.9-0.9,0.9l0,0c-0.5,0-0.9-0.4-0.9-0.9l0-16.8c0-0.5,0.4-0.9,0.9-0.9l0,0
				c0.5,0,0.9,0.4,0.9,0.9L212.8,124.4z"/>
		</g>
		<g>
			<g>
				<polygon fill="#FFFFFF" points="242.7,144.8 228.5,168.4 214.4,144.8 				"/>
			</g>
			<g>
				<polygon fill="#FBDDDC" points="237.7,144.8 228.5,160.4 219.4,144.8 				"/>
			</g>
		</g>
	</g>
	<g>
		<g>
			
				<rect x="17" y="222" transform="matrix(0.7071 -0.7071 0.7071 0.7071 -151.541 89.1692)" fill="#F8C7C3" width="29.8" height="11"/>
		</g>
		<g>
			
				<rect x="38" y="216.7" transform="matrix(-0.7071 -0.7071 0.7071 -0.7071 -56.5365 420.9965)" fill="#F8C7C3" width="41.8" height="11"/>
		</g>
		<g>
			
				<rect x="17" y="241.2" transform="matrix(0.7071 -0.7071 0.7071 0.7071 -165.1162 94.7922)" fill="#FFFFFF" width="29.8" height="11"/>
		</g>
		<g>
			
				<rect x="38" y="235.9" transform="matrix(-0.7071 -0.7071 0.7071 -0.7071 -70.1115 453.7691)" fill="#FFFFFF" width="41.8" height="11"/>
		</g>
		<g>
			
				<rect x="17" y="260.4" transform="matrix(0.7071 -0.7071 0.7071 0.7071 -178.691 100.4147)" fill="#F8C7C3" width="29.8" height="11"/>
		</g>
		<g>
			
				<rect x="38" y="255.1" transform="matrix(-0.7071 -0.7071 0.7071 -0.7071 -83.6864 486.5438)" fill="#F8C7C3" width="41.8" height="11"/>
		</g>
	</g>
	<g>
		<g>
			<rect x="138.1" y="286.5" fill="#FFFFFF" width="4.9" height="47.1"/>
		</g>
		<g>
			<path fill="#464442" d="M156.7,332.6c0,1.8-1.5,3.3-3.3,3.3h-26c-1.8,0-3.3-1.5-3.3-3.3l0,0c0-1.8,1.5-3.3,3.3-3.3h26
				C155.2,329.3,156.7,330.8,156.7,332.6L156.7,332.6z"/>
		</g>
		<g>
			<path fill="#FFFFFF" d="M154.7,309.8c0,0.4-0.3,0.7-0.7,0.7l0,0c-0.4,0-0.7-0.3-0.7-0.7v-22.1c0-0.4,0.3-0.7,0.7-0.7l0,0
				c0.4,0,0.7,0.3,0.7,0.7V309.8z"/>
		</g>
		<g>
			<circle fill="#F9CECF" cx="154.2" cy="310.3" r="2.5"/>
		</g>
		<g>
			<polygon fill="#F8C7C3" points="170.4,298.5 110.6,298.5 122.3,257.7 159.6,257.7 			"/>
		</g>
	</g>
	<g>
		<g>
			<path fill="#464442" d="M15.9,181.9c0,1.7-1.4,3.1-3.1,3.1l0,0c-1.7,0-3.1-1.4-3.1-3.1v-14.2c0-1.7,1.4-3.1,3.1-3.1l0,0
				c1.7,0,3.1,1.4,3.1,3.1V181.9z"/>
		</g>
		<g>
			<path fill="#464442" d="M60,181.8c0,1.7-1.4,3.1-3.1,3.1l0,0c-1.7,0-3.1-1.4-3.1-3.1v-14.2c0-1.7,1.4-3.1,3.1-3.1l0,0
				c1.7,0,3.1,1.4,3.1,3.1V181.8z"/>
		</g>
		<g>
			<path fill="#FFFFFF" d="M51.1,155.5c0,1.8-1.5,3.2-3.2,3.2H21.3c-1.8,0-3.2-1.5-3.2-3.2v-4.6c0-1.8,1.5-3.2,3.2-3.2h26.6
				c1.8,0,3.2,1.5,3.2,3.2V155.5z"/>
		</g>
		<g>
			<path fill="#F8C7C3" d="M51.1,141.9c0,1.8-1.5,3.2-3.2,3.2H21.3c-1.8,0-3.2-1.5-3.2-3.2v-19.4c0-1.8,1.5-3.2,3.2-3.2h26.6
				c1.8,0,3.2,1.5,3.2,3.2V141.9z"/>
		</g>
		<g>
			<rect x="5.5" y="147.3" fill="#F8C7C3" width="10.5" height="23.9"/>
		</g>
		<g>
			<rect x="53.8" y="146.4" fill="#F8C7C3" width="10.5" height="23.9"/>
		</g>
		<g>
			<rect x="5.5" y="160.7" fill="#F8C7C3" width="58.8" height="15"/>
		</g>
		<g>
			<circle fill="#F8C7C3" cx="8" cy="146.4" r="8"/>
		</g>
		<g>
			<path fill="#F8C7C3" d="M69.9,147.3c0,4.4-3.6,8-8,8c-4.4,0-8-3.6-8-8c0-4.4,3.6-8,8-8C66.3,139.3,69.9,142.9,69.9,147.3z"/>
		</g>
	</g>
</g>
</svg>
