<?xml version="1.0" encoding="utf-8"?>
<!-- Generator: Adobe Illustrator 18.1.1, SVG Export Plug-In . SVG Version: 6.00 Build 0)  -->
<svg version="1.1" id="레이어_1" xmlns="http://www.w3.org/2000/svg" xmlns:xlink="http://www.w3.org/1999/xlink" x="0px"
	 y="0px" viewBox="0 0 149.7 163.3" enable-background="new 0 0 149.7 163.3" xml:space="preserve">
<g id="character_1_">
	<g>
		<path fill="#F9CBB5" d="M68.7,106.5c-0.8-0.1-1.6,0.6-1.7,1.4c-0.1,0.9,0.6,1.6,1.4,1.7c0.9,0.1,1.7,0.1,2.4,0.1
			c3.3,0,5.6-0.7,7-2.3c2.9-3,2.2-8.2,1.2-16c-0.2-1.8-0.5-3.8-0.7-5.9c-0.1-0.9-0.8-1.5-1.7-1.4c-0.9,0.1-1.5,0.9-1.4,1.7
			c0.2,2.1,0.5,4.1,0.7,6c0.9,6.7,1.5,11.5-0.4,13.5C74.6,106.4,72.3,106.8,68.7,106.5z M58.6,67.6c-3.4-1.2-17-4.6-24.5,1.8
			c-0.7,0.6-0.7,1.5-0.2,2.2c0.3,0.4,0.7,0.5,1.2,0.5c0.4,0,0.7-0.1,1-0.4c6.7-5.7,20.2-1.6,21.5-1.2c0.1,0,0.2,0.1,0.3,0.1
			c0.7,0.2,1.5-0.2,1.8-0.8c0.3-0.7,0.1-1.5-0.4-1.9c-0.1,0-0.3-0.1-0.6-0.3l0,0C58.7,67.6,58.6,67.6,58.6,67.6z M145.6,131
			c-2.2-6-4.9-13.3-6.7-21.8c0.2-0.2,0.3-0.4,0.4-0.7c0.7-3.5,1.4-6.9,2.1-10.1c4.4-20.7,7.6-35.6-3.7-52.9c-1.2-1.9-2.5-3.9-3.8-6
			C126,26.5,117,12,99,4.8C79.9-2.8,60.3-1.4,40.9,9c-0.6,0.3-0.9,1-0.8,1.7c-0.5,1-0.7,2.5-0.7,4.2c-17,15.9-21.3,46.3-23,67.9
			c-0.9,10.6-5.3,21.9-9.2,31.9c-5.4,14-10.1,26-5.1,33.9c3,4.7,9.3,7.3,19,7.9c2.6,0.2,5,1.4,7.5,2.6c1.9,0.9,3.8,1.9,5.9,2.5
			c1.8,0.5,4.3,0.8,7,0.8c4.2,0,8.9-0.9,12.2-3.4c3-2.3,4.5-5.6,4.5-9.8c0-0.9-0.7-1.6-1.6-1.6s-1.6,0.7-1.6,1.6
			c0,3.2-1.1,5.6-3.3,7.3c-4.5,3.5-12.5,3.1-16.5,2c-1.8-0.5-3.5-1.3-5.3-2.3c-2.7-1.3-5.4-2.7-8.7-2.9c-8.7-0.6-14.2-2.7-16.6-6.5
			c-4.2-6.5,0.2-17.9,5.4-31.1c4-10.2,8.5-21.7,9.4-32.8c1.6-20.2,5.5-48.3,20.1-64c0.5,4.7,1.7,10.2,2.7,14.2
			c0.2,0.8,1.1,1.3,1.9,1.1c0.8-0.2,1.3-1,1.1-1.9c-2.5-9.9-3.3-18.3-2.6-20.4c0.5,0.4,1.8,1.5,4.2,5.2c1.7,2.6,3.3,5.9,5.2,9.8
			c6.6,13.6,15.6,31.8,37.5,43.2c-2.2,0.2-4.4,0.7-6.3,2.1C82.6,73,82.5,74,83,74.7c0.3,0.4,0.8,0.6,1.3,0.6c0.3,0,0.6-0.1,0.9-0.3
			c3.3-2.4,9.2-1.4,11.4-1c0.4,0.1,0.7,0.1,0.9,0.1c0.1,0,0.2,0,0.4,0c6,2.3,12.8,4.2,20.6,5.4c0,0.1,0,0.2,0,0.3
			c0,0,0.7,3-0.8,12.2c-2.8,18-7.1,28.9-23.9,42.1c-20.2,15.9-23.3,15.4-47.5-7.2c-14.9-13.9-15.8-33.4-16.4-46.3
			c-0.1-2.3-0.2-4.4-0.4-6.2c-1.4-15.1,5.1-30.1,11.6-39.2c0.5-0.7,0.3-1.7-0.4-2.2c-0.7-0.5-1.7-0.3-2.2,0.4
			C31.8,43,25,58.9,26.5,74.8c0.2,1.8,0.3,3.9,0.4,6.1c0.2,4.4,0.5,9.6,1.2,15c-0.1,0-0.3,0-0.4,0c-0.7,0-3.2,0.3-3.3,4.5
			c0,1.4,0.2,2.9,0.6,4.2c0.7,2.2,1.7,2.6,2.5,2.7h0c1,0,1.9-0.7,2.4-1.8c2.3,8.4,6.5,16.8,14.2,24c13.9,13,21.5,19,29.2,19
			c6.3,0,12.6-4.1,22.3-11.7c12.2-9.6,18.2-18.3,21.6-28.9c0.5,1.8,1.6,2.9,2.9,2.9c1.9,0,3.2-2.4,3.2-5.6c0-0.6-0.1-1.2-0.2-1.8
			c0.8-0.7,1.7-1.6,2.4-2.6c1.8-2.5,5.4-9.3,2.3-19.9c1.4,0.1,2.7,0.2,4.2,0.3c0,0,0.1,0,0.1,0c0.8,0,1.5-0.6,1.6-1.5
			c0-0.9-0.6-1.6-1.5-1.6c-53.5-2.9-67.9-32.5-77.5-52c-1.9-3.9-3.6-7.3-5.3-10.1c-1.7-2.6-3.1-4.4-4.3-5.5
			c17.6-8.6,35.3-9.5,52.6-2.6c17,6.8,25.7,20.9,33.5,33.3c1.3,2.1,2.6,4.1,3.8,6.1c10.6,16.2,7.7,29.9,3.2,50.6
			c-0.2,1.2-0.5,2.4-0.8,3.5c-0.6-4.9-0.8-10.3-0.5-16c0.1-0.9-0.6-1.6-1.5-1.6c-0.9-0.1-1.6,0.6-1.6,1.5
			c-1.2,20.5,4.5,35.9,8.7,47.1c3,8.1,5.2,13.9,3,17.2c-1.9,2.9-7.3,4.5-17.1,5.1c-3,0.2-5.5,1.5-7.9,2.8c-1.2,0.7-2.4,1.3-3.6,1.7
			c-4.2,1.6-13.3,2-18.5-1.6c-2.9-2-4.3-4.9-4.3-8.7c0-0.9-0.7-1.6-1.6-1.6c-0.9,0-1.6,0.7-1.6,1.6c0,4.9,2,8.8,5.7,11.3
			c3.5,2.4,8.2,3.3,12.5,3.3c3.5,0,6.7-0.6,8.9-1.4c1.4-0.5,2.7-1.2,4-1.9c2.2-1.2,4.2-2.3,6.6-2.4c11.2-0.7,17-2.7,19.6-6.5
			C151.4,146.4,149,140,145.6,131z M120.8,92.6c1.2-7.4,1.1-11,0.9-12.6c1,0.1,2,0.2,3,0.4c3.3,10,0.1,16.2-1.5,18.5
			c-0.4,0.5-0.8,1-1.2,1.4c-0.5-0.5-1.1-0.8-1.8-0.8c-0.2,0-0.5,0-0.7,0.1C120,97.3,120.4,95,120.8,92.6z M97,85.8
			c2.5,0,4.5-1.9,4.5-4.2c0-2.3-2-4.2-4.5-4.2c-2.5,0-4.5,1.9-4.5,4.2C92.5,84,94.5,85.8,97,85.8z M57.9,115.2
			c-0.4,0.8-0.1,1.7,0.6,2.1c3.4,1.9,8,3.8,14.2,3.8c4.4,0,9.6-1,15.8-3.8c0.8-0.4,1.1-1.3,0.8-2.1c-0.4-0.8-1.3-1.1-2.1-0.8
			c-13.3,6-21.5,3.2-27.1,0.1C59.3,114.1,58.3,114.4,57.9,115.2z M44.2,79.6c0,2.3,2,4.2,4.5,4.2c2.5,0,4.5-1.9,4.5-4.2
			c0-2.3-2-4.2-4.5-4.2C46.2,75.4,44.2,77.3,44.2,79.6z M77.7,124.4c-2.4,0.5-5.3,0.5-8.3,0c-0.8-0.1-1.7,0.4-1.8,1.3
			c-0.1,0.8,0.4,1.6,1.3,1.8c1.6,0.3,3.3,0.4,4.9,0.4c1.6,0,3.1-0.1,4.5-0.4c0.8-0.2,1.4-1,1.2-1.8
			C79.4,124.8,78.6,124.3,77.7,124.4z"/>
	</g>
</g>
</svg>
